<svg width="1212" height="806" viewBox="0 0 1212 806" fill="none" xmlns="http://www.w3.org/2000/svg">
<g filter="url(#filter0_d_20338_12511)">
<rect x="6" y="4" width="1200" height="795" rx="16" fill="white" shape-rendering="crispEdges"/>
<path d="M649.652 561.896L653.78 566.04L657.908 561.88L659.06 563.064L654.932 567.192L659.044 571.304L657.892 572.456L653.78 568.344L649.636 572.472L648.516 571.336L652.628 567.192L648.5 563.064L649.652 561.896ZM653.812 563.4C653.268 563.4 652.9 563.016 652.9 562.488C652.9 561.96 653.268 561.576 653.812 561.576C654.34 561.576 654.708 561.96 654.708 562.488C654.708 563.016 654.34 563.4 653.812 563.4ZM653.812 572.664C653.268 572.664 652.9 572.28 652.9 571.752C652.9 571.224 653.268 570.84 653.812 570.84C654.34 570.84 654.708 571.224 654.708 571.752C654.708 572.28 654.34 572.664 653.812 572.664ZM649.348 568.04C648.82 568.04 648.436 567.656 648.436 567.128C648.436 566.6 648.82 566.216 649.348 566.216C649.876 566.216 650.26 566.6 650.26 567.128C650.26 567.656 649.876 568.04 649.348 568.04ZM658.292 568.04C657.764 568.04 657.38 567.656 657.38 567.128C657.38 566.6 657.764 566.216 658.292 566.216C658.82 566.216 659.204 566.6 659.204 567.128C659.204 567.656 658.82 568.04 658.292 568.04ZM669.886 561.016C672.11 561.016 673.758 562.456 673.758 564.472C673.758 566.504 672.11 567.928 669.886 567.928C667.646 567.928 665.998 566.504 665.998 564.472C665.998 562.456 667.646 561.016 669.886 561.016ZM669.886 562.536C668.638 562.536 667.71 563.272 667.71 564.472C667.71 565.656 668.638 566.424 669.886 566.424C671.118 566.424 672.046 565.656 672.046 564.472C672.046 563.272 671.118 562.536 669.886 562.536ZM675.31 560.024H677.054V574.312H675.31V560.024ZM665.358 569.896C667.886 569.896 671.438 569.88 674.462 569.416L674.59 570.696C671.47 571.304 668.062 571.336 665.566 571.336L665.358 569.896ZM689.358 560.04H691.118V567.24H689.358V566.024H685.982V564.68H689.358V563.272H686.158C685.278 565.448 683.198 566.856 680.062 567.56L679.486 566.152C682.814 565.432 684.446 563.944 684.67 562.056H680.254V560.648H686.622C686.622 561.096 686.59 561.528 686.526 561.944H689.358V560.04ZM681.806 567.816H691.118V571.576H683.582V572.76H691.47V574.152H681.838V570.248H689.358V569.192H681.806V567.816ZM706.982 560.04H708.742V574.28H706.982V560.04ZM704.534 561.528C704.534 565.8 702.918 569.384 697.958 571.784L697.046 570.392C700.742 568.616 702.422 566.2 702.726 562.952H697.75V561.528H704.534ZM712.118 560.696H722.662V562.104H718.598C718.774 563.448 720.454 564.728 723.174 565.032L722.518 566.44C719.99 566.12 718.134 564.984 717.382 563.464C716.63 564.984 714.774 566.12 712.246 566.44L711.59 565.032C714.31 564.728 715.99 563.432 716.166 562.104H712.118V560.696ZM710.934 567.24H723.83V568.648H718.406V571.24H716.646V568.648H710.934V567.24ZM712.486 569.944H714.246V572.616H722.406V574.024H712.486V569.944Z" fill="#3F3F46"/>
<path d="M654.58 593.976H657.316V590.136H658.708V600.424H657.316V595.112H654.58V593.976ZM649.668 599.544H651.06V602.776H659.092V603.896H649.668V599.544ZM647.54 591.24H655.076V592.376H652.036V592.984C652.036 594.776 653.364 596.552 655.428 597.272L654.724 598.36C653.156 597.784 651.972 596.632 651.364 595.208C650.756 596.792 649.524 598.072 647.844 598.68L647.124 597.576C649.236 596.84 650.644 594.968 650.644 593V592.376H647.54V591.24ZM661.668 590.968H668.02V594.92H663.076V596.84C665.524 596.84 667.284 596.744 669.364 596.376L669.492 597.528C667.316 597.896 665.444 597.976 662.82 597.976H661.7V593.848H666.66V592.088H661.668V590.968ZM670.66 590.136H672.052V592.344H674.1V593.48H672.052V595.288H674.1V596.44H672.052V598.696H670.66V590.136ZM662.868 599.416H672.052V604.216H670.66V600.552H662.868V599.416ZM682.613 593.752H685.269V590.136H686.661V598.536H685.269V594.904H682.613V593.752ZM675.509 591.064H683.045V592.2H679.989V592.664C679.989 594.456 681.317 596.2 683.397 596.92L682.677 598.024C681.109 597.448 679.941 596.296 679.333 594.872C678.725 596.472 677.477 597.736 675.813 598.328L675.093 597.24C677.205 596.504 678.597 594.632 678.597 592.664V592.2H675.509V591.064ZM677.253 599.288H686.661V604.216H685.269V600.424H677.253V599.288ZM699.213 598.92C702.093 598.92 703.853 599.896 703.853 601.56C703.853 603.24 702.093 604.2 699.213 604.2C696.333 604.2 694.557 603.24 694.557 601.56C694.557 599.896 696.333 598.92 699.213 598.92ZM699.213 600.04C697.149 600.04 695.917 600.6 695.917 601.56C695.917 602.536 697.149 603.096 699.213 603.096C701.245 603.096 702.477 602.536 702.477 601.56C702.477 600.6 701.245 600.04 699.213 600.04ZM702.317 590.136H703.709V593.64H705.757V594.792H703.709V598.568H702.317V590.136ZM693.325 591.016H694.701V593.08H698.509V591.016H699.869V597.528H693.325V591.016ZM694.701 594.184V596.424H698.509V594.184H694.701ZM716.285 590.136H717.677V592.504H719.693V593.64H717.677V595.512H719.693V596.648H717.677V599.176H716.285V590.136ZM713.245 599.304C716.093 599.304 717.837 600.2 717.837 601.736C717.837 603.272 716.093 604.184 713.245 604.184C710.381 604.184 708.621 603.272 708.621 601.736C708.621 600.2 710.381 599.304 713.245 599.304ZM713.245 600.36C711.229 600.36 710.013 600.856 710.013 601.736C710.013 602.632 711.229 603.128 713.245 603.128C715.277 603.128 716.477 602.632 716.477 601.736C716.477 600.856 715.277 600.36 713.245 600.36ZM706.765 591.688H710.237V590.008H711.613V591.688H715.085V592.792H706.765V591.688ZM710.925 593.464C712.941 593.464 714.301 594.44 714.301 595.944C714.301 597.464 712.941 598.44 710.925 598.44C708.909 598.44 707.549 597.464 707.549 595.944C707.549 594.44 708.909 593.464 710.925 593.464ZM710.925 594.504C709.693 594.504 708.861 595.064 708.861 595.944C708.861 596.84 709.693 597.4 710.925 597.4C712.141 597.4 712.973 596.84 712.973 595.944C712.973 595.064 712.141 594.504 710.925 594.504ZM724.221 590.92H725.597V592.28C725.597 594.264 726.909 596.024 728.989 596.728L728.237 597.816C726.717 597.24 725.565 596.136 724.957 594.712C724.349 596.344 723.101 597.608 721.405 598.232L720.685 597.112C722.861 596.344 724.221 594.472 724.221 592.328V590.92ZM730.909 590.136H732.301V598.44H730.909V594.2H727.917V593.048H730.909V590.136ZM727.661 598.856C730.573 598.856 732.365 599.832 732.365 601.528C732.365 603.224 730.573 604.184 727.661 604.184C724.733 604.184 722.941 603.224 722.941 601.528C722.941 599.832 724.733 598.856 727.661 598.856ZM727.661 599.944C725.565 599.944 724.333 600.52 724.333 601.528C724.333 602.52 725.565 603.096 727.661 603.096C729.741 603.096 730.989 602.52 730.989 601.528C730.989 600.52 729.741 599.944 727.661 599.944ZM736.686 601.704L735.742 604.904H734.75L735.278 601.704H736.686ZM747.69 597.192C749.066 597.192 750.026 596.248 750.026 594.872C750.026 593.496 749.066 592.584 747.69 592.584H744.986V597.192H747.69ZM751.898 603.048H750.298L747.114 598.376H744.986V603.048H743.642V591.4H747.738C749.866 591.4 751.354 592.84 751.354 594.888C751.37 596.472 750.33 597.816 748.634 598.248L751.898 603.048ZM764.274 603.032H762.402L761.33 601.832C760.514 602.616 759.458 603.192 758.114 603.192C754.642 603.192 754.434 600.312 754.434 599.88C754.434 599.464 754.642 597.608 756.498 596.488C755.906 595.896 755.25 595.208 755.25 594.088C755.25 593.016 756.146 591.352 758.114 591.352C760.018 591.352 761.01 592.904 761.01 594.088C761.01 595.288 760.162 596.12 758.77 596.888L761.298 599.72C761.714 599.096 762.082 598.392 762.402 597.768L763.618 598.424C763.266 599.096 762.834 599.96 762.242 600.776L764.274 603.032ZM755.81 599.88C755.81 600.232 755.938 601.816 758.114 601.816C759.042 601.816 759.794 601.4 760.418 600.808L757.49 597.528C755.97 598.264 755.81 599.56 755.81 599.88ZM756.626 594.088C756.626 594.76 757.234 595.176 757.842 595.832C759.122 595.208 759.634 594.744 759.634 594.088C759.634 593.432 759.186 592.728 758.114 592.728C757.026 592.728 756.626 593.464 756.626 594.088ZM771.71 603.176C768.334 603.176 765.966 600.712 765.966 597.224C765.966 593.72 768.334 591.272 771.71 591.272C773.31 591.272 774.734 591.96 775.774 593.016L774.878 593.816C774.094 592.968 772.926 592.456 771.71 592.456C769.118 592.456 767.326 594.408 767.326 597.224C767.326 600.04 769.118 601.992 771.71 601.992C772.958 601.992 774.062 601.464 774.83 600.648L775.774 601.432C774.734 602.488 773.326 603.176 771.71 603.176ZM790.394 590.136H791.786V594.36H793.818V595.512H791.786V599.592H790.394V590.136ZM780.746 598.104C781.85 598.104 783.146 598.104 784.474 598.056V597.064C782.858 596.904 781.85 596.152 781.85 595C781.85 593.704 783.146 592.92 785.13 592.92C787.146 592.92 788.442 593.704 788.442 595C788.442 596.136 787.45 596.888 785.834 597.064V598.008C787.114 597.944 788.394 597.832 789.594 597.656L789.706 598.648C786.698 599.192 783.386 599.208 780.938 599.208L780.746 598.104ZM782.49 600.28H791.786V604.216H790.394V601.384H782.49V600.28ZM781.114 591.368H784.474V590.008H785.834V591.368H789.178V592.408H781.114V591.368ZM785.13 593.864C783.93 593.864 783.162 594.296 783.162 595C783.162 595.688 783.93 596.152 785.13 596.152C786.362 596.152 787.13 595.688 787.13 595C787.13 594.296 786.362 593.864 785.13 593.864ZM794.827 601.272H800.491V598.312H796.315V591.096H797.691V593.56H804.699V591.096H806.075V598.312H801.867V601.272H807.579V602.424H794.827V601.272ZM797.691 594.68V597.192H804.699V594.68H797.691ZM815.275 598.92C818.155 598.92 819.915 599.896 819.915 601.56C819.915 603.24 818.155 604.2 815.275 604.2C812.395 604.2 810.619 603.24 810.619 601.56C810.619 599.896 812.395 598.92 815.275 598.92ZM815.275 600.04C813.211 600.04 811.979 600.6 811.979 601.56C811.979 602.536 813.211 603.096 815.275 603.096C817.307 603.096 818.539 602.536 818.539 601.56C818.539 600.6 817.307 600.04 815.275 600.04ZM818.379 590.136H819.771V593.64H821.819V594.792H819.771V598.568H818.379V590.136ZM809.387 591.016H810.763V593.08H814.571V591.016H815.931V597.528H809.387V591.016ZM810.763 594.184V596.424H814.571V594.184H810.763ZM832.348 590.12H833.74V594.36H835.804V595.512H833.74V600.472H832.348V590.12ZM824.94 599.416H826.316V602.776H834.364V603.896H824.94V599.416ZM826.732 591.096C828.844 591.096 830.428 592.536 830.428 594.584C830.428 596.632 828.844 598.072 826.732 598.072C824.62 598.072 823.036 596.632 823.036 594.584C823.036 592.536 824.62 591.096 826.732 591.096ZM826.732 592.312C825.404 592.312 824.396 593.24 824.396 594.584C824.396 595.928 825.404 596.856 826.732 596.856C828.06 596.856 829.084 595.928 829.084 594.584C829.084 593.24 828.06 592.312 826.732 592.312ZM838.764 601.704L837.82 604.904H836.828L837.356 601.704H838.764ZM855.464 591.4L851.304 603.048H849.816L845.432 591.4H846.856L850.552 601.192L854.04 591.4H855.464ZM859.401 603.144C857.337 603.144 855.865 601.576 855.865 599.384C855.865 597.176 857.337 595.608 859.401 595.608C860.201 595.608 861.081 596.008 861.721 596.872V595.592H863.049V603.048H861.721V601.848C861.065 602.792 860.201 603.144 859.401 603.144ZM859.449 601.976C860.649 601.976 861.721 600.888 861.737 599.384C861.721 597.88 860.649 596.776 859.449 596.776C858.121 596.776 857.193 597.832 857.193 599.384C857.193 600.904 858.121 601.976 859.449 601.976ZM865.197 591.752H866.525V603.048H865.197V591.752ZM870.169 599.928C870.169 601.112 870.889 601.976 871.929 601.976C873.113 601.976 873.929 601.224 873.929 600.04V595.592H875.273V603.048H873.929V602.104C873.433 602.744 872.601 603.16 871.849 603.16C870.089 603.16 868.825 601.832 868.825 600.04V595.592H870.169V599.928ZM880.776 603.144C878.712 603.144 877.24 601.576 877.24 599.384C877.24 597.176 878.712 595.608 880.776 595.608C881.576 595.608 882.456 596.008 883.096 596.872V595.592H884.424V603.048H883.096V601.848C882.44 602.792 881.576 603.144 880.776 603.144ZM880.824 601.976C882.024 601.976 883.096 600.888 883.112 599.384C883.096 597.88 882.024 596.776 880.824 596.776C879.496 596.776 878.568 597.832 878.568 599.384C878.568 600.904 879.496 601.976 880.824 601.976ZM887.315 603.048V596.76H885.955V595.576H887.315V593H888.659V595.576H890.419V596.76H888.659V603.048H887.315ZM892.109 595.576H893.437V603.048H892.109V595.576ZM892.781 591.88C893.245 591.88 893.581 592.216 893.581 592.68C893.581 593.16 893.245 593.496 892.781 593.496C892.301 593.496 891.965 593.16 891.965 592.68C891.965 592.216 892.301 591.88 892.781 591.88ZM899.089 601.96C900.417 601.96 901.329 600.904 901.329 599.368C901.329 597.832 900.417 596.76 899.089 596.76C897.777 596.76 896.865 597.816 896.865 599.368C896.865 600.92 897.761 601.96 899.089 601.96ZM899.089 595.576C901.185 595.576 902.673 597.16 902.673 599.368C902.673 601.56 901.185 603.144 899.089 603.144C897.009 603.144 895.537 601.56 895.537 599.368C895.537 597.16 897.009 595.576 899.089 595.576ZM909.57 598.76C909.57 597.56 908.866 596.776 907.81 596.776C906.626 596.776 905.794 597.688 905.794 598.76V603.048H904.466V595.592H905.794V596.68C906.306 596.04 907.138 595.592 907.874 595.592C909.506 595.592 910.898 596.712 910.898 598.664V603.048H909.57V598.76ZM914.545 601.704L913.601 604.904H912.609L913.137 601.704H914.545ZM926.461 600.76L922.829 594.04V603.048H921.485V591.4H922.877L927.101 599.128L931.325 591.4H932.717V603.048H931.389V594.04L927.725 600.76H926.461ZM935.39 595.576H936.718V603.048H935.39V595.576ZM936.062 591.88C936.526 591.88 936.862 592.216 936.862 592.68C936.862 593.16 936.526 593.496 936.062 593.496C935.582 593.496 935.246 593.16 935.246 592.68C935.246 592.216 935.582 591.88 936.062 591.88ZM938.994 591.752H940.322V603.048H938.994V591.752ZM945.574 603.112C943.478 603.112 942.006 601.544 942.006 599.352C942.006 597.144 943.478 595.592 945.574 595.592C947.878 595.592 948.582 597.448 948.646 597.624C949.094 598.776 948.95 599.88 948.95 599.928H943.35C943.542 601.112 944.47 601.944 945.574 601.944C947.046 601.944 947.59 601.016 947.702 600.84L948.758 601.384C948.39 602.216 947.334 603.112 945.574 603.112ZM947.654 598.776C947.51 597.64 946.95 596.76 945.574 596.76C944.438 596.76 943.542 597.592 943.35 598.792L947.654 598.776ZM951.578 600.664C951.994 601.56 952.874 601.944 953.434 601.944C954.33 601.944 954.97 601.56 954.97 600.92C954.97 600.312 954.138 600.072 953.306 599.784C952.282 599.432 950.842 598.984 950.842 597.56C950.842 596.296 952.01 595.512 953.498 595.512C954.378 595.512 955.786 596.024 956.138 597.352L954.97 597.752C954.73 596.872 953.93 596.696 953.498 596.696C952.73 596.696 952.17 597.016 952.17 597.56C952.17 598.168 952.938 598.376 953.834 598.68C954.906 599.048 956.298 599.496 956.298 600.92C956.298 602.248 955.082 603.112 953.434 603.112C952.298 603.112 951.114 602.472 950.506 601.304L951.578 600.664ZM958.987 603.048V596.76H957.627V595.576H958.987V593H960.331V595.576H962.091V596.76H960.331V603.048H958.987ZM966.698 601.96C968.026 601.96 968.938 600.904 968.938 599.368C968.938 597.832 968.026 596.76 966.698 596.76C965.386 596.76 964.474 597.816 964.474 599.368C964.474 600.92 965.37 601.96 966.698 601.96ZM966.698 595.576C968.794 595.576 970.282 597.16 970.282 599.368C970.282 601.56 968.794 603.144 966.698 603.144C964.618 603.144 963.146 601.56 963.146 599.368C963.146 597.16 964.618 595.576 966.698 595.576ZM977.179 598.76C977.179 597.56 976.475 596.776 975.419 596.776C974.235 596.776 973.403 597.688 973.403 598.76V603.048H972.075V595.592H973.403V596.68C973.915 596.04 974.747 595.592 975.483 595.592C977.115 595.592 978.507 596.712 978.507 598.664V603.048H977.179V598.76ZM983.886 603.112C981.79 603.112 980.318 601.544 980.318 599.352C980.318 597.144 981.79 595.592 983.886 595.592C986.19 595.592 986.894 597.448 986.958 597.624C987.406 598.776 987.262 599.88 987.262 599.928H981.662C981.854 601.112 982.782 601.944 983.886 601.944C985.358 601.944 985.902 601.016 986.014 600.84L987.07 601.384C986.702 602.216 985.646 603.112 983.886 603.112ZM985.966 598.776C985.822 597.64 985.262 596.76 983.886 596.76C982.75 596.76 981.854 597.592 981.662 598.792L985.966 598.776ZM990.811 601.704L989.867 604.904H988.875L989.403 601.704H990.811ZM647.108 624.12H659.844V625.256H654.132V630.216H652.756V625.256H647.108V624.12ZM648.292 616.984H658.612V618.104H654.244V618.12C654.244 619.912 656.548 621.528 659.108 621.88L658.58 623C656.356 622.632 654.324 621.464 653.476 619.816C652.612 621.464 650.596 622.632 648.372 623L647.844 621.88C650.404 621.528 652.692 619.912 652.692 618.12V618.104H648.292V616.984ZM661.092 627.272H664.18V623.528C663.012 622.888 662.308 621.896 662.308 620.616C662.308 618.408 664.468 616.984 667.444 616.984C670.452 616.984 672.58 618.408 672.58 620.616C672.58 621.88 671.892 622.872 670.756 623.496V627.272H673.844V628.408H661.092V627.272ZM667.444 618.072C665.236 618.072 663.668 619.08 663.668 620.616C663.668 622.168 665.236 623.16 667.444 623.16C669.668 623.16 671.236 622.168 671.236 620.616C671.236 619.08 669.668 618.072 667.444 618.072ZM665.556 627.272H669.364V624.024C668.788 624.168 668.132 624.248 667.444 624.248C666.772 624.248 666.132 624.168 665.556 624.04V627.272ZM679.532 617.4H680.876V629.048H679.532V617.4ZM684.234 626.664C684.65 627.56 685.53 627.944 686.09 627.944C686.986 627.944 687.626 627.56 687.626 626.92C687.626 626.312 686.794 626.072 685.962 625.784C684.938 625.432 683.498 624.984 683.498 623.56C683.498 622.296 684.666 621.512 686.154 621.512C687.034 621.512 688.442 622.024 688.794 623.352L687.626 623.752C687.386 622.872 686.586 622.696 686.154 622.696C685.386 622.696 684.826 623.016 684.826 623.56C684.826 624.168 685.594 624.376 686.49 624.68C687.562 625.048 688.954 625.496 688.954 626.92C688.954 628.248 687.738 629.112 686.09 629.112C684.954 629.112 683.77 628.472 683.162 627.304L684.234 626.664ZM691.375 626.664C691.791 627.56 692.671 627.944 693.231 627.944C694.127 627.944 694.767 627.56 694.767 626.92C694.767 626.312 693.935 626.072 693.103 625.784C692.079 625.432 690.639 624.984 690.639 623.56C690.639 622.296 691.807 621.512 693.295 621.512C694.175 621.512 695.583 622.024 695.935 623.352L694.767 623.752C694.527 622.872 693.727 622.696 693.295 622.696C692.527 622.696 691.967 623.016 691.967 623.56C691.967 624.168 692.735 624.376 693.631 624.68C694.703 625.048 696.095 625.496 696.095 626.92C696.095 628.248 694.879 629.112 693.231 629.112C692.095 629.112 690.911 628.472 690.303 627.304L691.375 626.664ZM699.576 625.928C699.576 627.112 700.296 627.976 701.336 627.976C702.52 627.976 703.336 627.224 703.336 626.04V621.592H704.68V629.048H703.336V628.104C702.84 628.744 702.008 629.16 701.256 629.16C699.496 629.16 698.232 627.832 698.232 626.04V621.592H699.576V625.928ZM710.214 629.112C708.118 629.112 706.646 627.544 706.646 625.352C706.646 623.144 708.118 621.592 710.214 621.592C712.518 621.592 713.222 623.448 713.286 623.624C713.734 624.776 713.59 625.88 713.59 625.928H707.99C708.182 627.112 709.11 627.944 710.214 627.944C711.686 627.944 712.23 627.016 712.342 626.84L713.398 627.384C713.03 628.216 711.974 629.112 710.214 629.112ZM712.294 624.776C712.15 623.64 711.59 622.76 710.214 622.76C709.078 622.76 708.182 623.592 707.99 624.792L712.294 624.776ZM719.594 617.032H726.17V622.808H719.594V617.032ZM724.842 618.136H720.922V621.704H724.842V618.136ZM729.018 616.136H730.41V624.2H729.018V616.136ZM721.098 625.128H725.21V623.8H726.618V625.128H730.714V626.2H726.618C726.682 627.496 728.746 628.808 731.21 629.096L730.746 630.168C728.586 629.88 726.746 628.92 725.898 627.64C725.05 628.936 723.178 629.88 721.002 630.168L720.538 629.096C723.034 628.824 725.13 627.528 725.194 626.2H721.098V625.128ZM742.866 629.176C739.49 629.176 737.122 626.712 737.122 623.224C737.122 619.72 739.49 617.272 742.866 617.272C744.466 617.272 745.89 617.96 746.93 619.016L746.034 619.816C745.25 618.968 744.082 618.456 742.866 618.456C740.274 618.456 738.482 620.408 738.482 623.224C738.482 626.04 740.274 627.992 742.866 627.992C744.114 627.992 745.218 627.464 745.986 626.648L746.93 627.432C745.89 628.488 744.482 629.176 742.866 629.176ZM752.011 627.96C753.339 627.96 754.251 626.904 754.251 625.368C754.251 623.832 753.339 622.76 752.011 622.76C750.699 622.76 749.787 623.816 749.787 625.368C749.787 626.92 750.683 627.96 752.011 627.96ZM752.011 621.576C754.107 621.576 755.595 623.16 755.595 625.368C755.595 627.56 754.107 629.144 752.011 629.144C749.931 629.144 748.459 627.56 748.459 625.368C748.459 623.16 749.931 621.576 752.011 621.576ZM762.492 624.76C762.492 623.56 761.788 622.776 760.732 622.776C759.548 622.776 758.716 623.688 758.716 624.76V629.048H757.388V621.592H758.716V622.68C759.228 622.04 760.06 621.592 760.796 621.592C762.428 621.592 763.82 622.712 763.82 624.664V629.048H762.492V624.76ZM766.549 629.048V622.76H765.19V621.576H766.549V619H767.894V621.576H769.654V622.76H767.894V629.048H766.549ZM771.343 621.576H772.671V629.048H771.343V621.576ZM772.015 617.88C772.479 617.88 772.815 618.216 772.815 618.68C772.815 619.16 772.479 619.496 772.015 619.496C771.535 619.496 771.199 619.16 771.199 618.68C771.199 618.216 771.535 617.88 772.015 617.88ZM780.179 624.76C780.179 623.56 779.475 622.776 778.419 622.776C777.235 622.776 776.403 623.688 776.403 624.76V629.048H775.075V621.592H776.403V622.68C776.915 622.04 777.747 621.592 778.483 621.592C780.115 621.592 781.507 622.712 781.507 624.664V629.048H780.179V624.76ZM786.902 627.944C788.182 627.944 789.158 626.776 789.158 625.352C789.158 623.96 788.166 622.76 786.902 622.76C785.574 622.76 784.646 623.832 784.646 625.352C784.646 626.904 785.574 627.944 786.902 627.944ZM790.502 628.568C790.502 630.728 789.062 632.456 786.822 632.456C785.606 632.456 784.486 631.912 783.734 630.728L784.822 630.04C785.35 630.888 786.006 631.256 786.822 631.256C788.294 631.256 789.158 630.072 789.158 628.6V627.8C788.614 628.6 787.686 629.128 786.854 629.128C784.79 629.128 783.318 627.56 783.318 625.368C783.318 623.176 784.79 621.576 786.854 621.576C787.782 621.576 788.662 622.072 789.158 622.856V621.576H790.502V628.568ZM795.714 629.112C793.618 629.112 792.146 627.544 792.146 625.352C792.146 623.144 793.618 621.592 795.714 621.592C798.018 621.592 798.722 623.448 798.786 623.624C799.234 624.776 799.09 625.88 799.09 625.928H793.49C793.682 627.112 794.61 627.944 795.714 627.944C797.186 627.944 797.73 627.016 797.842 626.84L798.898 627.384C798.53 628.216 797.474 629.112 795.714 629.112ZM797.794 624.776C797.65 623.64 797.09 622.76 795.714 622.76C794.578 622.76 793.682 623.592 793.49 624.792L797.794 624.776ZM806.054 624.76C806.054 623.56 805.35 622.776 804.294 622.776C803.11 622.776 802.278 623.688 802.278 624.76V629.048H800.95V621.592H802.278V622.68C802.79 622.04 803.622 621.592 804.358 621.592C805.99 621.592 807.382 622.712 807.382 624.664V629.048H806.054V624.76ZM812.585 627.848C813.241 627.848 814.009 627.528 814.441 627.032L815.401 627.928C814.745 628.632 813.577 629.128 812.649 629.128C810.425 629.128 808.857 627.544 808.857 625.352C808.857 623.144 810.425 621.576 812.649 621.576C813.593 621.576 814.729 622.088 815.401 622.792L814.441 623.672C814.009 623.176 813.241 622.856 812.585 622.856C811.177 622.856 810.185 623.864 810.185 625.352C810.185 626.84 811.177 627.848 812.585 627.848ZM819.494 632.44H818.038L819.606 628.616L816.598 621.592H818.054L820.31 627.032L822.47 621.592H823.91L819.494 632.44ZM833.783 623.192C835.159 623.192 836.119 622.232 836.119 620.888C836.119 619.544 835.143 618.584 833.767 618.584H831.047L831.063 623.192H833.783ZM833.815 617.4C835.943 617.4 837.431 618.84 837.431 620.888C837.431 622.92 835.943 624.36 833.815 624.36H831.063V629.048H829.719V617.4H833.815ZM839.072 617.752H840.4V629.048H839.072V617.752ZM845.62 629.144C843.556 629.144 842.084 627.576 842.084 625.384C842.084 623.176 843.556 621.608 845.62 621.608C846.42 621.608 847.3 622.008 847.94 622.872V621.592H849.268V629.048H847.94V627.848C847.284 628.792 846.42 629.144 845.62 629.144ZM845.668 627.976C846.868 627.976 847.94 626.888 847.956 625.384C847.94 623.88 846.868 622.776 845.668 622.776C844.34 622.776 843.412 623.832 843.412 625.384C843.412 626.904 844.34 627.976 845.668 627.976ZM856.383 624.76C856.383 623.56 855.679 622.776 854.623 622.776C853.439 622.776 852.607 623.688 852.607 624.76V629.048H851.279V621.592H852.607V622.68C853.119 622.04 853.951 621.592 854.687 621.592C856.319 621.592 857.711 622.712 857.711 624.664V629.048H856.383V624.76ZM861.358 627.704L860.414 630.904H859.422L859.95 627.704H861.358ZM875.434 617.4V618.584H869.466V622.456H874.618V623.64H869.466V627.864H875.434V629.048H868.122V617.4H875.434ZM878.604 625.912C879.212 627.128 880.236 627.992 881.436 627.992C883.004 628.024 883.98 627.224 883.98 625.976C883.98 623 877.996 624.248 877.996 620.2C877.996 618.328 879.564 617.256 881.644 617.272C883.244 617.304 884.54 618.152 885.1 619.848L883.9 620.264C883.548 619.128 882.684 618.472 881.628 618.456C880.284 618.44 879.324 619.08 879.324 620.2C879.324 623.144 885.308 621.944 885.308 625.992C885.308 627.912 883.804 629.208 881.42 629.176C879.724 629.144 878.428 628.2 877.468 626.52L878.604 625.912ZM898.184 622.984L898.168 623.944C898.168 627.256 895.832 629.112 892.696 629.176C889.336 629.176 886.952 626.712 886.952 623.224C886.952 619.736 889.336 617.288 892.696 617.288C896.328 617.288 897.576 620.104 897.576 620.104L896.408 620.664C896.408 620.664 895.464 618.472 892.696 618.472C890.104 618.472 888.296 620.424 888.296 623.224C888.296 626.04 890.104 627.992 892.696 627.992C895.095 627.912 896.872 626.68 896.888 624.136H892.904V622.984H898.184ZM905.065 616.728L901.705 629.816H900.361L903.737 616.728H905.065ZM908.541 625.912C909.149 627.128 910.173 627.992 911.373 627.992C912.941 628.024 913.917 627.224 913.917 625.976C913.917 623 907.933 624.248 907.933 620.2C907.933 618.328 909.501 617.256 911.581 617.272C913.181 617.304 914.477 618.152 915.037 619.848L913.837 620.264C913.485 619.128 912.621 618.472 911.565 618.456C910.221 618.44 909.261 619.08 909.261 620.2C909.261 623.144 915.245 621.944 915.245 625.992C915.245 627.912 913.741 629.208 911.357 629.176C909.661 629.144 908.365 628.2 907.405 626.52L908.541 625.912ZM926.698 617.4L922.538 629.048H921.05L916.666 617.4H918.09L921.786 627.192L925.274 617.4H926.698ZM929.092 627.704L928.148 630.904H927.156L927.684 627.704H929.092ZM943.168 617.4V618.584H937.2V622.456H942.352V623.64H937.2V627.864H943.168V629.048H935.856V617.4H943.168ZM952.075 621.592L949.259 625.32L952.075 629.048H950.395L948.523 626.472L946.667 629.048H944.987L947.771 625.32L944.971 621.592H946.651L948.523 624.2L950.395 621.592H952.075ZM954.124 621.576H955.452V629.048H954.124V621.576ZM954.796 617.88C955.26 617.88 955.596 618.216 955.596 618.68C955.596 619.16 955.26 619.496 954.796 619.496C954.316 619.496 953.98 619.16 953.98 618.68C953.98 618.216 954.316 617.88 954.796 617.88ZM958.753 629.048V622.76H957.393V621.576H958.753V619H960.097V621.576H961.857V622.76H960.097V629.048H958.753ZM971.846 623.192C973.222 623.192 974.182 622.232 974.182 620.888C974.182 619.544 973.206 618.584 971.83 618.584H969.11L969.126 623.192H971.846ZM971.878 617.4C974.006 617.4 975.494 618.84 975.494 620.888C975.494 622.92 974.006 624.36 971.878 624.36H969.126V629.048H967.782V617.4H971.878ZM977.135 617.752H978.463V629.048H977.135V617.752ZM983.682 629.144C981.618 629.144 980.146 627.576 980.146 625.384C980.146 623.176 981.618 621.608 983.682 621.608C984.482 621.608 985.362 622.008 986.002 622.872V621.592H987.33V629.048H986.002V627.848C985.346 628.792 984.482 629.144 983.682 629.144ZM983.73 627.976C984.93 627.976 986.002 626.888 986.018 625.384C986.002 623.88 984.93 622.776 983.73 622.776C982.402 622.776 981.474 623.832 981.474 625.384C981.474 626.904 982.402 627.976 983.73 627.976ZM994.445 624.76C994.445 623.56 993.741 622.776 992.685 622.776C991.501 622.776 990.669 623.688 990.669 624.76V629.048H989.341V621.592H990.669V622.68C991.181 622.04 992.013 621.592 992.749 621.592C994.381 621.592 995.773 622.712 995.773 624.664V629.048H994.445V624.76ZM999.42 627.704L998.476 630.904H997.484L998.012 627.704H999.42ZM1015.78 616.12H1017.18V630.2H1015.78V616.12ZM1013.02 617.624C1013.02 621.736 1011.24 625.304 1006.49 627.608L1005.75 626.504C1009.5 624.712 1011.34 622.072 1011.61 618.76H1006.41V617.624H1013.02ZM1020.22 617.384H1026.76V618.536H1021.59V621.336H1026.47V622.44H1021.59V625.704C1024.01 625.704 1025.75 625.624 1027.8 625.272L1027.93 626.392C1025.77 626.776 1023.91 626.84 1021.32 626.84H1020.22V617.384ZM1029.06 616.136H1030.46V621.752H1032.73V622.904H1030.46V630.216H1029.06V616.136ZM1037.28 622.808H1050V623.944H1037.28V622.808ZM1038.88 616.664H1048.42V617.816H1040.24V620.392H1048.51V621.512H1038.88V616.664ZM1043.62 625.112C1046.62 625.112 1048.45 626.024 1048.45 627.64C1048.45 629.272 1046.62 630.2 1043.62 630.2C1040.59 630.2 1038.78 629.272 1038.78 627.64C1038.78 626.024 1040.59 625.112 1043.62 625.112ZM1043.62 626.184C1041.46 626.184 1040.18 626.728 1040.18 627.64C1040.18 628.6 1041.46 629.112 1043.62 629.112C1045.78 629.112 1047.04 628.6 1047.04 627.64C1047.04 626.728 1045.78 626.184 1043.62 626.184Z" fill="#3F3F46"/>
<path d="M649.652 659.896L653.78 664.04L657.908 659.88L659.06 661.064L654.932 665.192L659.044 669.304L657.892 670.456L653.78 666.344L649.636 670.472L648.516 669.336L652.628 665.192L648.5 661.064L649.652 659.896ZM653.812 661.4C653.268 661.4 652.9 661.016 652.9 660.488C652.9 659.96 653.268 659.576 653.812 659.576C654.34 659.576 654.708 659.96 654.708 660.488C654.708 661.016 654.34 661.4 653.812 661.4ZM653.812 670.664C653.268 670.664 652.9 670.28 652.9 669.752C652.9 669.224 653.268 668.84 653.812 668.84C654.34 668.84 654.708 669.224 654.708 669.752C654.708 670.28 654.34 670.664 653.812 670.664ZM649.348 666.04C648.82 666.04 648.436 665.656 648.436 665.128C648.436 664.6 648.82 664.216 649.348 664.216C649.876 664.216 650.26 664.6 650.26 665.128C650.26 665.656 649.876 666.04 649.348 666.04ZM658.292 666.04C657.764 666.04 657.38 665.656 657.38 665.128C657.38 664.6 657.764 664.216 658.292 664.216C658.82 664.216 659.204 664.6 659.204 665.128C659.204 665.656 658.82 666.04 658.292 666.04ZM665.294 666.568H678.19V668.008H672.622V672.312H670.846V668.008H665.294V666.568ZM666.958 658.664H676.654V660.056H668.686V661.304H676.35V662.664H668.686V663.976H676.814V665.384H666.958V658.664ZM679.534 659.448H687.31V660.904H684.35V662.088C684.35 664.28 685.662 666.808 687.886 667.848L686.91 669.24C685.31 668.472 684.142 666.952 683.502 665.192C682.862 667.128 681.646 668.792 680.014 669.592L679.006 668.2C681.23 667.128 682.606 664.456 682.606 662.088V660.904H679.534V659.448ZM688.59 658.056H690.366V663.608H692.526V665.064H690.366V672.296H688.59V658.056ZM701.574 658.648C703.718 658.648 705.27 659.88 705.27 661.656C705.27 663.4 703.718 664.648 701.574 664.648C699.446 664.648 697.878 663.4 697.878 661.656C697.878 659.88 699.446 658.648 701.574 658.648ZM701.574 660.088C700.422 660.088 699.574 660.68 699.574 661.656C699.574 662.616 700.422 663.208 701.574 663.208C702.742 663.208 703.59 662.616 703.59 661.656C703.59 660.68 702.742 660.088 701.574 660.088ZM707.014 658.04H708.774V672.296H707.014V658.04ZM696.966 665.624C699.51 665.624 703.062 665.608 706.134 665.128L706.246 666.424C705.014 666.664 703.75 666.808 702.518 666.904V671.848H700.758V667.016C699.462 667.064 698.246 667.08 697.174 667.08L696.966 665.624ZM721.03 658.04H722.79V668.856H721.03V667.592H718.278V666.376H721.03V658.04ZM712.742 667.816H714.502V670.6H723.126V672.008H712.742V667.816ZM710.87 664.456C713.478 664.44 716.966 664.408 719.99 664.04L720.086 665.288C718.934 665.48 717.718 665.608 716.534 665.688V668.424H714.774V665.784C713.462 665.848 712.198 665.864 711.094 665.864L710.87 664.456ZM715.462 658.568C717.558 658.568 718.998 659.576 718.998 661.08C718.998 662.616 717.558 663.608 715.462 663.608C713.382 663.608 711.926 662.616 711.926 661.08C711.926 659.576 713.382 658.568 715.462 658.568ZM715.462 659.848C714.374 659.848 713.606 660.296 713.606 661.08C713.606 661.864 714.374 662.312 715.462 662.312C716.582 662.312 717.318 661.864 717.318 661.08C717.318 660.296 716.582 659.848 715.462 659.848ZM734.935 658.056H736.679V672.296H734.935V658.056ZM724.999 668.344C726.103 668.344 727.367 668.344 728.695 668.312V666.984C727.111 666.728 726.087 665.752 726.087 664.392C726.087 662.792 727.495 661.736 729.575 661.736C731.639 661.736 733.079 662.792 733.079 664.392C733.079 665.752 732.039 666.728 730.455 666.984V668.248C731.703 668.184 732.951 668.088 734.135 667.928L734.247 669.192C731.127 669.768 727.767 669.784 725.207 669.784L724.999 668.344ZM725.271 659.688H728.695V658.088H730.455V659.688H733.879V661.064H725.271V659.688ZM729.575 663.064C728.503 663.064 727.751 663.56 727.751 664.392C727.751 665.224 728.503 665.72 729.575 665.72C730.663 665.72 731.399 665.224 731.399 664.392C731.399 663.56 730.663 663.064 729.575 663.064ZM742.59 665.464H748.143V664.392H744.239V658.44H753.951V659.784H745.983V660.728H753.615V662.04H745.983V663.048H754.047V664.392H749.903V665.464H755.455V666.856H742.59V665.464ZM749.023 667.672C752.127 667.672 753.935 668.456 753.935 669.976C753.935 671.48 752.127 672.28 749.023 672.28C745.887 672.28 744.095 671.48 744.095 669.976C744.095 668.456 745.887 667.672 749.023 667.672ZM749.023 668.952C746.927 668.952 745.871 669.288 745.871 669.976C745.871 670.664 746.927 670.984 749.023 670.984C751.102 670.984 752.175 670.664 752.175 669.976C752.175 669.288 751.102 668.952 749.023 668.952ZM757.199 659.512H764.479V660.52C764.479 661.832 764.479 663.592 764.079 666.056L762.351 665.912C762.703 663.768 762.751 662.152 762.751 660.92H757.199V659.512ZM759.183 663.592H760.911V667.816C762.367 667.752 763.839 667.672 765.183 667.496L765.279 668.776C762.367 669.256 759.119 669.32 756.639 669.32L756.447 667.88L759.183 667.864V663.592ZM765.919 658.04H767.663V663.864H769.727V665.32H767.663V672.28H765.919V658.04ZM784.279 658.04H786.039V672.28H784.279V658.04ZM781.831 659.528C781.831 663.8 780.215 667.384 775.255 669.784L774.343 668.392C778.039 666.616 779.719 664.2 780.023 660.952H775.047V659.528H781.831ZM789.415 658.696H799.959V660.104H795.895C796.071 661.448 797.751 662.728 800.471 663.032L799.815 664.44C797.287 664.12 795.431 662.984 794.679 661.464C793.927 662.984 792.071 664.12 789.543 664.44L788.887 663.032C791.607 662.728 793.287 661.432 793.463 660.104H789.415V658.696ZM788.231 665.24H801.127V666.648H795.703V669.24H793.943V666.648H788.231V665.24ZM789.783 667.944H791.543V670.616H799.703V672.024H789.783V667.944Z" fill="#3F3F46"/>
<path d="M654.58 691.976H657.316V688.136H658.708V698.424H657.316V693.112H654.58V691.976ZM649.668 697.544H651.06V700.776H659.092V701.896H649.668V697.544ZM647.54 689.24H655.076V690.376H652.036V690.984C652.036 692.776 653.364 694.552 655.428 695.272L654.724 696.36C653.156 695.784 651.972 694.632 651.364 693.208C650.756 694.792 649.524 696.072 647.844 696.68L647.124 695.576C649.236 694.84 650.644 692.968 650.644 691V690.376H647.54V689.24ZM666.82 693.656H668.9V688.44H670.196V701.496H668.9V694.792H666.82V693.656ZM661.348 690.696H663.892V688.616H665.22V690.696H667.748V691.832H665.22V692.456C665.22 694.68 666.292 696.968 668.196 698.008L667.412 699.048C666.052 698.296 665.092 696.92 664.58 695.288C664.084 697.032 663.124 698.552 661.748 699.368L660.948 698.312C662.868 697.176 663.892 694.744 663.892 692.456V691.832H661.348V690.696ZM671.716 688.12H673.044V702.2H671.716V688.12ZM683.34 688.776C685.436 688.776 686.956 689.96 686.956 691.688C686.956 693.4 685.436 694.6 683.34 694.6C681.26 694.6 679.74 693.4 679.74 691.688C679.74 689.96 681.26 688.776 683.34 688.776ZM683.34 689.912C682.028 689.912 681.068 690.632 681.068 691.688C681.068 692.744 682.028 693.448 683.34 693.448C684.668 693.448 685.628 692.744 685.628 691.688C685.628 690.632 684.668 689.912 683.34 689.912ZM688.94 688.12H690.316V702.216H688.94V688.12ZM678.732 695.736C681.324 695.736 684.876 695.704 687.964 695.224L688.06 696.264C686.764 696.504 685.42 696.648 684.108 696.744V701.768H682.716V696.824C681.34 696.888 680.044 696.904 678.908 696.904L678.732 695.736ZM702.909 688.12H704.301V698.84H702.909V697.416H700.093V696.424H702.909V688.12ZM694.621 697.8H696.013V700.776H704.653V701.896H694.621V697.8ZM692.653 694.6C695.261 694.584 698.733 694.552 701.741 694.184L701.821 695.176C700.605 695.384 699.341 695.512 698.077 695.592V698.344H696.685V695.656C695.309 695.72 693.981 695.736 692.845 695.736L692.653 694.6ZM697.229 688.68C699.293 688.68 700.701 689.656 700.701 691.144C700.701 692.648 699.293 693.608 697.229 693.608C695.165 693.608 693.757 692.648 693.757 691.144C693.757 689.656 695.165 688.68 697.229 688.68ZM697.229 689.704C695.965 689.704 695.069 690.264 695.069 691.144C695.069 692.024 695.965 692.568 697.229 692.568C698.509 692.568 699.373 692.024 699.373 691.144C699.373 690.264 698.509 689.704 697.229 689.704ZM711.277 689.128C713.469 689.128 715.053 690.504 715.053 692.472C715.053 694.456 713.469 695.816 711.277 695.816C709.069 695.816 707.485 694.456 707.485 692.472C707.485 690.504 709.069 689.128 711.277 689.128ZM711.277 690.328C709.869 690.328 708.829 691.192 708.829 692.472C708.829 693.736 709.869 694.616 711.277 694.616C712.669 694.616 713.709 693.736 713.709 692.472C713.709 691.192 712.669 690.328 711.277 690.328ZM716.845 688.104H718.221V702.232H716.845V688.104ZM706.797 698.008C709.341 698.008 712.893 698.008 715.933 697.528L716.045 698.552C712.909 699.16 709.469 699.176 706.973 699.176L706.797 698.008ZM724.773 699.848C727.077 697.624 730.453 695 730.453 692.936C730.453 691.512 729.541 690.504 728.245 690.504C727.285 690.504 726.309 691.208 725.861 692.232L724.661 691.704C725.285 690.296 726.773 689.304 728.245 689.304C730.325 689.304 731.781 690.808 731.781 692.936C731.781 695.384 728.821 697.832 726.613 699.848H731.973V701.032H724.933L724.773 699.848ZM738.268 688.728L734.908 701.816H733.564L736.94 688.728H738.268ZM746.144 695.032C747.168 695.656 747.76 696.776 747.76 697.736C747.76 699.72 746.192 701.112 743.968 701.112C741.744 701.112 740.176 699.704 740.176 697.704H741.504C741.504 699.016 742.528 699.928 743.968 699.928C745.424 699.928 746.448 699.016 746.448 697.72C746.448 696.488 745.424 695.608 744 695.608H743.152V694.424H744C745.328 694.424 746.288 693.64 746.288 692.504C746.288 691.336 745.36 690.52 744.064 690.52C742.752 690.52 741.84 691.352 741.84 692.536H740.512C740.512 690.648 741.968 689.336 744.064 689.336C746.128 689.336 747.6 690.632 747.6 692.488C747.6 693.368 747.072 694.408 746.144 695.032ZM763.049 688.104H764.441V702.232H763.049V688.104ZM756.985 689.192C759.081 689.192 760.585 691.096 760.585 694.12C760.585 697.128 759.081 699.048 756.985 699.048C754.889 699.048 753.385 697.128 753.385 694.12C753.385 691.096 754.889 689.192 756.985 689.192ZM756.985 690.44C755.657 690.44 754.729 691.864 754.729 694.12C754.729 696.376 755.657 697.816 756.985 697.816C758.313 697.816 759.241 696.376 759.241 694.12C759.241 691.864 758.313 690.44 756.985 690.44ZM770.281 688.856H771.641V690.376C771.641 692.264 772.985 694.008 775.033 694.712L774.313 695.784C772.777 695.224 771.593 694.088 770.985 692.648C770.393 694.28 769.193 695.544 767.545 696.184L766.793 695.08C768.969 694.296 770.281 692.392 770.281 690.28V688.856ZM776.441 688.136H777.833V691.72H779.897V692.872H777.833V696.648H776.441V688.136ZM773.337 697.016C776.233 697.016 777.977 697.976 777.977 699.608C777.977 701.24 776.233 702.184 773.337 702.184C770.457 702.184 768.697 701.24 768.697 699.608C768.697 697.976 770.457 697.016 773.337 697.016ZM773.337 698.104C771.289 698.104 770.057 698.648 770.057 699.608C770.057 700.552 771.289 701.096 773.337 701.096C775.385 701.096 776.617 700.552 776.617 699.608C776.617 698.648 775.385 698.104 773.337 698.104ZM784.961 689.736H788.049V688.072H789.409V689.736H792.481V690.856H789.409V691.032C789.409 692.712 790.737 694.248 792.833 694.856L792.193 695.944C790.577 695.448 789.361 694.424 788.753 693.112C788.129 694.552 786.881 695.672 785.217 696.2L784.561 695.112C786.673 694.472 788.049 692.856 788.049 691.032V690.856H784.961V689.736ZM794.113 688.136H795.505V691.656H797.569V692.808H795.505V696.44H794.113V688.136ZM786.625 697.096H795.505V702.024H786.625V697.096ZM794.145 698.2H787.985V700.904H794.145V698.2ZM805.746 691.032H808.738V688.136H810.13V696.456H808.738V692.184H805.746V691.032ZM802.018 688.84H803.394V690.36C803.394 692.28 804.722 694.056 806.786 694.792L806.034 695.88C804.498 695.304 803.33 694.136 802.722 692.68C802.114 694.28 800.914 695.544 799.25 696.168L798.546 695.064C800.674 694.296 802.018 692.408 802.018 690.296V688.84ZM800.722 697.208H810.13V702.216H808.738V698.328H800.722V697.208ZM816.969 689.032H823.545V694.808H816.969V689.032ZM822.217 690.136H818.297V693.704H822.217V690.136ZM826.393 688.136H827.785V696.2H826.393V688.136ZM818.473 697.128H822.585V695.8H823.993V697.128H828.089V698.2H823.993C824.057 699.496 826.121 700.808 828.585 701.096L828.121 702.168C825.961 701.88 824.121 700.92 823.273 699.64C822.425 700.936 820.553 701.88 818.377 702.168L817.913 701.096C820.409 700.824 822.505 699.528 822.569 698.2H818.473V697.128ZM834.289 689.736H837.377V688.072H838.737V689.736H841.809V690.856H838.737V691.032C838.737 692.712 840.065 694.248 842.161 694.856L841.521 695.944C839.905 695.448 838.689 694.424 838.081 693.112C837.457 694.552 836.209 695.672 834.545 696.2L833.889 695.112C836.001 694.472 837.377 692.856 837.377 691.032V690.856H834.289V689.736ZM843.441 688.136H844.833V691.656H846.897V692.808H844.833V696.44H843.441V688.136ZM835.953 697.096H844.833V702.024H835.953V697.096ZM843.473 698.2H837.313V700.904H843.473V698.2ZM855.074 691.032H858.066V688.136H859.458V696.456H858.066V692.184H855.074V691.032ZM851.346 688.84H852.722V690.36C852.722 692.28 854.05 694.056 856.114 694.792L855.362 695.88C853.826 695.304 852.658 694.136 852.05 692.68C851.442 694.28 850.242 695.544 848.578 696.168L847.874 695.064C850.002 694.296 851.346 692.408 851.346 690.296V688.84ZM850.05 697.208H859.458V702.216H858.066V698.328H850.05V697.208ZM870.122 688.776C872.218 688.776 873.738 689.96 873.738 691.688C873.738 693.4 872.218 694.6 870.122 694.6C868.042 694.6 866.522 693.4 866.522 691.688C866.522 689.96 868.042 688.776 870.122 688.776ZM870.122 689.912C868.81 689.912 867.85 690.632 867.85 691.688C867.85 692.744 868.81 693.448 870.122 693.448C871.45 693.448 872.41 692.744 872.41 691.688C872.41 690.632 871.45 689.912 870.122 689.912ZM875.722 688.12H877.098V702.216H875.722V688.12ZM865.514 695.736C868.106 695.736 871.658 695.704 874.746 695.224L874.842 696.264C873.546 696.504 872.202 696.648 870.89 696.744V701.768H869.498V696.824C868.122 696.888 866.826 696.904 865.69 696.904L865.514 695.736ZM889.69 688.12H891.082V698.84H889.69V697.416H886.874V696.424H889.69V688.12ZM881.402 697.8H882.794V700.776H891.434V701.896H881.402V697.8ZM879.434 694.6C882.042 694.584 885.514 694.552 888.522 694.184L888.602 695.176C887.386 695.384 886.122 695.512 884.858 695.592V698.344H883.466V695.656C882.09 695.72 880.762 695.736 879.626 695.736L879.434 694.6ZM884.01 688.68C886.074 688.68 887.482 689.656 887.482 691.144C887.482 692.648 886.074 693.608 884.01 693.608C881.946 693.608 880.538 692.648 880.538 691.144C880.538 689.656 881.946 688.68 884.01 688.68ZM884.01 689.704C882.746 689.704 881.85 690.264 881.85 691.144C881.85 692.024 882.746 692.568 884.01 692.568C885.29 692.568 886.154 692.024 886.154 691.144C886.154 690.264 885.29 689.704 884.01 689.704ZM898.058 689.128C900.25 689.128 901.834 690.504 901.834 692.472C901.834 694.456 900.25 695.816 898.058 695.816C895.85 695.816 894.266 694.456 894.266 692.472C894.266 690.504 895.85 689.128 898.058 689.128ZM898.058 690.328C896.65 690.328 895.61 691.192 895.61 692.472C895.61 693.736 896.65 694.616 898.058 694.616C899.45 694.616 900.49 693.736 900.49 692.472C900.49 691.192 899.45 690.328 898.058 690.328ZM903.626 688.104H905.002V702.232H903.626V688.104ZM893.578 698.008C896.122 698.008 899.674 698.008 902.714 697.528L902.826 698.552C899.69 699.16 896.25 699.176 893.754 699.176L893.578 698.008ZM911.554 699.848C913.858 697.624 917.234 695 917.234 692.936C917.234 691.512 916.322 690.504 915.026 690.504C914.066 690.504 913.09 691.208 912.642 692.232L911.442 691.704C912.066 690.296 913.554 689.304 915.026 689.304C917.106 689.304 918.562 690.808 918.562 692.936C918.562 695.384 915.602 697.832 913.394 699.848H918.754V701.032H911.714L911.554 699.848ZM925.049 688.728L921.689 701.816H920.345L923.721 688.728H925.049ZM932.925 695.032C933.949 695.656 934.541 696.776 934.541 697.736C934.541 699.72 932.973 701.112 930.749 701.112C928.525 701.112 926.957 699.704 926.957 697.704H928.285C928.285 699.016 929.309 699.928 930.749 699.928C932.205 699.928 933.229 699.016 933.229 697.72C933.229 696.488 932.205 695.608 930.781 695.608H929.933V694.424H930.781C932.109 694.424 933.069 693.64 933.069 692.504C933.069 691.336 932.141 690.52 930.845 690.52C929.533 690.52 928.621 691.352 928.621 692.536H927.293C927.293 690.648 928.749 689.336 930.845 689.336C932.909 689.336 934.381 690.632 934.381 692.488C934.381 693.368 933.853 694.408 932.925 695.032ZM949.83 688.104H951.222V702.232H949.83V688.104ZM943.766 689.192C945.862 689.192 947.366 691.096 947.366 694.12C947.366 697.128 945.862 699.048 943.766 699.048C941.67 699.048 940.166 697.128 940.166 694.12C940.166 691.096 941.67 689.192 943.766 689.192ZM943.766 690.44C942.438 690.44 941.51 691.864 941.51 694.12C941.51 696.376 942.438 697.816 943.766 697.816C945.094 697.816 946.022 696.376 946.022 694.12C946.022 691.864 945.094 690.44 943.766 690.44ZM957.062 688.856H958.423V690.376C958.423 692.264 959.767 694.008 961.815 694.712L961.095 695.784C959.559 695.224 958.375 694.088 957.766 692.648C957.174 694.28 955.975 695.544 954.327 696.184L953.575 695.08C955.751 694.296 957.062 692.392 957.062 690.28V688.856ZM963.223 688.136H964.615V691.72H966.679V692.872H964.615V696.648H963.223V688.136ZM960.119 697.016C963.015 697.016 964.759 697.976 964.759 699.608C964.759 701.24 963.015 702.184 960.119 702.184C957.239 702.184 955.479 701.24 955.479 699.608C955.479 697.976 957.239 697.016 960.119 697.016ZM960.119 698.104C958.071 698.104 956.839 698.648 956.839 699.608C956.839 700.552 958.071 701.096 960.119 701.096C962.167 701.096 963.399 700.552 963.399 699.608C963.399 698.648 962.167 698.104 960.119 698.104ZM971.742 690.008H974.83V688.232H976.19V690.008H979.262V691.112H976.19V691.432C976.19 693.192 977.518 694.84 979.598 695.512L978.91 696.6C977.342 696.088 976.142 695.016 975.518 693.64C974.91 695.144 973.678 696.296 972.046 696.856L971.358 695.768C973.47 695.08 974.83 693.352 974.83 691.432V691.112H971.742V690.008ZM980.894 688.12H982.286V692.472H984.35V693.624H982.286V698.552H980.894V688.12ZM973.486 697.656H974.862V700.776H982.91V701.896H973.486V697.656ZM988.831 688.92H990.207V690.28C990.207 692.264 991.519 694.024 993.599 694.728L992.847 695.816C991.327 695.24 990.175 694.136 989.567 692.712C988.959 694.344 987.711 695.608 986.015 696.232L985.295 695.112C987.471 694.344 988.831 692.472 988.831 690.328V688.92ZM995.519 688.136H996.911V696.44H995.519V692.2H992.527V691.048H995.519V688.136ZM992.271 696.856C995.183 696.856 996.975 697.832 996.975 699.528C996.975 701.224 995.183 702.184 992.271 702.184C989.343 702.184 987.551 701.224 987.551 699.528C987.551 697.832 989.343 696.856 992.271 696.856ZM992.271 697.944C990.175 697.944 988.943 698.52 988.943 699.528C988.943 700.52 990.175 701.096 992.271 701.096C994.351 701.096 995.599 700.52 995.599 699.528C995.599 698.52 994.351 697.944 992.271 697.944ZM1013.17 688.136H1014.58V695.416H1013.17V688.136ZM1005.35 696.088H1014.58V699.528H1006.74V700.952H1015.08V702.056H1005.38V698.504H1013.19V697.176H1005.35V696.088ZM1003.62 689.064H1011.17V690.168H1009.83V693.624C1010.52 693.576 1011.21 693.512 1011.85 693.432L1011.91 694.424C1009.11 694.872 1005.85 694.952 1003.4 694.952L1003.24 693.832L1004.97 693.816V690.168H1003.62V689.064ZM1006.31 693.784L1008.49 693.704V690.168H1006.31V693.784ZM1016.98 699.272H1020.07V695.528C1018.9 694.888 1018.2 693.896 1018.2 692.616C1018.2 690.408 1020.36 688.984 1023.34 688.984C1026.34 688.984 1028.47 690.408 1028.47 692.616C1028.47 693.88 1027.78 694.872 1026.65 695.496V699.272H1029.74V700.408H1016.98V699.272ZM1023.34 690.072C1021.13 690.072 1019.56 691.08 1019.56 692.616C1019.56 694.168 1021.13 695.16 1023.34 695.16C1025.56 695.16 1027.13 694.168 1027.13 692.616C1027.13 691.08 1025.56 690.072 1023.34 690.072ZM1021.45 699.272H1025.26V696.024C1024.68 696.168 1024.02 696.248 1023.34 696.248C1022.66 696.248 1022.02 696.168 1021.45 696.04V699.272Z" fill="#3F3F46"/>
<path d="M228.5 74L221 69.6699V78.3301L228.5 74ZM222.5 74V73.25H218.5V74V74.75H222.5V74ZM214.5 74V73.25H210.5V74V74.75H214.5V74ZM206.5 74V73.25H202.5V74V74.75H206.5V74ZM198.5 74V73.25H194.5V74V74.75H198.5V74ZM190.5 74V73.25H186.5V74V74.75H190.5V74ZM182.5 74V73.25H178.5V74V74.75H182.5V74ZM174.5 74V73.25H170.5V74V74.75H174.5V74ZM166.5 74V73.25H164.5V74V74.75H166.5V74ZM164.5 74V73.25C163.857 73.25 163.243 73.378 162.682 73.6107L162.969 74.3035L163.256 74.9963C163.638 74.8378 164.058 74.75 164.5 74.75V74ZM160.804 76.4688L160.111 76.1816C159.878 76.7427 159.75 77.3573 159.75 78H160.5H161.25C161.25 77.5579 161.338 77.1383 161.496 76.7561L160.804 76.4688ZM160.5 78H159.75V79.9423H160.5H161.25V78H160.5ZM160.5 83.8269H159.75V87.7115H160.5H161.25V83.8269H160.5ZM160.5 91.5962H159.75V95.4808H160.5H161.25V91.5962H160.5ZM160.5 99.3654H159.75V103.25H160.5H161.25V99.3654H160.5ZM160.5 107.135H159.75V111.019H160.5H161.25V107.135H160.5ZM160.5 114.904H159.75V118.788H160.5H161.25V114.904H160.5ZM160.5 122.673H159.75V126.558H160.5H161.25V122.673H160.5ZM160.5 130.442H159.75V134.327H160.5H161.25V130.442H160.5ZM160.5 138.212H159.75V142.096H160.5H161.25V138.212H160.5ZM160.5 145.981H159.75V149.865H160.5H161.25V145.981H160.5ZM160.5 153.75H159.75V157.635H160.5H161.25V153.75H160.5ZM160.5 161.519H159.75V165.404H160.5H161.25V161.519H160.5ZM160.5 169.288H159.75V173.173H160.5H161.25V169.288H160.5ZM160.5 177.058H159.75V179H160.5H161.25V177.058H160.5ZM160.5 179H159.75C159.75 179.643 159.878 180.257 160.111 180.818L160.804 180.531L161.496 180.244C161.338 179.862 161.25 179.442 161.25 179H160.5ZM162.969 182.696L162.682 183.389C163.243 183.622 163.857 183.75 164.5 183.75V183V182.25C164.058 182.25 163.638 182.162 163.256 182.004L162.969 182.696ZM164.5 183V183.75H166.5V183V182.25H164.5V183ZM170.5 183V183.75H174.5V183V182.25H170.5V183ZM178.5 183V183.75H182.5V183V182.25H178.5V183ZM186.5 183V183.75H190.5V183V182.25H186.5V183ZM194.5 183V183.75H198.5V183V182.25H194.5V183ZM202.5 183V183.75H206.5V183V182.25H202.5V183ZM210.5 183V183.75H214.5V183V182.25H210.5V183ZM218.5 183V183.75H222.5V183V182.25H218.5V183ZM226.5 183V183.75H228.5V183V182.25H226.5V183Z" fill="#A1A1AA"/>
<path d="M179.976 131.862H184.834V129.426H181.222V122.986H182.748V125.016H188.46V122.986H189.986V129.426H186.36V131.862H191.26V133.122H179.976V131.862ZM182.748 126.234V128.194H188.46V126.234H182.748ZM195.95 122.692C197.742 122.692 199.03 123.7 199.03 125.198C199.03 126.458 198.106 127.368 196.734 127.62V128.656C197.77 128.6 198.806 128.502 199.758 128.362L199.87 129.468C197.322 129.944 194.452 129.972 192.352 129.972L192.17 128.754C193.066 128.754 194.102 128.754 195.194 128.712V127.634C193.794 127.382 192.856 126.472 192.856 125.198C192.856 123.7 194.144 122.692 195.95 122.692ZM195.95 123.854C194.956 123.854 194.284 124.372 194.284 125.198C194.284 126.038 194.956 126.542 195.95 126.542C196.93 126.542 197.602 126.038 197.602 125.198C197.602 124.372 196.93 123.854 195.95 123.854ZM200.458 122.174H201.998V126.192H203.678V127.452H201.998V131.68H200.458V122.174ZM193.864 130.868H195.418V133.136H202.432V134.382H193.864V130.868ZM207.347 123.182H208.873V125.142C208.873 127.354 209.951 129.636 211.869 130.574L210.931 131.792C209.601 131.106 208.649 129.804 208.117 128.222C207.571 129.916 206.563 131.316 205.149 132.03L204.225 130.784C206.213 129.832 207.347 127.438 207.347 125.142V123.182ZM212.583 122.174H214.137V127.06H216.041V128.348H214.137V134.634H212.583V122.174ZM224.889 122.174H226.429V125.45H228.165V126.71H226.429V130.112H224.889V122.174ZM222.439 130.238C224.987 130.238 226.569 131.05 226.569 132.422C226.569 133.808 224.987 134.62 222.439 134.62C219.891 134.62 218.309 133.808 218.309 132.422C218.309 131.05 219.891 130.238 222.439 130.238ZM222.439 131.4C220.773 131.4 219.835 131.75 219.835 132.422C219.835 133.108 220.773 133.458 222.439 133.458C224.119 133.458 225.057 133.108 225.057 132.422C225.057 131.75 224.119 131.4 222.439 131.4ZM216.699 123.434H219.597V122.076H221.137V123.434H224.035V124.652H216.699V123.434ZM220.367 125.142C222.173 125.142 223.405 126.024 223.405 127.354C223.405 128.698 222.173 129.58 220.367 129.58C218.575 129.58 217.343 128.698 217.343 127.354C217.343 126.024 218.575 125.142 220.367 125.142ZM220.367 126.276C219.443 126.276 218.813 126.668 218.813 127.354C218.813 128.04 219.443 128.446 220.367 128.446C221.291 128.446 221.921 128.04 221.921 127.354C221.921 126.668 221.291 126.276 220.367 126.276Z" fill="#3F3F46"/>
<path d="M190.919 196.78V198.082H185.865V201.288H190.149V202.576H185.865V207.112H184.381V196.78H190.919ZM194.455 207.182C192.607 207.182 191.291 205.782 191.291 203.822C191.291 201.862 192.607 200.462 194.455 200.462C195.113 200.462 195.841 200.77 196.373 201.4V200.448H197.857V207.126H196.373V206.23C195.841 206.902 195.113 207.182 194.455 207.182ZM194.553 205.922C195.533 205.922 196.373 205.04 196.387 203.822C196.373 202.604 195.533 201.722 194.553 201.722C193.489 201.722 192.775 202.548 192.775 203.822C192.775 205.082 193.489 205.922 194.553 205.922ZM199.886 200.434H201.37V207.112H199.886V200.434ZM200.628 197.102C201.118 197.102 201.468 197.452 201.468 197.942C201.468 198.432 201.118 198.782 200.628 198.782C200.138 198.782 199.788 198.432 199.788 197.942C199.788 197.452 200.138 197.102 200.628 197.102ZM203.326 197.116H204.81V207.112H203.326V197.116Z" fill="#3F3F46"/>
<path d="M240.5 52C240.5 47.5817 244.082 44 248.5 44H554.5C558.918 44 562.5 47.5817 562.5 52V97C562.5 101.418 558.918 105 554.5 105H248.5C244.082 105 240.5 101.418 240.5 97V52Z" fill="#F5EBFB"/>
<path d="M369.131 67.122H371.093V69.174H374.765V67.122H376.709V74.106H369.131V67.122ZM371.093 70.668V72.558H374.765V70.668H371.093ZM379.139 66.438H381.119V69.66H383.315V71.28H381.119V74.61H379.139V66.438ZM370.697 75.294H381.119V79.47H372.695V80.766H381.623V82.314H370.733V78.03H379.175V76.824H370.697V75.294ZM389.453 67.518C391.955 67.518 393.809 69.138 393.809 71.406C393.809 73.692 391.955 75.294 389.453 75.294C386.933 75.294 385.079 73.692 385.079 71.406C385.079 69.138 386.933 67.518 389.453 67.518ZM389.453 69.228C388.049 69.228 387.005 70.056 387.005 71.406C387.005 72.738 388.049 73.602 389.453 73.602C390.839 73.602 391.883 72.738 391.883 71.406C391.883 70.056 390.839 69.228 389.453 69.228ZM395.555 66.402H397.517V82.476H395.555V66.402ZM384.359 77.508C387.203 77.508 391.199 77.49 394.601 76.968L394.745 78.408C391.235 79.092 387.401 79.128 384.593 79.128L384.359 77.508ZM404.186 75.78H418.694V77.346H412.376V82.458H410.396V77.346H404.186V75.78ZM405.896 67.068H407.858V69.03H414.968V67.068H416.912V74.088H405.896V67.068ZM407.858 70.578V72.504H414.968V70.578H407.858ZM427.947 71.604H431.277V66.402H433.239V82.476H431.277V73.206H427.947V71.604ZM423.789 67.716H425.769V70.254C425.769 73.224 427.155 76.158 429.693 77.31L428.523 78.894C426.741 78.012 425.481 76.32 424.779 74.25C424.077 76.446 422.781 78.246 420.981 79.164L419.757 77.58C422.331 76.356 423.789 73.26 423.789 70.254V67.716Z" fill="#6D0CA6"/>
<path fill-rule="evenodd" clip-rule="evenodd" d="M410.348 124.151C410.816 124.62 410.816 125.38 410.348 125.848L401.499 134.697L392.651 125.848C392.182 125.38 392.182 124.62 392.651 124.151C393.119 123.683 393.879 123.683 394.348 124.151L401.499 131.303L408.651 124.151C409.119 123.683 409.879 123.683 410.348 124.151Z" fill="#A1A1AA"/>
<path d="M240.5 161C240.5 156.582 244.082 153 248.5 153H554.5C558.918 153 562.5 156.582 562.5 161V206C562.5 210.418 558.918 214 554.5 214H248.5C244.082 214 240.5 210.418 240.5 206V161Z" fill="#F5EBFB"/>
<path d="M366.453 176.284H368.415V177.958C368.415 179.992 369.693 181.9 372.123 182.692L371.097 184.222C369.387 183.628 368.145 182.458 367.461 180.964C366.777 182.674 365.499 184.006 363.645 184.69L362.583 183.124C365.175 182.224 366.453 180.064 366.453 177.796V176.284ZM373.329 175.438H375.309V179.308H377.541V180.946H375.309V184.996H373.329V175.438ZM370.143 185.392C373.455 185.392 375.489 186.508 375.489 188.416C375.489 190.324 373.455 191.44 370.143 191.44C366.831 191.44 364.779 190.324 364.779 188.416C364.779 186.508 366.831 185.392 370.143 185.392ZM370.143 186.922C367.965 186.922 366.723 187.444 366.723 188.416C366.723 189.388 367.965 189.91 370.143 189.91C372.303 189.91 373.545 189.388 373.545 188.416C373.545 187.444 372.303 186.922 370.143 186.922ZM387.117 179.416H389.835V175.438H391.815V184.942H389.835V181.018H387.117V179.416ZM386.451 185.356C389.799 185.356 391.869 186.508 391.869 188.416C391.869 190.342 389.799 191.458 386.451 191.458C383.085 191.458 381.015 190.342 381.015 188.416C381.015 186.508 383.085 185.356 386.451 185.356ZM386.451 186.868C384.237 186.868 382.995 187.408 382.995 188.416C382.995 189.406 384.237 189.946 386.451 189.946C388.647 189.946 389.907 189.406 389.907 188.416C389.907 187.408 388.647 186.868 386.451 186.868ZM379.017 176.482H387.621V178.066H384.345V178.156C384.345 180.118 385.605 182.08 388.071 182.926L387.081 184.474C385.317 183.862 384.075 182.656 383.391 181.144C382.689 182.854 381.375 184.24 379.467 184.906L378.477 183.34C380.997 182.458 382.347 180.316 382.347 178.156V178.066H379.017V176.482ZM399.43 176.104C401.842 176.104 403.588 177.49 403.588 179.488C403.588 181.45 401.842 182.854 399.43 182.854C397.036 182.854 395.272 181.45 395.272 179.488C395.272 177.49 397.036 176.104 399.43 176.104ZM399.43 177.724C398.134 177.724 397.18 178.39 397.18 179.488C397.18 180.568 398.134 181.234 399.43 181.234C400.744 181.234 401.698 180.568 401.698 179.488C401.698 178.39 400.744 177.724 399.43 177.724ZM405.55 175.42H407.53V191.458H405.55V175.42ZM394.246 183.952C397.108 183.952 401.104 183.934 404.56 183.394L404.686 184.852C403.3 185.122 401.878 185.284 400.492 185.392V190.954H398.512V185.518C397.054 185.572 395.686 185.59 394.48 185.59L394.246 183.952ZM421.318 175.42H423.298V187.588H421.318V186.166H418.222V184.798H421.318V175.42ZM411.994 186.418H413.974V189.55H423.676V191.134H411.994V186.418ZM409.888 182.638C412.822 182.62 416.746 182.584 420.148 182.17L420.256 183.574C418.96 183.79 417.592 183.934 416.26 184.024V187.102H414.28V184.132C412.804 184.204 411.382 184.222 410.14 184.222L409.888 182.638ZM415.054 176.014C417.412 176.014 419.032 177.148 419.032 178.84C419.032 180.568 417.412 181.684 415.054 181.684C412.714 181.684 411.076 180.568 411.076 178.84C411.076 177.148 412.714 176.014 415.054 176.014ZM415.054 177.454C413.83 177.454 412.966 177.958 412.966 178.84C412.966 179.722 413.83 180.226 415.054 180.226C416.314 180.226 417.142 179.722 417.142 178.84C417.142 177.958 416.314 177.454 415.054 177.454ZM436.961 175.438H438.923V191.458H436.961V175.438ZM425.783 187.012C427.025 187.012 428.447 187.012 429.941 186.976V185.482C428.159 185.194 427.007 184.096 427.007 182.566C427.007 180.766 428.591 179.578 430.931 179.578C433.253 179.578 434.873 180.766 434.873 182.566C434.873 184.096 433.703 185.194 431.921 185.482V186.904C433.325 186.832 434.729 186.724 436.061 186.544L436.187 187.966C432.677 188.614 428.897 188.632 426.017 188.632L425.783 187.012ZM426.089 177.274H429.941V175.474H431.921V177.274H435.773V178.822H426.089V177.274ZM430.931 181.072C429.725 181.072 428.879 181.63 428.879 182.566C428.879 183.502 429.725 184.06 430.931 184.06C432.155 184.06 432.983 183.502 432.983 182.566C432.983 181.63 432.155 181.072 430.931 181.072Z" fill="#6D0CA6"/>
<path fill-rule="evenodd" clip-rule="evenodd" d="M410.348 233.151C410.816 233.62 410.816 234.38 410.348 234.848L401.499 243.697L392.651 234.848C392.182 234.38 392.182 233.62 392.651 233.151C393.119 232.683 393.879 232.683 394.348 233.151L401.499 240.303L408.651 233.151C409.119 232.683 409.879 232.683 410.348 233.151Z" fill="#A1A1AA"/>
<path d="M430.386 237.932C431.506 237.932 432.29 237.134 432.29 236C432.29 234.88 431.492 234.082 430.372 234.082H428.104V237.932H430.386ZM430.428 232.78C432.388 232.78 433.76 234.11 433.76 236C433.76 237.89 432.388 239.22 430.428 239.22H428.104V243.112H426.62V232.78H430.428ZM437.869 243.182C436.021 243.182 434.705 241.782 434.705 239.822C434.705 237.862 436.021 236.462 437.869 236.462C438.527 236.462 439.255 236.77 439.787 237.4V236.448H441.271V243.126H439.787V242.23C439.255 242.902 438.527 243.182 437.869 243.182ZM437.967 241.922C438.947 241.922 439.787 241.04 439.801 239.822C439.787 238.604 438.947 237.722 437.967 237.722C436.903 237.722 436.189 238.548 436.189 239.822C436.189 241.082 436.903 241.922 437.967 241.922ZM444.112 240.83C444.406 241.558 445.134 241.894 445.582 241.894C446.282 241.894 446.73 241.628 446.73 241.166C446.73 240.746 446.114 240.55 445.428 240.312C444.518 239.99 443.23 239.556 443.23 238.268C443.23 237.092 444.308 236.378 445.68 236.378C446.506 236.378 447.738 236.854 448.074 238.058L446.828 238.506C446.604 237.764 446.002 237.652 445.68 237.652C445.092 237.652 444.714 237.89 444.714 238.268C444.714 238.688 445.288 238.856 446.002 239.108C446.954 239.444 448.214 239.878 448.214 241.152C448.214 242.37 447.136 243.168 445.582 243.168C444.56 243.168 443.44 242.524 442.95 241.502L444.112 240.83ZM450.538 240.83C450.832 241.558 451.56 241.894 452.008 241.894C452.708 241.894 453.156 241.628 453.156 241.166C453.156 240.746 452.54 240.55 451.854 240.312C450.944 239.99 449.656 239.556 449.656 238.268C449.656 237.092 450.734 236.378 452.106 236.378C452.932 236.378 454.164 236.854 454.5 238.058L453.254 238.506C453.03 237.764 452.428 237.652 452.106 237.652C451.518 237.652 451.14 237.89 451.14 238.268C451.14 238.688 451.714 238.856 452.428 239.108C453.38 239.444 454.64 239.878 454.64 241.152C454.64 242.37 453.562 243.168 452.008 243.168C450.986 243.168 449.866 242.524 449.376 241.502L450.538 240.83Z" fill="#3F3F46"/>
<path d="M240.5 270C240.5 265.582 244.082 262 248.5 262H554.5C558.918 262 562.5 265.582 562.5 270V315C562.5 319.418 558.918 323 554.5 323H248.5C244.082 323 240.5 319.418 240.5 315V270Z" fill="#F5EBFB"/>
<path d="M347.031 294.014H361.539V295.634H355.275V300.476H353.277V295.634H347.031V294.014ZM348.903 285.122H359.811V286.688H350.847V288.092H359.469V289.622H350.847V291.098H359.991V292.682H348.903V285.122ZM363.051 286.004H371.799V287.642H368.469V288.974C368.469 291.44 369.945 294.284 372.447 295.454L371.349 297.02C369.549 296.156 368.235 294.446 367.515 292.466C366.795 294.644 365.427 296.516 363.591 297.416L362.457 295.85C364.959 294.644 366.507 291.638 366.507 288.974V287.642H363.051V286.004ZM373.239 284.438H375.237V290.684H377.667V292.322H375.237V300.458H373.239V284.438ZM389.745 284.438H391.725V292.592H389.745V284.438ZM381.177 293.348H391.725V297.488H383.157V298.766H392.193V300.314H381.213V296.066H389.781V294.878H381.177V293.348ZM382.419 284.834H384.417V286.04C384.417 288.074 385.767 289.982 388.269 290.756L387.315 292.286C385.479 291.71 384.165 290.504 383.445 288.992C382.725 290.63 381.375 291.944 379.449 292.592L378.495 291.008C381.069 290.198 382.419 288.146 382.419 286.04V284.834ZM394.246 293.528H408.754V295.112H402.436V300.476H400.456V295.112H394.246V293.528ZM395.974 285.266H406.954V291.638H395.974V285.266ZM405.028 286.832H397.918V290.09H405.028V286.832ZM418.996 287.966H421.282V284.438H423.262V293.924H421.282V292.682H418.96V291.116H421.282V289.532H418.996V287.966ZM409.996 285.878H413.524V284.276H415.522V285.878H418.87V287.444H409.996V285.878ZM414.496 288.038C416.692 288.038 418.204 289.208 418.204 290.936C418.204 292.664 416.692 293.834 414.496 293.834C412.336 293.834 410.806 292.664 410.806 290.936C410.806 289.208 412.336 288.038 414.496 288.038ZM414.496 289.496C413.398 289.496 412.66 290.036 412.66 290.936C412.66 291.836 413.398 292.394 414.496 292.394C415.612 292.394 416.368 291.836 416.368 290.936C416.368 290.036 415.612 289.496 414.496 289.496ZM412.696 294.572H414.64V295.922H421.318V294.572H423.262V300.26H412.696V294.572ZM414.64 297.416V298.73H421.318V297.416H414.64ZM430.859 285.518C433.361 285.518 435.215 287.138 435.215 289.406C435.215 291.692 433.361 293.294 430.859 293.294C428.339 293.294 426.485 291.692 426.485 289.406C426.485 287.138 428.339 285.518 430.859 285.518ZM430.859 287.228C429.455 287.228 428.411 288.056 428.411 289.406C428.411 290.738 429.455 291.602 430.859 291.602C432.245 291.602 433.289 290.738 433.289 289.406C433.289 288.056 432.245 287.228 430.859 287.228ZM436.961 284.402H438.923V300.476H436.961V284.402ZM425.765 295.508C428.609 295.508 432.605 295.49 436.007 294.968L436.151 296.408C432.641 297.092 428.807 297.128 425.999 297.128L425.765 295.508ZM447.941 290.594H450.011V284.726H451.847V299.684H450.011V292.196H447.941V290.594ZM441.731 287.228H444.395V284.96H446.285V287.228H448.931V288.83H446.285V289.316C446.285 291.782 447.293 294.302 449.507 295.49L448.409 296.966C446.951 296.174 445.943 294.788 445.367 293.096C444.809 294.914 443.801 296.48 442.307 297.344L441.191 295.85C443.423 294.536 444.395 291.836 444.395 289.316V288.83H441.731V287.228ZM453.233 284.42H455.123V300.44H453.233V284.42Z" fill="#6D0CA6"/>
<path fill-rule="evenodd" clip-rule="evenodd" d="M410.348 342.151C410.816 342.62 410.816 343.38 410.348 343.848L401.499 352.697L392.651 343.848C392.182 343.38 392.182 342.62 392.651 342.151C393.119 341.683 393.879 341.683 394.348 342.151L401.499 349.303L408.651 342.151C409.119 341.683 409.879 341.683 410.348 342.151Z" fill="#A1A1AA"/>
<path d="M240.5 379C240.5 374.582 244.082 371 248.5 371H554.5C558.918 371 562.5 374.582 562.5 379V424C562.5 428.418 558.918 432 554.5 432H248.5C244.082 432 240.5 428.418 240.5 424V379Z" fill="#F5EBFB"/>
<path d="M295.368 403.014H309.876V404.634H303.612V409.476H301.614V404.634H295.368V403.014ZM297.24 394.122H308.148V395.688H299.184V397.092H307.806V398.622H299.184V400.098H308.328V401.682H297.24V394.122ZM311.389 395.004H320.137V396.642H316.807V397.974C316.807 400.44 318.283 403.284 320.785 404.454L319.687 406.02C317.887 405.156 316.573 403.446 315.853 401.466C315.133 403.644 313.765 405.516 311.929 406.416L310.795 404.85C313.297 403.644 314.845 400.638 314.845 397.974V396.642H311.389V395.004ZM321.577 393.438H323.575V399.684H326.005V401.322H323.575V409.458H321.577V393.438ZM332.035 394.104C334.447 394.104 336.193 395.49 336.193 397.488C336.193 399.45 334.447 400.854 332.035 400.854C329.641 400.854 327.877 399.45 327.877 397.488C327.877 395.49 329.641 394.104 332.035 394.104ZM332.035 395.724C330.739 395.724 329.785 396.39 329.785 397.488C329.785 398.568 330.739 399.234 332.035 399.234C333.349 399.234 334.303 398.568 334.303 397.488C334.303 396.39 333.349 395.724 332.035 395.724ZM338.155 393.42H340.135V409.458H338.155V393.42ZM326.851 401.952C329.713 401.952 333.709 401.934 337.165 401.394L337.291 402.852C335.905 403.122 334.483 403.284 333.097 403.392V408.954H331.117V403.518C329.659 403.572 328.291 403.59 327.085 403.59L326.851 401.952ZM353.924 393.42H355.904V405.588H353.924V404.166H350.828V402.798H353.924V393.42ZM344.6 404.418H346.58V407.55H356.282V409.134H344.6V404.418ZM342.494 400.638C345.428 400.62 349.352 400.584 352.754 400.17L352.862 401.574C351.566 401.79 350.198 401.934 348.866 402.024V405.102H346.886V402.132C345.41 402.204 343.988 402.222 342.746 402.222L342.494 400.638ZM347.66 394.014C350.018 394.014 351.638 395.148 351.638 396.84C351.638 398.568 350.018 399.684 347.66 399.684C345.32 399.684 343.682 398.568 343.682 396.84C343.682 395.148 345.32 394.014 347.66 394.014ZM347.66 395.454C346.436 395.454 345.572 395.958 345.572 396.84C345.572 397.722 346.436 398.226 347.66 398.226C348.92 398.226 349.748 397.722 349.748 396.84C349.748 395.958 348.92 395.454 347.66 395.454ZM369.566 393.438H371.528V409.458H369.566V393.438ZM358.388 405.012C359.63 405.012 361.052 405.012 362.546 404.976V403.482C360.764 403.194 359.612 402.096 359.612 400.566C359.612 398.766 361.196 397.578 363.536 397.578C365.858 397.578 367.478 398.766 367.478 400.566C367.478 402.096 366.308 403.194 364.526 403.482V404.904C365.93 404.832 367.334 404.724 368.666 404.544L368.792 405.966C365.282 406.614 361.502 406.632 358.622 406.632L358.388 405.012ZM358.694 395.274H362.546V393.474H364.526V395.274H368.378V396.822H358.694V395.274ZM363.536 399.072C362.33 399.072 361.484 399.63 361.484 400.566C361.484 401.502 362.33 402.06 363.536 402.06C364.76 402.06 365.588 401.502 365.588 400.566C365.588 399.63 364.76 399.072 363.536 399.072ZM382.697 406.596C384.029 406.596 384.929 405.534 384.929 403.896C384.929 402.276 384.029 401.196 382.697 401.196C381.365 401.196 380.465 402.258 380.465 403.896C380.465 405.534 381.347 406.596 382.697 406.596ZM382.697 399.558C385.127 399.558 386.837 401.358 386.837 403.896C386.837 406.416 385.127 408.234 382.697 408.234C380.267 408.234 378.557 406.416 378.557 403.896C378.557 401.358 380.267 399.558 382.697 399.558ZM388.688 408.162V399.576H390.596V400.836C391.172 400.026 392.216 399.486 393.224 399.54V401.304C391.694 401.232 390.596 402.582 390.596 403.896V408.162H388.688ZM410.465 393.42H412.355V409.44H410.465V401.34H408.719V408.648H406.883V393.744H408.719V399.738H410.465V393.42ZM399.395 395.274H401.357V403.734C402.707 403.716 404.237 403.59 405.893 403.266L406.091 404.976C403.967 405.372 402.131 405.462 400.475 405.462H399.395V395.274ZM414.443 402.78H428.951V404.346H422.633V409.458H420.653V404.346H414.443V402.78ZM416.153 394.068H418.115V396.03H425.225V394.068H427.169V401.088H416.153V394.068ZM418.115 397.578V399.504H425.225V397.578H418.115ZM430.157 403.014H444.665V404.634H438.401V409.476H436.403V404.634H430.157V403.014ZM432.029 394.122H442.937V395.688H433.973V397.092H442.595V398.622H433.973V400.098H443.117V401.682H432.029V394.122ZM446.178 395.004H454.926V396.642H451.596V397.974C451.596 400.44 453.072 403.284 455.574 404.454L454.476 406.02C452.676 405.156 451.362 403.446 450.642 401.466C449.922 403.644 448.554 405.516 446.718 406.416L445.584 404.85C448.086 403.644 449.634 400.638 449.634 397.974V396.642H446.178V395.004ZM456.366 393.438H458.364V399.684H460.794V401.322H458.364V409.458H456.366V393.438ZM466.824 394.104C469.236 394.104 470.982 395.49 470.982 397.488C470.982 399.45 469.236 400.854 466.824 400.854C464.43 400.854 462.666 399.45 462.666 397.488C462.666 395.49 464.43 394.104 466.824 394.104ZM466.824 395.724C465.528 395.724 464.574 396.39 464.574 397.488C464.574 398.568 465.528 399.234 466.824 399.234C468.138 399.234 469.092 398.568 469.092 397.488C469.092 396.39 468.138 395.724 466.824 395.724ZM472.944 393.42H474.924V409.458H472.944V393.42ZM461.64 401.952C464.502 401.952 468.498 401.934 471.954 401.394L472.08 402.852C470.694 403.122 469.272 403.284 467.886 403.392V408.954H465.906V403.518C464.448 403.572 463.08 403.59 461.874 403.59L461.64 401.952ZM488.713 393.42H490.693V405.588H488.713V404.166H485.617V402.798H488.713V393.42ZM479.389 404.418H481.369V407.55H491.071V409.134H479.389V404.418ZM477.283 400.638C480.217 400.62 484.141 400.584 487.543 400.17L487.651 401.574C486.355 401.79 484.987 401.934 483.655 402.024V405.102H481.675V402.132C480.199 402.204 478.777 402.222 477.535 402.222L477.283 400.638ZM482.449 394.014C484.807 394.014 486.427 395.148 486.427 396.84C486.427 398.568 484.807 399.684 482.449 399.684C480.109 399.684 478.471 398.568 478.471 396.84C478.471 395.148 480.109 394.014 482.449 394.014ZM482.449 395.454C481.225 395.454 480.361 395.958 480.361 396.84C480.361 397.722 481.225 398.226 482.449 398.226C483.709 398.226 484.537 397.722 484.537 396.84C484.537 395.958 483.709 395.454 482.449 395.454ZM504.355 393.438H506.317V409.458H504.355V393.438ZM493.177 405.012C494.419 405.012 495.841 405.012 497.335 404.976V403.482C495.553 403.194 494.401 402.096 494.401 400.566C494.401 398.766 495.985 397.578 498.325 397.578C500.647 397.578 502.267 398.766 502.267 400.566C502.267 402.096 501.097 403.194 499.315 403.482V404.904C500.719 404.832 502.123 404.724 503.455 404.544L503.581 405.966C500.071 406.614 496.291 406.632 493.411 406.632L493.177 405.012ZM493.483 395.274H497.335V393.474H499.315V395.274H503.167V396.822H493.483V395.274ZM498.325 399.072C497.119 399.072 496.273 399.63 496.273 400.566C496.273 401.502 497.119 402.06 498.325 402.06C499.549 402.06 500.377 401.502 500.377 400.566C500.377 399.63 499.549 399.072 498.325 399.072Z" fill="#6D0CA6"/>
<path fill-rule="evenodd" clip-rule="evenodd" d="M410.348 451.151C410.816 451.62 410.816 452.38 410.348 452.848L401.499 461.697L392.651 452.848C392.182 452.38 392.182 451.62 392.651 451.151C393.119 450.683 393.879 450.683 394.348 451.151L401.499 458.303L408.651 451.151C409.119 450.683 409.879 450.683 410.348 451.151Z" fill="#A1A1AA"/>
<path d="M240.5 488C240.5 483.582 244.082 480 248.5 480H554.5C558.918 480 562.5 483.582 562.5 488V533C562.5 537.418 558.918 541 554.5 541H248.5C244.082 541 240.5 537.418 240.5 533V488Z" fill="#F5EBFB"/>
<path d="M379.895 502.42H381.875V510.52H379.895V509.152H376.097V507.64H379.895V506.056H376.295C375.305 508.504 372.965 510.088 369.437 510.88L368.789 509.296C372.533 508.486 374.369 506.812 374.621 504.688H369.653V503.104H376.817C376.817 503.608 376.781 504.094 376.709 504.562H379.895V502.42ZM371.399 511.168H381.875V515.398H373.397V516.73H382.271V518.296H371.435V513.904H379.895V512.716H371.399V511.168ZM384.989 504.076H393.179V505.21C393.179 506.686 393.179 508.666 392.729 511.438L390.785 511.276C391.181 508.864 391.235 507.046 391.235 505.66H384.989V504.076ZM387.221 508.666H389.165V513.418C390.803 513.346 392.459 513.256 393.971 513.058L394.079 514.498C390.803 515.038 387.149 515.11 384.359 515.11L384.143 513.49L387.221 513.472V508.666ZM394.799 502.42H396.761V508.972H399.083V510.61H396.761V518.44H394.799V502.42ZM404.168 510.772H410.414V509.566H406.022V502.87H416.948V504.382H407.984V505.444H416.57V506.92H407.984V508.054H417.056V509.566H412.394V510.772H418.64V512.338H404.168V510.772ZM411.404 513.256C414.896 513.256 416.93 514.138 416.93 515.848C416.93 517.54 414.896 518.44 411.404 518.44C407.876 518.44 405.86 517.54 405.86 515.848C405.86 514.138 407.876 513.256 411.404 513.256ZM411.404 514.696C409.046 514.696 407.858 515.074 407.858 515.848C407.858 516.622 409.046 516.982 411.404 516.982C413.744 516.982 414.95 516.622 414.95 515.848C414.95 515.074 413.744 514.696 411.404 514.696ZM419.919 514.894H426.165V511.762H421.521V503.482H423.483V506.092H430.827V503.482H432.789V511.762H428.127V514.894H434.427V516.514H419.919V514.894ZM423.483 507.658V510.178H430.827V507.658H423.483Z" fill="#6D0CA6"/>
<path fill-rule="evenodd" clip-rule="evenodd" d="M410.348 560.151C410.816 560.62 410.816 561.38 410.348 561.848L401.499 570.697L392.651 561.848C392.182 561.38 392.182 560.62 392.651 560.151C393.119 559.683 393.879 559.683 394.348 560.151L401.499 567.303L408.651 560.151C409.119 559.683 409.879 559.683 410.348 560.151Z" fill="#A1A1AA"/>
<path d="M425.976 568.362H430.848V565.506H432.388V568.362H437.26V569.622H425.976V568.362ZM426.914 559.682H436.294V560.914H432.402C432.444 562.706 434.264 564.344 436.812 564.736L436.21 565.954C434.11 565.562 432.416 564.456 431.618 562.902C430.82 564.47 429.14 565.604 427.068 566.01L426.452 564.792C428.958 564.386 430.764 562.706 430.806 560.914H426.914V559.682ZM447.018 558.66H448.558V567.802H447.018V563.63H444.666V562.37H447.018V558.66ZM444.736 559.612C444.736 562.916 442.594 565.366 438.996 566.528L438.352 565.296C441.054 564.428 442.804 562.832 443.084 560.844H439.01V559.612H444.736ZM440.508 566.892H442.062V569.65H448.866V570.882H440.508V566.892ZM453.675 564.722H464.931V565.94H460.059V566.962C462.285 567.088 463.587 567.816 463.587 569.034C463.587 570.378 461.991 571.12 459.289 571.12C456.573 571.12 454.977 570.378 454.977 569.034C454.977 567.816 456.279 567.088 458.519 566.962V565.94H453.675V564.722ZM458.519 558.674H460.073V559.822H463.825V561.026H460.171C460.395 562.034 461.837 562.874 464.371 563.042L463.923 564.218C461.697 564.036 460.073 563.35 459.289 562.286C458.519 563.35 456.881 564.036 454.669 564.218L454.207 563.042C456.741 562.874 458.197 562.034 458.421 561.026H454.781V559.822H458.519V558.674ZM459.289 568.068C457.483 568.068 456.531 568.376 456.531 569.034C456.531 569.664 457.483 569.986 459.289 569.986C461.081 569.986 462.033 569.664 462.033 569.034C462.033 568.376 461.081 568.068 459.289 568.068ZM466.934 559.164H476.16V560.382H472.618C472.856 561.446 474.312 562.412 476.636 562.636L476.09 563.84C473.85 563.602 472.198 562.692 471.54 561.404C470.882 562.692 469.23 563.602 466.99 563.84L466.444 562.636C468.768 562.412 470.238 561.432 470.476 560.382H466.934V559.164ZM465.912 564.806H470.756V563.098H472.296V564.806H477.182V566.038H465.912V564.806ZM467.158 567.074H475.796V571.134H474.27V568.278H467.158V567.074ZM484.482 559.682H486.036V561.642C486.036 563.938 487.212 566.234 489.214 567.116L488.318 568.362C486.876 567.69 485.84 566.36 485.28 564.736C484.72 566.486 483.656 567.914 482.158 568.628L481.234 567.354C483.278 566.444 484.482 564.05 484.482 561.642V559.682ZM490.096 558.646H491.636V571.148H490.096V558.646Z" fill="#3F3F46"/>
<path d="M240.5 597C240.5 592.582 244.082 589 248.5 589H554.5C558.918 589 562.5 592.582 562.5 597V642C562.5 646.418 558.918 650 554.5 650H248.5C244.082 650 240.5 646.418 240.5 642V597Z" fill="#F5EBFB"/>
<path d="M371.921 611.402H373.919V627.476H371.921V611.402ZM365.351 612.572C367.763 612.572 369.509 614.768 369.509 618.242C369.509 621.734 367.763 623.93 365.351 623.93C362.939 623.93 361.193 621.734 361.193 618.242C361.193 614.768 362.939 612.572 365.351 612.572ZM365.351 614.372C364.019 614.372 363.101 615.794 363.101 618.242C363.101 620.708 364.019 622.148 365.351 622.148C366.683 622.148 367.601 620.708 367.601 618.242C367.601 615.794 366.683 614.372 365.351 614.372ZM380.165 612.734H382.127V615.254C382.127 618.098 383.513 621.032 385.979 622.238L384.773 623.804C383.063 622.922 381.839 621.248 381.155 619.214C380.453 621.392 379.157 623.192 377.339 624.11L376.151 622.508C378.707 621.284 380.165 618.206 380.165 615.254V612.734ZM386.897 611.438H388.895V617.72H391.343V619.376H388.895V627.458H386.897V611.438ZM403.422 611.438H405.384V627.458H403.422V611.438ZM392.244 623.012C393.486 623.012 394.908 623.012 396.402 622.976V621.482C394.62 621.194 393.468 620.096 393.468 618.566C393.468 616.766 395.052 615.578 397.392 615.578C399.714 615.578 401.334 616.766 401.334 618.566C401.334 620.096 400.164 621.194 398.382 621.482V622.904C399.786 622.832 401.19 622.724 402.522 622.544L402.648 623.966C399.138 624.614 395.358 624.632 392.478 624.632L392.244 623.012ZM392.55 613.274H396.402V611.474H398.382V613.274H402.234V614.822H392.55V613.274ZM397.392 617.072C396.186 617.072 395.34 617.63 395.34 618.566C395.34 619.502 396.186 620.06 397.392 620.06C398.616 620.06 399.444 619.502 399.444 618.566C399.444 617.63 398.616 617.072 397.392 617.072ZM423.374 611.42H425.354V619.52H423.374V618.152H419.576V616.64H423.374V615.056H419.774C418.784 617.504 416.444 619.088 412.916 619.88L412.268 618.296C416.012 617.486 417.848 615.812 418.1 613.688H413.132V612.104H420.296C420.296 612.608 420.26 613.094 420.188 613.562H423.374V611.42ZM414.878 620.168H425.354V624.398H416.876V625.73H425.75V627.296H414.914V622.904H423.374V621.716H414.878V620.168ZM432.933 612.518C435.435 612.518 437.289 614.138 437.289 616.406C437.289 618.692 435.435 620.294 432.933 620.294C430.413 620.294 428.559 618.692 428.559 616.406C428.559 614.138 430.413 612.518 432.933 612.518ZM432.933 614.228C431.529 614.228 430.485 615.056 430.485 616.406C430.485 617.738 431.529 618.602 432.933 618.602C434.319 618.602 435.363 617.738 435.363 616.406C435.363 615.056 434.319 614.228 432.933 614.228ZM439.035 611.402H440.997V627.476H439.035V611.402ZM427.839 622.508C430.683 622.508 434.679 622.49 438.081 621.968L438.225 623.408C434.715 624.092 430.881 624.128 428.073 624.128L427.839 622.508Z" fill="#6D0CA6"/>
<path fill-rule="evenodd" clip-rule="evenodd" d="M410.348 669.151C410.816 669.62 410.816 670.38 410.348 670.848L401.499 679.697L392.651 670.848C392.182 670.38 392.182 669.62 392.651 669.151C393.119 668.683 393.879 668.683 394.348 669.151L401.499 676.303L408.651 669.151C409.119 668.683 409.879 668.683 410.348 669.151Z" fill="#A1A1AA"/>
<path d="M425.976 677.362H430.848V674.506H432.388V677.362H437.26V678.622H425.976V677.362ZM426.914 668.682H436.294V669.914H432.402C432.444 671.706 434.264 673.344 436.812 673.736L436.21 674.954C434.11 674.562 432.416 673.456 431.618 671.902C430.82 673.47 429.14 674.604 427.068 675.01L426.452 673.792C428.958 673.386 430.764 671.706 430.806 669.914H426.914V668.682ZM447.018 667.66H448.558V676.802H447.018V672.63H444.666V671.37H447.018V667.66ZM444.736 668.612C444.736 671.916 442.594 674.366 438.996 675.528L438.352 674.296C441.054 673.428 442.804 671.832 443.084 669.844H439.01V668.612H444.736ZM440.508 675.892H442.062V678.65H448.866V679.882H440.508V675.892ZM453.675 673.722H464.931V674.94H460.059V675.962C462.285 676.088 463.587 676.816 463.587 678.034C463.587 679.378 461.991 680.12 459.289 680.12C456.573 680.12 454.977 679.378 454.977 678.034C454.977 676.816 456.279 676.088 458.519 675.962V674.94H453.675V673.722ZM458.519 667.674H460.073V668.822H463.825V670.026H460.171C460.395 671.034 461.837 671.874 464.371 672.042L463.923 673.218C461.697 673.036 460.073 672.35 459.289 671.286C458.519 672.35 456.881 673.036 454.669 673.218L454.207 672.042C456.741 671.874 458.197 671.034 458.421 670.026H454.781V668.822H458.519V667.674ZM459.289 677.068C457.483 677.068 456.531 677.376 456.531 678.034C456.531 678.664 457.483 678.986 459.289 678.986C461.081 678.986 462.033 678.664 462.033 678.034C462.033 677.376 461.081 677.068 459.289 677.068ZM466.934 668.164H476.16V669.382H472.618C472.856 670.446 474.312 671.412 476.636 671.636L476.09 672.84C473.85 672.602 472.198 671.692 471.54 670.404C470.882 671.692 469.23 672.602 466.99 672.84L466.444 671.636C468.768 671.412 470.238 670.432 470.476 669.382H466.934V668.164ZM465.912 673.806H470.756V672.098H472.296V673.806H477.182V675.038H465.912V673.806ZM467.158 676.074H475.796V680.134H474.27V677.278H467.158V676.074ZM484.482 668.682H486.036V670.642C486.036 672.938 487.212 675.234 489.214 676.116L488.318 677.362C486.876 676.69 485.84 675.36 485.28 673.736C484.72 675.486 483.656 676.914 482.158 677.628L481.234 676.354C483.278 675.444 484.482 673.05 484.482 670.642V668.682ZM490.096 667.646H491.636V680.148H490.096V667.646Z" fill="#3F3F46"/>
<path d="M240.5 706C240.5 701.582 244.082 698 248.5 698H554.5C558.918 698 562.5 701.582 562.5 706V751C562.5 755.418 558.918 759 554.5 759H248.5C244.082 759 240.5 755.418 240.5 751V706Z" fill="#F5EBFB"/>
<path d="M370.647 729.384H385.137V730.986H378.837V736.476H376.857V730.986H370.647V729.384ZM371.961 721.32H383.787V722.904H379.035C379.179 724.65 381.249 726.342 384.381 726.738L383.643 728.322C380.961 727.926 378.855 726.648 377.901 724.92C376.929 726.648 374.823 727.926 372.141 728.322L371.403 726.738C374.535 726.342 376.605 724.65 376.749 722.904H371.961V721.32ZM386.38 729.384H400.87V730.986H394.57V736.476H392.59V730.986H386.38V729.384ZM387.694 721.32H399.52V722.904H394.768C394.912 724.65 396.982 726.342 400.114 726.738L399.376 728.322C396.694 727.926 394.588 726.648 393.634 724.92C392.662 726.648 390.556 727.926 387.874 728.322L387.136 726.738C390.268 726.342 392.338 724.65 392.482 722.904H387.694V721.32ZM402.112 728.556H408.34V726.882H410.338V728.556H416.584V730.14H402.112V728.556ZM408.34 720.438H410.338V721.914H415.162V723.462H410.464C410.698 724.794 412.57 725.892 415.864 726.126L415.288 727.62C412.426 727.386 410.338 726.522 409.33 725.136C408.34 726.522 406.234 727.386 403.39 727.62L402.796 726.126C406.09 725.892 407.98 724.794 408.214 723.462H403.534V721.914H408.34V720.438ZM409.33 731.058C412.804 731.058 414.856 732.012 414.856 733.758C414.856 735.486 412.804 736.44 409.33 736.44C405.838 736.44 403.786 735.486 403.786 733.758C403.786 732.012 405.838 731.058 409.33 731.058ZM409.33 732.516C407.008 732.516 405.784 732.912 405.784 733.758C405.784 734.568 407.008 734.982 409.33 734.982C411.634 734.982 412.858 734.568 412.858 733.758C412.858 732.912 411.634 732.516 409.33 732.516ZM429.094 720.438H431.056V736.458H429.094V720.438ZM417.916 732.012C419.158 732.012 420.58 732.012 422.074 731.976V730.482C420.292 730.194 419.14 729.096 419.14 727.566C419.14 725.766 420.724 724.578 423.064 724.578C425.386 724.578 427.006 725.766 427.006 727.566C427.006 729.096 425.836 730.194 424.054 730.482V731.904C425.458 731.832 426.862 731.724 428.194 731.544L428.32 732.966C424.81 733.614 421.03 733.632 418.15 733.632L417.916 732.012ZM418.222 722.274H422.074V720.474H424.054V722.274H427.906V723.822H418.222V722.274ZM423.064 726.072C421.858 726.072 421.012 726.63 421.012 727.566C421.012 728.502 421.858 729.06 423.064 729.06C424.288 729.06 425.116 728.502 425.116 727.566C425.116 726.63 424.288 726.072 423.064 726.072Z" fill="#6D0CA6"/>
<path d="M574.5 401L582 405.33V396.67L574.5 401ZM580.632 401V401.75H584.721V401V400.25H580.632V401ZM588.809 401V401.75H592.897V401V400.25H588.809V401ZM596.985 401V401.75H601.074V401V400.25H596.985V401ZM605.162 401V401.75H609.25V401V400.25H605.162V401ZM613.338 401V401.75H617.426V401V400.25H613.338V401ZM621.515 401V401.75H625.603V401V400.25H621.515V401ZM629.691 401V401.75H633.779V401V400.25H629.691V401ZM637.868 401V401.75H641.956V401V400.25H637.868V401ZM646.044 401V401.75H650.132V401V400.25H646.044V401ZM654.221 401V401.75H658.309V401V400.25H654.221V401ZM662.397 401V401.75H666.485V401V400.25H662.397V401ZM670.574 401V401.75H674.662V401V400.25H670.574V401ZM678.75 401V401.75H682.838V401V400.25H678.75V401ZM686.926 401V401.75H691.015V401V400.25H686.926V401ZM695.103 401V401.75H699.191V401V400.25H695.103V401ZM703.279 401V401.75H707.368V401V400.25H703.279V401ZM711.456 401V401.75H713.5V401V400.25H711.456V401ZM713.5 401V401.75C714.143 401.75 714.757 401.622 715.318 401.389L715.031 400.696L714.744 400.004C714.362 400.162 713.942 400.25 713.5 400.25V401ZM717.196 398.531L717.889 398.818C718.122 398.257 718.25 397.643 718.25 397H717.5H716.75C716.75 397.442 716.662 397.862 716.504 398.244L717.196 398.531ZM717.5 397H718.25V394.981H717.5H716.75V397H717.5ZM717.5 390.942H718.25V386.904H717.5H716.75V390.942H717.5ZM717.5 382.865H718.25V378.827H717.5H716.75V382.865H717.5ZM717.5 374.788H718.25V370.75H717.5H716.75V374.788H717.5ZM717.5 366.712H718.25V362.673H717.5H716.75V366.712H717.5ZM717.5 358.635H718.25V354.596H717.5H716.75V358.635H717.5ZM717.5 350.558H718.25V346.519H717.5H716.75V350.558H717.5ZM717.5 342.481H718.25V338.442H717.5H716.75V342.481H717.5ZM717.5 334.404H718.25V330.365H717.5H716.75V334.404H717.5ZM717.5 326.327H718.25V322.288H717.5H716.75V326.327H717.5ZM717.5 318.25H718.25V314.212H717.5H716.75V318.25H717.5ZM717.5 310.173H718.25V306.135H717.5H716.75V310.173H717.5ZM717.5 302.096H718.25V298.058H717.5H716.75V302.096H717.5ZM717.5 294.019H718.25V289.981H717.5H716.75V294.019H717.5ZM717.5 285.942H718.25V281.904H717.5H716.75V285.942H717.5ZM717.5 277.865H718.25V273.827H717.5H716.75V277.865H717.5ZM717.5 269.789H718.25V265.75H717.5H716.75V269.789H717.5ZM717.5 261.712H718.25V257.673H717.5H716.75V261.712H717.5ZM717.5 253.635H718.25V249.596H717.5H716.75V253.635H717.5ZM717.5 245.558H718.25V241.519H717.5H716.75V245.558H717.5ZM717.5 237.481H718.25V233.442H717.5H716.75V237.481H717.5ZM717.5 229.404H718.25V225.365H717.5H716.75V229.404H717.5ZM717.5 221.327H718.25V217.288H717.5H716.75V221.327H717.5ZM717.5 213.25H718.25V209.211H717.5H716.75V213.25H717.5ZM717.5 205.173H718.25V201.135H717.5H716.75V205.173H717.5ZM717.5 197.096H718.25V193.058H717.5H716.75V197.096H717.5ZM717.5 189.019H718.25V187H717.5H716.75V189.019H717.5ZM717.5 187H718.25C718.25 186.357 718.122 185.743 717.889 185.182L717.196 185.469L716.504 185.756C716.662 186.138 716.75 186.558 716.75 187H717.5ZM715.031 183.304L715.318 182.611C714.757 182.378 714.143 182.25 713.5 182.25V183V183.75C713.942 183.75 714.362 183.838 714.744 183.996L715.031 183.304ZM713.5 183V182.25H711.456V183V183.75H713.5V183ZM707.368 183V182.25H703.279V183V183.75H707.368V183ZM699.191 183V182.25H695.103V183V183.75H699.191V183ZM691.015 183V182.25H686.926V183V183.75H691.015V183ZM682.838 183V182.25H678.75V183V183.75H682.838V183ZM674.662 183V182.25H670.574V183V183.75H674.662V183ZM666.485 183V182.25H662.397V183V183.75H666.485V183ZM658.309 183V182.25H654.221V183V183.75H658.309V183ZM650.132 183V182.25H646.044V183V183.75H650.132V183ZM641.956 183V182.25H637.868V183V183.75H641.956V183ZM633.779 183V182.25H629.691V183V183.75H633.779V183ZM625.603 183V182.25H621.515V183V183.75H625.603V183ZM617.426 183V182.25H613.338V183V183.75H617.426V183ZM609.25 183V182.25H605.162V183V183.75H609.25V183ZM601.074 183V182.25H596.985V183V183.75H601.074V183ZM592.897 183V182.25H588.809V183V183.75H592.897V183ZM584.721 183V182.25H580.632V183V183.75H584.721V183ZM576.544 183V182.25H574.5V183V183.75H576.544V183Z" fill="#A1A1AA"/>
<path d="M643.5 255C643.5 250.582 647.082 247 651.5 247H786.5C790.918 247 794.5 250.582 794.5 255V329C794.5 333.418 790.918 337 786.5 337H651.5C647.082 337 643.5 333.418 643.5 329V255Z" fill="#F5EBFB"/>
<path d="M679.588 269.42H681.586V281.264H679.588V277.79H675.754V276.188H679.588V274.172H676.006C674.872 276.638 672.532 278.492 669.31 279.518L668.464 277.934C671.974 276.836 674.26 274.766 674.602 272.228H669.31V270.644H676.744C676.744 271.328 676.672 271.976 676.528 272.588H679.588V269.42ZM671.218 280.13H673.216V283.55H681.964V285.134H671.218V280.13ZM695.789 269.42H697.661V285.44H695.789V269.42ZM690.281 275.018H692.567V269.726H694.403V284.684H692.567V276.62H690.281V275.018ZM684.233 271.13H691.451V272.75H688.913V273.794C688.913 276.494 689.849 279.23 692.117 280.562L690.947 281.984C689.489 281.102 688.517 279.59 687.959 277.772C687.419 279.752 686.411 281.426 684.899 282.38L683.711 280.922C685.997 279.482 686.987 276.602 686.987 273.794V272.75H684.233V271.13ZM712.412 273.668H715.202V269.438H717.182V281.12H715.202V275.27H712.412V273.668ZM706.724 280.13H708.722V283.55H717.578V285.134H706.724V280.13ZM704.384 270.59H712.988V272.174H709.712V272.606C709.712 274.55 710.99 276.548 713.438 277.376L712.466 278.924C710.684 278.312 709.442 277.088 708.74 275.558C708.056 277.25 706.724 278.618 704.834 279.266L703.826 277.7C706.364 276.836 707.714 274.73 707.714 272.606V272.174H704.384V270.59ZM730.178 269.42H732.158V273.146H734.372V274.748H732.158V278.438H730.178V269.42ZM720.278 270.446H727.37V272.03H722.258V276.152C725.246 276.134 726.902 276.026 728.756 275.648L728.954 277.232C726.902 277.664 725.066 277.754 721.574 277.754H720.278V270.446ZM721.88 279.194H732.158V285.242H721.88V279.194ZM730.232 280.742H723.824V283.676H730.232V280.742ZM739.493 281.894H745.757V278.222H747.737V281.894H754.001V283.514H739.493V281.894ZM740.699 270.734H752.759V272.318H747.755C747.809 274.622 750.149 276.728 753.425 277.232L752.651 278.798C749.951 278.294 747.773 276.872 746.747 274.874C745.721 276.89 743.561 278.348 740.897 278.87L740.105 277.304C743.327 276.782 745.649 274.622 745.703 272.318H740.699V270.734ZM766.457 269.42H768.437V279.086H766.457V269.42ZM757.619 279.86H768.437V285.458H766.457V281.444H757.619V279.86ZM755.855 270.446H764.585V272.012H761.237V272.192C761.237 274.19 762.623 276.134 765.125 276.962L764.117 278.492C762.299 277.916 761.003 276.692 760.283 275.162C759.563 276.818 758.231 278.132 756.341 278.78L755.333 277.25C757.889 276.386 759.221 274.298 759.221 272.192V272.012H755.855V270.446ZM672.787 306.502C672.787 304.162 673.705 301.084 675.001 299.032H677.017C675.541 301.066 674.515 304.144 674.515 306.502C674.515 308.86 675.541 311.938 677.017 313.972H675.001C673.705 311.92 672.787 308.842 672.787 306.502ZM684.456 306.484C685.914 306.484 686.904 305.53 686.904 304C686.904 302.47 685.914 301.534 684.456 301.534H681.558V306.484H684.456ZM689.442 313.144H687.138L683.772 308.158H681.558V313.144H679.65V299.86H684.69C687.12 299.86 688.812 301.516 688.812 303.964C688.83 305.692 687.894 307.168 685.896 307.888L689.442 313.144ZM694.836 313.198C692.406 313.198 690.696 311.416 690.696 308.896C690.696 306.358 692.406 304.576 694.836 304.576C697.5 304.576 698.346 306.754 698.4 306.898C698.922 308.122 698.76 309.49 698.76 309.634H692.568C692.784 310.786 693.756 311.578 694.836 311.578C696.258 311.578 696.834 310.75 696.978 310.498L698.508 311.182C698.094 312.154 696.888 313.198 694.836 313.198ZM696.96 308.122C696.78 307.06 696.168 306.196 694.836 306.196C693.684 306.196 692.784 307.006 692.568 308.122H696.96ZM704.608 313.234C702.232 313.234 700.522 311.434 700.522 308.896C700.522 306.358 702.232 304.558 704.608 304.558C705.31 304.558 706.372 304.864 707.11 305.836V300.292H709.018V313.162H707.11V311.956C706.354 312.874 705.31 313.234 704.608 313.234ZM704.734 311.632C706.03 311.632 707.11 310.444 707.11 308.914C707.11 307.402 706.03 306.196 704.734 306.196C703.348 306.196 702.43 307.276 702.43 308.914C702.43 310.552 703.348 311.632 704.734 311.632ZM725.021 299.86V301.534H721.277V313.144H719.351V301.534H715.589V299.86H725.021ZM729.201 313.198C726.771 313.198 725.061 311.416 725.061 308.896C725.061 306.358 726.771 304.576 729.201 304.576C731.865 304.576 732.711 306.754 732.765 306.898C733.287 308.122 733.125 309.49 733.125 309.634H726.933C727.149 310.786 728.121 311.578 729.201 311.578C730.623 311.578 731.199 310.75 731.343 310.498L732.873 311.182C732.459 312.154 731.253 313.198 729.201 313.198ZM731.325 308.122C731.145 307.06 730.533 306.196 729.201 306.196C728.049 306.196 727.149 307.006 726.933 308.122H731.325ZM738.955 313.234C736.579 313.234 734.887 311.434 734.887 308.914C734.887 306.394 736.579 304.594 738.955 304.594C739.801 304.594 740.737 304.99 741.421 305.8V304.576H743.329V313.162H741.421V312.01C740.737 312.874 739.801 313.234 738.955 313.234ZM739.081 311.614C740.341 311.614 741.421 310.48 741.439 308.914C741.421 307.348 740.341 306.214 739.081 306.214C737.713 306.214 736.795 307.276 736.795 308.914C736.795 310.534 737.713 311.614 739.081 311.614ZM756.578 308.284C756.578 307.06 755.912 306.25 754.94 306.25C753.842 306.25 753.104 307.096 753.104 308.194V313.162H751.178V308.284C751.178 307.06 750.53 306.25 749.576 306.25C748.478 306.25 747.704 307.186 747.704 308.392V313.162H745.796V304.576H747.704V305.746C748.208 305.062 748.946 304.594 749.756 304.594C750.782 304.594 751.79 305.242 752.294 306.142C752.888 305.242 754.04 304.594 755.066 304.594C757.1 304.594 758.504 306.106 758.504 308.212V313.162H756.578V308.284ZM765.19 306.502C765.19 308.842 764.29 311.902 762.994 313.972H760.978C762.436 311.956 763.462 308.86 763.462 306.502C763.462 304.144 762.436 301.048 760.978 299.032H762.994C764.29 301.102 765.19 304.162 765.19 306.502Z" fill="#6D0CA6"/>
<path d="M737.476 218.362H742.348V215.506H743.888V218.362H748.76V219.622H737.476V218.362ZM738.414 209.682H747.794V210.914H743.902C743.944 212.706 745.764 214.344 748.312 214.736L747.71 215.954C745.61 215.562 743.916 214.456 743.118 212.902C742.32 214.47 740.64 215.604 738.568 216.01L737.952 214.792C740.458 214.386 742.264 212.706 742.306 210.914H738.414V209.682ZM758.518 208.66H760.058V217.802H758.518V213.63H756.166V212.37H758.518V208.66ZM756.236 209.612C756.236 212.916 754.094 215.366 750.496 216.528L749.852 215.296C752.554 214.428 754.304 212.832 754.584 210.844H750.51V209.612H756.236ZM752.008 216.892H753.562V219.65H760.366V220.882H752.008V216.892ZM765.175 214.722H776.431V215.94H771.559V216.962C773.785 217.088 775.087 217.816 775.087 219.034C775.087 220.378 773.491 221.12 770.789 221.12C768.073 221.12 766.477 220.378 766.477 219.034C766.477 217.816 767.779 217.088 770.019 216.962V215.94H765.175V214.722ZM770.019 208.674H771.573V209.822H775.325V211.026H771.671C771.895 212.034 773.337 212.874 775.871 213.042L775.423 214.218C773.197 214.036 771.573 213.35 770.789 212.286C770.019 213.35 768.381 214.036 766.169 214.218L765.707 213.042C768.241 212.874 769.697 212.034 769.921 211.026H766.281V209.822H770.019V208.674ZM770.789 218.068C768.983 218.068 768.031 218.376 768.031 219.034C768.031 219.664 768.983 219.986 770.789 219.986C772.581 219.986 773.533 219.664 773.533 219.034C773.533 218.376 772.581 218.068 770.789 218.068ZM778.434 209.164H787.66V210.382H784.118C784.356 211.446 785.812 212.412 788.136 212.636L787.59 213.84C785.35 213.602 783.698 212.692 783.04 211.404C782.382 212.692 780.73 213.602 778.49 213.84L777.944 212.636C780.268 212.412 781.738 211.432 781.976 210.382H778.434V209.164ZM777.412 214.806H782.256V213.098H783.796V214.806H788.682V216.038H777.412V214.806ZM778.658 217.074H787.296V221.134H785.77V218.278H778.658V217.074ZM795.982 209.682H797.536V211.642C797.536 213.938 798.712 216.234 800.714 217.116L799.818 218.362C798.376 217.69 797.34 216.36 796.78 214.736C796.22 216.486 795.156 217.914 793.658 218.628L792.734 217.354C794.778 216.444 795.982 214.05 795.982 211.642V209.682ZM801.596 208.646H803.136V221.148H801.596V208.646ZM807.183 218.712L806.231 221.932H805.125L805.657 218.712H807.183ZM821.23 208.674H822.784V215.086H821.23V208.674ZM814.468 215.618H822.784V218.838H816.008V219.818H823.176V221.022H814.496V217.732H821.258V216.808H814.468V215.618ZM812.998 209.444H819.704V210.648H818.626V213.364C819.172 213.322 819.704 213.266 820.222 213.21L820.306 214.302C817.828 214.708 815 214.764 812.83 214.778L812.676 213.546H814.076V210.648H812.998V209.444ZM815.56 213.518L817.142 213.462V210.648H815.56V213.518ZM824.703 218.362H827.293V215.184C826.313 214.61 825.725 213.728 825.725 212.622C825.725 210.62 827.671 209.332 830.331 209.332C833.005 209.332 834.937 210.62 834.937 212.622C834.937 213.728 834.349 214.61 833.383 215.184V218.362H835.987V219.608H824.703V218.362ZM830.331 210.536C828.497 210.536 827.237 211.334 827.237 212.622C827.237 213.924 828.497 214.708 830.331 214.708C832.165 214.708 833.425 213.924 833.425 212.622C833.425 211.334 832.165 210.536 830.331 210.536ZM828.833 218.362H831.843V215.758C831.381 215.856 830.863 215.912 830.331 215.912C829.799 215.912 829.295 215.856 828.833 215.758V218.362ZM843.273 209.682H844.827V211.642C844.827 213.938 846.003 216.234 848.005 217.116L847.109 218.362C845.667 217.69 844.631 216.36 844.071 214.736C843.511 216.486 842.447 217.914 840.949 218.628L840.025 217.354C842.069 216.444 843.273 214.05 843.273 211.642V209.682ZM848.887 208.646H850.427V221.148H848.887V208.646Z" fill="#3F3F46"/>
</g>
<defs>
<filter id="filter0_d_20338_12511" x="0.657534" y="-0.00684941" width="1210.68" height="805.685" filterUnits="userSpaceOnUse" color-interpolation-filters="sRGB">
<feFlood flood-opacity="0" result="BackgroundImageFix"/>
<feColorMatrix in="SourceAlpha" type="matrix" values="0 0 0 0 0 0 0 0 0 0 0 0 0 0 0 0 0 0 127 0" result="hardAlpha"/>
<feOffset dy="1.33562"/>
<feGaussianBlur stdDeviation="2.67123"/>
<feComposite in2="hardAlpha" operator="out"/>
<feColorMatrix type="matrix" values="0 0 0 0 0 0 0 0 0 0 0 0 0 0 0 0 0 0 0.1 0"/>
<feBlend mode="normal" in2="BackgroundImageFix" result="effect1_dropShadow_20338_12511"/>
<feBlend mode="normal" in="SourceGraphic" in2="effect1_dropShadow_20338_12511" result="shape"/>
</filter>
</defs>
</svg>
