<svg width="1098" height="608" viewBox="0 0 1098 608" fill="none" xmlns="http://www.w3.org/2000/svg">
<g filter="url(#filter0_d_5829_4932)">
<rect x="721" y="336" width="207" height="104" rx="8" fill="white" shape-rendering="crispEdges"/>
<path d="M756.14 368.256C755.009 368.256 754.001 368 753.116 367.488C752.241 366.976 751.553 366.261 751.052 365.344C750.561 364.427 750.316 363.387 750.316 362.224C750.316 361.051 750.561 360.011 751.052 359.104C751.553 358.187 752.241 357.472 753.116 356.96C754.001 356.448 755.009 356.192 756.14 356.192C756.929 356.192 757.676 356.347 758.38 356.656C759.084 356.965 759.708 357.397 760.252 357.952L759.132 359.056C758.769 358.629 758.321 358.293 757.788 358.048C757.265 357.803 756.71 357.68 756.124 357.68C755.313 357.68 754.598 357.872 753.98 358.256C753.361 358.629 752.881 359.163 752.54 359.856C752.198 360.539 752.028 361.328 752.028 362.224C752.028 363.12 752.198 363.915 752.54 364.608C752.881 365.291 753.361 365.824 753.98 366.208C754.598 366.581 755.313 366.768 756.124 366.768C756.721 366.768 757.27 366.645 757.772 366.4C758.273 366.155 758.705 365.829 759.068 365.424L760.252 366.496C759.078 367.68 757.708 368.267 756.14 368.256ZM765.317 366.752C765.915 366.752 766.395 366.533 766.757 366.096C767.12 365.659 767.301 365.077 767.301 364.352C767.301 363.637 767.12 363.061 766.757 362.624C766.395 362.176 765.915 361.952 765.317 361.952C764.72 361.952 764.24 362.171 763.877 362.608C763.515 363.045 763.333 363.627 763.333 364.352C763.333 365.077 763.515 365.659 763.877 366.096C764.24 366.533 764.72 366.752 765.317 366.752ZM765.317 360.496C766.032 360.496 766.667 360.661 767.221 360.992C767.776 361.323 768.208 361.781 768.517 362.368C768.837 362.944 768.997 363.605 768.997 364.352C768.997 365.088 768.837 365.749 768.517 366.336C768.208 366.923 767.776 367.381 767.221 367.712C766.667 368.043 766.032 368.208 765.317 368.208C764.603 368.208 763.968 368.043 763.413 367.712C762.859 367.381 762.421 366.923 762.101 366.336C761.792 365.749 761.637 365.088 761.637 364.352C761.637 363.605 761.792 362.944 762.101 362.368C762.421 361.781 762.859 361.323 763.413 360.992C763.968 360.661 764.603 360.496 765.317 360.496ZM780.419 363.808C780.419 363.264 780.285 362.827 780.019 362.496C779.752 362.165 779.4 362 778.963 362C778.483 362 778.088 362.165 777.779 362.496C777.48 362.827 777.331 363.237 777.331 363.728V368.144H775.619V363.808C775.619 363.264 775.485 362.827 775.219 362.496C774.963 362.165 774.621 362 774.195 362C773.715 362 773.315 362.181 772.995 362.544C772.685 362.907 772.531 363.36 772.531 363.904V368.144H770.835V360.512H772.531V361.552C772.765 361.243 773.037 360.997 773.347 360.816C773.667 360.624 774.003 360.528 774.355 360.528C774.803 360.528 775.235 360.656 775.651 360.912C776.067 361.168 776.387 361.499 776.611 361.904C776.877 361.499 777.24 361.168 777.699 360.912C778.157 360.656 778.616 360.528 779.075 360.528C779.672 360.528 780.2 360.667 780.659 360.944C781.128 361.221 781.491 361.605 781.747 362.096C782.003 362.576 782.131 363.125 782.131 363.744V368.144H780.419V363.808ZM788.095 366.752C788.714 366.752 789.205 366.533 789.567 366.096C789.941 365.648 790.127 365.061 790.127 364.336C790.127 363.611 789.941 363.029 789.567 362.592C789.205 362.144 788.714 361.92 788.095 361.92C787.722 361.92 787.37 362.027 787.039 362.24C786.719 362.453 786.463 362.747 786.271 363.12C786.09 363.493 785.999 363.899 785.999 364.336C785.999 364.773 786.09 365.179 786.271 365.552C786.463 365.925 786.719 366.219 787.039 366.432C787.37 366.645 787.722 366.752 788.095 366.752ZM788.191 360.496C788.895 360.496 789.519 360.661 790.063 360.992C790.618 361.312 791.05 361.765 791.359 362.352C791.669 362.928 791.823 363.589 791.823 364.336C791.823 365.083 791.669 365.749 791.359 366.336C791.05 366.923 790.618 367.381 790.063 367.712C789.519 368.032 788.895 368.192 788.191 368.192C787.839 368.192 787.45 368.096 787.023 367.904C786.607 367.712 786.261 367.429 785.983 367.056V371.52H784.287V360.496H785.983V361.616C786.261 361.253 786.613 360.976 787.039 360.784C787.466 360.592 787.85 360.496 788.191 360.496ZM796.91 368.208C796.216 368.208 795.592 368.043 795.038 367.712C794.494 367.381 794.067 366.928 793.758 366.352C793.448 365.765 793.294 365.104 793.294 364.368C793.294 363.632 793.448 362.976 793.758 362.4C794.067 361.813 794.494 361.355 795.038 361.024C795.592 360.693 796.216 360.528 796.91 360.528C797.304 360.528 797.694 360.619 798.078 360.8C798.462 360.981 798.803 361.248 799.102 361.6V360.512H800.798V368.144H799.102V367.12C798.814 367.483 798.478 367.755 798.094 367.936C797.71 368.117 797.315 368.208 796.91 368.208ZM797.022 366.768C797.395 366.768 797.742 366.667 798.062 366.464C798.382 366.251 798.638 365.963 798.83 365.6C799.022 365.227 799.118 364.816 799.118 364.368C799.118 363.92 799.022 363.515 798.83 363.152C798.638 362.779 798.382 362.491 798.062 362.288C797.742 362.075 797.395 361.968 797.022 361.968C796.414 361.968 795.923 362.187 795.55 362.624C795.176 363.061 794.99 363.643 794.99 364.368C794.99 365.083 795.176 365.664 795.55 366.112C795.923 366.549 796.414 366.768 797.022 366.768ZM808.079 363.936C808.079 363.328 807.93 362.853 807.631 362.512C807.332 362.16 806.922 361.984 806.399 361.984C805.876 361.995 805.439 362.187 805.087 362.56C804.735 362.923 804.564 363.381 804.575 363.936V368.144H802.879V360.512H804.575V361.552C804.82 361.253 805.13 361.008 805.503 360.816C805.876 360.624 806.244 360.528 806.607 360.528C807.13 360.528 807.631 360.645 808.111 360.88C808.591 361.115 808.986 361.483 809.295 361.984C809.615 362.485 809.775 363.115 809.775 363.872V368.144H808.079V363.936ZM812.481 371.456L814.145 367.504L811.073 360.512H812.945L815.041 365.568L817.057 360.512H818.897L816.049 367.376L814.337 371.456H812.481ZM827.664 361.264V362.96H820.688V361.264H827.664ZM837.895 368.144H836.327L834.823 363.216L833.351 368.144H831.783L829.495 360.512H831.255L832.583 365.392L833.959 360.512H835.655L837.079 365.392L838.375 360.512H840.135L837.895 368.144ZM843.515 360.496V368.128H841.819V360.496H843.515ZM842.667 356.688C842.945 356.688 843.174 356.779 843.355 356.96C843.537 357.141 843.627 357.371 843.627 357.648C843.627 357.925 843.537 358.155 843.355 358.336C843.174 358.517 842.945 358.608 842.667 358.608C842.39 358.608 842.161 358.517 841.979 358.336C841.798 358.155 841.707 357.925 841.707 357.648C841.707 357.371 841.798 357.141 841.979 356.96C842.161 356.779 842.39 356.688 842.667 356.688ZM849.207 368.208C848.514 368.208 847.89 368.043 847.335 367.712C846.78 367.381 846.348 366.928 846.039 366.352C845.73 365.765 845.575 365.099 845.575 364.352C845.575 363.605 845.73 362.944 846.039 362.368C846.348 361.781 846.78 361.323 847.335 360.992C847.89 360.661 848.514 360.496 849.207 360.496C849.57 360.496 849.954 360.587 850.359 360.768C850.775 360.949 851.132 361.237 851.431 361.632V356.704H853.127V368.144H851.431V367.072C851.122 367.456 850.759 367.744 850.343 367.936C849.938 368.117 849.559 368.208 849.207 368.208ZM849.319 366.784C849.703 366.784 850.055 366.677 850.375 366.464C850.695 366.251 850.951 365.963 851.143 365.6C851.335 365.227 851.431 364.816 851.431 364.368C851.431 363.931 851.335 363.525 851.143 363.152C850.951 362.779 850.69 362.485 850.359 362.272C850.039 362.059 849.692 361.952 849.319 361.952C848.7 361.952 848.204 362.176 847.831 362.624C847.458 363.061 847.271 363.643 847.271 364.368C847.271 365.093 847.458 365.68 847.831 366.128C848.204 366.565 848.7 366.784 849.319 366.784ZM858.552 368.176C857.837 368.176 857.202 368.016 856.648 367.696C856.093 367.365 855.656 366.912 855.336 366.336C855.026 365.749 854.872 365.088 854.872 364.352C854.872 363.605 855.026 362.944 855.336 362.368C855.656 361.781 856.093 361.328 856.648 361.008C857.202 360.677 857.837 360.512 858.552 360.512C859.544 360.512 860.285 360.763 860.776 361.264C861.266 361.755 861.581 362.192 861.72 362.576C861.944 363.099 862.056 363.723 862.056 364.448L862.04 365.008H856.536C856.632 365.52 856.872 365.936 857.256 366.256C857.64 366.576 858.072 366.736 858.552 366.736C859.096 366.736 859.517 366.629 859.816 366.416C860.114 366.203 860.328 365.989 860.456 365.776L861.816 366.384C861.602 366.875 861.213 367.296 860.648 367.648C860.093 368 859.394 368.176 858.552 368.176ZM860.44 363.664C860.354 363.152 860.157 362.741 859.848 362.432C859.538 362.112 859.106 361.952 858.552 361.952C858.05 361.952 857.613 362.112 857.24 362.432C856.866 362.752 856.632 363.163 856.536 363.664H860.44ZM875.416 357.808H869.48V361.312H874.584V362.784H869.48V366.64H875.416V368.128H867.784V356.32H875.416V357.808ZM878.741 364.768C879.082 365.429 879.487 365.931 879.957 366.272C880.437 366.613 880.943 366.784 881.477 366.784C882.213 366.784 882.783 366.619 883.189 366.288C883.594 365.947 883.797 365.493 883.797 364.928C883.797 364.555 883.685 364.24 883.461 363.984C883.247 363.728 882.975 363.525 882.645 363.376C882.325 363.216 881.877 363.029 881.301 362.816C880.565 362.549 879.967 362.293 879.509 362.048C879.05 361.803 878.661 361.456 878.341 361.008C878.021 360.56 877.861 359.984 877.861 359.28C877.861 358.651 878.021 358.101 878.341 357.632C878.661 357.163 879.103 356.805 879.669 356.56C880.234 356.315 880.879 356.192 881.605 356.192C882.426 356.192 883.162 356.421 883.813 356.88C884.474 357.328 884.965 358 885.285 358.896L883.765 359.44C883.562 358.853 883.274 358.416 882.901 358.128C882.527 357.829 882.106 357.675 881.637 357.664C881.007 357.664 880.501 357.813 880.117 358.112C879.743 358.4 879.557 358.789 879.557 359.28C879.557 359.653 879.663 359.968 879.877 360.224C880.101 360.48 880.378 360.693 880.709 360.864C881.05 361.024 881.503 361.211 882.069 361.424C882.805 361.712 883.397 361.979 883.845 362.224C884.293 362.469 884.677 362.816 884.997 363.264C885.317 363.701 885.477 364.261 885.477 364.944C885.477 365.595 885.317 366.171 884.997 366.672C884.677 367.173 884.213 367.563 883.605 367.84C883.007 368.117 882.303 368.256 881.493 368.256C880.629 368.256 879.845 368.027 879.141 367.568C878.437 367.099 877.834 366.427 877.333 365.552L878.741 364.768ZM898.475 362.96C898.475 364.048 898.24 364.987 897.771 365.776C897.312 366.565 896.667 367.173 895.835 367.6C895.003 368.016 894.037 368.235 892.939 368.256C891.808 368.256 890.795 368 889.899 367.488C889.013 366.976 888.32 366.261 887.819 365.344C887.317 364.427 887.067 363.387 887.067 362.224C887.067 361.061 887.317 360.027 887.819 359.12C888.32 358.203 889.013 357.488 889.899 356.976C890.795 356.464 891.808 356.208 892.939 356.208C894.037 356.208 894.955 356.421 895.691 356.848C896.427 357.264 896.944 357.675 897.243 358.08C897.541 358.485 897.771 358.811 897.931 359.056L896.475 359.808C896.357 359.627 896.192 359.387 895.979 359.088C895.776 358.789 895.408 358.485 894.875 358.176C894.352 357.856 893.707 357.696 892.939 357.696C892.117 357.696 891.387 357.888 890.747 358.272C890.117 358.645 889.627 359.173 889.275 359.856C888.933 360.539 888.763 361.328 888.763 362.224C888.763 363.12 888.933 363.915 889.275 364.608C889.627 365.291 890.117 365.824 890.747 366.208C891.387 366.581 892.117 366.768 892.939 366.768C894.08 366.736 895.008 366.437 895.723 365.872C896.437 365.296 896.8 364.453 896.811 363.344H893.131V361.936H898.491L898.475 362.96ZM770.734 382.32V394.128H769.038V382.32H770.734ZM782.887 389.808C782.887 389.264 782.754 388.827 782.487 388.496C782.221 388.165 781.869 388 781.431 388C780.951 388 780.557 388.165 780.247 388.496C779.949 388.827 779.799 389.237 779.799 389.728V394.144H778.087V389.808C778.087 389.264 777.954 388.827 777.687 388.496C777.431 388.165 777.09 388 776.663 388C776.183 388 775.783 388.181 775.463 388.544C775.154 388.907 774.999 389.36 774.999 389.904V394.144H773.303V386.512H774.999V387.552C775.234 387.243 775.506 386.997 775.815 386.816C776.135 386.624 776.471 386.528 776.823 386.528C777.271 386.528 777.703 386.656 778.119 386.912C778.535 387.168 778.855 387.499 779.079 387.904C779.346 387.499 779.709 387.168 780.167 386.912C780.626 386.656 781.085 386.528 781.543 386.528C782.141 386.528 782.669 386.667 783.127 386.944C783.597 387.221 783.959 387.605 784.215 388.096C784.471 388.576 784.599 389.125 784.599 389.744V394.144H782.887V389.808ZM790.564 392.752C791.183 392.752 791.674 392.533 792.036 392.096C792.41 391.648 792.596 391.061 792.596 390.336C792.596 389.611 792.41 389.029 792.036 388.592C791.674 388.144 791.183 387.92 790.564 387.92C790.191 387.92 789.839 388.027 789.508 388.24C789.188 388.453 788.932 388.747 788.74 389.12C788.559 389.493 788.468 389.899 788.468 390.336C788.468 390.773 788.559 391.179 788.74 391.552C788.932 391.925 789.188 392.219 789.508 392.432C789.839 392.645 790.191 392.752 790.564 392.752ZM790.66 386.496C791.364 386.496 791.988 386.661 792.532 386.992C793.087 387.312 793.519 387.765 793.828 388.352C794.138 388.928 794.292 389.589 794.292 390.336C794.292 391.083 794.138 391.749 793.828 392.336C793.519 392.923 793.087 393.381 792.532 393.712C791.988 394.032 791.364 394.192 790.66 394.192C790.308 394.192 789.919 394.096 789.492 393.904C789.076 393.712 788.73 393.429 788.452 393.056V397.52H786.756V386.496H788.452V387.616C788.73 387.253 789.082 386.976 789.508 386.784C789.935 386.592 790.319 386.496 790.66 386.496ZM797.572 382.704V394.128H795.876V382.704H797.572ZM802.849 394.176C802.134 394.176 801.499 394.016 800.945 393.696C800.39 393.365 799.953 392.912 799.633 392.336C799.323 391.749 799.169 391.088 799.169 390.352C799.169 389.605 799.323 388.944 799.633 388.368C799.953 387.781 800.39 387.328 800.945 387.008C801.499 386.677 802.134 386.512 802.849 386.512C803.841 386.512 804.582 386.763 805.073 387.264C805.563 387.755 805.878 388.192 806.017 388.576C806.241 389.099 806.353 389.723 806.353 390.448L806.337 391.008H800.833C800.929 391.52 801.169 391.936 801.553 392.256C801.937 392.576 802.369 392.736 802.849 392.736C803.393 392.736 803.814 392.629 804.113 392.416C804.411 392.203 804.625 391.989 804.753 391.776L806.113 392.384C805.899 392.875 805.51 393.296 804.945 393.648C804.39 394 803.691 394.176 802.849 394.176ZM804.737 389.664C804.651 389.152 804.454 388.741 804.145 388.432C803.835 388.112 803.403 387.952 802.849 387.952C802.347 387.952 801.91 388.112 801.537 388.432C801.163 388.752 800.929 389.163 800.833 389.664H804.737ZM817.841 389.808C817.841 389.264 817.707 388.827 817.441 388.496C817.174 388.165 816.822 388 816.385 388C815.905 388 815.51 388.165 815.201 388.496C814.902 388.827 814.753 389.237 814.753 389.728V394.144H813.041V389.808C813.041 389.264 812.907 388.827 812.641 388.496C812.385 388.165 812.043 388 811.617 388C811.137 388 810.737 388.181 810.417 388.544C810.107 388.907 809.953 389.36 809.953 389.904V394.144H808.257V386.512H809.953V387.552C810.187 387.243 810.459 386.997 810.769 386.816C811.089 386.624 811.425 386.528 811.777 386.528C812.225 386.528 812.657 386.656 813.073 386.912C813.489 387.168 813.809 387.499 814.033 387.904C814.299 387.499 814.662 387.168 815.121 386.912C815.579 386.656 816.038 386.528 816.497 386.528C817.094 386.528 817.622 386.667 818.081 386.944C818.55 387.221 818.913 387.605 819.169 388.096C819.425 388.576 819.553 389.125 819.553 389.744V394.144H817.841V389.808ZM825.099 394.176C824.384 394.176 823.749 394.016 823.195 393.696C822.64 393.365 822.203 392.912 821.883 392.336C821.573 391.749 821.419 391.088 821.419 390.352C821.419 389.605 821.573 388.944 821.883 388.368C822.203 387.781 822.64 387.328 823.195 387.008C823.749 386.677 824.384 386.512 825.099 386.512C826.091 386.512 826.832 386.763 827.323 387.264C827.813 387.755 828.128 388.192 828.267 388.576C828.491 389.099 828.603 389.723 828.603 390.448L828.587 391.008H823.083C823.179 391.52 823.419 391.936 823.803 392.256C824.187 392.576 824.619 392.736 825.099 392.736C825.643 392.736 826.064 392.629 826.363 392.416C826.661 392.203 826.875 391.989 827.003 391.776L828.363 392.384C828.149 392.875 827.76 393.296 827.195 393.648C826.64 394 825.941 394.176 825.099 394.176ZM826.987 389.664C826.901 389.152 826.704 388.741 826.395 388.432C826.085 388.112 825.653 387.952 825.099 387.952C824.597 387.952 824.16 388.112 823.787 388.432C823.413 388.752 823.179 389.163 823.083 389.664H826.987ZM835.595 389.936C835.595 389.328 835.445 388.853 835.147 388.512C834.848 388.16 834.437 387.984 833.915 387.984C833.392 387.995 832.955 388.187 832.603 388.56C832.251 388.923 832.08 389.381 832.091 389.936V394.144H830.395V386.512H832.091V387.552C832.336 387.253 832.645 387.008 833.019 386.816C833.392 386.624 833.76 386.528 834.123 386.528C834.645 386.528 835.147 386.645 835.627 386.88C836.107 387.115 836.501 387.483 836.811 387.984C837.131 388.485 837.291 389.115 837.291 389.872V394.144H835.595V389.936ZM840.089 387.968H838.649V386.496H840.089V383.824H841.785V386.496H843.593V387.968H841.785V394.144H840.089V387.968ZM848.41 394.208C847.716 394.208 847.092 394.043 846.538 393.712C845.994 393.381 845.567 392.928 845.258 392.352C844.948 391.765 844.794 391.104 844.794 390.368C844.794 389.632 844.948 388.976 845.258 388.4C845.567 387.813 845.994 387.355 846.538 387.024C847.092 386.693 847.716 386.528 848.41 386.528C848.804 386.528 849.194 386.619 849.578 386.8C849.962 386.981 850.303 387.248 850.602 387.6V386.512H852.298V394.144H850.602V393.12C850.314 393.483 849.978 393.755 849.594 393.936C849.21 394.117 848.815 394.208 848.41 394.208ZM848.522 392.768C848.895 392.768 849.242 392.667 849.562 392.464C849.882 392.251 850.138 391.963 850.33 391.6C850.522 391.227 850.618 390.816 850.618 390.368C850.618 389.92 850.522 389.515 850.33 389.152C850.138 388.779 849.882 388.491 849.562 388.288C849.242 388.075 848.895 387.968 848.522 387.968C847.914 387.968 847.423 388.187 847.05 388.624C846.676 389.061 846.49 389.643 846.49 390.368C846.49 391.083 846.676 391.664 847.05 392.112C847.423 392.549 847.914 392.768 848.522 392.768ZM855.261 387.968H853.821V386.496H855.261V383.824H856.957V386.496H858.765V387.968H856.957V394.144H855.261V387.968ZM862.203 386.496V394.128H860.507V386.496H862.203ZM861.355 382.688C861.632 382.688 861.862 382.779 862.043 382.96C862.224 383.141 862.315 383.371 862.315 383.648C862.315 383.925 862.224 384.155 862.043 384.336C861.862 384.517 861.632 384.608 861.355 384.608C861.078 384.608 860.848 384.517 860.667 384.336C860.486 384.155 860.395 383.925 860.395 383.648C860.395 383.371 860.486 383.141 860.667 382.96C860.848 382.779 861.078 382.688 861.355 382.688ZM867.942 392.752C868.54 392.752 869.02 392.533 869.382 392.096C869.745 391.659 869.926 391.077 869.926 390.352C869.926 389.637 869.745 389.061 869.382 388.624C869.02 388.176 868.54 387.952 867.942 387.952C867.345 387.952 866.865 388.171 866.502 388.608C866.14 389.045 865.958 389.627 865.958 390.352C865.958 391.077 866.14 391.659 866.502 392.096C866.865 392.533 867.345 392.752 867.942 392.752ZM867.942 386.496C868.657 386.496 869.292 386.661 869.846 386.992C870.401 387.323 870.833 387.781 871.142 388.368C871.462 388.944 871.622 389.605 871.622 390.352C871.622 391.088 871.462 391.749 871.142 392.336C870.833 392.923 870.401 393.381 869.846 393.712C869.292 394.043 868.657 394.208 867.942 394.208C867.228 394.208 866.593 394.043 866.038 393.712C865.484 393.381 865.046 392.923 864.726 392.336C864.417 391.749 864.262 391.088 864.262 390.352C864.262 389.605 864.417 388.944 864.726 388.368C865.046 387.781 865.484 387.323 866.038 386.992C866.593 386.661 867.228 386.496 867.942 386.496ZM878.548 389.936C878.548 389.328 878.398 388.853 878.1 388.512C877.801 388.16 877.39 387.984 876.868 387.984C876.345 387.995 875.908 388.187 875.556 388.56C875.204 388.923 875.033 389.381 875.044 389.936V394.144H873.348V386.512H875.044V387.552C875.289 387.253 875.598 387.008 875.972 386.816C876.345 386.624 876.713 386.528 877.076 386.528C877.598 386.528 878.1 386.645 878.58 386.88C879.06 387.115 879.454 387.483 879.764 387.984C880.084 388.485 880.244 389.115 880.244 389.872V394.144H878.548V389.936ZM791.093 420.256C789.962 420.256 788.954 420 788.069 419.488C787.194 418.976 786.506 418.261 786.005 417.344C785.514 416.427 785.269 415.387 785.269 414.224C785.269 413.051 785.514 412.011 786.005 411.104C786.506 410.187 787.194 409.472 788.069 408.96C788.954 408.448 789.962 408.192 791.093 408.192C791.882 408.192 792.629 408.347 793.333 408.656C794.037 408.965 794.661 409.397 795.205 409.952L794.085 411.056C793.722 410.629 793.274 410.293 792.741 410.048C792.218 409.803 791.663 409.68 791.077 409.68C790.266 409.68 789.551 409.872 788.933 410.256C788.314 410.629 787.834 411.163 787.493 411.856C787.151 412.539 786.981 413.328 786.981 414.224C786.981 415.12 787.151 415.915 787.493 416.608C787.834 417.291 788.314 417.824 788.933 418.208C789.551 418.581 790.266 418.768 791.077 418.768C791.674 418.768 792.223 418.645 792.725 418.4C793.226 418.155 793.658 417.829 794.021 417.424L795.205 418.496C794.031 419.68 792.661 420.267 791.093 420.256ZM800.271 418.752C800.868 418.752 801.348 418.533 801.711 418.096C802.073 417.659 802.255 417.077 802.255 416.352C802.255 415.637 802.073 415.061 801.711 414.624C801.348 414.176 800.868 413.952 800.271 413.952C799.673 413.952 799.193 414.171 798.831 414.608C798.468 415.045 798.287 415.627 798.287 416.352C798.287 417.077 798.468 417.659 798.831 418.096C799.193 418.533 799.673 418.752 800.271 418.752ZM800.271 412.496C800.985 412.496 801.62 412.661 802.175 412.992C802.729 413.323 803.161 413.781 803.471 414.368C803.791 414.944 803.951 415.605 803.951 416.352C803.951 417.088 803.791 417.749 803.471 418.336C803.161 418.923 802.729 419.381 802.175 419.712C801.62 420.043 800.985 420.208 800.271 420.208C799.556 420.208 798.921 420.043 798.367 419.712C797.812 419.381 797.375 418.923 797.055 418.336C796.745 417.749 796.591 417.088 796.591 416.352C796.591 415.605 796.745 414.944 797.055 414.368C797.375 413.781 797.812 413.323 798.367 412.992C798.921 412.661 799.556 412.496 800.271 412.496ZM815.372 415.808C815.372 415.264 815.238 414.827 814.972 414.496C814.705 414.165 814.353 414 813.916 414C813.436 414 813.041 414.165 812.732 414.496C812.433 414.827 812.284 415.237 812.284 415.728V420.144H810.572V415.808C810.572 415.264 810.438 414.827 810.172 414.496C809.916 414.165 809.574 414 809.148 414C808.668 414 808.268 414.181 807.948 414.544C807.638 414.907 807.484 415.36 807.484 415.904V420.144H805.788V412.512H807.484V413.552C807.718 413.243 807.99 412.997 808.3 412.816C808.62 412.624 808.956 412.528 809.308 412.528C809.756 412.528 810.188 412.656 810.604 412.912C811.02 413.168 811.34 413.499 811.564 413.904C811.83 413.499 812.193 413.168 812.652 412.912C813.11 412.656 813.569 412.528 814.028 412.528C814.625 412.528 815.153 412.667 815.612 412.944C816.081 413.221 816.444 413.605 816.7 414.096C816.956 414.576 817.084 415.125 817.084 415.744V420.144H815.372V415.808ZM828.841 415.808C828.841 415.264 828.707 414.827 828.441 414.496C828.174 414.165 827.822 414 827.385 414C826.905 414 826.51 414.165 826.201 414.496C825.902 414.827 825.753 415.237 825.753 415.728V420.144H824.041V415.808C824.041 415.264 823.907 414.827 823.641 414.496C823.385 414.165 823.043 414 822.617 414C822.137 414 821.737 414.181 821.417 414.544C821.107 414.907 820.953 415.36 820.953 415.904V420.144H819.257V412.512H820.953V413.552C821.187 413.243 821.459 412.997 821.769 412.816C822.089 412.624 822.425 412.528 822.777 412.528C823.225 412.528 823.657 412.656 824.073 412.912C824.489 413.168 824.809 413.499 825.033 413.904C825.299 413.499 825.662 413.168 826.121 412.912C826.579 412.656 827.038 412.528 827.497 412.528C828.094 412.528 828.622 412.667 829.081 412.944C829.55 413.221 829.913 413.605 830.169 414.096C830.425 414.576 830.553 415.125 830.553 415.744V420.144H828.841V415.808ZM834.547 412.496V420.128H832.851V412.496H834.547ZM833.699 408.688C833.976 408.688 834.205 408.779 834.387 408.96C834.568 409.141 834.659 409.371 834.659 409.648C834.659 409.925 834.568 410.155 834.387 410.336C834.205 410.517 833.976 410.608 833.699 410.608C833.421 410.608 833.192 410.517 833.011 410.336C832.829 410.155 832.739 409.925 832.739 409.648C832.739 409.371 832.829 409.141 833.011 408.96C833.192 408.779 833.421 408.688 833.699 408.688ZM837.87 413.968H836.43V412.496H837.87V409.824H839.566V412.496H841.374V413.968H839.566V420.144H837.87V413.968ZM843.308 413.968H841.868V412.496H843.308V409.824H845.004V412.496H846.812V413.968H845.004V420.144H843.308V413.968ZM851.692 420.176C850.978 420.176 850.343 420.016 849.788 419.696C849.234 419.365 848.796 418.912 848.476 418.336C848.167 417.749 848.012 417.088 848.012 416.352C848.012 415.605 848.167 414.944 848.476 414.368C848.796 413.781 849.234 413.328 849.788 413.008C850.343 412.677 850.978 412.512 851.692 412.512C852.684 412.512 853.426 412.763 853.916 413.264C854.407 413.755 854.722 414.192 854.86 414.576C855.084 415.099 855.196 415.723 855.196 416.448L855.18 417.008H849.676C849.772 417.52 850.012 417.936 850.396 418.256C850.78 418.576 851.212 418.736 851.692 418.736C852.236 418.736 852.658 418.629 852.956 418.416C853.255 418.203 853.468 417.989 853.596 417.776L854.956 418.384C854.743 418.875 854.354 419.296 853.788 419.648C853.234 420 852.535 420.176 851.692 420.176ZM853.58 415.664C853.495 415.152 853.298 414.741 852.988 414.432C852.679 414.112 852.247 413.952 851.692 413.952C851.191 413.952 850.754 414.112 850.38 414.432C850.007 414.752 849.772 415.163 849.676 415.664H853.58ZM860.427 420.176C859.712 420.176 859.077 420.016 858.523 419.696C857.968 419.365 857.531 418.912 857.211 418.336C856.901 417.749 856.747 417.088 856.747 416.352C856.747 415.605 856.901 414.944 857.211 414.368C857.531 413.781 857.968 413.328 858.523 413.008C859.077 412.677 859.712 412.512 860.427 412.512C861.419 412.512 862.16 412.763 862.651 413.264C863.141 413.755 863.456 414.192 863.595 414.576C863.819 415.099 863.931 415.723 863.931 416.448L863.915 417.008H858.411C858.507 417.52 858.747 417.936 859.131 418.256C859.515 418.576 859.947 418.736 860.427 418.736C860.971 418.736 861.392 418.629 861.691 418.416C861.989 418.203 862.203 417.989 862.331 417.776L863.691 418.384C863.477 418.875 863.088 419.296 862.523 419.648C861.968 420 861.269 420.176 860.427 420.176ZM862.315 415.664C862.229 415.152 862.032 414.741 861.723 414.432C861.413 414.112 860.981 413.952 860.427 413.952C859.925 413.952 859.488 414.112 859.115 414.432C858.741 414.752 858.507 415.163 858.411 415.664H862.315Z" fill="#6D0CA6"/>
</g>
<line x1="549.5" y1="108" x2="549.5" y2="146" stroke="#71717A"/>
<path d="M274 186V154C274 149.582 277.582 146 282 146H817C821.418 146 825 149.582 825 154V186" stroke="#71717A"/>
<path d="M357 336V304C357 299.582 360.582 296 365 296H825V336" stroke="#71717A"/>
<path d="M825 258L825 296" stroke="#71717A"/>
<line x1="357.5" y1="372" x2="357.5" y2="556" stroke="#71717A"/>
<line x1="425" y1="555.5" x2="609" y2="555.5" stroke="#71717A" stroke-dasharray="3 3"/>
<line x1="425" y1="371.5" x2="609" y2="371.5" stroke="#71717A" stroke-dasharray="3 3"/>
<g filter="url(#filter1_d_5829_4932)">
<rect x="445" y="36" width="208" height="72" rx="8" fill="#9735D0" shape-rendering="crispEdges"/>
<path d="M528.1 79.16V64.4H533.02C535.38 64.4 537.06 66.06 537.06 68.42C537.06 69.34 536.58 70.4 535.86 71.14L536.38 71.46C537.48 72.18 538.28 73.62 538.28 74.96C538.28 77.42 536.6 79.16 534.22 79.16H528.1ZM534 77.3C535.3 77.3 536.18 76.36 536.18 74.98C536.18 73.48 535.3 72.48 534 72.48H530.22V77.3H534ZM533.06 70.64C534.2 70.58 534.98 69.74 534.98 68.52C534.98 67.16 534.12 66.26 532.84 66.26H530.22V70.64H533.06ZM547.84 77.46C550.96 77.46 553.06 75.18 553.06 71.78C553.06 68.38 550.96 66.1 547.84 66.1C544.72 66.1 542.64 68.38 542.64 71.78C542.64 75.18 544.72 77.46 547.84 77.46ZM547.84 64.24C552.16 64.24 555.2 67.36 555.2 71.78C555.2 76.2 552.16 79.32 547.84 79.32C543.54 79.32 540.5 76.2 540.5 71.78C540.5 67.36 543.54 64.24 547.84 64.24ZM561.891 77.3C565.051 77.3 567.171 75.08 567.171 71.78C567.171 68.48 565.051 66.26 561.891 66.26L559.791 66.28V77.28L561.891 77.3ZM561.911 64.4C566.231 64.4 569.271 67.44 569.271 71.78C569.271 76.12 566.231 79.16 561.911 79.16H557.671V64.4H561.911Z" fill="white"/>
</g>
<rect x="720.5" y="186" width="208" height="72" rx="8" fill="#F5EBFB"/>
<path d="M810.7 229.32C806.42 229.32 803.42 226.2 803.42 221.78C803.42 217.34 806.42 214.24 810.7 214.24C812.72 214.24 814.52 215.1 815.84 216.44L814.44 217.82C813.56 216.78 812.16 216.1 810.68 216.1C807.62 216.1 805.56 218.38 805.56 221.78C805.56 225.18 807.62 227.46 810.68 227.46C812.26 227.46 813.52 226.74 814.36 225.78L815.84 227.12C814.52 228.46 812.82 229.34 810.7 229.32ZM827.803 214.4V216.26H820.383V220.64H826.763V222.48H820.383V227.3H827.803V229.16H818.263V214.4H827.803ZM837.441 227.46C840.561 227.46 842.661 225.18 842.661 221.78C842.661 218.38 840.561 216.1 837.441 216.1C834.321 216.1 832.241 218.38 832.241 221.78C832.241 225.18 834.321 227.46 837.441 227.46ZM837.441 214.24C841.761 214.24 844.801 217.36 844.801 221.78C844.801 226.2 841.761 229.32 837.441 229.32C833.141 229.32 830.101 226.2 830.101 221.78C830.101 217.36 833.141 214.24 837.441 214.24Z" fill="#6D0CA6"/>
<g filter="url(#filter2_d_5829_4932)">
<rect x="170.5" y="186" width="208" height="76" rx="8" fill="white" shape-rendering="crispEdges"/>
<path d="M229.241 213.768C229.929 215.112 230.905 215.784 231.929 215.784C233.449 215.8 234.297 215.064 234.297 213.928C234.297 211.24 228.361 212.392 228.361 208.28C228.361 206.328 229.961 205.176 232.153 205.192C233.673 205.208 235.129 206.056 235.785 207.896L234.265 208.44C233.849 207.208 233.017 206.68 232.137 206.664C230.873 206.664 230.057 207.288 230.057 208.28C230.057 210.936 235.977 209.928 235.977 213.944C235.977 215.928 234.425 217.288 231.913 217.256C230.185 217.24 228.809 216.248 227.833 214.552L229.241 213.768ZM239.011 217.144V210.968H237.571V209.496H239.011V206.824H240.707V209.496H242.515V210.968H240.707V217.144H239.011ZM244.033 217.144V209.512H245.729V210.632C246.241 209.912 247.169 209.432 248.065 209.48V211.048C246.705 210.984 245.729 212.184 245.729 213.352V217.144H244.033ZM252.55 217.208C250.438 217.208 248.934 215.608 248.934 213.368C248.934 211.128 250.438 209.528 252.55 209.528C253.302 209.528 254.134 209.88 254.742 210.6V209.512H256.438V217.144H254.742V216.12C254.134 216.888 253.302 217.208 252.55 217.208ZM252.662 215.768C253.782 215.768 254.742 214.76 254.758 213.368C254.742 211.976 253.782 210.968 252.662 210.968C251.446 210.968 250.63 211.912 250.63 213.368C250.63 214.808 251.446 215.768 252.662 215.768ZM259.401 217.144V210.968H257.961V209.496H259.401V206.824H261.097V209.496H262.905V210.968H261.097V217.144H259.401ZM267.786 217.176C265.626 217.176 264.106 215.592 264.106 213.352C264.106 211.096 265.626 209.512 267.786 209.512C270.154 209.512 270.906 211.448 270.954 211.576C271.418 212.664 271.274 213.88 271.274 214.008H265.77C265.962 215.032 266.826 215.736 267.786 215.736C269.05 215.736 269.562 215 269.69 214.776L271.05 215.384C270.682 216.248 269.61 217.176 267.786 217.176ZM269.674 212.664C269.514 211.72 268.97 210.952 267.786 210.952C266.762 210.952 265.962 211.672 265.77 212.664H269.674ZM276.553 215.736C277.769 215.736 278.649 214.664 278.649 213.336C278.649 212.04 277.769 210.952 276.553 210.952C275.353 210.952 274.537 211.896 274.537 213.336C274.537 214.792 275.353 215.736 276.553 215.736ZM280.345 216.568C280.345 218.744 278.873 220.536 276.537 220.536C275.257 220.536 274.025 220.008 273.273 218.76L274.617 217.864C275.177 218.68 275.721 219.032 276.537 219.032C277.897 219.032 278.649 217.96 278.649 216.712V216.04C278.057 216.792 277.177 217.192 276.457 217.192C274.345 217.192 272.841 215.592 272.841 213.352C272.841 211.112 274.345 209.496 276.457 209.496C277.241 209.496 278.121 209.896 278.649 210.616V209.496H280.345V216.568ZM285.555 220.456H283.699L285.363 216.504L282.291 209.512H284.163L286.259 214.568L288.275 209.512H290.115L287.267 216.376L285.555 220.456ZM299.035 217.208C296.923 217.208 295.419 215.608 295.419 213.368C295.419 211.128 296.923 209.528 299.035 209.528C299.787 209.528 300.619 209.88 301.227 210.6V209.512H302.923V217.144H301.227V216.12C300.619 216.888 299.787 217.208 299.035 217.208ZM299.147 215.768C300.267 215.768 301.227 214.76 301.243 213.368C301.227 211.976 300.267 210.968 299.147 210.968C297.931 210.968 297.115 211.912 297.115 213.368C297.115 214.808 297.931 215.768 299.147 215.768ZM310.204 212.936C310.204 211.72 309.58 210.984 308.524 210.984C307.484 211 306.684 211.816 306.7 212.936V217.144H305.004V209.512H306.7V210.552C307.18 209.96 307.996 209.528 308.732 209.528C310.172 209.528 311.9 210.472 311.9 212.872V217.144H310.204V212.936ZM317.254 217.208C315.142 217.208 313.622 215.608 313.622 213.352C313.622 211.096 315.142 209.496 317.254 209.496C317.878 209.496 318.822 209.768 319.478 210.632V205.704H321.174V217.144H319.478V216.072C318.806 216.888 317.878 217.208 317.254 217.208ZM317.366 215.784C318.518 215.784 319.478 214.728 319.478 213.368C319.478 212.024 318.518 210.952 317.366 210.952C316.134 210.952 315.318 211.912 315.318 213.368C315.318 214.824 316.134 215.784 317.366 215.784ZM224.455 231.32V232.808H218.519V236.312H223.623V237.784H218.519V241.64H224.455V243.128H216.823V231.32H224.455ZM227.78 239.768C228.468 241.112 229.444 241.784 230.468 241.784C231.988 241.8 232.836 241.064 232.836 239.928C232.836 237.24 226.9 238.392 226.9 234.28C226.9 232.328 228.5 231.176 230.692 231.192C232.212 231.208 233.668 232.056 234.324 233.896L232.804 234.44C232.388 233.208 231.556 232.68 230.676 232.664C229.412 232.664 228.596 233.288 228.596 234.28C228.596 236.936 234.516 235.928 234.516 239.944C234.516 241.928 232.964 243.288 230.452 243.256C228.724 243.24 227.348 242.248 226.372 240.552L227.78 239.768ZM247.53 236.936L247.514 237.96C247.514 241.272 245.258 243.208 241.978 243.256C238.538 243.256 236.106 240.76 236.106 237.224C236.106 233.688 238.538 231.208 241.978 231.208C245.674 231.208 246.97 234.056 246.97 234.056L245.514 234.808C245.514 234.808 244.586 232.696 241.978 232.696C239.482 232.696 237.802 234.52 237.802 237.224C237.802 239.944 239.482 241.768 241.978 241.768C244.122 241.704 245.834 240.664 245.85 238.344H242.17V236.936H247.53ZM259.507 243.256C256.083 243.256 253.683 240.76 253.683 237.224C253.683 233.672 256.083 231.192 259.507 231.192C261.123 231.192 262.563 231.88 263.619 232.952L262.499 234.056C261.795 233.224 260.675 232.68 259.491 232.68C257.043 232.68 255.395 234.504 255.395 237.224C255.395 239.944 257.043 241.768 259.491 241.768C260.755 241.768 261.763 241.192 262.435 240.424L263.619 241.496C262.563 242.568 261.203 243.272 259.507 243.256ZM268.685 241.752C269.869 241.752 270.669 240.808 270.669 239.352C270.669 237.912 269.869 236.952 268.685 236.952C267.501 236.952 266.701 237.896 266.701 239.352C266.701 240.808 267.485 241.752 268.685 241.752ZM268.685 235.496C270.845 235.496 272.365 237.096 272.365 239.352C272.365 241.592 270.845 243.208 268.685 243.208C266.525 243.208 265.005 241.592 265.005 239.352C265.005 237.096 266.525 235.496 268.685 235.496ZM283.786 238.808C283.786 237.72 283.194 237 282.33 237C281.354 237 280.698 237.752 280.698 238.728V243.144H278.986V238.808C278.986 237.72 278.41 237 277.562 237C276.586 237 275.898 237.832 275.898 238.904V243.144H274.202V235.512H275.898V236.552C276.346 235.944 277.002 235.528 277.722 235.528C278.634 235.528 279.53 236.104 279.978 236.904C280.506 236.104 281.53 235.528 282.442 235.528C284.25 235.528 285.498 236.872 285.498 238.744V243.144H283.786V238.808ZM297.255 238.808C297.255 237.72 296.663 237 295.799 237C294.823 237 294.167 237.752 294.167 238.728V243.144H292.455V238.808C292.455 237.72 291.879 237 291.031 237C290.055 237 289.367 237.832 289.367 238.904V243.144H287.671V235.512H289.367V236.552C289.815 235.944 290.471 235.528 291.191 235.528C292.103 235.528 292.999 236.104 293.447 236.904C293.975 236.104 294.999 235.528 295.911 235.528C297.719 235.528 298.967 236.872 298.967 238.744V243.144H297.255V238.808ZM301.265 235.496H302.961V243.128H301.265V235.496ZM302.113 231.688C302.673 231.688 303.073 232.088 303.073 232.648C303.073 233.208 302.673 233.608 302.113 233.608C301.553 233.608 301.153 233.208 301.153 232.648C301.153 232.088 301.553 231.688 302.113 231.688ZM306.284 243.144V236.968H304.844V235.496H306.284V232.824H307.98V235.496H309.788V236.968H307.98V243.144H306.284ZM311.722 243.144V236.968H310.282V235.496H311.722V232.824H313.418V235.496H315.226V236.968H313.418V243.144H311.722ZM320.107 243.176C317.947 243.176 316.427 241.592 316.427 239.352C316.427 237.096 317.947 235.512 320.107 235.512C322.475 235.512 323.227 237.448 323.275 237.576C323.739 238.664 323.595 239.88 323.595 240.008H318.091C318.283 241.032 319.147 241.736 320.107 241.736C321.371 241.736 321.883 241 322.011 240.776L323.371 241.384C323.003 242.248 321.931 243.176 320.107 243.176ZM321.995 238.664C321.835 237.72 321.291 236.952 320.107 236.952C319.083 236.952 318.283 237.672 318.091 238.664H321.995ZM328.841 243.176C326.681 243.176 325.161 241.592 325.161 239.352C325.161 237.096 326.681 235.512 328.841 235.512C331.209 235.512 331.961 237.448 332.009 237.576C332.473 238.664 332.329 239.88 332.329 240.008H326.825C327.017 241.032 327.881 241.736 328.841 241.736C330.105 241.736 330.617 241 330.745 240.776L332.105 241.384C331.737 242.248 330.665 243.176 328.841 243.176ZM330.729 238.664C330.569 237.72 330.025 236.952 328.841 236.952C327.817 236.952 327.017 237.672 326.825 238.664H330.729Z" fill="#6D0CA6"/>
</g>
<rect x="253.5" y="336" width="208" height="76" rx="8" fill="#F6F6F7"/>
<path d="M315.339 364.664L311.835 358.44V367.128H310.139V355.32H311.979L316.091 362.536L320.187 355.32H322.043V367.128H320.347V358.44L316.827 364.664H315.339ZM327.746 367.208C325.634 367.208 324.13 365.608 324.13 363.368C324.13 361.128 325.634 359.528 327.746 359.528C328.498 359.528 329.33 359.88 329.938 360.6V359.512H331.634V367.144H329.938V366.12C329.33 366.888 328.498 367.208 327.746 367.208ZM327.858 365.768C328.978 365.768 329.938 364.76 329.954 363.368C329.938 361.976 328.978 360.968 327.858 360.968C326.642 360.968 325.826 361.912 325.826 363.368C325.826 364.808 326.642 365.768 327.858 365.768ZM338.915 362.936C338.915 361.72 338.291 360.984 337.235 360.984C336.195 361 335.395 361.816 335.411 362.936V367.144H333.715V359.512H335.411V360.552C335.891 359.96 336.707 359.528 337.443 359.528C338.883 359.528 340.611 360.472 340.611 362.872V367.144H338.915V362.936ZM345.949 367.208C343.837 367.208 342.333 365.608 342.333 363.368C342.333 361.128 343.837 359.528 345.949 359.528C346.701 359.528 347.533 359.88 348.141 360.6V359.512H349.837V367.144H348.141V366.12C347.533 366.888 346.701 367.208 345.949 367.208ZM346.061 365.768C347.181 365.768 348.141 364.76 348.157 363.368C348.141 361.976 347.181 360.968 346.061 360.968C344.845 360.968 344.029 361.912 344.029 363.368C344.029 364.808 344.845 365.768 346.061 365.768ZM355.435 365.736C356.651 365.736 357.531 364.664 357.531 363.336C357.531 362.04 356.651 360.952 355.435 360.952C354.235 360.952 353.419 361.896 353.419 363.336C353.419 364.792 354.235 365.736 355.435 365.736ZM359.227 366.568C359.227 368.744 357.755 370.536 355.419 370.536C354.139 370.536 352.907 370.008 352.155 368.76L353.499 367.864C354.059 368.68 354.603 369.032 355.419 369.032C356.779 369.032 357.531 367.96 357.531 366.712V366.04C356.939 366.792 356.059 367.192 355.339 367.192C353.227 367.192 351.723 365.592 351.723 363.352C351.723 361.112 353.227 359.496 355.339 359.496C356.123 359.496 357.003 359.896 357.531 360.616V359.496H359.227V366.568ZM364.466 367.176C362.306 367.176 360.786 365.592 360.786 363.352C360.786 361.096 362.306 359.512 364.466 359.512C366.834 359.512 367.586 361.448 367.634 361.576C368.098 362.664 367.954 363.88 367.954 364.008H362.45C362.642 365.032 363.506 365.736 364.466 365.736C365.73 365.736 366.242 365 366.37 364.776L367.73 365.384C367.362 366.248 366.29 367.176 364.466 367.176ZM366.354 362.664C366.194 361.72 365.65 360.952 364.466 360.952C363.442 360.952 362.642 361.672 362.45 362.664H366.354ZM379.458 362.808C379.458 361.72 378.866 361 378.002 361C377.026 361 376.37 361.752 376.37 362.728V367.144H374.658V362.808C374.658 361.72 374.082 361 373.234 361C372.258 361 371.57 361.832 371.57 362.904V367.144H369.874V359.512H371.57V360.552C372.018 359.944 372.674 359.528 373.394 359.528C374.306 359.528 375.202 360.104 375.65 360.904C376.178 360.104 377.202 359.528 378.114 359.528C379.922 359.528 381.17 360.872 381.17 362.744V367.144H379.458V362.808ZM386.716 367.176C384.556 367.176 383.036 365.592 383.036 363.352C383.036 361.096 384.556 359.512 386.716 359.512C389.084 359.512 389.836 361.448 389.884 361.576C390.348 362.664 390.204 363.88 390.204 364.008H384.7C384.892 365.032 385.756 365.736 386.716 365.736C387.98 365.736 388.492 365 388.62 364.776L389.98 365.384C389.612 366.248 388.54 367.176 386.716 367.176ZM388.604 362.664C388.444 361.72 387.9 360.952 386.716 360.952C385.692 360.952 384.892 361.672 384.7 362.664H388.604ZM397.212 362.936C397.212 361.72 396.588 360.984 395.532 360.984C394.492 361 393.692 361.816 393.708 362.936V367.144H392.012V359.512H393.708V360.552C394.188 359.96 395.004 359.528 395.74 359.528C397.18 359.528 398.908 360.472 398.908 362.872V367.144H397.212V362.936ZM401.706 367.144V360.968H400.266V359.496H401.706V356.824H403.402V359.496H405.21V360.968H403.402V367.144H401.706ZM288.483 389.768C289.171 391.112 290.147 391.784 291.171 391.784C292.691 391.8 293.539 391.064 293.539 389.928C293.539 387.24 287.603 388.392 287.603 384.28C287.603 382.328 289.203 381.176 291.395 381.192C292.915 381.208 294.371 382.056 295.027 383.896L293.507 384.44C293.091 383.208 292.259 382.68 291.379 382.664C290.115 382.664 289.299 383.288 289.299 384.28C289.299 386.936 295.219 385.928 295.219 389.944C295.219 391.928 293.667 393.288 291.155 393.256C289.427 393.24 288.051 392.248 287.075 390.552L288.483 389.768ZM299.161 389.864C299.161 391.032 299.849 391.752 300.857 391.752C301.929 391.752 302.665 391.048 302.649 389.88V385.512H304.361V393.144H302.649V392.264C302.169 392.856 301.385 393.208 300.633 393.208C298.793 393.208 297.465 391.88 297.465 389.928V385.512H299.161V389.864ZM310.447 391.752C311.679 391.752 312.479 390.792 312.479 389.336C312.479 387.88 311.679 386.92 310.447 386.92C309.295 386.92 308.351 387.992 308.351 389.336C308.351 390.68 309.295 391.752 310.447 391.752ZM310.543 385.496C312.671 385.496 314.175 387.08 314.175 389.336C314.175 391.608 312.671 393.192 310.543 393.192C309.935 393.192 308.943 392.856 308.335 392.056V396.52H306.639V385.496H308.335V386.616C308.943 385.816 309.951 385.496 310.543 385.496ZM319.791 391.752C321.023 391.752 321.823 390.792 321.823 389.336C321.823 387.88 321.023 386.92 319.791 386.92C318.639 386.92 317.695 387.992 317.695 389.336C317.695 390.68 318.639 391.752 319.791 391.752ZM319.887 385.496C322.015 385.496 323.519 387.08 323.519 389.336C323.519 391.608 322.015 393.192 319.887 393.192C319.279 393.192 318.287 392.856 317.679 392.056V396.52H315.983V385.496H317.679V386.616C318.287 385.816 319.295 385.496 319.887 385.496ZM328.669 391.752C329.853 391.752 330.653 390.808 330.653 389.352C330.653 387.912 329.853 386.952 328.669 386.952C327.485 386.952 326.685 387.896 326.685 389.352C326.685 390.808 327.469 391.752 328.669 391.752ZM328.669 385.496C330.829 385.496 332.349 387.096 332.349 389.352C332.349 391.592 330.829 393.208 328.669 393.208C326.509 393.208 324.989 391.592 324.989 389.352C324.989 387.096 326.509 385.496 328.669 385.496ZM333.994 393.144V385.512H335.69V386.632C336.202 385.912 337.13 385.432 338.026 385.48V387.048C336.666 386.984 335.69 388.184 335.69 389.352V393.144H333.994ZM340.8 393.144V386.968H339.36V385.496H340.8V382.824H342.496V385.496H344.304V386.968H342.496V393.144H340.8ZM346.046 385.496H347.742V393.128H346.046V385.496ZM346.894 381.688C347.454 381.688 347.854 382.088 347.854 382.648C347.854 383.208 347.454 383.608 346.894 383.608C346.334 383.608 345.934 383.208 345.934 382.648C345.934 382.088 346.334 381.688 346.894 381.688ZM355.306 388.936C355.306 387.72 354.682 386.984 353.626 386.984C352.586 387 351.786 387.816 351.802 388.936V393.144H350.106V385.512H351.802V386.552C352.282 385.96 353.098 385.528 353.834 385.528C355.274 385.528 357.002 386.472 357.002 388.872V393.144H355.306V388.936ZM362.435 391.736C363.651 391.736 364.531 390.664 364.531 389.336C364.531 388.04 363.651 386.952 362.435 386.952C361.235 386.952 360.419 387.896 360.419 389.336C360.419 390.792 361.235 391.736 362.435 391.736ZM366.227 392.568C366.227 394.744 364.755 396.536 362.419 396.536C361.139 396.536 359.907 396.008 359.155 394.76L360.499 393.864C361.059 394.68 361.603 395.032 362.419 395.032C363.779 395.032 364.531 393.96 364.531 392.712V392.04C363.939 392.792 363.059 393.192 362.339 393.192C360.227 393.192 358.723 391.592 358.723 389.352C358.723 387.112 360.227 385.496 362.339 385.496C363.123 385.496 364.003 385.896 364.531 386.616V385.496H366.227V392.568ZM375.766 391.64C378.294 391.64 379.99 389.864 379.99 387.224C379.99 384.584 378.294 382.808 375.766 382.808L374.086 382.824V391.624L375.766 391.64ZM375.782 381.32C379.238 381.32 381.67 383.752 381.67 387.224C381.67 390.696 379.238 393.128 375.782 393.128H372.39V381.32H375.782ZM383.64 385.496H385.336V393.128H383.64V385.496ZM384.488 381.688C385.048 381.688 385.448 382.088 385.448 382.648C385.448 383.208 385.048 383.608 384.488 383.608C383.928 383.608 383.528 383.208 383.528 382.648C383.528 382.088 383.928 381.688 384.488 381.688ZM394.983 385.512L391.751 393.144H390.279L387.079 385.512H388.935L391.015 390.856L393.111 385.512H394.983ZM396.671 385.496H398.367V393.128H396.671V385.496ZM397.519 381.688C398.079 381.688 398.479 382.088 398.479 382.648C398.479 383.208 398.079 383.608 397.519 383.608C396.959 383.608 396.559 383.208 396.559 382.648C396.559 382.088 396.959 381.688 397.519 381.688ZM401.787 390.52C402.123 391.352 402.955 391.736 403.467 391.736C404.266 391.736 404.779 391.432 404.779 390.904C404.779 390.424 404.075 390.2 403.291 389.928C402.251 389.56 400.779 389.064 400.779 387.592C400.779 386.248 402.011 385.432 403.579 385.432C404.523 385.432 405.931 385.976 406.315 387.352L404.891 387.864C404.635 387.016 403.947 386.888 403.579 386.888C402.907 386.888 402.475 387.16 402.475 387.592C402.475 388.072 403.131 388.264 403.947 388.552C405.035 388.936 406.475 389.432 406.475 390.888C406.475 392.28 405.243 393.192 403.467 393.192C402.299 393.192 401.019 392.456 400.459 391.288L401.787 390.52ZM408.374 385.496H410.07V393.128H408.374V385.496ZM409.222 381.688C409.782 381.688 410.182 382.088 410.182 382.648C410.182 383.208 409.782 383.608 409.222 383.608C408.662 383.608 408.262 383.208 408.262 382.648C408.262 382.088 408.662 381.688 409.222 381.688ZM415.81 391.752C416.994 391.752 417.794 390.808 417.794 389.352C417.794 387.912 416.994 386.952 415.81 386.952C414.626 386.952 413.826 387.896 413.826 389.352C413.826 390.808 414.61 391.752 415.81 391.752ZM415.81 385.496C417.97 385.496 419.49 387.096 419.49 389.352C419.49 391.592 417.97 393.208 415.81 393.208C413.65 393.208 412.13 391.592 412.13 389.352C412.13 387.096 413.65 385.496 415.81 385.496ZM426.415 388.936C426.415 387.72 425.791 386.984 424.735 386.984C423.695 387 422.895 387.816 422.911 388.936V393.144H421.215V385.512H422.911V386.552C423.391 385.96 424.207 385.528 424.943 385.528C426.383 385.528 428.111 386.472 428.111 388.872V393.144H426.415V388.936Z" fill="#15151A"/>
<rect x="253.5" y="428" width="208" height="76" rx="8" fill="#F6F6F7"/>
<path d="M294.663 455.768C295.004 456.429 295.409 456.931 295.879 457.272C296.359 457.613 296.865 457.784 297.399 457.784C298.135 457.784 298.705 457.619 299.111 457.288C299.516 456.947 299.719 456.493 299.719 455.928C299.719 455.555 299.607 455.24 299.383 454.984C299.169 454.728 298.897 454.525 298.567 454.376C298.247 454.216 297.799 454.029 297.223 453.816C296.487 453.549 295.889 453.293 295.431 453.048C294.972 452.803 294.583 452.456 294.263 452.008C293.943 451.56 293.783 450.984 293.783 450.28C293.783 449.651 293.943 449.101 294.263 448.632C294.583 448.163 295.025 447.805 295.591 447.56C296.156 447.315 296.801 447.192 297.527 447.192C298.348 447.192 299.084 447.421 299.735 447.88C300.396 448.328 300.887 449 301.207 449.896L299.687 450.44C299.484 449.853 299.196 449.416 298.823 449.128C298.449 448.829 298.028 448.675 297.559 448.664C296.929 448.664 296.423 448.813 296.039 449.112C295.665 449.4 295.479 449.789 295.479 450.28C295.479 450.653 295.585 450.968 295.799 451.224C296.023 451.48 296.3 451.693 296.631 451.864C296.972 452.024 297.425 452.211 297.991 452.424C298.727 452.712 299.319 452.979 299.767 453.224C300.215 453.469 300.599 453.816 300.919 454.264C301.239 454.701 301.399 455.261 301.399 455.944C301.399 456.595 301.239 457.171 300.919 457.672C300.599 458.173 300.135 458.563 299.527 458.84C298.929 459.117 298.225 459.256 297.415 459.256C296.551 459.256 295.767 459.027 295.063 458.568C294.359 458.099 293.756 457.427 293.255 456.552L294.663 455.768ZM304.433 452.968H302.993V451.496H304.433V448.824H306.129V451.496H307.937V452.968H306.129V459.144H304.433V452.968ZM309.455 451.512H311.151V452.632C311.407 452.269 311.749 451.981 312.175 451.768C312.602 451.555 313.039 451.459 313.487 451.48V453.048C313.05 453.027 312.65 453.128 312.287 453.352C311.935 453.565 311.658 453.853 311.455 454.216C311.253 454.579 311.151 454.957 311.151 455.352V459.144H309.455V451.512ZM317.972 459.208C317.279 459.208 316.655 459.043 316.1 458.712C315.556 458.381 315.13 457.928 314.82 457.352C314.511 456.765 314.356 456.104 314.356 455.368C314.356 454.632 314.511 453.976 314.82 453.4C315.13 452.813 315.556 452.355 316.1 452.024C316.655 451.693 317.279 451.528 317.972 451.528C318.367 451.528 318.756 451.619 319.14 451.8C319.524 451.981 319.866 452.248 320.164 452.6V451.512H321.86V459.144H320.164V458.12C319.876 458.483 319.54 458.755 319.156 458.936C318.772 459.117 318.378 459.208 317.972 459.208ZM318.084 457.768C318.458 457.768 318.804 457.667 319.124 457.464C319.444 457.251 319.7 456.963 319.892 456.6C320.084 456.227 320.18 455.816 320.18 455.368C320.18 454.92 320.084 454.515 319.892 454.152C319.7 453.779 319.444 453.491 319.124 453.288C318.804 453.075 318.458 452.968 318.084 452.968C317.476 452.968 316.986 453.187 316.612 453.624C316.239 454.061 316.052 454.643 316.052 455.368C316.052 456.083 316.239 456.664 316.612 457.112C316.986 457.549 317.476 457.768 318.084 457.768ZM324.823 452.968H323.383V451.496H324.823V448.824H326.519V451.496H328.327V452.968H326.519V459.144H324.823V452.968ZM333.208 459.176C332.493 459.176 331.859 459.016 331.304 458.696C330.749 458.365 330.312 457.912 329.992 457.336C329.683 456.749 329.528 456.088 329.528 455.352C329.528 454.605 329.683 453.944 329.992 453.368C330.312 452.781 330.749 452.328 331.304 452.008C331.859 451.677 332.493 451.512 333.208 451.512C334.2 451.512 334.941 451.763 335.432 452.264C335.923 452.755 336.237 453.192 336.376 453.576C336.6 454.099 336.712 454.723 336.712 455.448L336.696 456.008H331.192C331.288 456.52 331.528 456.936 331.912 457.256C332.296 457.576 332.728 457.736 333.208 457.736C333.752 457.736 334.173 457.629 334.472 457.416C334.771 457.203 334.984 456.989 335.112 456.776L336.472 457.384C336.259 457.875 335.869 458.296 335.304 458.648C334.749 459 334.051 459.176 333.208 459.176ZM335.096 454.664C335.011 454.152 334.813 453.741 334.504 453.432C334.195 453.112 333.763 452.952 333.208 452.952C332.707 452.952 332.269 453.112 331.896 453.432C331.523 453.752 331.288 454.163 331.192 454.664H335.096ZM341.974 457.736C342.369 457.736 342.726 457.629 343.046 457.416C343.366 457.203 343.617 456.915 343.798 456.552C343.98 456.179 344.07 455.773 344.07 455.336C344.07 454.909 343.98 454.515 343.798 454.152C343.617 453.779 343.366 453.485 343.046 453.272C342.726 453.059 342.369 452.952 341.974 452.952C341.377 452.952 340.892 453.171 340.518 453.608C340.145 454.045 339.958 454.621 339.958 455.336C339.958 456.061 340.14 456.643 340.502 457.08C340.876 457.517 341.366 457.736 341.974 457.736ZM345.766 458.568C345.766 459.293 345.606 459.96 345.286 460.568C344.977 461.176 344.534 461.656 343.958 462.008C343.382 462.36 342.716 462.536 341.958 462.536C341.286 462.536 340.662 462.387 340.086 462.088C339.521 461.8 339.057 461.357 338.694 460.76L340.038 459.864C340.326 460.28 340.614 460.579 340.902 460.76C341.201 460.941 341.553 461.032 341.958 461.032C342.609 461.032 343.121 460.808 343.494 460.36C343.878 459.912 344.07 459.363 344.07 458.712V458.04C343.782 458.403 343.436 458.685 343.03 458.888C342.636 459.091 342.252 459.192 341.878 459.192C341.185 459.192 340.561 459.027 340.006 458.696C339.462 458.365 339.036 457.912 338.726 457.336C338.417 456.749 338.262 456.088 338.262 455.352C338.262 454.616 338.417 453.955 338.726 453.368C339.036 452.781 339.462 452.323 340.006 451.992C340.561 451.661 341.185 451.496 341.878 451.496C342.284 451.496 342.684 451.597 343.078 451.8C343.484 451.992 343.814 452.264 344.07 452.616V451.496H345.766V458.568ZM349.121 462.456L350.785 458.504L347.713 451.512H349.585L351.681 456.568L353.697 451.512H355.537L352.689 458.376L350.977 462.456H349.121ZM365.561 453.208C366.201 453.208 366.723 453.005 367.129 452.6C367.534 452.184 367.737 451.651 367.737 451C367.737 450.36 367.529 449.837 367.113 449.432C366.707 449.016 366.185 448.808 365.545 448.808H362.953V453.208H365.561ZM365.609 447.32C366.345 447.32 367.001 447.48 367.577 447.8C368.153 448.109 368.601 448.541 368.921 449.096C369.251 449.651 369.417 450.285 369.417 451C369.417 451.715 369.251 452.349 368.921 452.904C368.601 453.459 368.153 453.896 367.577 454.216C367.001 454.525 366.345 454.68 365.609 454.68H362.953V459.128H361.257V447.32H365.609ZM372.541 447.704V459.128H370.845V447.704H372.541ZM377.753 459.208C377.06 459.208 376.436 459.043 375.881 458.712C375.337 458.381 374.911 457.928 374.601 457.352C374.292 456.765 374.137 456.104 374.137 455.368C374.137 454.632 374.292 453.976 374.601 453.4C374.911 452.813 375.337 452.355 375.881 452.024C376.436 451.693 377.06 451.528 377.753 451.528C378.148 451.528 378.537 451.619 378.921 451.8C379.305 451.981 379.647 452.248 379.945 452.6V451.512H381.641V459.144H379.945V458.12C379.657 458.483 379.321 458.755 378.937 458.936C378.553 459.117 378.159 459.208 377.753 459.208ZM377.865 457.768C378.239 457.768 378.585 457.667 378.905 457.464C379.225 457.251 379.481 456.963 379.673 456.6C379.865 456.227 379.961 455.816 379.961 455.368C379.961 454.92 379.865 454.515 379.673 454.152C379.481 453.779 379.225 453.491 378.905 453.288C378.585 453.075 378.239 452.968 377.865 452.968C377.257 452.968 376.767 453.187 376.393 453.624C376.02 454.061 375.833 454.643 375.833 455.368C375.833 456.083 376.02 456.664 376.393 457.112C376.767 457.549 377.257 457.768 377.865 457.768ZM388.923 454.936C388.923 454.328 388.773 453.853 388.475 453.512C388.176 453.16 387.765 452.984 387.243 452.984C386.72 452.995 386.283 453.187 385.931 453.56C385.579 453.923 385.408 454.381 385.419 454.936V459.144H383.723V451.512H385.419V452.552C385.664 452.253 385.973 452.008 386.347 451.816C386.72 451.624 387.088 451.528 387.451 451.528C387.973 451.528 388.475 451.645 388.955 451.88C389.435 452.115 389.829 452.483 390.139 452.984C390.459 453.485 390.619 454.115 390.619 454.872V459.144H388.923V454.936ZM397.735 454.936C397.735 454.328 397.586 453.853 397.287 453.512C396.989 453.16 396.578 452.984 396.055 452.984C395.533 452.995 395.095 453.187 394.743 453.56C394.391 453.923 394.221 454.381 394.231 454.936V459.144H392.535V451.512H394.231V452.552C394.477 452.253 394.786 452.008 395.159 451.816C395.533 451.624 395.901 451.528 396.263 451.528C396.786 451.528 397.287 451.645 397.767 451.88C398.247 452.115 398.642 452.483 398.951 452.984C399.271 453.485 399.431 454.115 399.431 454.872V459.144H397.735V454.936ZM403.281 451.496V459.128H401.585V451.496H403.281ZM402.433 447.688C402.71 447.688 402.94 447.779 403.121 447.96C403.302 448.141 403.393 448.371 403.393 448.648C403.393 448.925 403.302 449.155 403.121 449.336C402.94 449.517 402.71 449.608 402.433 449.608C402.156 449.608 401.926 449.517 401.745 449.336C401.564 449.155 401.473 448.925 401.473 448.648C401.473 448.371 401.564 448.141 401.745 447.96C401.926 447.779 402.156 447.688 402.433 447.688ZM410.845 454.936C410.845 454.328 410.695 453.853 410.397 453.512C410.098 453.16 409.687 452.984 409.165 452.984C408.642 452.995 408.205 453.187 407.853 453.56C407.501 453.923 407.33 454.381 407.341 454.936V459.144H405.645V451.512H407.341V452.552C407.586 452.253 407.895 452.008 408.269 451.816C408.642 451.624 409.01 451.528 409.373 451.528C409.895 451.528 410.397 451.645 410.877 451.88C411.357 452.115 411.751 452.483 412.061 452.984C412.381 453.485 412.541 454.115 412.541 454.872V459.144H410.845V454.936ZM417.974 457.736C418.369 457.736 418.726 457.629 419.046 457.416C419.366 457.203 419.617 456.915 419.798 456.552C419.98 456.179 420.07 455.773 420.07 455.336C420.07 454.909 419.98 454.515 419.798 454.152C419.617 453.779 419.366 453.485 419.046 453.272C418.726 453.059 418.369 452.952 417.974 452.952C417.377 452.952 416.892 453.171 416.518 453.608C416.145 454.045 415.958 454.621 415.958 455.336C415.958 456.061 416.14 456.643 416.502 457.08C416.876 457.517 417.366 457.736 417.974 457.736ZM421.766 458.568C421.766 459.293 421.606 459.96 421.286 460.568C420.977 461.176 420.534 461.656 419.958 462.008C419.382 462.36 418.716 462.536 417.958 462.536C417.286 462.536 416.662 462.387 416.086 462.088C415.521 461.8 415.057 461.357 414.694 460.76L416.038 459.864C416.326 460.28 416.614 460.579 416.902 460.76C417.201 460.941 417.553 461.032 417.958 461.032C418.609 461.032 419.121 460.808 419.494 460.36C419.878 459.912 420.07 459.363 420.07 458.712V458.04C419.782 458.403 419.436 458.685 419.03 458.888C418.636 459.091 418.252 459.192 417.878 459.192C417.185 459.192 416.561 459.027 416.006 458.696C415.462 458.365 415.036 457.912 414.726 457.336C414.417 456.749 414.262 456.088 414.262 455.352C414.262 454.616 414.417 453.955 414.726 453.368C415.036 452.781 415.462 452.323 416.006 451.992C416.561 451.661 417.185 451.496 417.878 451.496C418.284 451.496 418.684 451.597 419.078 451.8C419.484 451.992 419.814 452.264 420.07 452.616V451.496H421.766V458.568ZM333.156 483.64C333.988 483.64 334.724 483.459 335.364 483.096C336.004 482.723 336.5 482.205 336.852 481.544C337.204 480.872 337.38 480.099 337.38 479.224C337.38 478.349 337.204 477.581 336.852 476.92C336.5 476.248 336.004 475.731 335.364 475.368C334.724 474.995 333.988 474.808 333.156 474.808L331.476 474.824V483.624L333.156 483.64ZM333.172 473.32C334.314 473.32 335.327 473.571 336.212 474.072C337.108 474.573 337.807 475.272 338.308 476.168C338.81 477.064 339.06 478.083 339.06 479.224C339.06 480.365 338.81 481.384 338.308 482.28C337.807 483.176 337.108 483.875 336.212 484.376C335.327 484.877 334.314 485.128 333.172 485.128H329.78V473.32H333.172ZM342.726 477.496V485.128H341.03V477.496H342.726ZM341.878 473.688C342.156 473.688 342.385 473.779 342.566 473.96C342.748 474.141 342.838 474.371 342.838 474.648C342.838 474.925 342.748 475.155 342.566 475.336C342.385 475.517 342.156 475.608 341.878 475.608C341.601 475.608 341.372 475.517 341.19 475.336C341.009 475.155 340.918 474.925 340.918 474.648C340.918 474.371 341.009 474.141 341.19 473.96C341.372 473.779 341.601 473.688 341.878 473.688ZM349.142 485.144H347.67L344.47 477.512H346.326L348.406 482.856L350.502 477.512H352.374L349.142 485.144ZM355.758 477.496V485.128H354.062V477.496H355.758ZM354.91 473.688C355.187 473.688 355.416 473.779 355.598 473.96C355.779 474.141 355.87 474.371 355.87 474.648C355.87 474.925 355.779 475.155 355.598 475.336C355.416 475.517 355.187 475.608 354.91 475.608C354.632 475.608 354.403 475.517 354.222 475.336C354.04 475.155 353.95 474.925 353.95 474.648C353.95 474.371 354.04 474.141 354.222 473.96C354.403 473.779 354.632 473.688 354.91 473.688ZM359.177 482.52C359.337 482.904 359.582 483.203 359.913 483.416C360.244 483.629 360.558 483.736 360.857 483.736C361.262 483.736 361.582 483.667 361.817 483.528C362.052 483.379 362.169 483.171 362.169 482.904C362.169 482.691 362.052 482.52 361.817 482.392C361.582 482.264 361.204 482.109 360.681 481.928C360.169 481.747 359.748 481.576 359.417 481.416C359.086 481.256 358.793 481.027 358.537 480.728C358.292 480.419 358.169 480.04 358.169 479.592C358.169 478.931 358.436 478.408 358.969 478.024C359.502 477.629 360.169 477.432 360.969 477.432C361.31 477.432 361.668 477.501 362.041 477.64C362.425 477.779 362.766 477.992 363.065 478.28C363.374 478.568 363.588 478.925 363.705 479.352L362.281 479.864C362.164 479.491 361.977 479.235 361.721 479.096C361.476 478.957 361.225 478.888 360.969 478.888C360.628 478.888 360.356 478.952 360.153 479.08C359.961 479.208 359.865 479.379 359.865 479.592C359.865 479.805 359.972 479.971 360.185 480.088C360.398 480.205 360.782 480.36 361.337 480.552C361.849 480.733 362.27 480.909 362.601 481.08C362.942 481.24 363.236 481.469 363.481 481.768C363.737 482.067 363.865 482.44 363.865 482.888C363.865 483.581 363.588 484.141 363.033 484.568C362.478 484.984 361.753 485.192 360.857 485.192C360.26 485.192 359.678 485.021 359.113 484.68C358.548 484.328 358.126 483.864 357.849 483.288L359.177 482.52ZM367.461 477.496V485.128H365.765V477.496H367.461ZM366.613 473.688C366.89 473.688 367.119 473.779 367.301 473.96C367.482 474.141 367.573 474.371 367.573 474.648C367.573 474.925 367.482 475.155 367.301 475.336C367.119 475.517 366.89 475.608 366.613 475.608C366.335 475.608 366.106 475.517 365.925 475.336C365.743 475.155 365.653 474.925 365.653 474.648C365.653 474.371 365.743 474.141 365.925 473.96C366.106 473.779 366.335 473.688 366.613 473.688ZM373.2 483.752C373.798 483.752 374.278 483.533 374.64 483.096C375.003 482.659 375.184 482.077 375.184 481.352C375.184 480.637 375.003 480.061 374.64 479.624C374.278 479.176 373.798 478.952 373.2 478.952C372.603 478.952 372.123 479.171 371.76 479.608C371.398 480.045 371.216 480.627 371.216 481.352C371.216 482.077 371.398 482.659 371.76 483.096C372.123 483.533 372.603 483.752 373.2 483.752ZM373.2 477.496C373.915 477.496 374.55 477.661 375.104 477.992C375.659 478.323 376.091 478.781 376.4 479.368C376.72 479.944 376.88 480.605 376.88 481.352C376.88 482.088 376.72 482.749 376.4 483.336C376.091 483.923 375.659 484.381 375.104 484.712C374.55 485.043 373.915 485.208 373.2 485.208C372.486 485.208 371.851 485.043 371.296 484.712C370.742 484.381 370.304 483.923 369.984 483.336C369.675 482.749 369.52 482.088 369.52 481.352C369.52 480.605 369.675 479.944 369.984 479.368C370.304 478.781 370.742 478.323 371.296 477.992C371.851 477.661 372.486 477.496 373.2 477.496ZM383.806 480.936C383.806 480.328 383.656 479.853 383.358 479.512C383.059 479.16 382.648 478.984 382.126 478.984C381.603 478.995 381.166 479.187 380.814 479.56C380.462 479.923 380.291 480.381 380.302 480.936V485.144H378.606V477.512H380.302V478.552C380.547 478.253 380.856 478.008 381.23 477.816C381.603 477.624 381.971 477.528 382.334 477.528C382.856 477.528 383.358 477.645 383.838 477.88C384.318 478.115 384.712 478.483 385.022 478.984C385.342 479.485 385.502 480.115 385.502 480.872V485.144H383.806V480.936Z" fill="#15151A"/>
<rect x="253.5" y="520" width="208" height="76" rx="8" fill="#F6F6F7"/>
<path d="M277.205 553.808H271.269V557.312H276.373V558.784H271.269V562.64H277.205V564.128H269.573V552.32H277.205V553.808ZM280.53 560.768C280.871 561.429 281.277 561.931 281.746 562.272C282.226 562.613 282.733 562.784 283.266 562.784C284.002 562.784 284.573 562.619 284.978 562.288C285.383 561.947 285.586 561.493 285.586 560.928C285.586 560.555 285.474 560.24 285.25 559.984C285.037 559.728 284.765 559.525 284.434 559.376C284.114 559.216 283.666 559.029 283.09 558.816C282.354 558.549 281.757 558.293 281.298 558.048C280.839 557.803 280.45 557.456 280.13 557.008C279.81 556.56 279.65 555.984 279.65 555.28C279.65 554.651 279.81 554.101 280.13 553.632C280.45 553.163 280.893 552.805 281.458 552.56C282.023 552.315 282.669 552.192 283.394 552.192C284.215 552.192 284.951 552.421 285.602 552.88C286.263 553.328 286.754 554 287.074 554.896L285.554 555.44C285.351 554.853 285.063 554.416 284.69 554.128C284.317 553.829 283.895 553.675 283.426 553.664C282.797 553.664 282.29 553.813 281.906 554.112C281.533 554.4 281.346 554.789 281.346 555.28C281.346 555.653 281.453 555.968 281.666 556.224C281.89 556.48 282.167 556.693 282.498 556.864C282.839 557.024 283.293 557.211 283.858 557.424C284.594 557.712 285.186 557.979 285.634 558.224C286.082 558.469 286.466 558.816 286.786 559.264C287.106 559.701 287.266 560.261 287.266 560.944C287.266 561.595 287.106 562.171 286.786 562.672C286.466 563.173 286.002 563.563 285.394 563.84C284.797 564.117 284.093 564.256 283.282 564.256C282.418 564.256 281.634 564.027 280.93 563.568C280.226 563.099 279.623 562.427 279.122 561.552L280.53 560.768ZM300.264 558.96C300.264 560.048 300.029 560.987 299.56 561.776C299.101 562.565 298.456 563.173 297.624 563.6C296.792 564.016 295.827 564.235 294.728 564.256C293.597 564.256 292.584 564 291.688 563.488C290.803 562.976 290.109 562.261 289.608 561.344C289.107 560.427 288.856 559.387 288.856 558.224C288.856 557.061 289.107 556.027 289.608 555.12C290.109 554.203 290.803 553.488 291.688 552.976C292.584 552.464 293.597 552.208 294.728 552.208C295.827 552.208 296.744 552.421 297.48 552.848C298.216 553.264 298.733 553.675 299.032 554.08C299.331 554.485 299.56 554.811 299.72 555.056L298.264 555.808C298.147 555.627 297.981 555.387 297.768 555.088C297.565 554.789 297.197 554.485 296.664 554.176C296.141 553.856 295.496 553.696 294.728 553.696C293.907 553.696 293.176 553.888 292.536 554.272C291.907 554.645 291.416 555.173 291.064 555.856C290.723 556.539 290.552 557.328 290.552 558.224C290.552 559.12 290.723 559.915 291.064 560.608C291.416 561.291 291.907 561.824 292.536 562.208C293.176 562.581 293.907 562.768 294.728 562.768C295.869 562.736 296.797 562.437 297.512 561.872C298.227 561.296 298.589 560.453 298.6 559.344H294.92V557.936H300.28L300.264 558.96ZM308.273 555.44V564.128H306.577V552.32H308.417L312.529 559.536L316.625 552.32H318.481V564.128H316.785V555.44L313.265 561.664H311.777L308.273 555.44ZM324.183 564.208C323.49 564.208 322.866 564.043 322.311 563.712C321.767 563.381 321.34 562.928 321.031 562.352C320.722 561.765 320.567 561.104 320.567 560.368C320.567 559.632 320.722 558.976 321.031 558.4C321.34 557.813 321.767 557.355 322.311 557.024C322.866 556.693 323.49 556.528 324.183 556.528C324.578 556.528 324.967 556.619 325.351 556.8C325.735 556.981 326.076 557.248 326.375 557.6V556.512H328.071V564.144H326.375V563.12C326.087 563.483 325.751 563.755 325.367 563.936C324.983 564.117 324.588 564.208 324.183 564.208ZM324.295 562.768C324.668 562.768 325.015 562.667 325.335 562.464C325.655 562.251 325.911 561.963 326.103 561.6C326.295 561.227 326.391 560.816 326.391 560.368C326.391 559.92 326.295 559.515 326.103 559.152C325.911 558.779 325.655 558.491 325.335 558.288C325.015 558.075 324.668 557.968 324.295 557.968C323.687 557.968 323.196 558.187 322.823 558.624C322.45 559.061 322.263 559.643 322.263 560.368C322.263 561.083 322.45 561.664 322.823 562.112C323.196 562.549 323.687 562.768 324.295 562.768ZM335.352 559.936C335.352 559.328 335.203 558.853 334.904 558.512C334.606 558.16 334.195 557.984 333.672 557.984C333.15 557.995 332.712 558.187 332.36 558.56C332.008 558.923 331.838 559.381 331.848 559.936V564.144H330.152V556.512H331.848V557.552C332.094 557.253 332.403 557.008 332.776 556.816C333.15 556.624 333.518 556.528 333.88 556.528C334.403 556.528 334.904 556.645 335.384 556.88C335.864 557.115 336.259 557.483 336.568 557.984C336.888 558.485 337.048 559.115 337.048 559.872V564.144H335.352V559.936ZM342.386 564.208C341.693 564.208 341.069 564.043 340.514 563.712C339.97 563.381 339.544 562.928 339.234 562.352C338.925 561.765 338.77 561.104 338.77 560.368C338.77 559.632 338.925 558.976 339.234 558.4C339.544 557.813 339.97 557.355 340.514 557.024C341.069 556.693 341.693 556.528 342.386 556.528C342.781 556.528 343.17 556.619 343.554 556.8C343.938 556.981 344.28 557.248 344.578 557.6V556.512H346.274V564.144H344.578V563.12C344.29 563.483 343.954 563.755 343.57 563.936C343.186 564.117 342.792 564.208 342.386 564.208ZM342.498 562.768C342.872 562.768 343.218 562.667 343.538 562.464C343.858 562.251 344.114 561.963 344.306 561.6C344.498 561.227 344.594 560.816 344.594 560.368C344.594 559.92 344.498 559.515 344.306 559.152C344.114 558.779 343.858 558.491 343.538 558.288C343.218 558.075 342.872 557.968 342.498 557.968C341.89 557.968 341.4 558.187 341.026 558.624C340.653 559.061 340.466 559.643 340.466 560.368C340.466 561.083 340.653 561.664 341.026 562.112C341.4 562.549 341.89 562.768 342.498 562.768ZM351.873 562.736C352.268 562.736 352.625 562.629 352.945 562.416C353.265 562.203 353.516 561.915 353.697 561.552C353.878 561.179 353.969 560.773 353.969 560.336C353.969 559.909 353.878 559.515 353.697 559.152C353.516 558.779 353.265 558.485 352.945 558.272C352.625 558.059 352.268 557.952 351.873 557.952C351.276 557.952 350.79 558.171 350.417 558.608C350.044 559.045 349.857 559.621 349.857 560.336C349.857 561.061 350.038 561.643 350.401 562.08C350.774 562.517 351.265 562.736 351.873 562.736ZM355.665 563.568C355.665 564.293 355.505 564.96 355.185 565.568C354.876 566.176 354.433 566.656 353.857 567.008C353.281 567.36 352.614 567.536 351.857 567.536C351.185 567.536 350.561 567.387 349.985 567.088C349.42 566.8 348.956 566.357 348.593 565.76L349.937 564.864C350.225 565.28 350.513 565.579 350.801 565.76C351.1 565.941 351.452 566.032 351.857 566.032C352.508 566.032 353.02 565.808 353.393 565.36C353.777 564.912 353.969 564.363 353.969 563.712V563.04C353.681 563.403 353.334 563.685 352.929 563.888C352.534 564.091 352.15 564.192 351.777 564.192C351.084 564.192 350.46 564.027 349.905 563.696C349.361 563.365 348.934 562.912 348.625 562.336C348.316 561.749 348.161 561.088 348.161 560.352C348.161 559.616 348.316 558.955 348.625 558.368C348.934 557.781 349.361 557.323 349.905 556.992C350.46 556.661 351.084 556.496 351.777 556.496C352.182 556.496 352.582 556.597 352.977 556.8C353.382 556.992 353.713 557.264 353.969 557.616V556.496H355.665V563.568ZM360.903 564.176C360.189 564.176 359.554 564.016 358.999 563.696C358.445 563.365 358.007 562.912 357.687 562.336C357.378 561.749 357.223 561.088 357.223 560.352C357.223 559.605 357.378 558.944 357.687 558.368C358.007 557.781 358.445 557.328 358.999 557.008C359.554 556.677 360.189 556.512 360.903 556.512C361.895 556.512 362.637 556.763 363.127 557.264C363.618 557.755 363.933 558.192 364.071 558.576C364.295 559.099 364.407 559.723 364.407 560.448L364.391 561.008H358.887C358.983 561.52 359.223 561.936 359.607 562.256C359.991 562.576 360.423 562.736 360.903 562.736C361.447 562.736 361.869 562.629 362.167 562.416C362.466 562.203 362.679 561.989 362.807 561.776L364.167 562.384C363.954 562.875 363.565 563.296 362.999 563.648C362.445 564 361.746 564.176 360.903 564.176ZM362.791 559.664C362.706 559.152 362.509 558.741 362.199 558.432C361.89 558.112 361.458 557.952 360.903 557.952C360.402 557.952 359.965 558.112 359.591 558.432C359.218 558.752 358.983 559.163 358.887 559.664H362.791ZM375.895 559.808C375.895 559.264 375.762 558.827 375.495 558.496C375.229 558.165 374.877 558 374.439 558C373.959 558 373.565 558.165 373.255 558.496C372.957 558.827 372.807 559.237 372.807 559.728V564.144H371.095V559.808C371.095 559.264 370.962 558.827 370.695 558.496C370.439 558.165 370.098 558 369.671 558C369.191 558 368.791 558.181 368.471 558.544C368.162 558.907 368.007 559.36 368.007 559.904V564.144H366.311V556.512H368.007V557.552C368.242 557.243 368.514 556.997 368.823 556.816C369.143 556.624 369.479 556.528 369.831 556.528C370.279 556.528 370.711 556.656 371.127 556.912C371.543 557.168 371.863 557.499 372.087 557.904C372.354 557.499 372.717 557.168 373.175 556.912C373.634 556.656 374.093 556.528 374.551 556.528C375.149 556.528 375.677 556.667 376.135 556.944C376.605 557.221 376.967 557.605 377.223 558.096C377.479 558.576 377.607 559.125 377.607 559.744V564.144H375.895V559.808ZM383.153 564.176C382.439 564.176 381.804 564.016 381.249 563.696C380.695 563.365 380.257 562.912 379.937 562.336C379.628 561.749 379.473 561.088 379.473 560.352C379.473 559.605 379.628 558.944 379.937 558.368C380.257 557.781 380.695 557.328 381.249 557.008C381.804 556.677 382.439 556.512 383.153 556.512C384.145 556.512 384.887 556.763 385.377 557.264C385.868 557.755 386.183 558.192 386.321 558.576C386.545 559.099 386.657 559.723 386.657 560.448L386.641 561.008H381.137C381.233 561.52 381.473 561.936 381.857 562.256C382.241 562.576 382.673 562.736 383.153 562.736C383.697 562.736 384.119 562.629 384.417 562.416C384.716 562.203 384.929 561.989 385.057 561.776L386.417 562.384C386.204 562.875 385.815 563.296 385.249 563.648C384.695 564 383.996 564.176 383.153 564.176ZM385.041 559.664C384.956 559.152 384.759 558.741 384.449 558.432C384.14 558.112 383.708 557.952 383.153 557.952C382.652 557.952 382.215 558.112 381.841 558.432C381.468 558.752 381.233 559.163 381.137 559.664H385.041ZM393.649 559.936C393.649 559.328 393.5 558.853 393.201 558.512C392.903 558.16 392.492 557.984 391.969 557.984C391.447 557.995 391.009 558.187 390.657 558.56C390.305 558.923 390.135 559.381 390.145 559.936V564.144H388.449V556.512H390.145V557.552C390.391 557.253 390.7 557.008 391.073 556.816C391.447 556.624 391.815 556.528 392.177 556.528C392.7 556.528 393.201 556.645 393.681 556.88C394.161 557.115 394.556 557.483 394.865 557.984C395.185 558.485 395.345 559.115 395.345 559.872V564.144H393.649V559.936ZM398.144 557.968H396.704V556.496H398.144V553.824H399.84V556.496H401.648V557.968H399.84V564.144H398.144V557.968ZM415.61 553.808H412.282V564.128H410.57V553.808H407.226V552.32H415.61V553.808ZM419.325 564.176C418.611 564.176 417.976 564.016 417.421 563.696C416.867 563.365 416.429 562.912 416.109 562.336C415.8 561.749 415.645 561.088 415.645 560.352C415.645 559.605 415.8 558.944 416.109 558.368C416.429 557.781 416.867 557.328 417.421 557.008C417.976 556.677 418.611 556.512 419.325 556.512C420.317 556.512 421.059 556.763 421.549 557.264C422.04 557.755 422.355 558.192 422.493 558.576C422.717 559.099 422.829 559.723 422.829 560.448L422.813 561.008H417.309C417.405 561.52 417.645 561.936 418.029 562.256C418.413 562.576 418.845 562.736 419.325 562.736C419.869 562.736 420.291 562.629 420.589 562.416C420.888 562.203 421.101 561.989 421.229 561.776L422.589 562.384C422.376 562.875 421.987 563.296 421.421 563.648C420.867 564 420.168 564.176 419.325 564.176ZM421.213 559.664C421.128 559.152 420.931 558.741 420.621 558.432C420.312 558.112 419.88 557.952 419.325 557.952C418.824 557.952 418.387 558.112 418.013 558.432C417.64 558.752 417.405 559.163 417.309 559.664H421.213ZM427.996 564.208C427.302 564.208 426.678 564.043 426.124 563.712C425.58 563.381 425.153 562.928 424.844 562.352C424.534 561.765 424.38 561.104 424.38 560.368C424.38 559.632 424.534 558.976 424.844 558.4C425.153 557.813 425.58 557.355 426.124 557.024C426.678 556.693 427.302 556.528 427.996 556.528C428.39 556.528 428.78 556.619 429.164 556.8C429.548 556.981 429.889 557.248 430.188 557.6V556.512H431.884V564.144H430.188V563.12C429.9 563.483 429.564 563.755 429.18 563.936C428.796 564.117 428.401 564.208 427.996 564.208ZM428.108 562.768C428.481 562.768 428.828 562.667 429.148 562.464C429.468 562.251 429.724 561.963 429.916 561.6C430.108 561.227 430.204 560.816 430.204 560.368C430.204 559.92 430.108 559.515 429.916 559.152C429.724 558.779 429.468 558.491 429.148 558.288C428.828 558.075 428.481 557.968 428.108 557.968C427.5 557.968 427.009 558.187 426.636 558.624C426.262 559.061 426.076 559.643 426.076 560.368C426.076 561.083 426.262 561.664 426.636 562.112C427.009 562.549 427.5 562.768 428.108 562.768ZM443.661 559.808C443.661 559.264 443.528 558.827 443.261 558.496C442.994 558.165 442.642 558 442.205 558C441.725 558 441.33 558.165 441.021 558.496C440.722 558.827 440.573 559.237 440.573 559.728V564.144H438.861V559.808C438.861 559.264 438.728 558.827 438.461 558.496C438.205 558.165 437.864 558 437.437 558C436.957 558 436.557 558.181 436.237 558.544C435.928 558.907 435.773 559.36 435.773 559.904V564.144H434.077V556.512H435.773V557.552C436.008 557.243 436.28 556.997 436.589 556.816C436.909 556.624 437.245 556.528 437.597 556.528C438.045 556.528 438.477 556.656 438.893 556.912C439.309 557.168 439.629 557.499 439.853 557.904C440.12 557.499 440.482 557.168 440.941 556.912C441.4 556.656 441.858 556.528 442.317 556.528C442.914 556.528 443.442 556.667 443.901 556.944C444.37 557.221 444.733 557.605 444.989 558.096C445.245 558.576 445.373 559.125 445.373 559.744V564.144H443.661V559.808Z" fill="#15151A"/>
<g filter="url(#filter3_d_5829_4932)">
<rect x="481.5" y="520" width="208" height="76" rx="8" fill="white" shape-rendering="crispEdges"/>
<path d="M517.466 551.36V553.034H510.788V556.976H516.53V558.632H510.788V562.97H517.466V564.644H508.88V551.36H517.466ZM525.718 559.928C525.718 558.56 525.016 557.732 523.828 557.732C522.658 557.75 521.758 558.668 521.776 559.928V564.662H519.868V556.076H521.776V557.246C522.316 556.58 523.234 556.094 524.062 556.094C525.682 556.094 527.626 557.156 527.626 559.856V564.662H525.718V559.928ZM538.099 556.076L534.463 564.662H532.807L529.207 556.076H531.295L533.635 562.088L535.993 556.076H538.099ZM539.998 556.058H541.906V564.644H539.998V556.058ZM540.952 551.774C541.582 551.774 542.032 552.224 542.032 552.854C542.032 553.484 541.582 553.934 540.952 553.934C540.322 553.934 539.872 553.484 539.872 552.854C539.872 552.224 540.322 551.774 540.952 551.774ZM544.475 564.662V556.076H546.383V557.336C546.959 556.526 548.003 555.986 549.011 556.04V557.804C547.481 557.732 546.383 559.082 546.383 560.396V564.662H544.475ZM554.129 563.096C555.461 563.096 556.361 562.034 556.361 560.396C556.361 558.776 555.461 557.696 554.129 557.696C552.797 557.696 551.897 558.758 551.897 560.396C551.897 562.034 552.779 563.096 554.129 563.096ZM554.129 556.058C556.559 556.058 558.269 557.858 558.269 560.396C558.269 562.916 556.559 564.734 554.129 564.734C551.699 564.734 549.989 562.916 549.989 560.396C549.989 557.858 551.699 556.058 554.129 556.058ZM566.06 559.928C566.06 558.56 565.358 557.732 564.17 557.732C563 557.75 562.1 558.668 562.118 559.928V564.662H560.21V556.076H562.118V557.246C562.658 556.58 563.576 556.094 564.404 556.094C566.024 556.094 567.968 557.156 567.968 559.856V564.662H566.06V559.928ZM581.032 559.784C581.032 558.56 580.366 557.75 579.394 557.75C578.296 557.75 577.558 558.596 577.558 559.694V564.662H575.632V559.784C575.632 558.56 574.984 557.75 574.03 557.75C572.932 557.75 572.158 558.686 572.158 559.892V564.662H570.25V556.076H572.158V557.246C572.662 556.562 573.4 556.094 574.21 556.094C575.236 556.094 576.244 556.742 576.748 557.642C577.342 556.742 578.494 556.094 579.52 556.094C581.554 556.094 582.958 557.606 582.958 559.712V564.662H581.032V559.784ZM589.197 564.698C586.767 564.698 585.057 562.916 585.057 560.396C585.057 557.858 586.767 556.076 589.197 556.076C591.861 556.076 592.707 558.254 592.761 558.398C593.283 559.622 593.121 560.99 593.121 561.134H586.929C587.145 562.286 588.117 563.078 589.197 563.078C590.619 563.078 591.195 562.25 591.339 561.998L592.869 562.682C592.455 563.654 591.249 564.698 589.197 564.698ZM591.321 559.622C591.141 558.56 590.529 557.696 589.197 557.696C588.045 557.696 587.145 558.506 586.929 559.622H591.321ZM601.005 559.928C601.005 558.56 600.303 557.732 599.115 557.732C597.945 557.75 597.045 558.668 597.063 559.928V564.662H595.155V556.076H597.063V557.246C597.603 556.58 598.521 556.094 599.349 556.094C600.969 556.094 602.913 557.156 602.913 559.856V564.662H601.005V559.928ZM606.061 564.662V557.714H604.441V556.058H606.061V553.052H607.969V556.058H610.003V557.714H607.969V564.662H606.061ZM615.422 564.734C613.046 564.734 611.354 562.934 611.354 560.414C611.354 557.894 613.046 556.094 615.422 556.094C616.268 556.094 617.204 556.49 617.888 557.3V556.076H619.796V564.662H617.888V563.51C617.204 564.374 616.268 564.734 615.422 564.734ZM615.548 563.114C616.808 563.114 617.888 561.98 617.906 560.414C617.888 558.848 616.808 557.714 615.548 557.714C614.18 557.714 613.262 558.776 613.262 560.414C613.262 562.034 614.18 563.114 615.548 563.114ZM622.116 551.792H624.024V564.644H622.116V551.792ZM637.179 564.788C633.327 564.788 630.627 561.98 630.627 558.002C630.627 554.006 633.327 551.216 637.179 551.216C638.997 551.216 640.617 551.99 641.805 553.196L640.545 554.438C639.753 553.502 638.493 552.89 637.161 552.89C634.407 552.89 632.553 554.942 632.553 558.002C632.553 561.062 634.407 563.114 637.161 563.114C638.583 563.114 639.717 562.466 640.473 561.602L641.805 562.808C640.617 564.014 639.087 564.806 637.179 564.788ZM647.504 563.096C648.836 563.096 649.736 562.034 649.736 560.396C649.736 558.776 648.836 557.696 647.504 557.696C646.172 557.696 645.272 558.758 645.272 560.396C645.272 562.034 646.154 563.096 647.504 563.096ZM647.504 556.058C649.934 556.058 651.644 557.858 651.644 560.396C651.644 562.916 649.934 564.734 647.504 564.734C645.074 564.734 643.364 562.916 643.364 560.396C643.364 557.858 645.074 556.058 647.504 556.058ZM662.274 551.36V553.034H655.596V556.976H661.338V558.632H655.596V562.97H662.274V564.644H653.688V551.36H662.274Z" fill="#6D0CA6"/>
</g>
<g filter="url(#filter4_d_5829_4932)">
<rect x="480.5" y="336" width="208" height="72" rx="8" fill="white" shape-rendering="crispEdges"/>
<path d="M534.26 374.96C535.12 376.64 536.34 377.48 537.62 377.48C539.52 377.5 540.58 376.58 540.58 375.16C540.58 371.8 533.16 373.24 533.16 368.1C533.16 365.66 535.16 364.22 537.9 364.24C539.8 364.26 541.62 365.32 542.44 367.62L540.54 368.3C540.02 366.76 538.98 366.1 537.88 366.08C536.3 366.08 535.28 366.86 535.28 368.1C535.28 371.42 542.68 370.16 542.68 375.18C542.68 377.66 540.74 379.36 537.6 379.32C535.44 379.3 533.72 378.06 532.5 375.94L534.26 374.96ZM557.352 364.4L552.212 379.16H549.732L544.272 364.4H546.532L550.952 376.3L555.092 364.4H557.352ZM576.787 373.76C576.787 372.4 576.047 371.5 574.967 371.5C573.747 371.5 572.927 372.44 572.927 373.66V379.18H570.787V373.76C570.787 372.4 570.067 371.5 569.007 371.5C567.787 371.5 566.927 372.54 566.927 373.88V379.18H564.807V369.64H566.927V370.94C567.487 370.18 568.307 369.66 569.207 369.66C570.347 369.66 571.467 370.38 572.027 371.38C572.687 370.38 573.967 369.66 575.107 369.66C577.367 369.66 578.927 371.34 578.927 373.68V379.18H576.787V373.76ZM585.86 379.22C583.16 379.22 581.26 377.24 581.26 374.44C581.26 371.62 583.16 369.64 585.86 369.64C588.82 369.64 589.76 372.06 589.82 372.22C590.4 373.58 590.22 375.1 590.22 375.26H583.34C583.58 376.54 584.66 377.42 585.86 377.42C587.44 377.42 588.08 376.5 588.24 376.22L589.94 376.98C589.48 378.06 588.14 379.22 585.86 379.22ZM588.22 373.58C588.02 372.4 587.34 371.44 585.86 371.44C584.58 371.44 583.58 372.34 583.34 373.58H588.22ZM596.778 379.22C594.078 379.22 592.178 377.24 592.178 374.44C592.178 371.62 594.078 369.64 596.778 369.64C599.738 369.64 600.678 372.06 600.738 372.22C601.318 373.58 601.138 375.1 601.138 375.26H594.258C594.498 376.54 595.578 377.42 596.778 377.42C598.358 377.42 598.998 376.5 599.158 376.22L600.858 376.98C600.398 378.06 599.058 379.22 596.778 379.22ZM599.138 373.58C598.938 372.4 598.258 371.44 596.778 371.44C595.498 371.44 594.498 372.34 594.258 373.58H599.138ZM604.187 379.18V371.46H602.387V369.62H604.187V366.28H606.307V369.62H608.567V371.46H606.307V379.18H604.187ZM617.94 375.08C617.94 376.54 618.8 377.44 620.06 377.44C621.4 377.44 622.32 376.56 622.3 375.1V369.64H624.44V379.18H622.3V378.08C621.7 378.82 620.72 379.26 619.78 379.26C617.48 379.26 615.82 377.6 615.82 375.16V369.64H617.94V375.08ZM632.047 377.44C633.587 377.44 634.587 376.24 634.587 374.42C634.587 372.6 633.587 371.4 632.047 371.4C630.607 371.4 629.427 372.74 629.427 374.42C629.427 376.1 630.607 377.44 632.047 377.44ZM632.167 369.62C634.827 369.62 636.707 371.6 636.707 374.42C636.707 377.26 634.827 379.24 632.167 379.24C631.407 379.24 630.167 378.82 629.407 377.82V383.4H627.287V369.62H629.407V371.02C630.167 370.02 631.427 369.62 632.167 369.62Z" fill="#6D0CA6"/>
</g>
<defs>
<filter id="filter0_d_5829_4932" x="715.658" y="331.993" width="217.685" height="114.685" filterUnits="userSpaceOnUse" color-interpolation-filters="sRGB">
<feFlood flood-opacity="0" result="BackgroundImageFix"/>
<feColorMatrix in="SourceAlpha" type="matrix" values="0 0 0 0 0 0 0 0 0 0 0 0 0 0 0 0 0 0 127 0" result="hardAlpha"/>
<feOffset dy="1.33562"/>
<feGaussianBlur stdDeviation="2.67123"/>
<feComposite in2="hardAlpha" operator="out"/>
<feColorMatrix type="matrix" values="0 0 0 0 0 0 0 0 0 0 0 0 0 0 0 0 0 0 0.1 0"/>
<feBlend mode="normal" in2="BackgroundImageFix" result="effect1_dropShadow_5829_4932"/>
<feBlend mode="normal" in="SourceGraphic" in2="effect1_dropShadow_5829_4932" result="shape"/>
</filter>
<filter id="filter1_d_5829_4932" x="409" y="0" width="280" height="144" filterUnits="userSpaceOnUse" color-interpolation-filters="sRGB">
<feFlood flood-opacity="0" result="BackgroundImageFix"/>
<feColorMatrix in="SourceAlpha" type="matrix" values="0 0 0 0 0 0 0 0 0 0 0 0 0 0 0 0 0 0 127 0" result="hardAlpha"/>
<feOffset/>
<feGaussianBlur stdDeviation="18"/>
<feComposite in2="hardAlpha" operator="out"/>
<feColorMatrix type="matrix" values="0 0 0 0 0.592485 0 0 0 0 0.207569 0 0 0 0 0.816667 0 0 0 0.5 0"/>
<feBlend mode="normal" in2="BackgroundImageFix" result="effect1_dropShadow_5829_4932"/>
<feBlend mode="normal" in="SourceGraphic" in2="effect1_dropShadow_5829_4932" result="shape"/>
</filter>
<filter id="filter2_d_5829_4932" x="165.158" y="181.993" width="218.685" height="86.6849" filterUnits="userSpaceOnUse" color-interpolation-filters="sRGB">
<feFlood flood-opacity="0" result="BackgroundImageFix"/>
<feColorMatrix in="SourceAlpha" type="matrix" values="0 0 0 0 0 0 0 0 0 0 0 0 0 0 0 0 0 0 127 0" result="hardAlpha"/>
<feOffset dy="1.33562"/>
<feGaussianBlur stdDeviation="2.67123"/>
<feComposite in2="hardAlpha" operator="out"/>
<feColorMatrix type="matrix" values="0 0 0 0 0 0 0 0 0 0 0 0 0 0 0 0 0 0 0.1 0"/>
<feBlend mode="normal" in2="BackgroundImageFix" result="effect1_dropShadow_5829_4932"/>
<feBlend mode="normal" in="SourceGraphic" in2="effect1_dropShadow_5829_4932" result="shape"/>
</filter>
<filter id="filter3_d_5829_4932" x="476.158" y="515.993" width="218.685" height="86.6849" filterUnits="userSpaceOnUse" color-interpolation-filters="sRGB">
<feFlood flood-opacity="0" result="BackgroundImageFix"/>
<feColorMatrix in="SourceAlpha" type="matrix" values="0 0 0 0 0 0 0 0 0 0 0 0 0 0 0 0 0 0 127 0" result="hardAlpha"/>
<feOffset dy="1.33562"/>
<feGaussianBlur stdDeviation="2.67123"/>
<feComposite in2="hardAlpha" operator="out"/>
<feColorMatrix type="matrix" values="0 0 0 0 0 0 0 0 0 0 0 0 0 0 0 0 0 0 0.1 0"/>
<feBlend mode="normal" in2="BackgroundImageFix" result="effect1_dropShadow_5829_4932"/>
<feBlend mode="normal" in="SourceGraphic" in2="effect1_dropShadow_5829_4932" result="shape"/>
</filter>
<filter id="filter4_d_5829_4932" x="475.158" y="331.993" width="218.685" height="82.6849" filterUnits="userSpaceOnUse" color-interpolation-filters="sRGB">
<feFlood flood-opacity="0" result="BackgroundImageFix"/>
<feColorMatrix in="SourceAlpha" type="matrix" values="0 0 0 0 0 0 0 0 0 0 0 0 0 0 0 0 0 0 127 0" result="hardAlpha"/>
<feOffset dy="1.33562"/>
<feGaussianBlur stdDeviation="2.67123"/>
<feComposite in2="hardAlpha" operator="out"/>
<feColorMatrix type="matrix" values="0 0 0 0 0 0 0 0 0 0 0 0 0 0 0 0 0 0 0.1 0"/>
<feBlend mode="normal" in2="BackgroundImageFix" result="effect1_dropShadow_5829_4932"/>
<feBlend mode="normal" in="SourceGraphic" in2="effect1_dropShadow_5829_4932" result="shape"/>
</filter>
</defs>
</svg>
