<svg width="351" height="890" viewBox="0 0 351 890" fill="none" xmlns="http://www.w3.org/2000/svg">
<path d="M52 25L44.5 20.6699V29.3301L52 25ZM46 25V24.25H42V25V25.75H46V25ZM38 25V24.25H34V25V25.75H38V25ZM30 25V24.25H26V25V25.75H30V25ZM22 25V24.25H20V25V25.75H22V25ZM20 25V24.25C19.3573 24.25 18.7427 24.378 18.1816 24.6107L18.4688 25.3035L18.7561 25.9963C19.1383 25.8378 19.5579 25.75 20 25.75V25ZM16.3035 27.4688L15.6107 27.1816C15.378 27.7427 15.25 28.3573 15.25 29H16H16.75C16.75 28.5579 16.8378 28.1383 16.9963 27.7561L16.3035 27.4688ZM16 29H15.25V31.05H16H16.75V29H16ZM16 35.15H15.25V39.25H16H16.75V35.15H16ZM16 43.35H15.25V47.45H16H16.75V43.35H16ZM16 51.55H15.25V55.65H16H16.75V51.55H16ZM16 59.75H15.25V63.85H16H16.75V59.75H16ZM16 67.95H15.25V72.05H16H16.75V67.95H16ZM16 76.15H15.25V80.25H16H16.75V76.15H16ZM16 84.35H15.25V88.45H16H16.75V84.35H16ZM16 92.55H15.25V96.65H16H16.75V92.55H16ZM16 100.75H15.25V104.85H16H16.75V100.75H16ZM16 108.95H15.25V111H16H16.75V108.95H16ZM16 111H15.25C15.25 111.643 15.378 112.257 15.6107 112.818L16.3035 112.531L16.9963 112.244C16.8378 111.862 16.75 111.442 16.75 111H16ZM18.4688 114.696L18.1816 115.389C18.7427 115.622 19.3573 115.75 20 115.75V115V114.25C19.5579 114.25 19.1383 114.162 18.7561 114.004L18.4688 114.696ZM20 115V115.75H22V115V114.25H20V115ZM26 115V115.75H30V115V114.25H26V115ZM34 115V115.75H38V115V114.25H34V115ZM42 115V115.75H46V115V114.25H42V115ZM50 115V115.75H52V115V114.25H50V115Z" fill="#A1A1AA"/>
<path d="M299 416L306.5 420.33V411.67L299 416ZM305 416V416.75H309V416V415.25H305V416ZM313 416V416.75H317V416V415.25H313V416ZM321 416V416.75H325V416V415.25H321V416ZM329 416V416.75H331V416V415.25H329V416ZM331 416V416.75C331.643 416.75 332.257 416.622 332.818 416.389L332.531 415.696L332.244 415.004C331.862 415.162 331.442 415.25 331 415.25V416ZM334.696 413.531L335.389 413.818C335.622 413.257 335.75 412.643 335.75 412H335H334.25C334.25 412.442 334.162 412.862 334.004 413.244L334.696 413.531ZM335 412H335.75V410.02H335H334.25V412H335ZM335 406.061H335.75V402.101H335H334.25V406.061H335ZM335 398.142H335.75V394.182H335H334.25V398.142H335ZM335 390.223H335.75V386.264H335H334.25V390.223H335ZM335 382.304H335.75V378.345H335H334.25V382.304H335ZM335 374.385H335.75V370.426H335H334.25V374.385H335ZM335 366.466H335.75V362.507H335H334.25V366.466H335ZM335 358.547H335.75V354.588H335H334.25V358.547H335ZM335 350.628H335.75V346.669H335H334.25V350.628H335ZM335 342.709H335.75V338.75H335H334.25V342.709H335ZM335 334.791H335.75V330.831H335H334.25V334.791H335ZM335 326.872H335.75V322.912H335H334.25V326.872H335ZM335 318.953H335.75V314.993H335H334.25V318.953H335ZM335 311.034H335.75V307.074H335H334.25V311.034H335ZM335 303.115H335.75V299.155H335H334.25V303.115H335ZM335 295.196H335.75V291.237H335H334.25V295.196H335ZM335 287.277H335.75V283.318H335H334.25V287.277H335ZM335 279.358H335.75V275.399H335H334.25V279.358H335ZM335 271.439H335.75V267.48H335H334.25V271.439H335ZM335 263.52H335.75V259.561H335H334.25V263.52H335ZM335 255.601H335.75V251.642H335H334.25V255.601H335ZM335 247.682H335.75V243.723H335H334.25V247.682H335ZM335 239.764H335.75V235.804H335H334.25V239.764H335ZM335 231.845H335.75V227.885H335H334.25V231.845H335ZM335 223.926H335.75V219.966H335H334.25V223.926H335ZM335 216.007H335.75V212.047H335H334.25V216.007H335ZM335 208.088H335.75V204.128H335H334.25V208.088H335ZM335 200.169H335.75V196.21H335H334.25V200.169H335ZM335 192.25H335.75V188.291H335H334.25V192.25H335ZM335 184.331H335.75V180.372H335H334.25V184.331H335ZM335 176.412H335.75V172.453H335H334.25V176.412H335ZM335 168.493H335.75V164.534H335H334.25V168.493H335ZM335 160.574H335.75V156.615H335H334.25V160.574H335ZM335 152.655H335.75V148.696H335H334.25V152.655H335ZM335 144.737H335.75V140.777H335H334.25V144.737H335ZM335 136.818H335.75V132.858H335H334.25V136.818H335ZM335 128.899H335.75V124.939H335H334.25V128.899H335ZM335 120.98H335.75V119H335H334.25V120.98H335ZM335 119H335.75C335.75 118.357 335.622 117.743 335.389 117.182L334.696 117.469L334.004 117.756C334.162 118.138 334.25 118.558 334.25 119H335ZM332.531 115.304L332.818 114.611C332.257 114.378 331.643 114.25 331 114.25V115V115.75C331.442 115.75 331.862 115.838 332.244 115.996L332.531 115.304ZM331 115V114.25H329V115V115.75H331V115ZM325 115V114.25H321V115V115.75H325V115ZM317 115V114.25H313V115V115.75H317V115ZM309 115V114.25H305V115V115.75H309V115ZM301 115V114.25H299V115V115.75H301V115Z" fill="#A1A1AA"/>
<path d="M65.5 8C65.5 3.58172 69.0817 0 73.5 0H277.5C281.918 0 285.5 3.58172 285.5 8V42C285.5 46.4183 281.918 50 277.5 50H73.5C69.0817 50 65.5 46.4183 65.5 42V8Z" fill="#F5EBFB"/>
<path d="M146.728 18.664H148.472V20.488H151.736V18.664H153.464V24.872H146.728V18.664ZM148.472 21.816V23.496H151.736V21.816H148.472ZM155.624 18.056H157.384V20.92H159.336V22.36H157.384V25.32H155.624V18.056ZM148.12 25.928H157.384V29.64H149.896V30.792H157.832V32.168H148.152V28.36H155.656V27.288H148.12V25.928ZM164.792 19.016C167.016 19.016 168.664 20.456 168.664 22.472C168.664 24.504 167.016 25.928 164.792 25.928C162.552 25.928 160.904 24.504 160.904 22.472C160.904 20.456 162.552 19.016 164.792 19.016ZM164.792 20.536C163.544 20.536 162.616 21.272 162.616 22.472C162.616 23.656 163.544 24.424 164.792 24.424C166.024 24.424 166.952 23.656 166.952 22.472C166.952 21.272 166.024 20.536 164.792 20.536ZM170.216 18.024H171.96V32.312H170.216V18.024ZM160.264 27.896C162.792 27.896 166.344 27.88 169.368 27.416L169.496 28.696C166.376 29.304 162.968 29.336 160.472 29.336L160.264 27.896ZM177.888 26.36H190.784V27.752H185.168V32.296H183.408V27.752H177.888V26.36ZM179.408 18.616H181.152V20.36H187.472V18.616H189.2V24.856H179.408V18.616ZM181.152 21.736V23.448H187.472V21.736H181.152ZM199.008 22.648H201.968V18.024H203.712V32.312H201.968V24.072H199.008V22.648ZM195.312 19.192H197.072V21.448C197.072 24.088 198.304 26.696 200.56 27.72L199.52 29.128C197.936 28.344 196.816 26.84 196.192 25C195.568 26.952 194.416 28.552 192.816 29.368L191.728 27.96C194.016 26.872 195.312 24.12 195.312 21.448V19.192Z" fill="#6D0CA6"/>
<path fill-rule="evenodd" clip-rule="evenodd" d="M184.352 65.1483C184.82 65.617 184.82 66.3768 184.352 66.8454L175.503 75.6939L166.655 66.8454C166.186 66.3768 166.186 65.617 166.655 65.1483C167.123 64.6797 167.883 64.6797 168.352 65.1483L175.503 72.2998L182.655 65.1483C183.123 64.6797 183.883 64.6797 184.352 65.1483Z" fill="#A1A1AA"/>
<path d="M65.5 98C65.5 93.5817 69.0817 90 73.5 90H277.5C281.918 90 285.5 93.5817 285.5 98V132C285.5 136.418 281.918 140 277.5 140H73.5C69.0817 140 65.5 136.418 65.5 132V98Z" fill="#F5EBFB"/>
<path d="M144.347 108.808H146.091V110.296C146.091 112.104 147.227 113.8 149.387 114.504L148.475 115.864C146.955 115.336 145.851 114.296 145.243 112.968C144.635 114.488 143.499 115.672 141.851 116.28L140.907 114.888C143.211 114.088 144.347 112.168 144.347 110.152V108.808ZM150.459 108.056H152.219V111.496H154.203V112.952H152.219V116.552H150.459V108.056ZM147.627 116.904C150.571 116.904 152.379 117.896 152.379 119.592C152.379 121.288 150.571 122.28 147.627 122.28C144.683 122.28 142.859 121.288 142.859 119.592C142.859 117.896 144.683 116.904 147.627 116.904ZM147.627 118.264C145.691 118.264 144.587 118.728 144.587 119.592C144.587 120.456 145.691 120.92 147.627 120.92C149.547 120.92 150.651 120.456 150.651 119.592C150.651 118.728 149.547 118.264 147.627 118.264ZM162.715 111.592H165.131V108.056H166.891V116.504H165.131V113.016H162.715V111.592ZM162.123 116.872C165.099 116.872 166.939 117.896 166.939 119.592C166.939 121.304 165.099 122.296 162.123 122.296C159.131 122.296 157.291 121.304 157.291 119.592C157.291 117.896 159.131 116.872 162.123 116.872ZM162.123 118.216C160.155 118.216 159.051 118.696 159.051 119.592C159.051 120.472 160.155 120.952 162.123 120.952C164.075 120.952 165.195 120.472 165.195 119.592C165.195 118.696 164.075 118.216 162.123 118.216ZM155.515 108.984H163.163V110.392H160.251V110.472C160.251 112.216 161.371 113.96 163.563 114.712L162.683 116.088C161.115 115.544 160.011 114.472 159.403 113.128C158.779 114.648 157.611 115.88 155.915 116.472L155.035 115.08C157.275 114.296 158.475 112.392 158.475 110.472V110.392H155.515V108.984ZM173.66 108.648C175.804 108.648 177.356 109.88 177.356 111.656C177.356 113.4 175.804 114.648 173.66 114.648C171.532 114.648 169.964 113.4 169.964 111.656C169.964 109.88 171.532 108.648 173.66 108.648ZM173.66 110.088C172.508 110.088 171.66 110.68 171.66 111.656C171.66 112.616 172.508 113.208 173.66 113.208C174.828 113.208 175.676 112.616 175.676 111.656C175.676 110.68 174.828 110.088 173.66 110.088ZM179.1 108.04H180.86V122.296H179.1V108.04ZM169.052 115.624C171.596 115.624 175.148 115.608 178.22 115.128L178.332 116.424C177.1 116.664 175.836 116.808 174.604 116.904V121.848H172.844V117.016C171.548 117.064 170.332 117.08 169.26 117.08L169.052 115.624ZM193.116 108.04H194.876V118.856H193.116V117.592H190.364V116.376H193.116V108.04ZM184.828 117.816H186.588V120.6H195.212V122.008H184.828V117.816ZM182.956 114.456C185.564 114.44 189.052 114.408 192.076 114.04L192.172 115.288C191.02 115.48 189.804 115.608 188.62 115.688V118.424H186.86V115.784C185.548 115.848 184.284 115.864 183.18 115.864L182.956 114.456ZM187.548 108.568C189.644 108.568 191.084 109.576 191.084 111.08C191.084 112.616 189.644 113.608 187.548 113.608C185.468 113.608 184.012 112.616 184.012 111.08C184.012 109.576 185.468 108.568 187.548 108.568ZM187.548 109.848C186.46 109.848 185.692 110.296 185.692 111.08C185.692 111.864 186.46 112.312 187.548 112.312C188.668 112.312 189.404 111.864 189.404 111.08C189.404 110.296 188.668 109.848 187.548 109.848ZM207.021 108.056H208.765V122.296H207.021V108.056ZM197.085 118.344C198.189 118.344 199.453 118.344 200.781 118.312V116.984C199.197 116.728 198.173 115.752 198.173 114.392C198.173 112.792 199.581 111.736 201.661 111.736C203.725 111.736 205.165 112.792 205.165 114.392C205.165 115.752 204.125 116.728 202.541 116.984V118.248C203.789 118.184 205.037 118.088 206.221 117.928L206.333 119.192C203.213 119.768 199.853 119.784 197.293 119.784L197.085 118.344ZM197.357 109.688H200.781V108.088H202.541V109.688H205.965V111.064H197.357V109.688ZM201.661 113.064C200.589 113.064 199.837 113.56 199.837 114.392C199.837 115.224 200.589 115.72 201.661 115.72C202.749 115.72 203.485 115.224 203.485 114.392C203.485 113.56 202.749 113.064 201.661 113.064Z" fill="#6D0CA6"/>
<path fill-rule="evenodd" clip-rule="evenodd" d="M184.352 155.148C184.82 155.617 184.82 156.377 184.352 156.845L175.503 165.694L166.655 156.845C166.186 156.377 166.186 155.617 166.655 155.148C167.123 154.68 167.883 154.68 168.352 155.148L175.503 162.3L182.655 155.148C183.123 154.68 183.883 154.68 184.352 155.148Z" fill="#A1A1AA"/>
<path d="M65.5 188C65.5 183.582 69.0817 180 73.5 180H277.5C281.918 180 285.5 183.582 285.5 188V222C285.5 226.418 281.918 230 277.5 230H73.5C69.0817 230 65.5 226.418 65.5 222V188Z" fill="#F5EBFB"/>
<path d="M127.083 206.568H139.979V208.008H134.411V212.312H132.635V208.008H127.083V206.568ZM128.747 198.664H138.443V200.056H130.475V201.304H138.139V202.664H130.475V203.976H138.603V205.384H128.747V198.664ZM141.323 199.448H149.099V200.904H146.139V202.088C146.139 204.28 147.451 206.808 149.675 207.848L148.699 209.24C147.099 208.472 145.931 206.952 145.291 205.192C144.651 207.128 143.435 208.792 141.803 209.592L140.795 208.2C143.019 207.128 144.395 204.456 144.395 202.088V200.904H141.323V199.448ZM150.379 198.056H152.155V203.608H154.315V205.064H152.155V212.296H150.379V198.056ZM165.051 198.056H166.811V205.304H165.051V198.056ZM157.435 205.976H166.811V209.656H159.195V210.792H167.227V212.168H157.467V208.392H165.083V207.336H157.435V205.976ZM158.539 198.408H160.315V199.48C160.315 201.288 161.515 202.984 163.739 203.672L162.891 205.032C161.259 204.52 160.091 203.448 159.451 202.104C158.811 203.56 157.611 204.728 155.899 205.304L155.051 203.896C157.339 203.176 158.539 201.352 158.539 199.48V198.408ZM169.052 206.136H181.948V207.544H176.332V212.312H174.572V207.544H169.052V206.136ZM170.588 198.792H180.348V204.456H170.588V198.792ZM178.636 200.184H172.316V203.08H178.636V200.184ZM191.052 201.192H193.084V198.056H194.844V206.488H193.084V205.384H191.02V203.992H193.084V202.584H191.052V201.192ZM183.052 199.336H186.188V197.912H187.964V199.336H190.94V200.728H183.052V199.336ZM187.052 201.256C189.004 201.256 190.348 202.296 190.348 203.832C190.348 205.368 189.004 206.408 187.052 206.408C185.132 206.408 183.772 205.368 183.772 203.832C183.772 202.296 185.132 201.256 187.052 201.256ZM187.052 202.552C186.076 202.552 185.42 203.032 185.42 203.832C185.42 204.632 186.076 205.128 187.052 205.128C188.044 205.128 188.716 204.632 188.716 203.832C188.716 203.032 188.044 202.552 187.052 202.552ZM185.452 207.064H187.18V208.264H193.116V207.064H194.844V212.12H185.452V207.064ZM187.18 209.592V210.76H193.116V209.592H187.18ZM201.597 199.016C203.821 199.016 205.469 200.456 205.469 202.472C205.469 204.504 203.821 205.928 201.597 205.928C199.357 205.928 197.709 204.504 197.709 202.472C197.709 200.456 199.357 199.016 201.597 199.016ZM201.597 200.536C200.349 200.536 199.421 201.272 199.421 202.472C199.421 203.656 200.349 204.424 201.597 204.424C202.829 204.424 203.757 203.656 203.757 202.472C203.757 201.272 202.829 200.536 201.597 200.536ZM207.021 198.024H208.765V212.312H207.021V198.024ZM197.069 207.896C199.597 207.896 203.149 207.88 206.173 207.416L206.301 208.696C203.181 209.304 199.773 209.336 197.277 209.336L197.069 207.896ZM216.781 203.528H218.621V198.312H220.253V211.608H218.621V204.952H216.781V203.528ZM211.261 200.536H213.629V198.52H215.309V200.536H217.661V201.96H215.309V202.392C215.309 204.584 216.205 206.824 218.173 207.88L217.197 209.192C215.901 208.488 215.005 207.256 214.493 205.752C213.997 207.368 213.101 208.76 211.773 209.528L210.781 208.2C212.765 207.032 213.629 204.632 213.629 202.392V201.96H211.261V200.536ZM221.485 198.04H223.165V212.28H221.485V198.04Z" fill="#6D0CA6"/>
<path fill-rule="evenodd" clip-rule="evenodd" d="M184.352 299.148C184.82 299.617 184.82 300.377 184.352 300.845L175.503 309.694L166.655 300.845C166.186 300.377 166.186 299.617 166.655 299.148C167.123 298.68 167.883 298.68 168.352 299.148L175.503 306.3L182.655 299.148C183.123 298.68 183.883 298.68 184.352 299.148Z" fill="#A1A1AA"/>
<path d="M65.5 386C65.5 381.582 69.0817 378 73.5 378H277.5C281.918 378 285.5 381.582 285.5 386V446C285.5 450.418 281.918 454 277.5 454H73.5C69.0817 454 65.5 450.418 65.5 446V386Z" fill="#F5EBFB"/>
<path d="M130.106 404.568H143.002V406.008H137.434V410.312H135.658V406.008H130.106V404.568ZM131.77 396.664H141.466V398.056H133.498V399.304H141.162V400.664H133.498V401.976H141.626V403.384H131.77V396.664ZM144.347 397.448H152.123V398.904H149.163V400.088C149.163 402.28 150.475 404.808 152.699 405.848L151.723 407.24C150.123 406.472 148.955 404.952 148.315 403.192C147.674 405.128 146.459 406.792 144.827 407.592L143.819 406.2C146.043 405.128 147.419 402.456 147.419 400.088V398.904H144.347V397.448ZM153.403 396.056H155.179V401.608H157.339V403.064H155.179V410.296H153.403V396.056ZM162.699 396.648C164.843 396.648 166.395 397.88 166.395 399.656C166.395 401.4 164.843 402.648 162.699 402.648C160.571 402.648 159.003 401.4 159.003 399.656C159.003 397.88 160.571 396.648 162.699 396.648ZM162.699 398.088C161.547 398.088 160.699 398.68 160.699 399.656C160.699 400.616 161.547 401.208 162.699 401.208C163.867 401.208 164.715 400.616 164.715 399.656C164.715 398.68 163.867 398.088 162.699 398.088ZM168.139 396.04H169.899V410.296H168.139V396.04ZM158.091 403.624C160.635 403.624 164.187 403.608 167.259 403.128L167.371 404.424C166.139 404.664 164.875 404.808 163.643 404.904V409.848H161.883V405.016C160.587 405.064 159.371 405.08 158.299 405.08L158.091 403.624ZM182.155 396.04H183.915V406.856H182.155V405.592H179.403V404.376H182.155V396.04ZM173.867 405.816H175.627V408.6H184.251V410.008H173.867V405.816ZM171.995 402.456C174.603 402.44 178.091 402.408 181.115 402.04L181.211 403.288C180.059 403.48 178.843 403.608 177.659 403.688V406.424H175.899V403.784C174.587 403.848 173.323 403.864 172.219 403.864L171.995 402.456ZM176.587 396.568C178.683 396.568 180.123 397.576 180.123 399.08C180.123 400.616 178.683 401.608 176.587 401.608C174.507 401.608 173.051 400.616 173.051 399.08C173.051 397.576 174.507 396.568 176.587 396.568ZM176.587 397.848C175.499 397.848 174.731 398.296 174.731 399.08C174.731 399.864 175.499 400.312 176.587 400.312C177.707 400.312 178.443 399.864 178.443 399.08C178.443 398.296 177.707 397.848 176.587 397.848ZM196.06 396.056H197.804V410.296H196.06V396.056ZM186.124 406.344C187.228 406.344 188.492 406.344 189.82 406.312V404.984C188.236 404.728 187.212 403.752 187.212 402.392C187.212 400.792 188.62 399.736 190.7 399.736C192.764 399.736 194.204 400.792 194.204 402.392C194.204 403.752 193.164 404.728 191.58 404.984V406.248C192.828 406.184 194.076 406.088 195.26 405.928L195.372 407.192C192.252 407.768 188.892 407.784 186.332 407.784L186.124 406.344ZM186.396 397.688H189.82V396.088H191.58V397.688H195.004V399.064H186.396V397.688ZM190.7 401.064C189.628 401.064 188.876 401.56 188.876 402.392C188.876 403.224 189.628 403.72 190.7 403.72C191.788 403.72 192.524 403.224 192.524 402.392C192.524 401.56 191.788 401.064 190.7 401.064ZM207.732 407.752C208.916 407.752 209.716 406.808 209.716 405.352C209.716 403.912 208.916 402.952 207.732 402.952C206.548 402.952 205.748 403.896 205.748 405.352C205.748 406.808 206.532 407.752 207.732 407.752ZM207.732 401.496C209.892 401.496 211.411 403.096 211.411 405.352C211.411 407.592 209.892 409.208 207.732 409.208C205.572 409.208 204.052 407.592 204.052 405.352C204.052 403.096 205.572 401.496 207.732 401.496ZM213.057 409.144V401.512H214.753V402.632C215.265 401.912 216.193 401.432 217.089 401.48V403.048C215.729 402.984 214.753 404.184 214.753 405.352V409.144H213.057ZM137.547 422.04H139.227V436.28H137.547V429.08H135.995V435.576H134.363V422.328H135.995V427.656H137.547V422.04ZM127.707 423.688H129.451V431.208C130.651 431.192 132.011 431.08 133.483 430.792L133.659 432.312C131.771 432.664 130.139 432.744 128.667 432.744H127.707V423.688ZM141.083 430.36H153.979V431.752H148.363V436.296H146.603V431.752H141.083V430.36ZM142.603 422.616H144.347V424.36H150.667V422.616H152.395V428.856H142.603V422.616ZM144.347 425.736V427.448H150.667V425.736H144.347ZM155.051 430.568H167.947V432.008H162.379V436.312H160.603V432.008H155.051V430.568ZM156.715 422.664H166.411V424.056H158.443V425.304H166.107V426.664H158.443V427.976H166.571V429.384H156.715V422.664ZM169.292 423.448H177.068V424.904H174.108V426.088C174.108 428.28 175.42 430.808 177.644 431.848L176.668 433.24C175.068 432.472 173.9 430.952 173.26 429.192C172.62 431.128 171.404 432.792 169.772 433.592L168.764 432.2C170.988 431.128 172.364 428.456 172.364 426.088V424.904H169.292V423.448ZM178.348 422.056H180.124V427.608H182.284V429.064H180.124V436.296H178.348V422.056ZM187.644 422.648C189.788 422.648 191.34 423.88 191.34 425.656C191.34 427.4 189.788 428.648 187.644 428.648C185.516 428.648 183.948 427.4 183.948 425.656C183.948 423.88 185.516 422.648 187.644 422.648ZM187.644 424.088C186.492 424.088 185.644 424.68 185.644 425.656C185.644 426.616 186.492 427.208 187.644 427.208C188.812 427.208 189.66 426.616 189.66 425.656C189.66 424.68 188.812 424.088 187.644 424.088ZM193.084 422.04H194.844V436.296H193.084V422.04ZM183.036 429.624C185.58 429.624 189.132 429.608 192.204 429.128L192.316 430.424C191.084 430.664 189.82 430.808 188.588 430.904V435.848H186.828V431.016C185.532 431.064 184.316 431.08 183.244 431.08L183.036 429.624ZM207.101 422.04H208.861V432.856H207.101V431.592H204.349V430.376H207.101V422.04ZM198.813 431.816H200.573V434.6H209.197V436.008H198.813V431.816ZM196.941 428.456C199.549 428.44 203.037 428.408 206.061 428.04L206.157 429.288C205.005 429.48 203.789 429.608 202.605 429.688V432.424H200.845V429.784C199.533 429.848 198.269 429.864 197.165 429.864L196.941 428.456ZM201.533 422.568C203.629 422.568 205.069 423.576 205.069 425.08C205.069 426.616 203.629 427.608 201.533 427.608C199.453 427.608 197.997 426.616 197.997 425.08C197.997 423.576 199.453 422.568 201.533 422.568ZM201.533 423.848C200.445 423.848 199.677 424.296 199.677 425.08C199.677 425.864 200.445 426.312 201.533 426.312C202.653 426.312 203.389 425.864 203.389 425.08C203.389 424.296 202.653 423.848 201.533 423.848ZM221.005 422.056H222.749V436.296H221.005V422.056ZM211.069 432.344C212.173 432.344 213.437 432.344 214.765 432.312V430.984C213.181 430.728 212.157 429.752 212.157 428.392C212.157 426.792 213.565 425.736 215.645 425.736C217.709 425.736 219.149 426.792 219.149 428.392C219.149 429.752 218.109 430.728 216.525 430.984V432.248C217.773 432.184 219.021 432.088 220.205 431.928L220.317 433.192C217.197 433.768 213.837 433.784 211.277 433.784L211.069 432.344ZM211.341 423.688H214.765V422.088H216.525V423.688H219.949V425.064H211.341V423.688ZM215.645 427.064C214.573 427.064 213.821 427.56 213.821 428.392C213.821 429.224 214.573 429.72 215.645 429.72C216.733 429.72 217.469 429.224 217.469 428.392C217.469 427.56 216.733 427.064 215.645 427.064Z" fill="#6D0CA6"/>
<path fill-rule="evenodd" clip-rule="evenodd" d="M184.352 469.148C184.82 469.617 184.82 470.377 184.352 470.845L175.503 479.694L166.655 470.845C166.186 470.377 166.186 469.617 166.655 469.148C167.123 468.68 167.883 468.68 168.352 469.148L175.503 476.3L182.655 469.148C183.123 468.68 183.883 468.68 184.352 469.148Z" fill="#A1A1AA"/>
<path d="M65.5 502C65.5 497.582 69.0817 494 73.5 494H277.5C281.918 494 285.5 497.582 285.5 502V536C285.5 540.418 281.918 544 277.5 544H73.5C69.0817 544 65.5 540.418 65.5 536V502Z" fill="#F5EBFB"/>
<path d="M156.296 512.04H158.056V519.24H156.296V518.024H152.92V516.68H156.296V515.272H153.096C152.216 517.448 150.136 518.856 147 519.56L146.424 518.152C149.752 517.432 151.384 515.944 151.608 514.056H147.192V512.648H153.56C153.56 513.096 153.528 513.528 153.464 513.944H156.296V512.04ZM148.744 519.816H158.056V523.576H150.52V524.76H158.408V526.152H148.776V522.248H156.296V521.192H148.744V519.816ZM160.824 513.512H168.104V514.52C168.104 515.832 168.104 517.592 167.704 520.056L165.976 519.912C166.328 517.768 166.376 516.152 166.376 514.92H160.824V513.512ZM162.808 517.592H164.536V521.816C165.992 521.752 167.464 521.672 168.808 521.496L168.904 522.776C165.992 523.256 162.744 523.32 160.264 523.32L160.072 521.88L162.808 521.864V517.592ZM169.544 512.04H171.288V517.864H173.352V519.32H171.288V526.28H169.544V512.04ZM177.872 519.464H183.424V518.392H179.52V512.44H189.232V513.784H181.264V514.728H188.896V516.04H181.264V517.048H189.328V518.392H185.184V519.464H190.736V520.856H177.872V519.464ZM184.304 521.672C187.408 521.672 189.216 522.456 189.216 523.976C189.216 525.48 187.408 526.28 184.304 526.28C181.168 526.28 179.376 525.48 179.376 523.976C179.376 522.456 181.168 521.672 184.304 521.672ZM184.304 522.952C182.208 522.952 181.152 523.288 181.152 523.976C181.152 524.664 182.208 524.984 184.304 524.984C186.384 524.984 187.456 524.664 187.456 523.976C187.456 523.288 186.384 522.952 184.304 522.952ZM191.872 523.128H197.424V520.344H193.296V512.984H195.04V515.304H201.568V512.984H203.312V520.344H199.168V523.128H204.768V524.568H191.872V523.128ZM195.04 516.696V518.936H201.568V516.696H195.04Z" fill="#6D0CA6"/>
<path fill-rule="evenodd" clip-rule="evenodd" d="M184.352 559.148C184.82 559.617 184.82 560.377 184.352 560.845L175.503 569.694L166.655 560.845C166.186 560.377 166.186 559.617 166.655 559.148C167.123 558.68 167.883 558.68 168.352 559.148L175.503 566.3L182.655 559.148C183.123 558.68 183.883 558.68 184.352 559.148Z" fill="#A1A1AA"/>
<path d="M65.5 592C65.5 587.582 69.0817 584 73.5 584H277.5C281.918 584 285.5 587.582 285.5 592V626C285.5 630.418 281.918 634 277.5 634H73.5C69.0817 634 65.5 630.418 65.5 626V592Z" fill="#F5EBFB"/>
<path d="M149.207 602.024H150.983V616.312H149.207V602.024ZM143.367 603.064C145.511 603.064 147.063 605.016 147.063 608.104C147.063 611.208 145.511 613.16 143.367 613.16C141.223 613.16 139.671 611.208 139.671 608.104C139.671 605.016 141.223 603.064 143.367 603.064ZM143.367 604.664C142.183 604.664 141.367 605.928 141.367 608.104C141.367 610.296 142.183 611.576 143.367 611.576C144.551 611.576 145.367 610.296 145.367 608.104C145.367 605.928 144.551 604.664 143.367 604.664ZM156.536 603.208H158.28V605.448C158.28 607.976 159.512 610.584 161.704 611.656L160.632 613.048C159.112 612.264 158.024 610.776 157.416 608.968C156.792 610.904 155.64 612.504 154.024 613.32L152.968 611.896C155.24 610.808 156.536 608.072 156.536 605.448V603.208ZM162.52 602.056H164.296V607.64H166.472V609.112H164.296V616.296H162.52V602.056ZM177.208 602.056H178.952V616.296H177.208V602.056ZM167.272 612.344C168.376 612.344 169.64 612.344 170.968 612.312V610.984C169.384 610.728 168.36 609.752 168.36 608.392C168.36 606.792 169.768 605.736 171.848 605.736C173.912 605.736 175.352 606.792 175.352 608.392C175.352 609.752 174.312 610.728 172.728 610.984V612.248C173.976 612.184 175.224 612.088 176.408 611.928L176.52 613.192C173.4 613.768 170.04 613.784 167.48 613.784L167.272 612.344ZM167.544 603.688H170.968V602.088H172.728V603.688H176.152V605.064H167.544V603.688ZM171.848 607.064C170.776 607.064 170.024 607.56 170.024 608.392C170.024 609.224 170.776 609.72 171.848 609.72C172.936 609.72 173.672 609.224 173.672 608.392C173.672 607.56 172.936 607.064 171.848 607.064ZM194.944 602.04H196.704V609.24H194.944V608.024H191.568V606.68H194.944V605.272H191.744C190.864 607.448 188.784 608.856 185.648 609.56L185.072 608.152C188.4 607.432 190.032 605.944 190.256 604.056H185.84V602.648H192.208C192.208 603.096 192.176 603.528 192.112 603.944H194.944V602.04ZM187.392 609.816H196.704V613.576H189.168V614.76H197.056V616.152H187.424V612.248H194.944V611.192H187.392V609.816ZM203.44 603.016C205.664 603.016 207.312 604.456 207.312 606.472C207.312 608.504 205.664 609.928 203.44 609.928C201.2 609.928 199.552 608.504 199.552 606.472C199.552 604.456 201.2 603.016 203.44 603.016ZM203.44 604.536C202.192 604.536 201.264 605.272 201.264 606.472C201.264 607.656 202.192 608.424 203.44 608.424C204.672 608.424 205.6 607.656 205.6 606.472C205.6 605.272 204.672 604.536 203.44 604.536ZM208.864 602.024H210.608V616.312H208.864V602.024ZM198.912 611.896C201.44 611.896 204.992 611.88 208.016 611.416L208.144 612.696C205.024 613.304 201.616 613.336 199.12 613.336L198.912 611.896Z" fill="#6D0CA6"/>
<path fill-rule="evenodd" clip-rule="evenodd" d="M184.352 649.148C184.82 649.617 184.82 650.377 184.352 650.845L175.503 659.694L166.655 650.845C166.186 650.377 166.186 649.617 166.655 649.148C167.123 648.68 167.883 648.68 168.352 649.148L175.503 656.3L182.655 649.148C183.123 648.68 183.883 648.68 184.352 649.148Z" fill="#A1A1AA"/>
<path d="M65.5 682C65.5 677.582 69.0817 674 73.5 674H277.5C281.918 674 285.5 677.582 285.5 682V716C285.5 720.418 281.918 724 277.5 724H73.5C69.0817 724 65.5 720.418 65.5 716V682Z" fill="#F5EBFB"/>
<path d="M148.075 700.008H160.955V701.432H155.355V706.312H153.595V701.432H148.075V700.008ZM149.243 692.84H159.755V694.248H155.531C155.659 695.8 157.499 697.304 160.283 697.656L159.627 699.064C157.243 698.712 155.371 697.576 154.523 696.04C153.659 697.576 151.787 698.712 149.403 699.064L148.747 697.656C151.531 697.304 153.371 695.8 153.499 694.248H149.243V692.84ZM162.06 700.008H174.94V701.432H169.34V706.312H167.58V701.432H162.06V700.008ZM163.228 692.84H173.74V694.248H169.516C169.644 695.8 171.484 697.304 174.268 697.656L173.612 699.064C171.228 698.712 169.356 697.576 168.508 696.04C167.644 697.576 165.772 698.712 163.388 699.064L162.732 697.656C165.516 697.304 167.356 695.8 167.484 694.248H163.228V692.84ZM176.044 699.272H181.58V697.784H183.356V699.272H188.908V700.68H176.044V699.272ZM181.58 692.056H183.356V693.368H187.644V694.744H183.468C183.676 695.928 185.34 696.904 188.268 697.112L187.756 698.44C185.212 698.232 183.356 697.464 182.46 696.232C181.58 697.464 179.708 698.232 177.18 698.44L176.652 697.112C179.58 696.904 181.26 695.928 181.468 694.744H177.308V693.368H181.58V692.056ZM182.46 701.496C185.548 701.496 187.372 702.344 187.372 703.896C187.372 705.432 185.548 706.28 182.46 706.28C179.356 706.28 177.532 705.432 177.532 703.896C177.532 702.344 179.356 701.496 182.46 701.496ZM182.46 702.792C180.396 702.792 179.308 703.144 179.308 703.896C179.308 704.616 180.396 704.984 182.46 704.984C184.508 704.984 185.596 704.616 185.596 703.896C185.596 703.144 184.508 702.792 182.46 702.792ZM200.028 692.056H201.772V706.296H200.028V692.056ZM190.092 702.344C191.196 702.344 192.46 702.344 193.788 702.312V700.984C192.204 700.728 191.18 699.752 191.18 698.392C191.18 696.792 192.588 695.736 194.668 695.736C196.732 695.736 198.172 696.792 198.172 698.392C198.172 699.752 197.132 700.728 195.548 700.984V702.248C196.796 702.184 198.044 702.088 199.228 701.928L199.34 703.192C196.22 703.768 192.86 703.784 190.3 703.784L190.092 702.344ZM190.364 693.688H193.788V692.088H195.548V693.688H198.972V695.064H190.364V693.688ZM194.668 697.064C193.596 697.064 192.844 697.56 192.844 698.392C192.844 699.224 193.596 699.72 194.668 699.72C195.756 699.72 196.492 699.224 196.492 698.392C196.492 697.56 195.756 697.064 194.668 697.064Z" fill="#6D0CA6"/>
<path d="M204.068 159.644C205.1 159.644 205.82 158.924 205.82 157.916C205.82 156.908 205.088 156.188 204.056 156.188H202.016L202.028 159.644H204.068ZM204.092 155.3C205.688 155.3 206.804 156.38 206.804 157.916C206.804 159.44 205.688 160.52 204.092 160.52H202.028V164.036H201.02V155.3H204.092ZM210.356 164.108C208.808 164.108 207.704 162.932 207.704 161.288C207.704 159.632 208.808 158.456 210.356 158.456C210.956 158.456 211.616 158.756 212.096 159.404V158.444H213.092V164.036H212.096V163.136C211.604 163.844 210.956 164.108 210.356 164.108ZM210.392 163.232C211.292 163.232 212.096 162.416 212.108 161.288C212.096 160.16 211.292 159.332 210.392 159.332C209.396 159.332 208.7 160.124 208.7 161.288C208.7 162.428 209.396 163.232 210.392 163.232ZM215.375 162.248C215.687 162.92 216.347 163.208 216.767 163.208C217.439 163.208 217.919 162.92 217.919 162.44C217.919 161.984 217.295 161.804 216.671 161.588C215.903 161.324 214.823 160.988 214.823 159.92C214.823 158.972 215.699 158.384 216.815 158.384C217.475 158.384 218.531 158.768 218.795 159.764L217.919 160.064C217.739 159.404 217.139 159.272 216.815 159.272C216.239 159.272 215.819 159.512 215.819 159.92C215.819 160.376 216.395 160.532 217.067 160.76C217.871 161.036 218.915 161.372 218.915 162.44C218.915 163.436 218.003 164.084 216.767 164.084C215.915 164.084 215.027 163.604 214.571 162.728L215.375 162.248ZM220.73 162.248C221.042 162.92 221.702 163.208 222.122 163.208C222.794 163.208 223.274 162.92 223.274 162.44C223.274 161.984 222.65 161.804 222.026 161.588C221.258 161.324 220.178 160.988 220.178 159.92C220.178 158.972 221.054 158.384 222.17 158.384C222.83 158.384 223.886 158.768 224.15 159.764L223.274 160.064C223.094 159.404 222.494 159.272 222.17 159.272C221.594 159.272 221.174 159.512 221.174 159.92C221.174 160.376 221.75 160.532 222.422 160.76C223.226 161.036 224.27 161.372 224.27 162.44C224.27 163.436 223.358 164.084 222.122 164.084C221.27 164.084 220.382 163.604 219.926 162.728L220.73 162.248Z" fill="#3F3F46"/>
<path d="M25.456 72.704H29.704V70.484H26.572V65.072H27.604V66.92H32.86V65.072H33.892V70.484H30.736V72.704H35.02V73.568H25.456V72.704ZM27.604 67.76V69.644H32.86V67.76H27.604ZM39.1363 64.82C40.6483 64.82 41.7283 65.66 41.7283 66.92C41.7283 68.012 40.9003 68.78 39.6763 68.96V69.956C40.6243 69.908 41.5843 69.824 42.4603 69.692L42.5443 70.448C40.3483 70.856 37.8643 70.88 36.0523 70.88L35.9203 70.04C36.7243 70.04 37.6603 70.04 38.6323 70.004V68.96C37.3843 68.804 36.5323 68.024 36.5323 66.92C36.5323 65.66 37.6123 64.82 39.1363 64.82ZM39.1363 65.624C38.1643 65.624 37.5043 66.14 37.5043 66.92C37.5043 67.7 38.1643 68.216 39.1363 68.216C40.0963 68.216 40.7683 67.7 40.7683 66.92C40.7683 66.14 40.0963 65.624 39.1363 65.624ZM43.1083 64.352H44.1523V67.88H45.6763V68.744H44.1523V72.428H43.1083V64.352ZM37.4323 71.732H38.4763V73.82H44.5243V74.672H37.4323V71.732ZM49.0006 65.252H50.0206V67.088C50.0206 68.948 51.1366 70.88 52.6726 71.636L52.0366 72.452C50.8966 71.852 49.9846 70.652 49.5166 69.212C49.0486 70.748 48.1006 72.032 46.9126 72.668L46.2766 71.828C47.8486 71.048 49.0006 69.02 49.0006 67.088V65.252ZM53.5246 64.352H54.5686V68.588H56.2846V69.476H54.5686V74.912H53.5246V64.352ZM64.0848 64.352H65.1288V67.244H66.6768V68.108H65.1288V71.132H64.0848V64.352ZM61.8048 71.228C63.9408 71.228 65.2488 71.9 65.2488 73.052C65.2488 74.204 63.9408 74.888 61.8048 74.888C59.6568 74.888 58.3488 74.204 58.3488 73.052C58.3488 71.9 59.6568 71.228 61.8048 71.228ZM61.8048 72.02C60.2928 72.02 59.3808 72.392 59.3808 73.052C59.3808 73.724 60.2928 74.096 61.8048 74.096C63.3288 74.096 64.2288 73.724 64.2288 73.052C64.2288 72.392 63.3288 72.02 61.8048 72.02ZM56.9448 65.516H59.5488V64.256H60.5808V65.516H63.1848V66.344H56.9448V65.516ZM60.0648 66.848C61.5768 66.848 62.5968 67.58 62.5968 68.708C62.5968 69.848 61.5768 70.58 60.0648 70.58C58.5528 70.58 57.5328 69.848 57.5328 68.708C57.5328 67.58 58.5528 66.848 60.0648 66.848ZM60.0648 67.628C59.1408 67.628 58.5168 68.048 58.5168 68.708C58.5168 69.38 59.1408 69.8 60.0648 69.8C60.9768 69.8 61.6008 69.38 61.6008 68.708C61.6008 68.048 60.9768 67.628 60.0648 67.628Z" fill="#3F3F46"/>
<path d="M31.372 126.3V127.188H27.016V130.212H30.7V131.088H27.016V135.036H26.008V126.3H31.372ZM34.3477 135.108C32.7997 135.108 31.6957 133.932 31.6957 132.288C31.6957 130.632 32.7997 129.456 34.3477 129.456C34.9477 129.456 35.6077 129.756 36.0877 130.404V129.444H37.0837V135.036H36.0877V134.136C35.5957 134.844 34.9477 135.108 34.3477 135.108ZM34.3837 134.232C35.2837 134.232 36.0877 133.416 36.0997 132.288C36.0877 131.16 35.2837 130.332 34.3837 130.332C33.3877 130.332 32.6917 131.124 32.6917 132.288C32.6917 133.428 33.3877 134.232 34.3837 134.232ZM38.8509 129.432H39.8469V135.036H38.8509V129.432ZM39.3549 126.66C39.7029 126.66 39.9549 126.912 39.9549 127.26C39.9549 127.62 39.7029 127.872 39.3549 127.872C38.9949 127.872 38.7429 127.62 38.7429 127.26C38.7429 126.912 38.9949 126.66 39.3549 126.66ZM41.5543 126.564H42.5503V135.036H41.5543V126.564Z" fill="#3F3F46"/>
<path d="M200.456 566.704H204.716V564.184H205.76V566.704H210.02V567.568H200.456V566.704ZM201.248 559.288H209.216V560.128H205.772V560.296C205.772 561.94 207.692 563.392 209.6 563.692L209.18 564.52C207.524 564.196 205.916 563.188 205.244 561.772C204.56 563.2 202.964 564.22 201.332 564.556L200.912 563.74C202.796 563.416 204.692 561.94 204.692 560.296V560.128H201.248V559.288ZM218.6 558.34H219.644V566.128H218.6V562.432H216.392V561.568H218.6V558.34ZM216.428 559.156C216.428 561.892 214.532 563.968 211.532 564.964L211.088 564.124C213.476 563.332 215.096 561.856 215.312 560.008H211.628V559.156H216.428ZM212.936 565.348H213.992V567.832H219.908V568.672H212.936V565.348ZM224.198 563.536H233.738V564.376H229.478V565.396C231.446 565.48 232.586 566.08 232.586 567.136C232.586 568.264 231.242 568.888 228.962 568.888C226.67 568.888 225.338 568.264 225.338 567.136C225.338 566.08 226.466 565.48 228.446 565.396V564.376H224.198V563.536ZM228.446 558.328H229.49V559.36H232.778V560.188H229.55C229.67 561.268 231.182 562.048 233.198 562.204L232.886 563.008C231.11 562.84 229.61 562.228 228.962 561.22C228.314 562.228 226.826 562.84 225.05 563.008L224.726 562.204C226.742 562.048 228.266 561.268 228.386 560.188H225.17V559.36H228.446V558.328ZM228.962 566.164C227.318 566.164 226.382 566.5 226.382 567.136C226.382 567.76 227.318 568.108 228.962 568.108C230.594 568.108 231.53 567.76 231.53 567.136C231.53 566.5 230.594 566.164 228.962 566.164ZM235.562 558.784H243.362V559.624H240.146C240.242 560.74 241.826 561.652 243.722 561.844L243.338 562.672C241.562 562.456 240.038 561.676 239.462 560.524C238.886 561.676 237.35 562.456 235.574 562.672L235.202 561.844C237.086 561.652 238.682 560.74 238.778 559.624H235.562V558.784ZM234.686 563.632H238.934V562.072H239.966V563.632H244.25V564.472H234.686V563.632ZM235.742 565.48H243.05V568.912H242.018V566.308H235.742V565.48ZM250.676 559.252H251.72V561.088C251.72 563.02 252.932 564.964 254.504 565.684L253.892 566.524C252.68 565.936 251.708 564.724 251.216 563.236C250.736 564.808 249.74 566.104 248.492 566.728L247.856 565.864C249.464 565.12 250.676 563.104 250.676 561.088V559.252ZM255.536 558.328H256.58V568.924H255.536V558.328Z" fill="#3F3F46"/>
<path d="M200.456 656.704H204.716V654.184H205.76V656.704H210.02V657.568H200.456V656.704ZM201.248 649.288H209.216V650.128H205.772V650.296C205.772 651.94 207.692 653.392 209.6 653.692L209.18 654.52C207.524 654.196 205.916 653.188 205.244 651.772C204.56 653.2 202.964 654.22 201.332 654.556L200.912 653.74C202.796 653.416 204.692 651.94 204.692 650.296V650.128H201.248V649.288ZM218.6 648.34H219.644V656.128H218.6V652.432H216.392V651.568H218.6V648.34ZM216.428 649.156C216.428 651.892 214.532 653.968 211.532 654.964L211.088 654.124C213.476 653.332 215.096 651.856 215.312 650.008H211.628V649.156H216.428ZM212.936 655.348H213.992V657.832H219.908V658.672H212.936V655.348ZM224.198 653.536H233.738V654.376H229.478V655.396C231.446 655.48 232.586 656.08 232.586 657.136C232.586 658.264 231.242 658.888 228.962 658.888C226.67 658.888 225.338 658.264 225.338 657.136C225.338 656.08 226.466 655.48 228.446 655.396V654.376H224.198V653.536ZM228.446 648.328H229.49V649.36H232.778V650.188H229.55C229.67 651.268 231.182 652.048 233.198 652.204L232.886 653.008C231.11 652.84 229.61 652.228 228.962 651.22C228.314 652.228 226.826 652.84 225.05 653.008L224.726 652.204C226.742 652.048 228.266 651.268 228.386 650.188H225.17V649.36H228.446V648.328ZM228.962 656.164C227.318 656.164 226.382 656.5 226.382 657.136C226.382 657.76 227.318 658.108 228.962 658.108C230.594 658.108 231.53 657.76 231.53 657.136C231.53 656.5 230.594 656.164 228.962 656.164ZM235.562 648.784H243.362V649.624H240.146C240.242 650.74 241.826 651.652 243.722 651.844L243.338 652.672C241.562 652.456 240.038 651.676 239.462 650.524C238.886 651.676 237.35 652.456 235.574 652.672L235.202 651.844C237.086 651.652 238.682 650.74 238.778 649.624H235.562V648.784ZM234.686 653.632H238.934V652.072H239.966V653.632H244.25V654.472H234.686V653.632ZM235.742 655.48H243.05V658.912H242.018V656.308H235.742V655.48ZM250.676 649.252H251.72V651.088C251.72 653.02 252.932 654.964 254.504 655.684L253.892 656.524C252.68 655.936 251.708 654.724 251.216 653.236C250.736 654.808 249.74 656.104 248.492 656.728L247.856 655.864C249.464 655.12 250.676 653.104 250.676 651.088V649.252ZM255.536 648.328H256.58V658.924H255.536V648.328Z" fill="#3F3F46"/>
<path d="M231.456 254.704H235.716V252.184H236.76V254.704H241.02V255.568H231.456V254.704ZM232.248 247.288H240.216V248.128H236.772V248.296C236.772 249.94 238.692 251.392 240.6 251.692L240.18 252.52C238.524 252.196 236.916 251.188 236.244 249.772C235.56 251.2 233.964 252.22 232.332 252.556L231.912 251.74C233.796 251.416 235.692 249.94 235.692 248.296V248.128H232.248V247.288ZM249.6 246.34H250.644V254.128H249.6V250.432H247.392V249.568H249.6V246.34ZM247.428 247.156C247.428 249.892 245.532 251.968 242.532 252.964L242.088 252.124C244.476 251.332 246.096 249.856 246.312 248.008H242.628V247.156H247.428ZM243.936 253.348H244.992V255.832H250.908V256.672H243.936V253.348ZM255.198 251.536H264.738V252.376H260.478V253.396C262.446 253.48 263.586 254.08 263.586 255.136C263.586 256.264 262.242 256.888 259.962 256.888C257.67 256.888 256.338 256.264 256.338 255.136C256.338 254.08 257.466 253.48 259.446 253.396V252.376H255.198V251.536ZM259.446 246.328H260.49V247.36H263.778V248.188H260.55C260.67 249.268 262.182 250.048 264.198 250.204L263.886 251.008C262.11 250.84 260.61 250.228 259.962 249.22C259.314 250.228 257.826 250.84 256.05 251.008L255.726 250.204C257.742 250.048 259.266 249.268 259.386 248.188H256.17V247.36H259.446V246.328ZM259.962 254.164C258.318 254.164 257.382 254.5 257.382 255.136C257.382 255.76 258.318 256.108 259.962 256.108C261.594 256.108 262.53 255.76 262.53 255.136C262.53 254.5 261.594 254.164 259.962 254.164ZM266.562 246.784H274.362V247.624H271.146C271.242 248.74 272.826 249.652 274.722 249.844L274.338 250.672C272.562 250.456 271.038 249.676 270.462 248.524C269.886 249.676 268.35 250.456 266.574 250.672L266.202 249.844C268.086 249.652 269.682 248.74 269.778 247.624H266.562V246.784ZM265.686 251.632H269.934V250.072H270.966V251.632H275.25V252.472H265.686V251.632ZM266.742 253.48H274.05V256.912H273.018V254.308H266.742V253.48ZM281.676 247.252H282.72V249.088C282.72 251.02 283.932 252.964 285.504 253.684L284.892 254.524C283.68 253.936 282.708 252.724 282.216 251.236C281.736 252.808 280.74 254.104 279.492 254.728L278.856 253.864C280.464 253.12 281.676 251.104 281.676 249.088V247.252ZM286.536 246.328H287.58V256.924H286.536V246.328ZM290.917 255.028L290.209 257.428H289.465L289.861 255.028H290.917ZM303.19 246.352H304.246V251.812H303.19V246.352ZM297.322 252.316H304.246V254.896H298.366V255.964H304.618V256.792H297.346V254.128H303.202V253.132H297.322V252.316ZM296.026 247.048H301.69V247.876H300.682V250.468C301.198 250.432 301.714 250.384 302.194 250.324L302.242 251.068C300.142 251.404 297.694 251.464 295.858 251.464L295.738 250.624L297.034 250.612V247.876H296.026V247.048ZM298.042 250.588L299.674 250.528V247.876H298.042V250.588ZM306.046 254.704H308.362V251.896C307.486 251.416 306.958 250.672 306.958 249.712C306.958 248.056 308.578 246.988 310.81 246.988C313.066 246.988 314.662 248.056 314.662 249.712C314.662 250.66 314.146 251.404 313.294 251.872V254.704H315.61V255.556H306.046V254.704ZM310.81 247.804C309.154 247.804 307.978 248.56 307.978 249.712C307.978 250.876 309.154 251.62 310.81 251.62C312.478 251.62 313.654 250.876 313.654 249.712C313.654 248.56 312.478 247.804 310.81 247.804ZM309.394 254.704H312.25V252.268C311.818 252.376 311.326 252.436 310.81 252.436C310.306 252.436 309.826 252.376 309.394 252.28V254.704ZM322.036 247.252H323.08V249.088C323.08 251.02 324.292 252.964 325.864 253.684L325.252 254.524C324.04 253.936 323.068 252.724 322.576 251.236C322.096 252.808 321.1 254.104 319.852 254.728L319.216 253.864C320.824 253.12 322.036 251.104 322.036 249.088V247.252ZM326.896 246.328H327.94V256.924H326.896V246.328Z" fill="#3F3F46"/>
<path d="M215 274C215 269.582 218.582 266 223 266H337C341.418 266 345 269.582 345 274V334C345 338.418 341.418 342 337 342H223C218.582 342 215 338.418 215 334V274Z" fill="#F5EBFB"/>
<path d="M244.967 284.04H246.743V294.568H244.967V291.48H241.559V290.056H244.967V288.264H241.783C240.775 290.456 238.695 292.104 235.831 293.016L235.079 291.608C238.199 290.632 240.231 288.792 240.535 286.536H235.831V285.128H242.439C242.439 285.736 242.375 286.312 242.247 286.856H244.967V284.04ZM237.527 293.56H239.303V296.6H247.079V298.008H237.527V293.56ZM259.368 284.04H261.032V298.28H259.368V284.04ZM254.472 289.016H256.504V284.312H258.136V297.608H256.504V290.44H254.472V289.016ZM249.096 285.56H255.512V287H253.256V287.928C253.256 290.328 254.088 292.76 256.104 293.944L255.064 295.208C253.768 294.424 252.904 293.08 252.408 291.464C251.928 293.224 251.032 294.712 249.688 295.56L248.632 294.264C250.664 292.984 251.544 290.424 251.544 287.928V287H249.096V285.56ZM274.144 287.816H276.624V284.056H278.384V294.44H276.624V289.24H274.144V287.816ZM269.088 293.56H270.864V296.6H278.736V298.008H269.088V293.56ZM267.008 285.08H274.656V286.488H271.744V286.872C271.744 288.6 272.88 290.376 275.056 291.112L274.192 292.488C272.608 291.944 271.504 290.856 270.88 289.496C270.272 291 269.088 292.216 267.408 292.792L266.512 291.4C268.768 290.632 269.968 288.76 269.968 286.872V286.488H267.008V285.08ZM289.936 284.04H291.696V287.352H293.664V288.776H291.696V292.056H289.936V284.04ZM281.136 284.952H287.44V286.36H282.896V290.024C285.552 290.008 287.024 289.912 288.672 289.576L288.848 290.984C287.024 291.368 285.392 291.448 282.288 291.448H281.136V284.952ZM282.56 292.728H291.696V298.104H282.56V292.728ZM289.984 294.104H284.288V296.712H289.984V294.104ZM298.216 295.128H303.784V291.864H305.544V295.128H311.112V296.568H298.216V295.128ZM299.288 285.208H310.008V286.616H305.56C305.608 288.664 307.688 290.536 310.6 290.984L309.912 292.376C307.512 291.928 305.576 290.664 304.664 288.888C303.752 290.68 301.832 291.976 299.464 292.44L298.76 291.048C301.624 290.584 303.688 288.664 303.736 286.616H299.288V285.208ZM322.184 284.04H323.944V292.632H322.184V284.04ZM314.328 293.32H323.944V298.296H322.184V294.728H314.328V293.32ZM312.76 284.952H320.52V286.344H317.544V286.504C317.544 288.28 318.776 290.008 321 290.744L320.104 292.104C318.488 291.592 317.336 290.504 316.696 289.144C316.056 290.616 314.872 291.784 313.192 292.36L312.296 291C314.568 290.232 315.752 288.376 315.752 286.504V286.344H312.76V284.952ZM238.922 317.224C238.922 315.144 239.738 312.408 240.89 310.584H242.682C241.37 312.392 240.458 315.128 240.458 317.224C240.458 319.32 241.37 322.056 242.682 323.864H240.89C239.738 322.04 238.922 319.304 238.922 317.224ZM249.295 317.208C250.591 317.208 251.471 316.36 251.471 315C251.471 313.64 250.591 312.808 249.295 312.808H246.719V317.208H249.295ZM253.727 323.128H251.679L248.687 318.696H246.719V323.128H245.023V311.32H249.503C251.663 311.32 253.167 312.792 253.167 314.968C253.183 316.504 252.351 317.816 250.575 318.456L253.727 323.128ZM258.521 323.176C256.361 323.176 254.841 321.592 254.841 319.352C254.841 317.096 256.361 315.512 258.521 315.512C260.889 315.512 261.641 317.448 261.689 317.576C262.153 318.664 262.009 319.88 262.009 320.008H256.505C256.697 321.032 257.561 321.736 258.521 321.736C259.785 321.736 260.297 321 260.425 320.776L261.785 321.384C261.417 322.248 260.345 323.176 258.521 323.176ZM260.409 318.664C260.249 317.72 259.705 316.952 258.521 316.952C257.497 316.952 256.697 317.672 256.505 318.664H260.409ZM267.207 323.208C265.095 323.208 263.575 321.608 263.575 319.352C263.575 317.096 265.095 315.496 267.207 315.496C267.831 315.496 268.775 315.768 269.431 316.632V311.704H271.127V323.144H269.431V322.072C268.759 322.888 267.831 323.208 267.207 323.208ZM267.319 321.784C268.471 321.784 269.431 320.728 269.431 319.368C269.431 318.024 268.471 316.952 267.319 316.952C266.087 316.952 265.271 317.912 265.271 319.368C265.271 320.824 266.087 321.784 267.319 321.784ZM285.352 311.32V312.808H282.024V323.128H280.312V312.808H276.968V311.32H285.352ZM289.067 323.176C286.907 323.176 285.387 321.592 285.387 319.352C285.387 317.096 286.907 315.512 289.067 315.512C291.435 315.512 292.187 317.448 292.235 317.576C292.699 318.664 292.555 319.88 292.555 320.008H287.051C287.243 321.032 288.107 321.736 289.067 321.736C290.331 321.736 290.843 321 290.971 320.776L292.331 321.384C291.963 322.248 290.891 323.176 289.067 323.176ZM290.955 318.664C290.795 317.72 290.251 316.952 289.067 316.952C288.043 316.952 287.243 317.672 287.051 318.664H290.955ZM297.738 323.208C295.626 323.208 294.122 321.608 294.122 319.368C294.122 317.128 295.626 315.528 297.738 315.528C298.49 315.528 299.322 315.88 299.93 316.6V315.512H301.626V323.144H299.93V322.12C299.322 322.888 298.49 323.208 297.738 323.208ZM297.85 321.768C298.97 321.768 299.93 320.76 299.946 319.368C299.93 317.976 298.97 316.968 297.85 316.968C296.634 316.968 295.818 317.912 295.818 319.368C295.818 320.808 296.634 321.768 297.85 321.768ZM313.403 318.808C313.403 317.72 312.811 317 311.947 317C310.971 317 310.315 317.752 310.315 318.728V323.144H308.603V318.808C308.603 317.72 308.027 317 307.179 317C306.203 317 305.515 317.832 305.515 318.904V323.144H303.819V315.512H305.515V316.552C305.963 315.944 306.619 315.528 307.339 315.528C308.251 315.528 309.147 316.104 309.595 316.904C310.123 316.104 311.147 315.528 312.059 315.528C313.867 315.528 315.115 316.872 315.115 318.744V323.144H313.403V318.808ZM321.057 317.224C321.057 319.304 320.257 322.024 319.105 323.864H317.313C318.609 322.072 319.521 319.32 319.521 317.224C319.521 315.128 318.609 312.376 317.313 310.584H319.105C320.257 312.424 321.057 315.144 321.057 317.224Z" fill="#6D0CA6"/>
<g filter="url(#filter0_d_6612_7267)">
<rect x="6" y="740" width="339" height="143" rx="16" fill="white"/>
<path d="M29.3201 773.62C29.3201 773.172 29.3921 772.812 29.5361 772.54C29.6881 772.268 29.8921 772.072 30.1481 771.952C30.4041 771.824 30.6881 771.76 31.0001 771.76C31.3121 771.76 31.5921 771.824 31.8401 771.952C32.0961 772.072 32.3001 772.268 32.4521 772.54C32.6041 772.812 32.6801 773.172 32.6801 773.62C32.6801 774.06 32.6041 774.416 32.4521 774.688C32.3001 774.96 32.0961 775.16 31.8401 775.288C31.5921 775.416 31.3121 775.48 31.0001 775.48C30.6881 775.48 30.4041 775.416 30.1481 775.288C29.8921 775.16 29.6881 774.96 29.5361 774.688C29.3921 774.416 29.3201 774.06 29.3201 773.62ZM43.84 769.012C45.508 769.012 46.744 770.092 46.744 771.604C46.744 773.128 45.508 774.196 43.84 774.196C42.16 774.196 40.924 773.128 40.924 771.604C40.924 770.092 42.16 769.012 43.84 769.012ZM43.84 770.152C42.904 770.152 42.208 770.704 42.208 771.604C42.208 772.492 42.904 773.068 43.84 773.068C44.764 773.068 45.46 772.492 45.46 771.604C45.46 770.704 44.764 770.152 43.84 770.152ZM47.908 768.268H49.216V778.984H47.908V768.268ZM40.444 775.672C42.34 775.672 45.004 775.66 47.272 775.312L47.368 776.272C45.028 776.728 42.472 776.752 40.6 776.752L40.444 775.672ZM58.4443 768.28H59.7643V773.68H58.4443V772.768H55.9123V771.76H58.4443V770.704H56.0443C55.3843 772.336 53.8243 773.392 51.4723 773.92L51.0403 772.864C53.5363 772.324 54.7603 771.208 54.9283 769.792H51.6163V768.736H56.3923C56.3923 769.072 56.3683 769.396 56.3203 769.708H58.4443V768.28ZM52.7803 774.112H59.7643V776.932H54.1123V777.82H60.0283V778.864H52.8043V775.936H58.4443V775.144H52.7803V774.112ZM71.6622 768.28H72.9822V778.96H71.6622V768.28ZM69.8262 769.396C69.8262 772.6 68.6142 775.288 64.8942 777.088L64.2102 776.044C66.9822 774.712 68.2422 772.9 68.4702 770.464H64.7382V769.396H69.8262ZM75.5145 768.772H83.4225V769.828H80.3745C80.5065 770.836 81.7665 771.796 83.8065 772.024L83.3145 773.08C81.4185 772.84 80.0265 771.988 79.4625 770.848C78.8985 771.988 77.5065 772.84 75.6105 773.08L75.1185 772.024C77.1585 771.796 78.4185 770.824 78.5505 769.828H75.5145V768.772ZM74.6265 773.68H84.2985V774.736H80.2305V776.68H78.9105V774.736H74.6265V773.68ZM75.7905 775.708H77.1105V777.712H83.2305V778.768H75.7905V775.708ZM46.06 790.232H48.112V787.352H49.156V795.068H48.112V791.084H46.06V790.232ZM42.376 794.408H43.42V796.832H49.444V797.672H42.376V794.408ZM40.78 788.18H46.432V789.032H44.152V789.488C44.152 790.832 45.148 792.164 46.696 792.704L46.168 793.52C44.992 793.088 44.104 792.224 43.648 791.156C43.192 792.344 42.268 793.304 41.008 793.76L40.468 792.932C42.052 792.38 43.108 790.976 43.108 789.5V789.032H40.78V788.18ZM51.3763 787.976H56.1403V790.94H52.4323V792.38C54.2683 792.38 55.5883 792.308 57.1483 792.032L57.2443 792.896C55.6123 793.172 54.2083 793.232 52.2403 793.232H51.4003V790.136H55.1203V788.816H51.3763V787.976ZM58.1203 787.352H59.1643V789.008H60.7003V789.86H59.1643V791.216H60.7003V792.08H59.1643V793.772H58.1203V787.352ZM52.2763 794.312H59.1643V797.912H58.1203V795.164H52.2763V794.312ZM67.0846 790.064H69.0766V787.352H70.1206V793.652H69.0766V790.928H67.0846V790.064ZM61.7566 788.048H67.4086V788.9H65.1166V789.248C65.1166 790.592 66.1126 791.9 67.6726 792.44L67.1326 793.268C65.9566 792.836 65.0806 791.972 64.6246 790.904C64.1686 792.104 63.2326 793.052 61.9846 793.496L61.4446 792.68C63.0286 792.128 64.0726 790.724 64.0726 789.248V788.9H61.7566V788.048ZM63.0646 794.216H70.1206V797.912H69.0766V795.068H63.0646V794.216ZM79.5345 793.94C81.6945 793.94 83.0145 794.672 83.0145 795.92C83.0145 797.18 81.6945 797.9 79.5345 797.9C77.3745 797.9 76.0425 797.18 76.0425 795.92C76.0425 794.672 77.3745 793.94 79.5345 793.94ZM79.5345 794.78C77.9865 794.78 77.0625 795.2 77.0625 795.92C77.0625 796.652 77.9865 797.072 79.5345 797.072C81.0585 797.072 81.9825 796.652 81.9825 795.92C81.9825 795.2 81.0585 794.78 79.5345 794.78ZM81.8625 787.352H82.9065V789.98H84.4425V790.844H82.9065V793.676H81.8625V787.352ZM75.1185 788.012H76.1505V789.56H79.0065V788.012H80.0265V792.896H75.1185V788.012ZM76.1505 790.388V792.068H79.0065V790.388H76.1505ZM92.3388 787.352H93.3828V789.128H94.8948V789.98H93.3828V791.384H94.8948V792.236H93.3828V794.132H92.3388V787.352ZM90.0588 794.228C92.1948 794.228 93.5028 794.9 93.5028 796.052C93.5028 797.204 92.1948 797.888 90.0588 797.888C87.9108 797.888 86.5908 797.204 86.5908 796.052C86.5908 794.9 87.9108 794.228 90.0588 794.228ZM90.0588 795.02C88.5468 795.02 87.6348 795.392 87.6348 796.052C87.6348 796.724 88.5468 797.096 90.0588 797.096C91.5828 797.096 92.4828 796.724 92.4828 796.052C92.4828 795.392 91.5828 795.02 90.0588 795.02ZM85.1988 788.516H87.8027V787.256H88.8348V788.516H91.4388V789.344H85.1988V788.516ZM88.3188 789.848C89.8308 789.848 90.8508 790.58 90.8508 791.708C90.8508 792.848 89.8308 793.58 88.3188 793.58C86.8068 793.58 85.7868 792.848 85.7868 791.708C85.7868 790.58 86.8068 789.848 88.3188 789.848ZM88.3188 790.628C87.3948 790.628 86.7708 791.048 86.7708 791.708C86.7708 792.38 87.3948 792.8 88.3188 792.8C89.2308 792.8 89.8548 792.38 89.8548 791.708C89.8548 791.048 89.2308 790.628 88.3188 790.628ZM98.291 787.94H99.323V788.96C99.323 790.448 100.307 791.768 101.867 792.296L101.303 793.112C100.163 792.68 99.299 791.852 98.843 790.784C98.387 792.008 97.451 792.956 96.179 793.424L95.639 792.584C97.271 792.008 98.291 790.604 98.291 788.996V787.94ZM103.307 787.352H104.351V793.58H103.307V790.4H101.063V789.536H103.307V787.352ZM100.871 793.892C103.055 793.892 104.399 794.624 104.399 795.896C104.399 797.168 103.055 797.888 100.871 797.888C98.675 797.888 97.331 797.168 97.331 795.896C97.331 794.624 98.675 793.892 100.871 793.892ZM100.871 794.708C99.299 794.708 98.375 795.14 98.375 795.896C98.375 796.64 99.299 797.072 100.871 797.072C102.431 797.072 103.367 796.64 103.367 795.896C103.367 795.14 102.431 794.708 100.871 794.708ZM107.639 796.028L106.931 798.428H106.187L106.583 796.028H107.639ZM115.892 792.644C116.924 792.644 117.644 791.936 117.644 790.904C117.644 789.872 116.924 789.188 115.892 789.188H113.864V792.644H115.892ZM119.048 797.036H117.848L115.46 793.532H113.864V797.036H112.856V788.3H115.928C117.524 788.3 118.64 789.38 118.64 790.916C118.652 792.104 117.872 793.112 116.6 793.436L119.048 797.036ZM128.331 797.024H126.927L126.123 796.124C125.511 796.712 124.719 797.144 123.711 797.144C121.107 797.144 120.951 794.984 120.951 794.66C120.951 794.348 121.107 792.956 122.499 792.116C122.055 791.672 121.563 791.156 121.563 790.316C121.563 789.512 122.235 788.264 123.711 788.264C125.139 788.264 125.883 789.428 125.883 790.316C125.883 791.216 125.247 791.84 124.203 792.416L126.099 794.54C126.411 794.072 126.687 793.544 126.927 793.076L127.839 793.568C127.575 794.072 127.251 794.72 126.807 795.332L128.331 797.024ZM121.983 794.66C121.983 794.924 122.079 796.112 123.711 796.112C124.407 796.112 124.971 795.8 125.439 795.356L123.243 792.896C122.103 793.448 121.983 794.42 121.983 794.66ZM122.595 790.316C122.595 790.82 123.051 791.132 123.507 791.624C124.467 791.156 124.851 790.808 124.851 790.316C124.851 789.824 124.515 789.296 123.711 789.296C122.895 789.296 122.595 789.848 122.595 790.316ZM133.908 797.132C131.376 797.132 129.6 795.284 129.6 792.668C129.6 790.04 131.376 788.204 133.908 788.204C135.108 788.204 136.176 788.72 136.956 789.512L136.284 790.112C135.696 789.476 134.82 789.092 133.908 789.092C131.964 789.092 130.62 790.556 130.62 792.668C130.62 794.78 131.964 796.244 133.908 796.244C134.844 796.244 135.672 795.848 136.248 795.236L136.956 795.824C136.176 796.616 135.12 797.132 133.908 797.132ZM147.921 787.352H148.965V790.52H150.489V791.384H148.965V794.444H147.921V787.352ZM140.685 793.328C141.513 793.328 142.485 793.328 143.481 793.292V792.548C142.269 792.428 141.513 791.864 141.513 791C141.513 790.028 142.485 789.44 143.973 789.44C145.485 789.44 146.457 790.028 146.457 791C146.457 791.852 145.713 792.416 144.501 792.548V793.256C145.461 793.208 146.421 793.124 147.321 792.992L147.405 793.736C145.149 794.144 142.665 794.156 140.829 794.156L140.685 793.328ZM141.993 794.96H148.965V797.912H147.921V795.788H141.993V794.96ZM140.961 788.276H143.481V787.256H144.501V788.276H147.009V789.056H140.961V788.276ZM143.973 790.148C143.073 790.148 142.497 790.472 142.497 791C142.497 791.516 143.073 791.864 143.973 791.864C144.897 791.864 145.473 791.516 145.473 791C145.473 790.472 144.897 790.148 143.973 790.148ZM151.245 795.704H155.493V793.484H152.361V788.072H153.393V789.92H158.649V788.072H159.681V793.484H156.525V795.704H160.809V796.568H151.245V795.704ZM153.393 790.76V792.644H158.649V790.76H153.393ZM166.581 793.94C168.741 793.94 170.061 794.672 170.061 795.92C170.061 797.18 168.741 797.9 166.581 797.9C164.421 797.9 163.089 797.18 163.089 795.92C163.089 794.672 164.421 793.94 166.581 793.94ZM166.581 794.78C165.033 794.78 164.109 795.2 164.109 795.92C164.109 796.652 165.033 797.072 166.581 797.072C168.105 797.072 169.029 796.652 169.029 795.92C169.029 795.2 168.105 794.78 166.581 794.78ZM168.909 787.352H169.953V789.98H171.489V790.844H169.953V793.676H168.909V787.352ZM162.165 788.012H163.197V789.56H166.053V788.012H167.073V792.896H162.165V788.012ZM163.197 790.388V792.068H166.053V790.388H163.197ZM179.386 787.34H180.43V790.52H181.978V791.384H180.43V795.104H179.386V787.34ZM173.83 794.312H174.862V796.832H180.898V797.672H173.83V794.312ZM175.174 788.072C176.758 788.072 177.946 789.152 177.946 790.688C177.946 792.224 176.758 793.304 175.174 793.304C173.59 793.304 172.402 792.224 172.402 790.688C172.402 789.152 173.59 788.072 175.174 788.072ZM175.174 788.984C174.178 788.984 173.422 789.68 173.422 790.688C173.422 791.696 174.178 792.392 175.174 792.392C176.17 792.392 176.938 791.696 176.938 790.688C176.938 789.68 176.17 788.984 175.174 788.984ZM184.198 796.028L183.49 798.428H182.746L183.142 796.028H184.198ZM196.723 788.3L193.603 797.036H192.487L189.199 788.3H190.267L193.039 795.644L195.655 788.3H196.723ZM199.676 797.108C198.128 797.108 197.024 795.932 197.024 794.288C197.024 792.632 198.128 791.456 199.676 791.456C200.276 791.456 200.936 791.756 201.416 792.404V791.444H202.412V797.036H201.416V796.136C200.924 796.844 200.276 797.108 199.676 797.108ZM199.712 796.232C200.612 796.232 201.416 795.416 201.428 794.288C201.416 793.16 200.612 792.332 199.712 792.332C198.716 792.332 198.02 793.124 198.02 794.288C198.02 795.428 198.716 796.232 199.712 796.232ZM204.023 788.564H205.019V797.036H204.023V788.564ZM207.752 794.696C207.752 795.584 208.292 796.232 209.072 796.232C209.96 796.232 210.572 795.668 210.572 794.78V791.444H211.58V797.036H210.572V796.328C210.2 796.808 209.576 797.12 209.012 797.12C207.692 797.12 206.744 796.124 206.744 794.78V791.444H207.752V794.696ZM215.707 797.108C214.159 797.108 213.055 795.932 213.055 794.288C213.055 792.632 214.159 791.456 215.707 791.456C216.307 791.456 216.967 791.756 217.447 792.404V791.444H218.443V797.036H217.447V796.136C216.955 796.844 216.307 797.108 215.707 797.108ZM215.743 796.232C216.643 796.232 217.447 795.416 217.459 794.288C217.447 793.16 216.643 792.332 215.743 792.332C214.747 792.332 214.051 793.124 214.051 794.288C214.051 795.428 214.747 796.232 215.743 796.232ZM220.611 797.036V792.32H219.591V791.432H220.611V789.5H221.619V791.432H222.939V792.32H221.619V797.036H220.611ZM224.206 791.432H225.202V797.036H224.206V791.432ZM224.71 788.66C225.058 788.66 225.31 788.912 225.31 789.26C225.31 789.62 225.058 789.872 224.71 789.872C224.35 789.872 224.098 789.62 224.098 789.26C224.098 788.912 224.35 788.66 224.71 788.66ZM229.442 796.22C230.438 796.22 231.122 795.428 231.122 794.276C231.122 793.124 230.438 792.32 229.442 792.32C228.458 792.32 227.774 793.112 227.774 794.276C227.774 795.44 228.446 796.22 229.442 796.22ZM229.442 791.432C231.014 791.432 232.13 792.62 232.13 794.276C232.13 795.92 231.014 797.108 229.442 797.108C227.882 797.108 226.778 795.92 226.778 794.276C226.778 792.62 227.882 791.432 229.442 791.432ZM237.303 793.82C237.303 792.92 236.775 792.332 235.983 792.332C235.095 792.332 234.471 793.016 234.471 793.82V797.036H233.475V791.444H234.471V792.26C234.855 791.78 235.479 791.444 236.031 791.444C237.255 791.444 238.299 792.284 238.299 793.748V797.036H237.303V793.82ZM241.034 796.028L240.326 798.428H239.582L239.978 796.028H241.034ZM249.971 795.32L247.247 790.28V797.036H246.239V788.3H247.283L250.451 794.096L253.619 788.3H254.663V797.036H253.667V790.28L250.919 795.32H249.971ZM256.667 791.432H257.663V797.036H256.667V791.432ZM257.171 788.66C257.519 788.66 257.771 788.912 257.771 789.26C257.771 789.62 257.519 789.872 257.171 789.872C256.811 789.872 256.559 789.62 256.559 789.26C256.559 788.912 256.811 788.66 257.171 788.66ZM259.371 788.564H260.367V797.036H259.371V788.564ZM264.305 797.084C262.733 797.084 261.629 795.908 261.629 794.264C261.629 792.608 262.733 791.444 264.305 791.444C266.033 791.444 266.561 792.836 266.609 792.968C266.945 793.832 266.837 794.66 266.837 794.696H262.637C262.781 795.584 263.477 796.208 264.305 796.208C265.409 796.208 265.817 795.512 265.901 795.38L266.693 795.788C266.417 796.412 265.625 797.084 264.305 797.084ZM265.865 793.832C265.757 792.98 265.337 792.32 264.305 792.32C263.453 792.32 262.781 792.944 262.637 793.844L265.865 793.832ZM268.808 795.248C269.12 795.92 269.78 796.208 270.2 796.208C270.872 796.208 271.352 795.92 271.352 795.44C271.352 794.984 270.728 794.804 270.104 794.588C269.336 794.324 268.256 793.988 268.256 792.92C268.256 791.972 269.132 791.384 270.248 791.384C270.908 791.384 271.964 791.768 272.228 792.764L271.352 793.064C271.172 792.404 270.572 792.272 270.248 792.272C269.672 792.272 269.252 792.512 269.252 792.92C269.252 793.376 269.828 793.532 270.5 793.76C271.304 794.036 272.348 794.372 272.348 795.44C272.348 796.436 271.436 797.084 270.2 797.084C269.348 797.084 268.46 796.604 268.004 795.728L268.808 795.248ZM274.365 797.036V792.32H273.345V791.432H274.365V789.5H275.373V791.432H276.693V792.32H275.373V797.036H274.365ZM280.149 796.22C281.145 796.22 281.829 795.428 281.829 794.276C281.829 793.124 281.145 792.32 280.149 792.32C279.165 792.32 278.481 793.112 278.481 794.276C278.481 795.44 279.153 796.22 280.149 796.22ZM280.149 791.432C281.721 791.432 282.837 792.62 282.837 794.276C282.837 795.92 281.721 797.108 280.149 797.108C278.589 797.108 277.485 795.92 277.485 794.276C277.485 792.62 278.589 791.432 280.149 791.432ZM288.01 793.82C288.01 792.92 287.482 792.332 286.69 792.332C285.802 792.332 285.178 793.016 285.178 793.82V797.036H284.182V791.444H285.178V792.26C285.562 791.78 286.186 791.444 286.738 791.444C287.962 791.444 289.006 792.284 289.006 793.748V797.036H288.01V793.82ZM293.04 797.084C291.468 797.084 290.364 795.908 290.364 794.264C290.364 792.608 291.468 791.444 293.04 791.444C294.768 791.444 295.296 792.836 295.344 792.968C295.68 793.832 295.572 794.66 295.572 794.696H291.372C291.516 795.584 292.212 796.208 293.04 796.208C294.144 796.208 294.552 795.512 294.636 795.38L295.428 795.788C295.152 796.412 294.36 797.084 293.04 797.084ZM294.6 793.832C294.492 792.98 294.072 792.32 293.04 792.32C292.188 792.32 291.516 792.944 291.372 793.844L294.6 793.832ZM298.233 796.028L297.525 798.428H296.781L297.177 796.028H298.233ZM302.874 793.34H312.426V794.192H308.142V797.912H307.11V794.192H302.874V793.34ZM303.762 787.988H311.502V788.828H308.226V788.84C308.226 790.184 309.954 791.396 311.874 791.66L311.478 792.5C309.81 792.224 308.286 791.348 307.65 790.112C307.002 791.348 305.49 792.224 303.822 792.5L303.426 791.66C305.346 791.396 307.062 790.184 307.062 788.84V788.828H303.762V787.988ZM313.362 795.704H315.678V792.896C314.802 792.416 314.274 791.672 314.274 790.712C314.274 789.056 315.894 787.988 318.126 787.988C320.382 787.988 321.978 789.056 321.978 790.712C321.978 791.66 321.462 792.404 320.61 792.872V795.704H322.926V796.556H313.362V795.704ZM318.126 788.804C316.47 788.804 315.294 789.56 315.294 790.712C315.294 791.876 316.47 792.62 318.126 792.62C319.794 792.62 320.97 791.876 320.97 790.712C320.97 789.56 319.794 788.804 318.126 788.804ZM316.71 795.704H319.566V793.268C319.134 793.376 318.642 793.436 318.126 793.436C317.622 793.436 317.142 793.376 316.71 793.28V795.704ZM41.032 807.3H42.04V816.036H41.032V807.3ZM44.5583 814.248C44.8703 814.92 45.5303 815.208 45.9503 815.208C46.6223 815.208 47.1023 814.92 47.1023 814.44C47.1023 813.984 46.4783 813.804 45.8543 813.588C45.0863 813.324 44.0063 812.988 44.0063 811.92C44.0063 810.972 44.8823 810.384 45.9983 810.384C46.6583 810.384 47.7143 810.768 47.9783 811.764L47.1023 812.064C46.9223 811.404 46.3223 811.272 45.9983 811.272C45.4223 811.272 45.0023 811.512 45.0023 811.92C45.0023 812.376 45.5783 812.532 46.2503 812.76C47.0543 813.036 48.0983 813.372 48.0983 814.44C48.0983 815.436 47.1863 816.084 45.9503 816.084C45.0983 816.084 44.2103 815.604 43.7543 814.728L44.5583 814.248ZM49.9138 814.248C50.2258 814.92 50.8858 815.208 51.3058 815.208C51.9778 815.208 52.4578 814.92 52.4578 814.44C52.4578 813.984 51.8338 813.804 51.2098 813.588C50.4418 813.324 49.3618 812.988 49.3618 811.92C49.3618 810.972 50.2378 810.384 51.3538 810.384C52.0138 810.384 53.0698 810.768 53.3338 811.764L52.4578 812.064C52.2778 811.404 51.6778 811.272 51.3538 811.272C50.7778 811.272 50.3578 811.512 50.3578 811.92C50.3578 812.376 50.9338 812.532 51.6058 812.76C52.4098 813.036 53.4538 813.372 53.4538 814.44C53.4538 815.436 52.5418 816.084 51.3058 816.084C50.4538 816.084 49.5658 815.604 49.1098 814.728L49.9138 814.248ZM56.0645 813.696C56.0645 814.584 56.6045 815.232 57.3845 815.232C58.2725 815.232 58.8845 814.668 58.8845 813.78V810.444H59.8925V816.036H58.8845V815.328C58.5125 815.808 57.8885 816.12 57.3245 816.12C56.0045 816.12 55.0565 815.124 55.0565 813.78V810.444H56.0645V813.696ZM64.0436 816.084C62.4716 816.084 61.3676 814.908 61.3676 813.264C61.3676 811.608 62.4716 810.444 64.0436 810.444C65.7716 810.444 66.2996 811.836 66.3476 811.968C66.6836 812.832 66.5756 813.66 66.5756 813.696H62.3756C62.5196 814.584 63.2156 815.208 64.0436 815.208C65.1476 815.208 65.5556 814.512 65.6396 814.38L66.4316 814.788C66.1556 815.412 65.3636 816.084 64.0436 816.084ZM65.6036 812.832C65.4956 811.98 65.0756 811.32 64.0436 811.32C63.1916 811.32 62.5196 811.944 62.3756 812.844L65.6036 812.832ZM71.0786 807.024H76.0106V811.356H71.0786V807.024ZM75.0146 807.852H72.0746V810.528H75.0146V807.852ZM78.1466 806.352H79.1906V812.4H78.1466V806.352ZM72.2066 813.096H75.2906V812.1H76.3466V813.096H79.4186V813.9H76.3466C76.3946 814.872 77.9426 815.856 79.7906 816.072L79.4426 816.876C77.8226 816.66 76.4426 815.94 75.8066 814.98C75.1706 815.952 73.7666 816.66 72.1346 816.876L71.7866 816.072C73.6586 815.868 75.2306 814.896 75.2786 813.9H72.2066V813.096ZM88.5325 816.132C86.0005 816.132 84.2245 814.284 84.2245 811.668C84.2245 809.04 86.0005 807.204 88.5325 807.204C89.7325 807.204 90.8005 807.72 91.5805 808.512L90.9085 809.112C90.3205 808.476 89.4445 808.092 88.5325 808.092C86.5885 808.092 85.2445 809.556 85.2445 811.668C85.2445 813.78 86.5885 815.244 88.5325 815.244C89.4685 815.244 90.2965 814.848 90.8725 814.236L91.5805 814.824C90.8005 815.616 89.7445 816.132 88.5325 816.132ZM95.391 815.22C96.387 815.22 97.071 814.428 97.071 813.276C97.071 812.124 96.387 811.32 95.391 811.32C94.407 811.32 93.723 812.112 93.723 813.276C93.723 814.44 94.395 815.22 95.391 815.22ZM95.391 810.432C96.963 810.432 98.079 811.62 98.079 813.276C98.079 814.92 96.963 816.108 95.391 816.108C93.831 816.108 92.727 814.92 92.727 813.276C92.727 811.62 93.831 810.432 95.391 810.432ZM103.252 812.82C103.252 811.92 102.724 811.332 101.932 811.332C101.044 811.332 100.42 812.016 100.42 812.82V816.036H99.4237V810.444H100.42V811.26C100.804 810.78 101.428 810.444 101.98 810.444C103.204 810.444 104.248 811.284 104.248 812.748V816.036H103.252V812.82ZM106.295 816.036V811.32H105.275V810.432H106.295V808.5H107.303V810.432H108.623V811.32H107.303V816.036H106.295ZM109.89 810.432H110.886V816.036H109.89V810.432ZM110.394 807.66C110.742 807.66 110.994 807.912 110.994 808.26C110.994 808.62 110.742 808.872 110.394 808.872C110.034 808.872 109.782 808.62 109.782 808.26C109.782 807.912 110.034 807.66 110.394 807.66ZM116.517 812.82C116.517 811.92 115.989 811.332 115.197 811.332C114.309 811.332 113.685 812.016 113.685 812.82V816.036H112.689V810.444H113.685V811.26C114.069 810.78 114.693 810.444 115.245 810.444C116.469 810.444 117.513 811.284 117.513 812.748V816.036H116.517V812.82ZM121.56 815.208C122.52 815.208 123.252 814.332 123.252 813.264C123.252 812.22 122.508 811.32 121.56 811.32C120.564 811.32 119.868 812.124 119.868 813.264C119.868 814.428 120.564 815.208 121.56 815.208ZM124.26 815.676C124.26 817.296 123.18 818.592 121.5 818.592C120.588 818.592 119.748 818.184 119.184 817.296L120 816.78C120.396 817.416 120.888 817.692 121.5 817.692C122.604 817.692 123.252 816.804 123.252 815.7V815.1C122.844 815.7 122.148 816.096 121.524 816.096C119.976 816.096 118.872 814.92 118.872 813.276C118.872 811.632 119.976 810.432 121.524 810.432C122.22 810.432 122.88 810.804 123.252 811.392V810.432H124.26V815.676ZM128.169 816.084C126.597 816.084 125.493 814.908 125.493 813.264C125.493 811.608 126.597 810.444 128.169 810.444C129.897 810.444 130.425 811.836 130.473 811.968C130.809 812.832 130.701 813.66 130.701 813.696H126.501C126.645 814.584 127.341 815.208 128.169 815.208C129.273 815.208 129.681 814.512 129.765 814.38L130.557 814.788C130.281 815.412 129.489 816.084 128.169 816.084ZM129.729 812.832C129.621 811.98 129.201 811.32 128.169 811.32C127.317 811.32 126.645 811.944 126.501 812.844L129.729 812.832ZM135.924 812.82C135.924 811.92 135.396 811.332 134.604 811.332C133.716 811.332 133.092 812.016 133.092 812.82V816.036H132.096V810.444H133.092V811.26C133.476 810.78 134.1 810.444 134.652 810.444C135.876 810.444 136.92 811.284 136.92 812.748V816.036H135.924V812.82ZM140.822 815.136C141.314 815.136 141.89 814.896 142.214 814.524L142.934 815.196C142.442 815.724 141.566 816.096 140.87 816.096C139.202 816.096 138.026 814.908 138.026 813.264C138.026 811.608 139.202 810.432 140.87 810.432C141.578 810.432 142.43 810.816 142.934 811.344L142.214 812.004C141.89 811.632 141.314 811.392 140.822 811.392C139.766 811.392 139.022 812.148 139.022 813.264C139.022 814.38 139.766 815.136 140.822 815.136ZM146.003 818.58H144.911L146.087 815.712L143.831 810.444H144.923L146.615 814.524L148.235 810.444H149.315L146.003 818.58ZM156.72 811.644C157.752 811.644 158.472 810.924 158.472 809.916C158.472 808.908 157.74 808.188 156.708 808.188H154.668L154.68 811.644H156.72ZM156.744 807.3C158.34 807.3 159.456 808.38 159.456 809.916C159.456 811.44 158.34 812.52 156.744 812.52H154.68V816.036H153.672V807.3H156.744ZM160.687 807.564H161.683V816.036H160.687V807.564ZM165.598 816.108C164.05 816.108 162.946 814.932 162.946 813.288C162.946 811.632 164.05 810.456 165.598 810.456C166.198 810.456 166.858 810.756 167.338 811.404V810.444H168.334V816.036H167.338V815.136C166.846 815.844 166.198 816.108 165.598 816.108ZM165.634 815.232C166.534 815.232 167.338 814.416 167.35 813.288C167.338 812.16 166.534 811.332 165.634 811.332C164.638 811.332 163.942 812.124 163.942 813.288C163.942 814.428 164.638 815.232 165.634 815.232ZM173.67 812.82C173.67 811.92 173.142 811.332 172.35 811.332C171.462 811.332 170.838 812.016 170.838 812.82V816.036H169.842V810.444H170.838V811.26C171.222 810.78 171.846 810.444 172.398 810.444C173.622 810.444 174.666 811.284 174.666 812.748V816.036H173.67V812.82ZM177.401 815.028L176.693 817.428H175.949L176.345 815.028H177.401ZM187.958 807.3V808.188H183.482V811.092H187.346V811.98H183.482V815.148H187.958V816.036H182.474V807.3H187.958ZM190.335 813.684C190.791 814.596 191.559 815.244 192.459 815.244C193.635 815.268 194.367 814.668 194.367 813.732C194.367 811.5 189.879 812.436 189.879 809.4C189.879 807.996 191.055 807.192 192.615 807.204C193.815 807.228 194.787 807.864 195.207 809.136L194.307 809.448C194.043 808.596 193.395 808.104 192.603 808.092C191.595 808.08 190.875 808.56 190.875 809.4C190.875 811.608 195.363 810.708 195.363 813.744C195.363 815.184 194.235 816.156 192.447 816.132C191.175 816.108 190.203 815.4 189.483 814.14L190.335 813.684ZM205.02 811.488L205.008 812.208C205.008 814.692 203.256 816.084 200.904 816.132C198.384 816.132 196.596 814.284 196.596 811.668C196.596 809.052 198.384 807.216 200.904 807.216C203.628 807.216 204.564 809.328 204.564 809.328L203.688 809.748C203.688 809.748 202.98 808.104 200.904 808.104C198.96 808.104 197.604 809.568 197.604 811.668C197.604 813.78 198.96 815.244 200.904 815.244C202.704 815.184 204.036 814.26 204.048 812.352H201.06V811.488H205.02ZM210.182 806.796L207.662 816.612H206.654L209.186 806.796H210.182ZM212.789 813.684C213.245 814.596 214.013 815.244 214.913 815.244C216.089 815.268 216.821 814.668 216.821 813.732C216.821 811.5 212.333 812.436 212.333 809.4C212.333 807.996 213.509 807.192 215.069 807.204C216.269 807.228 217.241 807.864 217.661 809.136L216.761 809.448C216.497 808.596 215.849 808.104 215.057 808.092C214.049 808.08 213.329 808.56 213.329 809.4C213.329 811.608 217.817 810.708 217.817 813.744C217.817 815.184 216.689 816.156 214.901 816.132C213.629 816.108 212.657 815.4 211.937 814.14L212.789 813.684ZM226.406 807.3L223.286 816.036H222.17L218.882 807.3H219.95L222.722 814.644L225.338 807.3H226.406ZM228.202 815.028L227.494 817.428H226.75L227.146 815.028H228.202ZM238.759 807.3V808.188H234.283V811.092H238.147V811.98H234.283V815.148H238.759V816.036H233.275V807.3H238.759ZM245.439 810.444L243.327 813.24L245.439 816.036H244.179L242.775 814.104L241.383 816.036H240.123L242.211 813.24L240.111 810.444H241.371L242.775 812.4L244.179 810.444H245.439ZM246.976 810.432H247.972V816.036H246.976V810.432ZM247.48 807.66C247.828 807.66 248.08 807.912 248.08 808.26C248.08 808.62 247.828 808.872 247.48 808.872C247.12 808.872 246.868 808.62 246.868 808.26C246.868 807.912 247.12 807.66 247.48 807.66ZM250.447 816.036V811.32H249.427V810.432H250.447V808.5H251.455V810.432H252.775V811.32H251.455V816.036H250.447ZM260.267 811.644C261.299 811.644 262.019 810.924 262.019 809.916C262.019 808.908 261.287 808.188 260.255 808.188H258.215L258.227 811.644H260.267ZM260.291 807.3C261.887 807.3 263.003 808.38 263.003 809.916C263.003 811.44 261.887 812.52 260.291 812.52H258.227V816.036H257.219V807.3H260.291ZM264.234 807.564H265.23V816.036H264.234V807.564ZM269.145 816.108C267.597 816.108 266.493 814.932 266.493 813.288C266.493 811.632 267.597 810.456 269.145 810.456C269.745 810.456 270.405 810.756 270.885 811.404V810.444H271.881V816.036H270.885V815.136C270.393 815.844 269.745 816.108 269.145 816.108ZM269.181 815.232C270.081 815.232 270.885 814.416 270.897 813.288C270.885 812.16 270.081 811.332 269.181 811.332C268.185 811.332 267.489 812.124 267.489 813.288C267.489 814.428 268.185 815.232 269.181 815.232ZM277.217 812.82C277.217 811.92 276.689 811.332 275.897 811.332C275.009 811.332 274.385 812.016 274.385 812.82V816.036H273.389V810.444H274.385V811.26C274.769 810.78 275.393 810.444 275.945 810.444C277.169 810.444 278.213 811.284 278.213 812.748V816.036H277.217V812.82ZM280.948 815.028L280.24 817.428H279.496L279.892 815.028H280.948ZM293.221 806.34H294.265V816.9H293.221V806.34ZM291.145 807.468C291.145 810.552 289.813 813.228 286.249 814.956L285.697 814.128C288.505 812.784 289.885 810.804 290.089 808.32H286.189V807.468H291.145ZM296.545 807.288H301.453V808.152H297.577V810.252H301.237V811.08H297.577V813.528C299.389 813.528 300.697 813.468 302.233 813.204L302.329 814.044C300.709 814.332 299.317 814.38 297.373 814.38H296.545V807.288ZM303.181 806.352H304.225V810.564H305.929V811.428H304.225V816.912H303.181V806.352ZM312.109 811.356H321.649V812.208H312.109V811.356ZM313.309 806.748H320.461V807.612H314.329V809.544H320.533V810.384H313.309V806.748ZM316.861 813.084C319.117 813.084 320.485 813.768 320.485 814.98C320.485 816.204 319.117 816.9 316.861 816.9C314.593 816.9 313.237 816.204 313.237 814.98C313.237 813.768 314.593 813.084 316.861 813.084ZM316.861 813.888C315.241 813.888 314.281 814.296 314.281 814.98C314.281 815.7 315.241 816.084 316.861 816.084C318.481 816.084 319.429 815.7 319.429 814.98C319.429 814.296 318.481 813.888 316.861 813.888ZM29.3201 830.62C29.3201 830.172 29.3921 829.812 29.5361 829.54C29.6881 829.268 29.8921 829.072 30.1481 828.952C30.4041 828.824 30.6881 828.76 31.0001 828.76C31.3121 828.76 31.5921 828.824 31.8401 828.952C32.0961 829.072 32.3001 829.268 32.4521 829.54C32.6041 829.812 32.6801 830.172 32.6801 830.62C32.6801 831.06 32.6041 831.416 32.4521 831.688C32.3001 831.96 32.0961 832.16 31.8401 832.288C31.5921 832.416 31.3121 832.48 31.0001 832.48C30.6881 832.48 30.4041 832.416 30.1481 832.288C29.8921 832.16 29.6881 831.96 29.5361 831.688C29.3921 831.416 29.3201 831.06 29.3201 830.62ZM40.396 831.676H50.068V832.756H45.892V835.984H44.56V832.756H40.396V831.676ZM41.644 825.748H48.916V826.792H42.94V827.728H48.688V828.748H42.94V829.732H49.036V830.788H41.644V825.748ZM51.0763 826.336H56.9083V827.428H54.6883V828.316C54.6883 829.96 55.6723 831.856 57.3403 832.636L56.6083 833.68C55.4083 833.104 54.5323 831.964 54.0523 830.644C53.5723 832.096 52.6603 833.344 51.4363 833.944L50.6803 832.9C52.3483 832.096 53.3803 830.092 53.3803 828.316V827.428H51.0763V826.336ZM57.8683 825.292H59.2003V829.456H60.8203V830.548H59.2003V835.972H57.8683V825.292ZM67.6062 825.736C69.2142 825.736 70.3782 826.66 70.3782 827.992C70.3782 829.3 69.2142 830.236 67.6062 830.236C66.0102 830.236 64.8342 829.3 64.8342 827.992C64.8342 826.66 66.0102 825.736 67.6062 825.736ZM67.6062 826.816C66.7422 826.816 66.1062 827.26 66.1062 827.992C66.1062 828.712 66.7422 829.156 67.6062 829.156C68.4822 829.156 69.1182 828.712 69.1182 827.992C69.1182 827.26 68.4822 826.816 67.6062 826.816ZM71.6862 825.28H73.0062V835.972H71.6862V825.28ZM64.1502 830.968C66.0582 830.968 68.7222 830.956 71.0262 830.596L71.1102 831.568C70.1862 831.748 69.2382 831.856 68.3142 831.928V835.636H66.9942V832.012C66.0222 832.048 65.1102 832.06 64.3062 832.06L64.1502 830.968ZM82.1985 825.28H83.5185V833.392H82.1985V832.444H80.1345V831.532H82.1985V825.28ZM75.9825 832.612H77.3025V834.7H83.7705V835.756H75.9825V832.612ZM74.5785 830.092C76.5345 830.08 79.1505 830.056 81.4185 829.78L81.4905 830.716C80.6265 830.86 79.7145 830.956 78.8265 831.016V833.068H77.5065V831.088C76.5225 831.136 75.5745 831.148 74.7465 831.148L74.5785 830.092ZM78.0225 825.676C79.5945 825.676 80.6745 826.432 80.6745 827.56C80.6745 828.712 79.5945 829.456 78.0225 829.456C76.4625 829.456 75.3705 828.712 75.3705 827.56C75.3705 826.432 76.4625 825.676 78.0225 825.676ZM78.0225 826.636C77.2065 826.636 76.6305 826.972 76.6305 827.56C76.6305 828.148 77.2065 828.484 78.0225 828.484C78.8625 828.484 79.4145 828.148 79.4145 827.56C79.4145 826.972 78.8625 826.636 78.0225 826.636ZM92.6268 825.292H93.9348V835.972H92.6268V825.292ZM85.1748 833.008C86.0028 833.008 86.9508 833.008 87.9468 832.984V831.988C86.7588 831.796 85.9908 831.064 85.9908 830.044C85.9908 828.844 87.0468 828.052 88.6068 828.052C90.1548 828.052 91.2348 828.844 91.2348 830.044C91.2348 831.064 90.4548 831.796 89.2668 831.988V832.936C90.2028 832.888 91.1388 832.816 92.0268 832.696L92.1108 833.644C89.7708 834.076 87.2508 834.088 85.3308 834.088L85.1748 833.008ZM85.3788 826.516H87.9468V825.316H89.2668V826.516H91.8348V827.548H85.3788V826.516ZM88.6068 829.048C87.8027 829.048 87.2388 829.42 87.2388 830.044C87.2388 830.668 87.8027 831.04 88.6068 831.04C89.4228 831.04 89.9748 830.668 89.9748 830.044C89.9748 829.42 89.4228 829.048 88.6068 829.048ZM98.3687 830.848H102.533V830.044H99.6047V825.58H106.889V826.588H100.913V827.296H106.637V828.28H100.913V829.036H106.961V830.044H103.853V830.848H108.017V831.892H98.3687V830.848ZM103.193 832.504C105.521 832.504 106.877 833.092 106.877 834.232C106.877 835.36 105.521 835.96 103.193 835.96C100.841 835.96 99.4967 835.36 99.4967 834.232C99.4967 833.092 100.841 832.504 103.193 832.504ZM103.193 833.464C101.621 833.464 100.829 833.716 100.829 834.232C100.829 834.748 101.621 834.988 103.193 834.988C104.753 834.988 105.557 834.748 105.557 834.232C105.557 833.716 104.753 833.464 103.193 833.464ZM109.325 826.384H114.785V827.14C114.785 828.124 114.785 829.444 114.485 831.292L113.189 831.184C113.453 829.576 113.489 828.364 113.489 827.44H109.325V826.384ZM110.813 829.444H112.109V832.612C113.201 832.564 114.305 832.504 115.313 832.372L115.385 833.332C113.201 833.692 110.765 833.74 108.905 833.74L108.761 832.66L110.813 832.648V829.444ZM115.865 825.28H117.173V829.648H118.721V830.74H117.173V835.96H115.865V825.28ZM129.635 825.28H130.955V835.96H129.635V825.28ZM127.799 826.396C127.799 829.6 126.587 832.288 122.867 834.088L122.183 833.044C124.955 831.712 126.215 829.9 126.443 827.464H122.711V826.396H127.799ZM133.487 825.772H141.395V826.828H138.347C138.479 827.836 139.739 828.796 141.779 829.024L141.287 830.08C139.391 829.84 137.999 828.988 137.435 827.848C136.871 828.988 135.479 829.84 133.583 830.08L133.091 829.024C135.131 828.796 136.391 827.824 136.523 826.828H133.487V825.772ZM132.599 830.68H142.271V831.736H138.203V833.68H136.883V831.736H132.599V830.68ZM133.763 832.708H135.083V834.712H141.203V835.768H133.763V832.708ZM46.06 847.232H48.112V844.352H49.156V852.068H48.112V848.084H46.06V847.232ZM42.376 851.408H43.42V853.832H49.444V854.672H42.376V851.408ZM40.78 845.18H46.432V846.032H44.152V846.488C44.152 847.832 45.148 849.164 46.696 849.704L46.168 850.52C44.992 850.088 44.104 849.224 43.648 848.156C43.192 849.344 42.268 850.304 41.008 850.76L40.468 849.932C42.052 849.38 43.108 847.976 43.108 846.5V846.032H40.78V845.18ZM55.2403 848.492H56.8003V844.58H57.7723V854.372H56.8003V849.344H55.2403V848.492ZM51.1363 846.272H53.0443V844.712H54.0403V846.272H55.9363V847.124H54.0403V847.592C54.0403 849.26 54.8443 850.976 56.2723 851.756L55.6843 852.536C54.6643 851.972 53.9443 850.94 53.5603 849.716C53.1883 851.024 52.4683 852.164 51.4363 852.776L50.8363 851.984C52.2763 851.132 53.0443 849.308 53.0443 847.592V847.124H51.1363V846.272ZM58.9123 844.34H59.9083V854.9H58.9123V844.34ZM67.6302 844.832C69.2022 844.832 70.3422 845.72 70.3422 847.016C70.3422 848.3 69.2022 849.2 67.6302 849.2C66.0702 849.2 64.9302 848.3 64.9302 847.016C64.9302 845.72 66.0702 844.832 67.6302 844.832ZM67.6302 845.684C66.6462 845.684 65.9262 846.224 65.9262 847.016C65.9262 847.808 66.6462 848.336 67.6302 848.336C68.6262 848.336 69.3462 847.808 69.3462 847.016C69.3462 846.224 68.6262 845.684 67.6302 845.684ZM71.8302 844.34H72.8622V854.912H71.8302V844.34ZM64.1742 850.052C66.1182 850.052 68.7822 850.028 71.0982 849.668L71.1702 850.448C70.1982 850.628 69.1902 850.736 68.2062 850.808V854.576H67.1622V850.868C66.1302 850.916 65.1582 850.928 64.3062 850.928L64.1742 850.052ZM82.3065 844.34H83.3505V852.38H82.3065V851.312H80.1945V850.568H82.3065V844.34ZM76.0905 851.6H77.1345V853.832H83.6145V854.672H76.0905V851.6ZM74.6145 849.2C76.5705 849.188 79.1745 849.164 81.4305 848.888L81.4905 849.632C80.5785 849.788 79.6305 849.884 78.6825 849.944V852.008H77.6385V849.992C76.6065 850.04 75.6105 850.052 74.7585 850.052L74.6145 849.2ZM78.0465 844.76C79.5945 844.76 80.6505 845.492 80.6505 846.608C80.6505 847.736 79.5945 848.456 78.0465 848.456C76.4985 848.456 75.4425 847.736 75.4425 846.608C75.4425 845.492 76.4985 844.76 78.0465 844.76ZM78.0465 845.528C77.0985 845.528 76.4265 845.948 76.4265 846.608C76.4265 847.268 77.0985 847.676 78.0465 847.676C79.0065 847.676 79.6545 847.268 79.6545 846.608C79.6545 845.948 79.0065 845.528 78.0465 845.528ZM88.5828 845.096C90.2268 845.096 91.4148 846.128 91.4148 847.604C91.4148 849.092 90.2268 850.112 88.5828 850.112C86.9268 850.112 85.7388 849.092 85.7388 847.604C85.7388 846.128 86.9268 845.096 88.5828 845.096ZM88.5828 845.996C87.5268 845.996 86.7468 846.644 86.7468 847.604C86.7468 848.552 87.5268 849.212 88.5828 849.212C89.6268 849.212 90.4068 848.552 90.4068 847.604C90.4068 846.644 89.6268 845.996 88.5828 845.996ZM92.7588 844.328H93.7908V854.924H92.7588V844.328ZM85.2228 851.756C87.1308 851.756 89.7948 851.756 92.0748 851.396L92.1588 852.164C89.8068 852.62 87.2268 852.632 85.3548 852.632L85.2228 851.756ZM98.7047 853.136C100.433 851.468 102.965 849.5 102.965 847.952C102.965 846.884 102.281 846.128 101.309 846.128C100.589 846.128 99.8567 846.656 99.5207 847.424L98.6207 847.028C99.0887 845.972 100.205 845.228 101.309 845.228C102.869 845.228 103.961 846.356 103.961 847.952C103.961 849.788 101.741 851.624 100.085 853.136H104.105V854.024H98.8247L98.7047 853.136ZM108.826 844.796L106.306 854.612H105.298L107.83 844.796H108.826ZM114.733 849.524C115.501 849.992 115.945 850.832 115.945 851.552C115.945 853.04 114.769 854.084 113.101 854.084C111.433 854.084 110.257 853.028 110.257 851.528H111.253C111.253 852.512 112.021 853.196 113.101 853.196C114.193 853.196 114.961 852.512 114.961 851.54C114.961 850.616 114.193 849.956 113.125 849.956H112.489V849.068H113.125C114.121 849.068 114.841 848.48 114.841 847.628C114.841 846.752 114.145 846.14 113.173 846.14C112.189 846.14 111.505 846.764 111.505 847.652H110.509C110.509 846.236 111.601 845.252 113.173 845.252C114.721 845.252 115.825 846.224 115.825 847.616C115.825 848.276 115.429 849.056 114.733 849.524ZM127.412 844.328H128.456V854.924H127.412V844.328ZM122.864 845.144C124.436 845.144 125.564 846.572 125.564 848.84C125.564 851.096 124.436 852.536 122.864 852.536C121.292 852.536 120.164 851.096 120.164 848.84C120.164 846.572 121.292 845.144 122.864 845.144ZM122.864 846.08C121.868 846.08 121.172 847.148 121.172 848.84C121.172 850.532 121.868 851.612 122.864 851.612C123.86 851.612 124.556 850.532 124.556 848.84C124.556 847.148 123.86 846.08 122.864 846.08ZM132.836 844.892H133.856V846.032C133.856 847.448 134.864 848.756 136.4 849.284L135.86 850.088C134.708 849.668 133.82 848.816 133.364 847.736C132.92 848.96 132.02 849.908 130.784 850.388L130.22 849.56C131.852 848.972 132.836 847.544 132.836 845.96V844.892ZM137.456 844.352H138.5V847.04H140.048V847.904H138.5V850.736H137.456V844.352ZM135.128 851.012C137.3 851.012 138.608 851.732 138.608 852.956C138.608 854.18 137.3 854.888 135.128 854.888C132.968 854.888 131.648 854.18 131.648 852.956C131.648 851.732 132.968 851.012 135.128 851.012ZM135.128 851.828C133.592 851.828 132.668 852.236 132.668 852.956C132.668 853.664 133.592 854.072 135.128 854.072C136.664 854.072 137.588 853.664 137.588 852.956C137.588 852.236 136.664 851.828 135.128 851.828ZM143.846 845.552H146.162V844.304H147.182V845.552H149.486V846.392H147.182V846.524C147.182 847.784 148.178 848.936 149.75 849.392L149.27 850.208C148.058 849.836 147.146 849.068 146.69 848.084C146.222 849.164 145.286 850.004 144.038 850.4L143.546 849.584C145.13 849.104 146.162 847.892 146.162 846.524V846.392H143.846V845.552ZM150.71 844.352H151.754V846.992H153.302V847.856H151.754V850.58H150.71V844.352ZM145.094 851.072H151.754V854.768H145.094V851.072ZM150.734 851.9H146.114V853.928H150.734V851.9ZM159.434 846.524H161.678V844.352H162.722V850.592H161.678V847.388H159.434V846.524ZM156.638 844.88H157.67V846.02C157.67 847.46 158.666 848.792 160.214 849.344L159.65 850.16C158.498 849.728 157.622 848.852 157.166 847.76C156.71 848.96 155.81 849.908 154.562 850.376L154.034 849.548C155.63 848.972 156.638 847.556 156.638 845.972V844.88ZM155.666 851.156H162.722V854.912H161.678V851.996H155.666V851.156ZM167.852 845.024H172.784V849.356H167.852V845.024ZM171.788 845.852H168.848V848.528H171.788V845.852ZM174.92 844.352H175.964V850.4H174.92V844.352ZM168.98 851.096H172.064V850.1H173.12V851.096H176.192V851.9H173.12C173.168 852.872 174.716 853.856 176.564 854.072L176.216 854.876C174.596 854.66 173.216 853.94 172.58 852.98C171.944 853.952 170.54 854.66 168.908 854.876L168.56 854.072C170.432 853.868 172.004 852.896 172.052 851.9H168.98V851.096ZM180.842 845.552H183.158V844.304H184.178V845.552H186.482V846.392H184.178V846.524C184.178 847.784 185.174 848.936 186.746 849.392L186.266 850.208C185.054 849.836 184.142 849.068 183.686 848.084C183.218 849.164 182.282 850.004 181.034 850.4L180.542 849.584C182.126 849.104 183.158 847.892 183.158 846.524V846.392H180.842V845.552ZM187.706 844.352H188.75V846.992H190.298V847.856H188.75V850.58H187.706V844.352ZM182.09 851.072H188.75V854.768H182.09V851.072ZM187.73 851.9H183.11V853.928H187.73V851.9ZM196.43 846.524H198.674V844.352H199.718V850.592H198.674V847.388H196.43V846.524ZM193.634 844.88H194.666V846.02C194.666 847.46 195.662 848.792 197.21 849.344L196.646 850.16C195.494 849.728 194.618 848.852 194.162 847.76C193.706 848.96 192.806 849.908 191.558 850.376L191.03 849.548C192.626 848.972 193.634 847.556 193.634 845.972V844.88ZM192.662 851.156H199.718V854.912H198.674V851.996H192.662V851.156ZM207.716 844.832C209.288 844.832 210.428 845.72 210.428 847.016C210.428 848.3 209.288 849.2 207.716 849.2C206.156 849.2 205.016 848.3 205.016 847.016C205.016 845.72 206.156 844.832 207.716 844.832ZM207.716 845.684C206.732 845.684 206.012 846.224 206.012 847.016C206.012 847.808 206.732 848.336 207.716 848.336C208.712 848.336 209.432 847.808 209.432 847.016C209.432 846.224 208.712 845.684 207.716 845.684ZM211.916 844.34H212.948V854.912H211.916V844.34ZM204.26 850.052C206.204 850.052 208.868 850.028 211.184 849.668L211.256 850.448C210.284 850.628 209.276 850.736 208.292 850.808V854.576H207.248V850.868C206.216 850.916 205.244 850.928 204.392 850.928L204.26 850.052ZM222.392 844.34H223.436V852.38H222.392V851.312H220.28V850.568H222.392V844.34ZM216.176 851.6H217.22V853.832H223.7V854.672H216.176V851.6ZM214.7 849.2C216.656 849.188 219.26 849.164 221.516 848.888L221.576 849.632C220.664 849.788 219.716 849.884 218.768 849.944V852.008H217.724V849.992C216.692 850.04 215.696 850.052 214.844 850.052L214.7 849.2ZM218.132 844.76C219.68 844.76 220.736 845.492 220.736 846.608C220.736 847.736 219.68 848.456 218.132 848.456C216.584 848.456 215.528 847.736 215.528 846.608C215.528 845.492 216.584 844.76 218.132 844.76ZM218.132 845.528C217.184 845.528 216.512 845.948 216.512 846.608C216.512 847.268 217.184 847.676 218.132 847.676C219.092 847.676 219.74 847.268 219.74 846.608C219.74 845.948 219.092 845.528 218.132 845.528ZM228.669 845.096C230.313 845.096 231.501 846.128 231.501 847.604C231.501 849.092 230.313 850.112 228.669 850.112C227.013 850.112 225.825 849.092 225.825 847.604C225.825 846.128 227.013 845.096 228.669 845.096ZM228.669 845.996C227.613 845.996 226.833 846.644 226.833 847.604C226.833 848.552 227.613 849.212 228.669 849.212C229.713 849.212 230.493 848.552 230.493 847.604C230.493 846.644 229.713 845.996 228.669 845.996ZM232.845 844.328H233.877V854.924H232.845V844.328ZM225.309 851.756C227.217 851.756 229.881 851.756 232.161 851.396L232.245 852.164C229.893 852.62 227.313 852.632 225.441 852.632L225.309 851.756ZM238.791 853.136C240.519 851.468 243.051 849.5 243.051 847.952C243.051 846.884 242.367 846.128 241.395 846.128C240.675 846.128 239.943 846.656 239.607 847.424L238.707 847.028C239.175 845.972 240.291 845.228 241.395 845.228C242.955 845.228 244.047 846.356 244.047 847.952C244.047 849.788 241.827 851.624 240.171 853.136H244.191V854.024H238.911L238.791 853.136ZM248.912 844.796L246.392 854.612H245.384L247.916 844.796H248.912ZM254.819 849.524C255.587 849.992 256.031 850.832 256.031 851.552C256.031 853.04 254.855 854.084 253.187 854.084C251.519 854.084 250.343 853.028 250.343 851.528H251.339C251.339 852.512 252.107 853.196 253.187 853.196C254.279 853.196 255.047 852.512 255.047 851.54C255.047 850.616 254.279 849.956 253.211 849.956H252.575V849.068H253.211C254.207 849.068 254.927 848.48 254.927 847.628C254.927 846.752 254.231 846.14 253.259 846.14C252.275 846.14 251.591 846.764 251.591 847.652H250.595C250.595 846.236 251.687 845.252 253.259 845.252C254.807 845.252 255.911 846.224 255.911 847.616C255.911 848.276 255.515 849.056 254.819 849.524ZM267.498 844.328H268.542V854.924H267.498V844.328ZM262.95 845.144C264.522 845.144 265.65 846.572 265.65 848.84C265.65 851.096 264.522 852.536 262.95 852.536C261.378 852.536 260.25 851.096 260.25 848.84C260.25 846.572 261.378 845.144 262.95 845.144ZM262.95 846.08C261.954 846.08 261.258 847.148 261.258 848.84C261.258 850.532 261.954 851.612 262.95 851.612C263.946 851.612 264.642 850.532 264.642 848.84C264.642 847.148 263.946 846.08 262.95 846.08ZM272.922 844.892H273.942V846.032C273.942 847.448 274.95 848.756 276.486 849.284L275.946 850.088C274.794 849.668 273.906 848.816 273.45 847.736C273.006 848.96 272.106 849.908 270.87 850.388L270.306 849.56C271.938 848.972 272.922 847.544 272.922 845.96V844.892ZM277.542 844.352H278.586V847.04H280.134V847.904H278.586V850.736H277.542V844.352ZM275.214 851.012C277.386 851.012 278.694 851.732 278.694 852.956C278.694 854.18 277.386 854.888 275.214 854.888C273.054 854.888 271.734 854.18 271.734 852.956C271.734 851.732 273.054 851.012 275.214 851.012ZM275.214 851.828C273.678 851.828 272.754 852.236 272.754 852.956C272.754 853.664 273.678 854.072 275.214 854.072C276.75 854.072 277.674 853.664 277.674 852.956C277.674 852.236 276.75 851.828 275.214 851.828ZM283.932 845.756H286.248V844.424H287.268V845.756H289.572V846.584H287.268V846.824C287.268 848.144 288.264 849.38 289.824 849.884L289.308 850.7C288.132 850.316 287.232 849.512 286.764 848.48C286.308 849.608 285.384 850.472 284.16 850.892L283.644 850.076C285.228 849.56 286.248 848.264 286.248 846.824V846.584H283.932V845.756ZM290.796 844.34H291.84V847.604H293.388V848.468H291.84V852.164H290.796V844.34ZM285.24 851.492H286.272V853.832H292.308V854.672H285.24V851.492ZM296.748 844.94H297.78V845.96C297.78 847.448 298.764 848.768 300.324 849.296L299.76 850.112C298.62 849.68 297.756 848.852 297.3 847.784C296.844 849.008 295.908 849.956 294.636 850.424L294.096 849.584C295.728 849.008 296.748 847.604 296.748 845.996V844.94ZM301.764 844.352H302.808V850.58H301.764V847.4H299.52V846.536H301.764V844.352ZM299.328 850.892C301.512 850.892 302.856 851.624 302.856 852.896C302.856 854.168 301.512 854.888 299.328 854.888C297.132 854.888 295.788 854.168 295.788 852.896C295.788 851.624 297.132 850.892 299.328 850.892ZM299.328 851.708C297.756 851.708 296.832 852.14 296.832 852.896C296.832 853.64 297.756 854.072 299.328 854.072C300.888 854.072 301.824 853.64 301.824 852.896C301.824 852.14 300.888 851.708 299.328 851.708ZM315.006 844.352H316.062V849.812H315.006V844.352ZM309.138 850.316H316.062V852.896H310.182V853.964H316.434V854.792H309.162V852.128H315.018V851.132H309.138V850.316ZM307.842 845.048H313.506V845.876H312.498V848.468C313.014 848.432 313.53 848.384 314.01 848.324L314.058 849.068C311.958 849.404 309.51 849.464 307.674 849.464L307.554 848.624L308.85 848.612V845.876H307.842V845.048ZM309.858 848.588L311.49 848.528V845.876H309.858V848.588ZM317.862 852.704H320.178V849.896C319.302 849.416 318.774 848.672 318.774 847.712C318.774 846.056 320.394 844.988 322.626 844.988C324.882 844.988 326.478 846.056 326.478 847.712C326.478 848.66 325.962 849.404 325.11 849.872V852.704H327.426V853.556H317.862V852.704ZM322.626 845.804C320.97 845.804 319.794 846.56 319.794 847.712C319.794 848.876 320.97 849.62 322.626 849.62C324.294 849.62 325.47 848.876 325.47 847.712C325.47 846.56 324.294 845.804 322.626 845.804ZM321.21 852.704H324.066V850.268C323.634 850.376 323.142 850.436 322.626 850.436C322.122 850.436 321.642 850.376 321.21 850.28V852.704Z" fill="#3F3F46"/>
</g>
<defs>
<filter id="filter0_d_6612_7267" x="0.657534" y="735.993" width="349.685" height="153.685" filterUnits="userSpaceOnUse" color-interpolation-filters="sRGB">
<feFlood flood-opacity="0" result="BackgroundImageFix"/>
<feColorMatrix in="SourceAlpha" type="matrix" values="0 0 0 0 0 0 0 0 0 0 0 0 0 0 0 0 0 0 127 0" result="hardAlpha"/>
<feOffset dy="1.33562"/>
<feGaussianBlur stdDeviation="2.67123"/>
<feComposite in2="hardAlpha" operator="out"/>
<feColorMatrix type="matrix" values="0 0 0 0 0 0 0 0 0 0 0 0 0 0 0 0 0 0 0.1 0"/>
<feBlend mode="normal" in2="BackgroundImageFix" result="effect1_dropShadow_6612_7267"/>
<feBlend mode="normal" in="SourceGraphic" in2="effect1_dropShadow_6612_7267" result="shape"/>
</filter>
</defs>
</svg>
