<svg width="1098" height="608" viewBox="0 0 1098 608" fill="none" xmlns="http://www.w3.org/2000/svg">
<g filter="url(#filter0_d_5585_5352)">
<rect x="720.5" y="336" width="208" height="72" rx="8" fill="white" shape-rendering="crispEdges"/>
<path d="M752.66 367.52H755.76V362.82H757.96V375.8H755.76V369.3H752.66V367.52ZM746.34 374.7H748.56V378.5H758.4V380.26H746.34V374.7ZM743.74 364.1H753.3V365.86H749.66V366.34C749.66 368.5 751.08 370.72 753.8 371.64L752.72 373.36C750.74 372.68 749.36 371.32 748.58 369.62C747.82 371.5 746.34 373.02 744.24 373.74L743.12 372C745.94 371.04 747.44 368.7 747.44 366.34V365.86H743.74V364.1ZM764.8 364.26H766.98V367.06C766.98 370.22 768.52 373.48 771.26 374.82L769.92 376.56C768.02 375.58 766.66 373.72 765.9 371.46C765.12 373.88 763.68 375.88 761.66 376.9L760.34 375.12C763.18 373.76 764.8 370.34 764.8 367.06V364.26ZM772.28 362.82H774.5V369.8H777.22V371.64H774.5V380.62H772.28V362.82ZM788.381 364.4V366.26H780.961V370.64H787.341V372.48H780.961V377.3H788.381V379.16H778.841V364.4H788.381ZM792.537 374.96C793.397 376.64 794.617 377.48 795.897 377.48C797.797 377.5 798.857 376.58 798.857 375.16C798.857 371.8 791.437 373.24 791.437 368.1C791.437 365.66 793.437 364.22 796.177 364.24C798.077 364.26 799.897 365.32 800.717 367.62L798.817 368.3C798.297 366.76 797.257 366.1 796.157 366.08C794.577 366.08 793.557 366.86 793.557 368.1C793.557 371.42 800.957 370.16 800.957 375.18C800.957 377.66 799.017 379.36 795.877 379.32C793.717 379.3 791.997 378.06 790.777 375.94L792.537 374.96ZM817.225 371.42L817.205 372.7C817.205 376.84 814.385 379.26 810.285 379.32C805.985 379.32 802.945 376.2 802.945 371.78C802.945 367.36 805.985 364.26 810.285 364.26C814.905 364.26 816.525 367.82 816.525 367.82L814.705 368.76C814.705 368.76 813.545 366.12 810.285 366.12C807.165 366.12 805.065 368.4 805.065 371.78C805.065 375.18 807.165 377.46 810.285 377.46C812.965 377.38 815.105 376.08 815.125 373.18H810.525V371.42H817.225ZM819.567 373.5H835.667V375.3H828.707V380.64H826.487V375.3H819.567V373.5ZM821.047 364.9H826.487V362.84H828.707V364.9H834.167V366.66H828.727C828.947 368.42 831.227 370.26 834.727 370.7L833.947 372.42C831.007 372.06 828.747 370.76 827.607 369.04C826.467 370.78 824.187 372.04 821.227 372.42L820.467 370.7C823.987 370.26 826.247 368.46 826.467 366.66H821.047V364.9ZM837.767 364.14H847.467V365.9H843.747V366.4C843.747 368.64 845.267 370.8 848.047 371.72L846.927 373.42C844.907 372.76 843.467 371.42 842.667 369.7C841.887 371.56 840.387 373.02 838.287 373.74L837.167 372.02C840.007 371.06 841.507 368.76 841.507 366.4V365.9H837.767V364.14ZM849.527 362.82H851.747V375.74H849.527V362.82ZM840.047 374.54H842.247V378.5H852.227V380.26H840.047V374.54ZM860.288 363.56C862.968 363.56 864.908 365.1 864.908 367.32C864.908 369.5 862.968 371.06 860.288 371.06C857.628 371.06 855.668 369.5 855.668 367.32C855.668 365.1 857.628 363.56 860.288 363.56ZM860.288 365.36C858.848 365.36 857.788 366.1 857.788 367.32C857.788 368.52 858.848 369.26 860.288 369.26C861.748 369.26 862.808 368.52 862.808 367.32C862.808 366.1 861.748 365.36 860.288 365.36ZM867.088 362.8H869.288V380.62H867.088V362.8ZM854.528 372.28C857.708 372.28 862.148 372.26 865.988 371.66L866.128 373.28C864.588 373.58 863.008 373.76 861.468 373.88V380.06H859.268V374.02C857.648 374.08 856.128 374.1 854.788 374.1L854.528 372.28ZM884.608 362.8H886.808V376.32H884.608V374.74H881.168V373.22H884.608V362.8ZM874.248 375.02H876.448V378.5H887.228V380.26H874.248V375.02ZM871.908 370.82C875.168 370.8 879.528 370.76 883.308 370.3L883.428 371.86C881.988 372.1 880.468 372.26 878.988 372.36V375.78H876.788V372.48C875.148 372.56 873.568 372.58 872.188 372.58L871.908 370.82ZM877.648 363.46C880.268 363.46 882.068 364.72 882.068 366.6C882.068 368.52 880.268 369.76 877.648 369.76C875.048 369.76 873.228 368.52 873.228 366.6C873.228 364.72 875.048 363.46 877.648 363.46ZM877.648 365.06C876.288 365.06 875.328 365.62 875.328 366.6C875.328 367.58 876.288 368.14 877.648 368.14C879.048 368.14 879.968 367.58 879.968 366.6C879.968 365.62 879.048 365.06 877.648 365.06ZM901.989 362.82H904.169V380.62H901.989V362.82ZM889.569 375.68C890.949 375.68 892.529 375.68 894.189 375.64V373.98C892.209 373.66 890.929 372.44 890.929 370.74C890.929 368.74 892.689 367.42 895.289 367.42C897.869 367.42 899.669 368.74 899.669 370.74C899.669 372.44 898.369 373.66 896.389 373.98V375.56C897.949 375.48 899.509 375.36 900.989 375.16L901.129 376.74C897.229 377.46 893.029 377.48 889.829 377.48L889.569 375.68ZM889.909 364.86H894.189V362.86H896.389V364.86H900.669V366.58H889.909V364.86ZM895.289 369.08C893.949 369.08 893.009 369.7 893.009 370.74C893.009 371.78 893.949 372.4 895.289 372.4C896.649 372.4 897.569 371.78 897.569 370.74C897.569 369.7 896.649 369.08 895.289 369.08Z" fill="#6D0CA6"/>
</g>
<line x1="549.5" y1="108" x2="549.5" y2="146" stroke="#71717A"/>
<path d="M274 186V154C274 149.582 277.582 146 282 146H817C821.418 146 825 149.582 825 154V186" stroke="#71717A"/>
<path d="M357 336V304C357 299.582 360.582 296 365 296H825V336" stroke="#71717A"/>
<path d="M824.5 258L824.5 296" stroke="#71717A"/>
<line x1="357.5" y1="372" x2="357.5" y2="556" stroke="#71717A"/>
<line x1="425" y1="555.5" x2="609" y2="555.5" stroke="#71717A" stroke-dasharray="3 3"/>
<line x1="425" y1="371.5" x2="609" y2="371.5" stroke="#71717A" stroke-dasharray="3 3"/>
<g filter="url(#filter1_d_5585_5352)">
<rect x="445" y="36" width="208" height="72" rx="8" fill="#9735D0" shape-rendering="crispEdges"/>
<path d="M528.1 79.16V64.4H533.02C535.38 64.4 537.06 66.06 537.06 68.42C537.06 69.34 536.58 70.4 535.86 71.14L536.38 71.46C537.48 72.18 538.28 73.62 538.28 74.96C538.28 77.42 536.6 79.16 534.22 79.16H528.1ZM534 77.3C535.3 77.3 536.18 76.36 536.18 74.98C536.18 73.48 535.3 72.48 534 72.48H530.22V77.3H534ZM533.06 70.64C534.2 70.58 534.98 69.74 534.98 68.52C534.98 67.16 534.12 66.26 532.84 66.26H530.22V70.64H533.06ZM547.84 77.46C550.96 77.46 553.06 75.18 553.06 71.78C553.06 68.38 550.96 66.1 547.84 66.1C544.72 66.1 542.64 68.38 542.64 71.78C542.64 75.18 544.72 77.46 547.84 77.46ZM547.84 64.24C552.16 64.24 555.2 67.36 555.2 71.78C555.2 76.2 552.16 79.32 547.84 79.32C543.54 79.32 540.5 76.2 540.5 71.78C540.5 67.36 543.54 64.24 547.84 64.24ZM561.891 77.3C565.051 77.3 567.171 75.08 567.171 71.78C567.171 68.48 565.051 66.26 561.891 66.26L559.791 66.28V77.28L561.891 77.3ZM561.911 64.4C566.231 64.4 569.271 67.44 569.271 71.78C569.271 76.12 566.231 79.16 561.911 79.16H557.671V64.4H561.911Z" fill="white"/>
</g>
<rect x="720.5" y="186" width="208" height="72" rx="8" fill="#F5EBFB"/>
<path d="M810.7 229.32C806.42 229.32 803.42 226.2 803.42 221.78C803.42 217.34 806.42 214.24 810.7 214.24C812.72 214.24 814.52 215.1 815.84 216.44L814.44 217.82C813.56 216.78 812.16 216.1 810.68 216.1C807.62 216.1 805.56 218.38 805.56 221.78C805.56 225.18 807.62 227.46 810.68 227.46C812.26 227.46 813.52 226.74 814.36 225.78L815.84 227.12C814.52 228.46 812.82 229.34 810.7 229.32ZM827.803 214.4V216.26H820.383V220.64H826.763V222.48H820.383V227.3H827.803V229.16H818.263V214.4H827.803ZM837.441 227.46C840.561 227.46 842.661 225.18 842.661 221.78C842.661 218.38 840.561 216.1 837.441 216.1C834.321 216.1 832.241 218.38 832.241 221.78C832.241 225.18 834.321 227.46 837.441 227.46ZM837.441 214.24C841.761 214.24 844.801 217.36 844.801 221.78C844.801 226.2 841.761 229.32 837.441 229.32C833.141 229.32 830.101 226.2 830.101 221.78C830.101 217.36 833.141 214.24 837.441 214.24Z" fill="#6D0CA6"/>
<g filter="url(#filter2_d_5585_5352)">
<rect x="170" y="186" width="208" height="72" rx="8" fill="white" shape-rendering="crispEdges"/>
<path d="M210.16 217.52H213.26V212.82H215.46V225.8H213.26V219.3H210.16V217.52ZM203.84 224.7H206.06V228.5H215.9V230.26H203.84V224.7ZM201.24 214.1H210.8V215.86H207.16V216.34C207.16 218.5 208.58 220.72 211.3 221.64L210.22 223.36C208.24 222.68 206.86 221.32 206.08 219.62C205.32 221.5 203.84 223.02 201.74 223.74L200.62 222C203.44 221.04 204.94 218.7 204.94 216.34V215.86H201.24V214.1ZM218.82 213.84H226.92V219.08H221.04V221.1C224.02 221.08 226.1 220.98 228.5 220.54L228.7 222.32C226.1 222.8 223.78 222.88 220.32 222.88H218.86V217.44H224.74V215.58H218.82V213.84ZM229.9 212.82H232.1V215.42H234.56V217.22H232.1V219.18H234.56V220.98H232.1V223.64H229.9V212.82ZM220.34 224.5H232.1V230.62H229.9V226.26H220.34V224.5ZM242.481 221.56C242.481 221.253 242.561 220.967 242.721 220.7C242.894 220.42 243.114 220.2 243.381 220.04C243.661 219.88 243.954 219.8 244.261 219.8C244.581 219.8 244.874 219.88 245.141 220.04C245.408 220.2 245.621 220.42 245.781 220.7C245.941 220.967 246.021 221.253 246.021 221.56C246.021 222.04 245.848 222.453 245.501 222.8C245.154 223.147 244.741 223.32 244.261 223.32C243.954 223.32 243.661 223.24 243.381 223.08C243.114 222.92 242.894 222.707 242.721 222.44C242.561 222.173 242.481 221.88 242.481 221.56ZM264.279 214.4V216.26H256.859V220.64H263.239V222.48H256.859V227.3H264.279V229.16H254.739V214.4H264.279ZM268.436 224.96C269.296 226.64 270.516 227.48 271.796 227.48C273.696 227.5 274.756 226.58 274.756 225.16C274.756 221.8 267.336 223.24 267.336 218.1C267.336 215.66 269.336 214.22 272.076 214.24C273.976 214.26 275.796 215.32 276.616 217.62L274.716 218.3C274.196 216.76 273.156 216.1 272.056 216.08C270.476 216.08 269.456 216.86 269.456 218.1C269.456 221.42 276.856 220.16 276.856 225.18C276.856 227.66 274.916 229.36 271.776 229.32C269.616 229.3 267.896 228.06 266.676 225.94L268.436 224.96ZM293.123 221.42L293.103 222.7C293.103 226.84 290.283 229.26 286.183 229.32C281.883 229.32 278.843 226.2 278.843 221.78C278.843 217.36 281.883 214.26 286.183 214.26C290.803 214.26 292.423 217.82 292.423 217.82L290.603 218.76C290.603 218.76 289.443 216.12 286.183 216.12C283.063 216.12 280.963 218.4 280.963 221.78C280.963 225.18 283.063 227.46 286.183 227.46C288.863 227.38 291.003 226.08 291.023 223.18H286.423V221.42H293.123ZM301.225 213.56C303.905 213.56 305.845 215.1 305.845 217.32C305.845 219.5 303.905 221.06 301.225 221.06C298.565 221.06 296.605 219.5 296.605 217.32C296.605 215.1 298.565 213.56 301.225 213.56ZM301.225 215.36C299.785 215.36 298.725 216.1 298.725 217.32C298.725 218.52 299.785 219.26 301.225 219.26C302.685 219.26 303.745 218.52 303.745 217.32C303.745 216.1 302.685 215.36 301.225 215.36ZM308.025 212.8H310.225V230.62H308.025V212.8ZM295.465 222.28C298.645 222.28 303.085 222.26 306.925 221.66L307.065 223.28C305.525 223.58 303.945 223.76 302.405 223.88V230.06H300.205V224.02C298.585 224.08 297.065 224.1 295.725 224.1L295.465 222.28ZM325.546 212.8H327.746V226.32H325.546V224.74H322.106V223.22H325.546V212.8ZM315.186 225.02H317.386V228.5H328.166V230.26H315.186V225.02ZM312.846 220.82C316.106 220.8 320.466 220.76 324.246 220.3L324.366 221.86C322.926 222.1 321.406 222.26 319.926 222.36V225.78H317.726V222.48C316.086 222.56 314.506 222.58 313.126 222.58L312.846 220.82ZM318.586 213.46C321.206 213.46 323.006 214.72 323.006 216.6C323.006 218.52 321.206 219.76 318.586 219.76C315.986 219.76 314.166 218.52 314.166 216.6C314.166 214.72 315.986 213.46 318.586 213.46ZM318.586 215.06C317.226 215.06 316.266 215.62 316.266 216.6C316.266 217.58 317.226 218.14 318.586 218.14C319.986 218.14 320.906 217.58 320.906 216.6C320.906 215.62 319.986 215.06 318.586 215.06ZM342.926 212.82H345.106V230.62H342.926V212.82ZM330.506 225.68C331.886 225.68 333.466 225.68 335.126 225.64V223.98C333.146 223.66 331.866 222.44 331.866 220.74C331.866 218.74 333.626 217.42 336.226 217.42C338.806 217.42 340.606 218.74 340.606 220.74C340.606 222.44 339.306 223.66 337.326 223.98V225.56C338.886 225.48 340.446 225.36 341.926 225.16L342.066 226.74C338.166 227.46 333.966 227.48 330.766 227.48L330.506 225.68ZM330.846 214.86H335.126V212.86H337.326V214.86H341.606V216.58H330.846V214.86ZM336.226 219.08C334.886 219.08 333.946 219.7 333.946 220.74C333.946 221.78 334.886 222.4 336.226 222.4C337.586 222.4 338.506 221.78 338.506 220.74C338.506 219.7 337.586 219.08 336.226 219.08Z" fill="#6D0CA6"/>
</g>
<rect x="253" y="336" width="208" height="72" rx="8" fill="#F6F6F7"/>
<path d="M304.56 369.5H308.76V367.56H304.76C303.64 370.38 301.06 372.36 297.2 373.46L296.34 371.72C300.5 370.6 302.68 368.48 303 365.82H297.28V364.06H305.38C305.38 364.66 305.34 365.24 305.24 365.8H308.76V362.8H310.96V373.22H308.76V371.26H304.56V369.5ZM305.1 373.44C308.7 373.44 311.06 374.78 311.06 376.98C311.06 379.16 308.7 380.52 305.1 380.52C301.48 380.52 299.14 379.16 299.14 376.98C299.14 374.78 301.48 373.44 305.1 373.44ZM305.1 375.14C302.76 375.14 301.32 375.78 301.32 376.98C301.32 378.16 302.76 378.82 305.1 378.82C307.46 378.82 308.9 378.16 308.9 376.98C308.9 375.78 307.46 375.14 305.1 375.14ZM318.54 363.8C319.98 363.8 321.22 364.34 322.06 365.24H326.24V362.82H328.44V373.28H326.24V371.02H322.04C321.2 371.9 319.96 372.42 318.54 372.42C315.88 372.42 313.88 370.62 313.88 368.12C313.88 365.6 315.88 363.8 318.54 363.8ZM318.54 365.66C317.06 365.66 315.96 366.6 315.96 368.12C315.96 369.6 317.06 370.56 318.54 370.56C320.02 370.56 321.08 369.6 321.08 368.12C321.08 366.6 320.02 365.66 318.54 365.66ZM322.48 373.66C326.18 373.66 328.5 374.94 328.5 377.14C328.5 379.32 326.18 380.6 322.48 380.6C318.76 380.6 316.44 379.32 316.44 377.14C316.44 374.94 318.76 373.66 322.48 373.66ZM322.48 375.36C320 375.36 318.6 375.98 318.6 377.14C318.6 378.28 320 378.9 322.48 378.9C324.96 378.9 326.34 378.28 326.34 377.14C326.34 375.98 324.96 375.36 322.48 375.36ZM323.04 369.24H326.24V367H323.04C323.14 367.36 323.18 367.72 323.18 368.12C323.18 368.52 323.14 368.88 323.04 369.24ZM331.681 364.56H341.661V366.38H337.781V367.86C337.781 370.8 339.501 373.86 342.321 375.06L341.101 376.8C339.041 375.88 337.521 374.02 336.701 371.76C335.901 374.2 334.361 376.26 332.281 377.24L331.021 375.5C333.841 374.2 335.561 370.9 335.561 367.86V366.38H331.681V364.56ZM343.601 362.82H345.801V380.62H343.601V362.82ZM361.221 362.8H363.421V376.32H361.221V374.74H357.781V373.22H361.221V362.8ZM350.861 375.02H353.061V378.5H363.841V380.26H350.861V375.02ZM348.521 370.82C351.781 370.8 356.141 370.76 359.921 370.3L360.041 371.86C358.601 372.1 357.081 372.26 355.601 372.36V375.78H353.401V372.48C351.761 372.56 350.181 372.58 348.801 372.58L348.521 370.82ZM354.261 363.46C356.881 363.46 358.681 364.72 358.681 366.6C358.681 368.52 356.881 369.76 354.261 369.76C351.661 369.76 349.841 368.52 349.841 366.6C349.841 364.72 351.661 363.46 354.261 363.46ZM354.261 365.06C352.901 365.06 351.941 365.62 351.941 366.6C351.941 367.58 352.901 368.14 354.261 368.14C355.661 368.14 356.581 367.58 356.581 366.6C356.581 365.62 355.661 365.06 354.261 365.06ZM368.182 363.48H370.362V365.4H377.922V363.48H380.122V370.68H375.222V372.34H382.182V374.1H366.102V372.34H373.022V370.68H368.182V363.48ZM370.362 367.1V368.96H377.922V367.1H370.362ZM368.102 375.3H370.282V378.5H380.382V380.28H368.102V375.3ZM383.582 373.2H399.702V374.94H392.682V380.62H390.482V374.94H383.582V373.2ZM385.482 363.52H387.662V365.7H395.562V363.52H397.722V371.32H385.482V363.52ZM387.662 367.42V369.56H395.562V367.42H387.662ZM401.483 364.04H411.063V365.82H407.403V366C407.403 368.16 408.783 370.22 411.563 371.1L410.503 372.8C408.523 372.18 407.123 370.92 406.363 369.32C405.583 371.2 404.103 372.68 401.983 373.4L400.883 371.66C403.723 370.7 405.203 368.38 405.203 366V365.82H401.483V364.04ZM412.783 362.82H414.983V367.08H417.463V368.88H414.983V373.44H412.783V362.82ZM409.243 373.82C412.903 373.82 415.183 375.06 415.183 377.2C415.183 379.34 412.903 380.6 409.243 380.6C405.583 380.6 403.283 379.34 403.283 377.2C403.283 375.06 405.583 373.82 409.243 373.82ZM409.243 375.54C406.823 375.54 405.443 376.1 405.443 377.2C405.443 378.3 406.823 378.9 409.243 378.9C411.643 378.9 413.023 378.3 413.023 377.2C413.023 376.1 411.643 375.54 409.243 375.54Z" fill="#15151A"/>
<rect x="253" y="428" width="208" height="72" rx="8" fill="#F6F6F7"/>
<path d="M326.2 454.8H328.4V472.6H326.2V454.8ZM313.78 467.74C318.4 465.52 320.5 462.5 320.88 458.44H314.66V456.66H323.14C323.14 462 321.12 466.48 314.92 469.48L313.78 467.74ZM331.76 456.22H335.86V454.68H338.08V456.22H342.18V457.84H331.76V456.22ZM331.24 464.72C332.62 464.72 334.2 464.72 335.86 464.66V463.6C333.9 463.36 332.64 462.4 332.64 461.02C332.64 459.4 334.38 458.36 336.98 458.36C339.6 458.36 341.34 459.4 341.34 461.02C341.34 462.4 340.08 463.36 338.08 463.62V464.58C339.56 464.5 341.06 464.38 342.46 464.18L342.62 465.68C338.82 466.34 334.64 466.4 331.5 466.4L331.24 464.72ZM333.7 469.28V467.56H345.86V472.62H343.66V469.28H333.7ZM334.72 461.02C334.72 461.76 335.62 462.2 336.98 462.2C338.34 462.2 339.22 461.76 339.22 461.02C339.22 460.24 338.34 459.84 336.98 459.84C335.62 459.84 334.72 460.24 334.72 461.02ZM343.66 466.84V454.82H345.86V466.84H343.66ZM361.841 454.8H363.941V472.6H361.841V463.56H360.061V471.76H358.001V455.14H360.061V461.78H361.841V454.8ZM348.341 467.44C350.941 465.92 351.981 462.84 351.981 459.34V458.52H348.861V456.72H357.001V458.52H354.101V459.34C354.101 462.52 355.181 465.44 357.761 466.8L356.501 468.48C354.841 467.58 353.741 466.04 353.101 464.12C352.501 466.32 351.401 468.08 349.681 469.12L348.341 467.44ZM366.121 464.92H382.241V466.68H375.221V472.64H373.021V466.68H366.121V464.92ZM368.041 462.82V455.74H380.241V462.82H368.041ZM370.201 461.1H378.101V457.48H370.201V461.1ZM396.082 454.82H398.282V463.88H396.082V454.82ZM383.582 462.12C386.442 461.22 387.942 458.94 387.942 456.6V455.26H390.162V456.6C390.162 458.86 391.662 460.98 394.442 461.84L393.382 463.54C391.342 462.9 389.882 461.56 389.082 459.88C388.282 461.7 386.782 463.16 384.642 463.88L383.582 462.12ZM386.562 466.42V464.72H398.282V469.32H388.762V470.74H398.802V472.46H386.602V467.74H396.122V466.42H386.562Z" fill="#15151A"/>
<rect x="253" y="520" width="208" height="72" rx="8" fill="#F6F6F7"/>
<path d="M320.92 548.4V550.26H313.5V554.64H319.88V556.48H313.5V561.3H320.92V563.16H311.38V548.4H320.92ZM325.076 558.96C325.936 560.64 327.156 561.48 328.436 561.48C330.336 561.5 331.396 560.58 331.396 559.16C331.396 555.8 323.976 557.24 323.976 552.1C323.976 549.66 325.976 548.22 328.716 548.24C330.616 548.26 332.436 549.32 333.256 551.62L331.356 552.3C330.836 550.76 329.796 550.1 328.696 550.08C327.116 550.08 326.096 550.86 326.096 552.1C326.096 555.42 333.496 554.16 333.496 559.18C333.496 561.66 331.556 563.36 328.416 563.32C326.256 563.3 324.536 562.06 323.316 559.94L325.076 558.96ZM349.764 555.42C349.764 555.92 349.744 556.5 349.744 556.7C349.744 560.84 346.924 563.26 342.824 563.32C338.524 563.32 335.484 560.2 335.484 555.78C335.484 551.36 338.524 548.26 342.824 548.26C347.444 548.26 349.064 551.82 349.064 551.82L347.244 552.76C347.244 552.76 346.084 550.12 342.824 550.12C339.704 550.12 337.604 552.4 337.604 555.78C337.604 559.18 339.704 561.46 342.824 561.46C345.504 561.38 347.644 560.08 347.664 557.18H343.064V555.42H349.764ZM360.486 553.5H364.686V551.56H360.686C359.566 554.38 356.986 556.36 353.126 557.46L352.266 555.72C356.426 554.6 358.606 552.48 358.926 549.82H353.206V548.06H361.306C361.306 548.66 361.266 549.24 361.166 549.8H364.686V546.8H366.886V557.22H364.686V555.26H360.486V553.5ZM355.066 560.98C355.066 558.78 357.406 557.44 361.026 557.44C364.626 557.44 366.986 558.78 366.986 560.98C366.986 563.16 364.626 564.52 361.026 564.52C357.406 564.52 355.066 563.16 355.066 560.98ZM357.246 560.98C357.246 562.16 358.686 562.82 361.026 562.82C363.386 562.82 364.826 562.16 364.826 560.98C364.826 559.78 363.386 559.14 361.026 559.14C358.686 559.14 357.246 559.78 357.246 560.98ZM374.466 547.8C375.906 547.8 377.146 548.34 377.986 549.24H382.166V546.82H384.366V557.28H382.166V555.02H377.966C377.126 555.9 375.886 556.42 374.466 556.42C371.806 556.42 369.806 554.62 369.806 552.12C369.806 549.6 371.806 547.8 374.466 547.8ZM371.886 552.12C371.886 553.6 372.986 554.56 374.466 554.56C375.946 554.56 377.006 553.6 377.006 552.12C377.006 550.6 375.946 549.66 374.466 549.66C372.986 549.66 371.886 550.6 371.886 552.12ZM372.366 561.14C372.366 558.94 374.686 557.66 378.406 557.66C382.106 557.66 384.426 558.94 384.426 561.14C384.426 563.32 382.106 564.6 378.406 564.6C374.686 564.6 372.366 563.32 372.366 561.14ZM374.526 561.14C374.526 562.28 375.926 562.9 378.406 562.9C380.886 562.9 382.266 562.28 382.266 561.14C382.266 559.98 380.886 559.36 378.406 559.36C375.926 559.36 374.526 559.98 374.526 561.14ZM378.966 553.24H382.166V551H378.966C379.066 551.36 379.106 551.72 379.106 552.12C379.106 552.52 379.066 552.88 378.966 553.24ZM388.047 547.84H396.567V549.6H390.227V551.26H396.067V552.98H390.227V554.76C393.527 554.76 395.567 554.68 397.887 554.3L398.087 556C395.567 556.42 393.347 556.48 389.547 556.48H388.047V547.84ZM390.067 564.4V558.2H401.767V564.4H390.067ZM392.207 562.66H399.607V559.92H392.207V562.66ZM399.567 557.4V546.82H401.767V557.4H399.567Z" fill="#15151A"/>
<g filter="url(#filter3_d_5585_5352)">
<rect x="481" y="520" width="208" height="72" rx="8" fill="white" shape-rendering="crispEdges"/>
<path d="M558.46 546.8H560.66V552.78H563.06V554.58H560.66V560.72H558.46V546.8ZM549.04 559.82H551.26V562.5H561.28V564.26H549.04V559.82ZM546.5 557.16C547.82 557.16 549.36 557.14 550.96 557.1V555.96C549 555.7 547.78 554.74 547.78 553.28C547.78 551.56 549.46 550.54 552.02 550.54C554.6 550.54 556.3 551.56 556.3 553.28C556.3 554.72 555.08 555.68 553.14 555.94V557C554.66 556.9 556.18 556.78 557.58 556.56L557.76 558.08C554.02 558.76 549.82 558.84 546.78 558.86L546.5 557.16ZM546.96 548.36H550.96V546.72H553.14V548.36H557.1V549.96H546.96V548.36ZM552.02 552.04C550.68 552.04 549.86 552.48 549.86 553.28C549.86 554.08 550.68 554.52 552.02 554.52C553.38 554.52 554.22 554.08 554.22 553.28C554.22 552.48 553.38 552.04 552.02 552.04ZM572.54 553.5H576.74V551.56H572.74C571.62 554.38 569.04 556.36 565.18 557.46L564.32 555.72C568.48 554.6 570.66 552.48 570.98 549.82H565.26V548.06H573.36C573.36 548.66 573.32 549.24 573.22 549.8H576.74V546.8H578.94V557.22H576.74V555.26H572.54V553.5ZM573.08 557.44C576.68 557.44 579.04 558.78 579.04 560.98C579.04 563.16 576.68 564.52 573.08 564.52C569.46 564.52 567.12 563.16 567.12 560.98C567.12 558.78 569.46 557.44 573.08 557.44ZM573.08 559.14C570.74 559.14 569.3 559.78 569.3 560.98C569.3 562.16 570.74 562.82 573.08 562.82C575.44 562.82 576.88 562.16 576.88 560.98C576.88 559.78 575.44 559.14 573.08 559.14ZM594.27 563.32C589.99 563.32 586.99 560.2 586.99 555.78C586.99 551.34 589.99 548.24 594.27 548.24C596.29 548.24 598.09 549.1 599.41 550.44L598.01 551.82C597.13 550.78 595.73 550.1 594.25 550.1C591.19 550.1 589.13 552.38 589.13 555.78C589.13 559.18 591.19 561.46 594.25 561.46C595.83 561.46 597.09 560.74 597.93 559.78L599.41 561.12C598.09 562.46 596.39 563.34 594.27 563.32ZM605.743 561.44C607.223 561.44 608.223 560.26 608.223 558.44C608.223 556.64 607.223 555.44 605.743 555.44C604.263 555.44 603.263 556.62 603.263 558.44C603.263 560.26 604.243 561.44 605.743 561.44ZM605.743 553.62C608.443 553.62 610.342 555.62 610.342 558.44C610.342 561.24 608.443 563.26 605.743 563.26C603.043 563.26 601.143 561.24 601.143 558.44C601.143 555.62 603.043 553.62 605.743 553.62ZM622.154 548.4V550.26H614.734V554.64H621.114V556.48H614.734V561.3H622.154V563.16H612.614V548.4H622.154Z" fill="#6D0CA6"/>
</g>
<g filter="url(#filter4_d_5585_5352)">
<rect x="480.5" y="336" width="208" height="72" rx="8" fill="white" shape-rendering="crispEdges"/>
<path d="M510.76 374.96C511.62 376.64 512.84 377.48 514.12 377.48C516.02 377.5 517.08 376.58 517.08 375.16C517.08 371.8 509.66 373.24 509.66 368.1C509.66 365.66 511.66 364.22 514.4 364.24C516.3 364.26 518.12 365.32 518.94 367.62L517.04 368.3C516.52 366.76 515.48 366.1 514.38 366.08C512.8 366.08 511.78 366.86 511.78 368.1C511.78 371.42 519.18 370.16 519.18 375.18C519.18 377.66 517.24 379.36 514.1 379.32C511.94 379.3 510.22 378.06 509 375.94L510.76 374.96ZM533.852 364.4L528.712 379.16H526.232L520.772 364.4H523.032L527.452 376.3L531.592 364.4H533.852ZM548.278 362.82H550.498V374.68H548.278V362.82ZM536.698 364.26H545.178V372.34H536.698V364.26ZM543.058 366.02H538.838V370.58H543.058V366.02ZM543.438 373.72H545.718V374.14C545.718 376.32 547.838 378.3 551.398 378.84L550.558 380.54C547.758 380.06 545.618 378.74 544.558 376.9C543.498 378.74 541.338 380.08 538.538 380.54L537.698 378.84C541.258 378.3 543.438 376.34 543.438 374.14V373.72ZM558.138 363.58C560.458 363.58 562.258 364.9 562.678 366.86H565.838V362.82H568.038V372.36H565.838V368.64H562.698C562.298 370.64 560.478 371.98 558.138 371.98C555.458 371.98 553.478 370.24 553.478 367.78C553.478 365.32 555.458 363.58 558.138 363.58ZM558.138 365.4C556.638 365.4 555.578 366.32 555.578 367.78C555.578 369.22 556.638 370.14 558.138 370.14C559.618 370.14 560.678 369.22 560.678 367.78C560.678 366.32 559.618 365.4 558.138 365.4ZM556.378 373.2H558.578V375.08H565.858V373.2H568.038V380.4H556.378V373.2ZM558.578 376.78V378.64H565.858V376.78H558.578ZM572.139 371.78C572.139 369.18 573.159 365.76 574.599 363.48H576.839C575.199 365.74 574.059 369.16 574.059 371.78C574.059 374.4 575.199 377.82 576.839 380.08H574.599C573.159 377.8 572.139 374.38 572.139 371.78ZM591.725 373.76C591.725 372.4 590.985 371.5 589.905 371.5C588.685 371.5 587.865 372.44 587.865 373.66V379.18H585.725V373.76C585.725 372.4 585.005 371.5 583.945 371.5C582.725 371.5 581.865 372.54 581.865 373.88V379.18H579.745V369.64H581.865V370.94C582.425 370.18 583.245 369.66 584.145 369.66C585.285 369.66 586.405 370.38 586.965 371.38C587.625 370.38 588.905 369.66 590.045 369.66C592.305 369.66 593.865 371.34 593.865 373.68V379.18H591.725V373.76ZM600.797 379.22C598.097 379.22 596.197 377.24 596.197 374.44C596.197 371.62 598.097 369.64 600.797 369.64C603.757 369.64 604.697 372.06 604.757 372.22C605.337 373.58 605.157 375.1 605.157 375.26H598.277C598.517 376.54 599.597 377.42 600.797 377.42C602.377 377.42 603.017 376.5 603.177 376.22L604.877 376.98C604.417 378.06 603.077 379.22 600.797 379.22ZM603.157 373.58C602.957 372.4 602.277 371.44 600.797 371.44C599.517 371.44 598.517 372.34 598.277 373.58H603.157ZM611.715 379.22C609.015 379.22 607.115 377.24 607.115 374.44C607.115 371.62 609.015 369.64 611.715 369.64C614.675 369.64 615.615 372.06 615.675 372.22C616.255 373.58 616.075 375.1 616.075 375.26H609.195C609.435 376.54 610.515 377.42 611.715 377.42C613.295 377.42 613.935 376.5 614.095 376.22L615.795 376.98C615.335 378.06 613.995 379.22 611.715 379.22ZM614.075 373.58C613.875 372.4 613.195 371.44 611.715 371.44C610.435 371.44 609.435 372.34 609.195 373.58H614.075ZM619.125 379.18V371.46H617.325V369.62H619.125V366.28H621.245V369.62H623.505V371.46H621.245V379.18H619.125ZM632.877 375.08C632.877 376.54 633.737 377.44 634.997 377.44C636.337 377.44 637.257 376.56 637.237 375.1V369.64H639.377V379.18H637.237V378.08C636.637 378.82 635.657 379.26 634.717 379.26C632.417 379.26 630.757 377.6 630.757 375.16V369.64H632.877V375.08ZM646.985 377.44C648.525 377.44 649.525 376.24 649.525 374.42C649.525 372.6 648.525 371.4 646.985 371.4C645.545 371.4 644.365 372.74 644.365 374.42C644.365 376.1 645.545 377.44 646.985 377.44ZM647.105 369.62C649.765 369.62 651.645 371.6 651.645 374.42C651.645 377.26 649.765 379.24 647.105 379.24C646.345 379.24 645.105 378.82 644.345 377.82V383.4H642.225V369.62H644.345V371.02C645.105 370.02 646.365 369.62 647.105 369.62ZM658.695 371.78C658.695 374.38 657.695 377.78 656.255 380.08H654.015C655.635 377.84 656.775 374.4 656.775 371.78C656.775 369.16 655.635 365.72 654.015 363.48H656.255C657.695 365.78 658.695 369.18 658.695 371.78Z" fill="#6D0CA6"/>
</g>
<defs>
<filter id="filter0_d_5585_5352" x="715.158" y="331.993" width="218.685" height="82.6849" filterUnits="userSpaceOnUse" color-interpolation-filters="sRGB">
<feFlood flood-opacity="0" result="BackgroundImageFix"/>
<feColorMatrix in="SourceAlpha" type="matrix" values="0 0 0 0 0 0 0 0 0 0 0 0 0 0 0 0 0 0 127 0" result="hardAlpha"/>
<feOffset dy="1.33562"/>
<feGaussianBlur stdDeviation="2.67123"/>
<feComposite in2="hardAlpha" operator="out"/>
<feColorMatrix type="matrix" values="0 0 0 0 0 0 0 0 0 0 0 0 0 0 0 0 0 0 0.1 0"/>
<feBlend mode="normal" in2="BackgroundImageFix" result="effect1_dropShadow_5585_5352"/>
<feBlend mode="normal" in="SourceGraphic" in2="effect1_dropShadow_5585_5352" result="shape"/>
</filter>
<filter id="filter1_d_5585_5352" x="409" y="0" width="280" height="144" filterUnits="userSpaceOnUse" color-interpolation-filters="sRGB">
<feFlood flood-opacity="0" result="BackgroundImageFix"/>
<feColorMatrix in="SourceAlpha" type="matrix" values="0 0 0 0 0 0 0 0 0 0 0 0 0 0 0 0 0 0 127 0" result="hardAlpha"/>
<feOffset/>
<feGaussianBlur stdDeviation="18"/>
<feComposite in2="hardAlpha" operator="out"/>
<feColorMatrix type="matrix" values="0 0 0 0 0.592485 0 0 0 0 0.207569 0 0 0 0 0.816667 0 0 0 0.5 0"/>
<feBlend mode="normal" in2="BackgroundImageFix" result="effect1_dropShadow_5585_5352"/>
<feBlend mode="normal" in="SourceGraphic" in2="effect1_dropShadow_5585_5352" result="shape"/>
</filter>
<filter id="filter2_d_5585_5352" x="164.658" y="181.993" width="218.685" height="82.6849" filterUnits="userSpaceOnUse" color-interpolation-filters="sRGB">
<feFlood flood-opacity="0" result="BackgroundImageFix"/>
<feColorMatrix in="SourceAlpha" type="matrix" values="0 0 0 0 0 0 0 0 0 0 0 0 0 0 0 0 0 0 127 0" result="hardAlpha"/>
<feOffset dy="1.33562"/>
<feGaussianBlur stdDeviation="2.67123"/>
<feComposite in2="hardAlpha" operator="out"/>
<feColorMatrix type="matrix" values="0 0 0 0 0 0 0 0 0 0 0 0 0 0 0 0 0 0 0.1 0"/>
<feBlend mode="normal" in2="BackgroundImageFix" result="effect1_dropShadow_5585_5352"/>
<feBlend mode="normal" in="SourceGraphic" in2="effect1_dropShadow_5585_5352" result="shape"/>
</filter>
<filter id="filter3_d_5585_5352" x="475.658" y="515.993" width="218.685" height="82.6849" filterUnits="userSpaceOnUse" color-interpolation-filters="sRGB">
<feFlood flood-opacity="0" result="BackgroundImageFix"/>
<feColorMatrix in="SourceAlpha" type="matrix" values="0 0 0 0 0 0 0 0 0 0 0 0 0 0 0 0 0 0 127 0" result="hardAlpha"/>
<feOffset dy="1.33562"/>
<feGaussianBlur stdDeviation="2.67123"/>
<feComposite in2="hardAlpha" operator="out"/>
<feColorMatrix type="matrix" values="0 0 0 0 0 0 0 0 0 0 0 0 0 0 0 0 0 0 0.1 0"/>
<feBlend mode="normal" in2="BackgroundImageFix" result="effect1_dropShadow_5585_5352"/>
<feBlend mode="normal" in="SourceGraphic" in2="effect1_dropShadow_5585_5352" result="shape"/>
</filter>
<filter id="filter4_d_5585_5352" x="475.158" y="331.993" width="218.685" height="82.6849" filterUnits="userSpaceOnUse" color-interpolation-filters="sRGB">
<feFlood flood-opacity="0" result="BackgroundImageFix"/>
<feColorMatrix in="SourceAlpha" type="matrix" values="0 0 0 0 0 0 0 0 0 0 0 0 0 0 0 0 0 0 127 0" result="hardAlpha"/>
<feOffset dy="1.33562"/>
<feGaussianBlur stdDeviation="2.67123"/>
<feComposite in2="hardAlpha" operator="out"/>
<feColorMatrix type="matrix" values="0 0 0 0 0 0 0 0 0 0 0 0 0 0 0 0 0 0 0.1 0"/>
<feBlend mode="normal" in2="BackgroundImageFix" result="effect1_dropShadow_5585_5352"/>
<feBlend mode="normal" in="SourceGraphic" in2="effect1_dropShadow_5585_5352" result="shape"/>
</filter>
</defs>
</svg>
