<svg width="72" height="73" viewBox="0 0 72 73" fill="none" xmlns="http://www.w3.org/2000/svg">
<path fill-rule="evenodd" clip-rule="evenodd" d="M14.0413 45.6884L26.6894 58.3365C29.0002 60.6473 30.1555 61.8026 31.5665 61.9674C31.8814 62.0042 32.1996 62.0042 32.5145 61.9674C33.9255 61.8026 35.0809 60.6473 37.3916 58.3365C39.7024 56.0257 40.8578 54.8704 41.0225 53.4594C41.0593 53.1445 41.0593 52.8263 41.0225 52.5114C40.8578 51.1004 39.7024 49.9451 37.3916 47.6343L34.5501 44.7927L26.6174 36.8601L24.7435 34.9862C22.4328 32.6755 21.2774 31.5201 19.8665 31.3553C19.5515 31.3185 19.2334 31.3185 18.9184 31.3553C17.5075 31.5201 16.3521 32.6755 14.0413 34.9862C11.7306 37.297 10.5752 38.4524 10.4104 39.8633C10.3736 40.1782 10.3736 40.4964 10.4104 40.8114C10.5752 42.2223 11.7306 43.3777 14.0413 45.6884ZM36.3601 27.1174L44.2927 35.0501L47.1343 37.8916C49.445 40.2024 50.6004 41.3578 52.0114 41.5226C52.3263 41.5593 52.6445 41.5593 52.9594 41.5226C54.3704 41.3578 55.5257 40.2024 57.8365 37.8916C60.1473 35.5809 61.3026 34.4255 61.4674 33.0146C61.5042 32.6996 61.5042 32.3814 61.4674 32.0665C61.3026 30.6555 60.1473 29.5002 57.8365 27.1894L45.1884 14.5413C42.8777 12.2306 41.7223 11.0752 40.3114 10.9104C39.9964 10.8736 39.6782 10.8736 39.3633 10.9104C37.9523 11.0752 36.797 12.2306 34.4862 14.5413C32.1755 16.8521 31.0201 18.0075 30.8553 19.4184C30.8185 19.7334 30.8185 20.0515 30.8553 20.3665C31.0201 21.7774 32.1755 22.9328 34.4862 25.2436L36.3601 27.1174Z" fill="#6D0CA6"/>
<path d="M34.5576 44.8003L44.3003 35.0576L36.3677 27.125L26.625 36.8677L34.5576 44.8003Z" fill="#CC7DFA"/>
<path fill-rule="evenodd" clip-rule="evenodd" d="M49.962 10.7958C50.7105 10.0472 51.9241 10.0472 52.6726 10.7958L60.6053 18.7284C61.3538 19.4769 61.3538 20.6905 60.6053 21.439C59.8568 22.1876 58.6432 22.1876 57.8946 21.439L49.962 13.5064C49.2135 12.7579 49.2135 11.5443 49.962 10.7958ZM10.2958 50.4586C11.0443 49.7101 12.2579 49.7101 13.0064 50.4586L20.939 58.3912C21.6876 59.1398 21.6876 60.3533 20.939 61.1019C20.1905 61.8504 18.9769 61.8504 18.2284 61.1019L10.2958 53.1692C9.54724 52.4207 9.54724 51.2071 10.2958 50.4586Z" fill="#CC7DFA"/>
</svg>
