<svg width="72" height="73" viewBox="0 0 72 73" fill="none" xmlns="http://www.w3.org/2000/svg">
<ellipse cx="36.0764" cy="35.1849" rx="19.7561" ry="19.3333" fill="#CC7DFA"/>
<ellipse cx="36.0734" cy="34.9401" rx="9.87805" ry="9.66667" fill="#6D0CA6"/>
<path d="M64.6 15.6771C64.0119 14.4858 62.6891 13.7263 61.2476 14.0926C59.8871 14.4383 59.125 15.6185 59.125 16.865V55.9451C59.125 56.8039 59.8859 57.5 60.8245 57.5C61.7631 57.5 62.524 56.8039 62.524 55.9451V38.1291H66.1779C67.778 38.1291 69.0618 36.9103 69.001 35.4465C68.5959 25.6967 66.408 19.3396 64.6 15.6771Z" fill="#CC7DFA"/>
<path fill-rule="evenodd" clip-rule="evenodd" d="M4.5197 14C5.35901 14 6.0394 14.7039 6.0394 15.5723V23.4337C6.0394 24.4423 6.04086 25.0937 6.0841 25.5873C6.12545 26.0592 6.1952 26.2306 6.243 26.3163C6.37638 26.5553 6.56823 26.7538 6.79925 26.8918C6.88205 26.9412 7.04767 27.0134 7.50387 27.0562C7.66991 27.0717 7.85441 27.0821 8.0655 27.0889V15.5723C8.0655 14.7039 8.74589 14 9.5852 14C10.4245 14 11.1049 14.7039 11.1049 15.5723V27.0889C11.3161 27.0821 11.5007 27.0717 11.6669 27.0562C12.1231 27.0134 12.2887 26.9412 12.3715 26.8918C12.6025 26.7538 12.7943 26.5553 12.9277 26.3163C12.9755 26.2306 13.0453 26.0592 13.0866 25.5873C13.1299 25.0937 13.1313 24.4423 13.1313 23.4337V15.5723C13.1313 14.7039 13.8117 14 14.651 14C15.4903 14 16.1707 14.7039 16.1707 15.5723L16.1707 23.5013C16.1708 24.4232 16.1708 25.2185 16.1136 25.8711C16.0532 26.5612 15.9193 27.2445 15.5599 27.8886C15.1598 28.6056 14.5843 29.2011 13.8912 29.615C13.2687 29.9869 12.6082 30.1254 11.9412 30.1879C11.6849 30.2119 11.4057 30.2262 11.1049 30.2347V55.9277C11.1049 56.7961 10.4245 57.5 9.5852 57.5C8.74589 57.5 8.0655 56.7961 8.0655 55.9277V30.2347C7.76477 30.2262 7.48577 30.2119 7.22953 30.1879C6.56252 30.1254 5.90205 29.9869 5.27955 29.615C4.58648 29.2011 4.01095 28.6056 3.61081 27.8886C3.25141 27.2445 3.11756 26.5612 3.05711 25.8711C2.99994 25.2185 2.99997 24.4233 3 23.5013L3 15.5723C3 14.7039 3.6804 14 4.5197 14Z" fill="#CC7DFA"/>
</svg>
