<svg width="72" height="73" viewBox="0 0 72 73" fill="none" xmlns="http://www.w3.org/2000/svg">
<path d="M57.3741 14.7334C56.4029 13.0653 54.6519 11.3918 51.5014 11.0034C51.2415 10.9713 51.009 11.1709 51.0029 11.4328C50.8837 16.5577 54.4066 18.6911 57.3741 18.6483C60.3416 18.6911 63.8646 16.5577 63.7453 11.4328C63.7392 11.1709 63.5068 10.9713 63.2468 11.0034C60.0964 11.3918 58.3454 13.0653 57.3741 14.7334Z" fill="#6D0CA6"/>
<g clip-path="url(#clip0_5957_4193)">
<path d="M63.1875 50.0938H8.8125C7.26164 50.0938 6 51.3554 6 52.9062V54.7812C6 55.299 6.41977 55.7188 6.9375 55.7188H10.6875V64.0625C10.6875 64.5802 11.1073 65 11.625 65C12.1427 65 12.5625 64.5802 12.5625 64.0625V55.7188H14.4375V64.0625C14.4375 64.5802 14.8573 65 15.375 65C15.8927 65 16.3125 64.5802 16.3125 64.0625V55.7188H55.6875V64.0625C55.6875 64.5802 56.1073 65 56.625 65C57.1427 65 57.5625 64.5802 57.5625 64.0625V55.7188H59.4375V64.0625C59.4375 64.5802 59.8573 65 60.375 65C60.8927 65 61.3125 64.5802 61.3125 64.0625V55.7188H65.0625C65.5802 55.7188 66 55.299 66 54.7812V52.9062C66 51.3554 64.7384 50.0938 63.1875 50.0938Z" fill="#6D0CA6"/>
<path d="M8.92992 48.219H50.5315C51.8576 48.219 53.0409 47.6028 53.8151 46.643C53.3592 46.0639 52.9997 45.4077 52.758 44.6956C52.4597 45.647 51.5801 46.3438 50.5317 46.3438H34.5942V38.8438H40.5C40.215 38.266 40.0533 37.6344 40.0312 36.9688H33.6567C33.5154 36.9688 33.3816 36.995 33.2534 37.0341L8.3032 42.4269L8.29945 42.4278C6.96727 42.7212 6 43.9248 6 45.2893C6 46.9048 7.31438 48.219 8.92992 48.219ZM8.70187 44.259L32.719 39.0683V46.344H8.92992C8.34867 46.344 7.87523 45.8705 7.87523 45.2888C7.87523 44.798 8.22258 44.3654 8.70187 44.259Z" fill="#CC7DFA"/>
<path d="M33.7439 47V38L8.24387 43.25C6.44387 44.45 7.49387 46.25 8.24387 47H33.7439Z" fill="#CC7DFA"/>
<path d="M58.9688 47.2812H61.3125C63.897 47.2812 66 45.1784 66 42.5938C66 40.0091 63.897 37.9062 61.3125 37.9062H58.9688C56.3843 37.9062 54.2812 40.0091 54.2812 42.5938C54.2812 45.1784 56.3843 47.2812 58.9688 47.2812Z" fill="#CC7DFA"/>
<path d="M35.144 17.4183C35.1489 17.4218 35.1541 17.4251 35.1595 17.4286C37.3349 18.7882 40.3446 18.301 41.8401 16.133L43.4264 13.8331C44.144 12.7922 44.4046 11.5409 44.1597 10.3097C43.9124 9.06659 43.1824 7.99573 42.1031 7.29237C42.0981 7.28886 42.093 7.28558 42.0876 7.28206C39.8817 5.85472 36.8842 6.4362 35.407 8.57769C35.407 8.57769 33.8214 10.8767 33.8207 10.8776C32.3465 13.0153 32.9906 16.0151 35.144 17.4183Z" fill="#6D0CA6"/>
<path d="M52.7511 40.4893C52.9925 39.7782 53.3516 39.1224 53.8067 38.544C53.123 37.6967 52.1216 37.1157 50.9827 36.9922C50.9572 37.6482 50.7969 38.2709 50.5156 38.8412H50.5248C51.5734 38.8412 52.4527 39.538 52.7511 40.4893Z" fill="#CC7DFA"/>
<path d="M39.2812 20C34.7812 20.75 32.25 17.75 31.5 15.5C30 15.5 28.8965 16.4522 28.0312 17.75C26.0312 20.75 21.7313 27.05 20.5312 28.25C19.3312 29.45 19.0312 31.75 19.0312 32.75V38L33.2812 35V32L35.5312 29L41.5312 35.75C41.5312 37.5 42.2812 40.25 46.7812 39.5C51.0899 38.7819 48.7812 36 47.5312 35C45.2812 32 40.6313 25.85 40.0312 25.25C39.4312 24.65 39.2812 24 39.2812 23.75V20Z" fill="#6D0CA6"/>
<path d="M33 25.25L33.75 26.9231L40.5 35.75" stroke="white" stroke-width="1.5" stroke-linecap="round"/>
<path d="M25.2188 33.6875V36.8504L27.0938 36.4449V33.6875C27.0938 33.1698 26.674 32.75 26.1562 32.75C25.6385 32.75 25.2188 33.1698 25.2188 33.6875Z" fill="white"/>
</g>
<defs>
<clipPath id="clip0_5957_4193">
<rect width="60" height="60" fill="white" transform="translate(6 6.5)"/>
</clipPath>
</defs>
</svg>
