<svg width="72" height="73" viewBox="0 0 72 73" fill="none" xmlns="http://www.w3.org/2000/svg">
<path d="M7.5 23.1945C7.5 33.1878 18.051 43.7571 25.7745 50.1553C29.271 53.0518 31.0193 54.5 33.75 54.5C36.4808 54.5 38.229 53.0518 41.7255 50.1553C49.449 43.7572 60 33.1879 60 23.1944C60 7.4315 45.5621 0.267031 33.75 13.1634C21.9379 0.267031 7.5 7.43199 7.5 23.1945Z" fill="#CC7DFA"/>
<path d="M16.5 27.6154H20.9722L24.8056 20L31.1944 36.5L35.0278 28.8846L37.5833 32.6923L41.4167 24.4423L44.4833 30.4211L46.5278 27.582L51 27.6154" stroke="white" stroke-width="2.625" stroke-linecap="round" stroke-linejoin="round"/>
<circle cx="14.2625" cy="14.2625" r="14.2625" transform="matrix(1 0 0 -1 39 65.0234)" fill="#6D0CA6"/>
<path fill-rule="evenodd" clip-rule="evenodd" d="M59.4696 46.0456C60.1768 46.7731 60.1768 47.9527 59.4696 48.6802L52.8842 55.4544C52.177 56.1819 51.0303 56.1819 50.3231 55.4544L47.0304 52.0673C46.3232 51.3398 46.3232 50.1602 47.0304 49.4327C47.7377 48.7052 48.8843 48.7052 49.5915 49.4327L51.6037 51.5026L56.9085 46.0456C57.6157 45.3181 58.7623 45.3181 59.4696 46.0456Z" fill="white"/>
</svg>
