<svg width="72" height="73" viewBox="0 0 72 73" fill="none" xmlns="http://www.w3.org/2000/svg">
<path d="M4.49638 16.8906H8.40625" stroke="#CC7DFA" stroke-width="3.5" stroke-linecap="round" stroke-linejoin="round"/>
<path d="M23.0152 32.3041L32.3672 22.9609" stroke="#6D0CA6" stroke-width="3" stroke-linecap="round" stroke-linejoin="round"/>
<path d="M23.0152 22.9609L32.3672 32.3041" stroke="#6D0CA6" stroke-width="3" stroke-linecap="round" stroke-linejoin="round"/>
<path d="M8.48438 38.3672H4.56569" stroke="#CC7DFA" stroke-width="3.5" stroke-linecap="round" stroke-linejoin="round"/>
<path d="M8.40962 12.9273H6.6396V8.56829C6.6396 7.46753 7.52901 6.57812 8.62977 6.57812H46.751C47.8518 6.57812 48.75 7.46753 48.75 8.56829V29.6499C46.2579 31.9395 42.4097 33.3572 38.1828 33.5069C39.1602 31.7722 39.7238 29.7644 39.7238 27.6245C39.7238 20.9848 34.3433 15.5955 27.6948 15.5955C21.0463 15.5955 15.6658 20.976 15.6658 27.6245C15.6658 34.2731 21.0463 39.6536 27.6948 39.6536C30.3718 39.6536 32.8287 38.7729 34.8277 37.2935V48.6797H8.63857C7.53782 48.6797 6.64841 47.7903 6.64841 46.6896V42.3306H8.49767C10.6904 42.3306 12.4604 40.5606 12.4604 38.3679C12.4604 36.1752 10.6904 34.4052 8.49767 34.4052H6.64841V20.8615H8.41842C10.6111 20.8615 12.3811 19.0915 12.3811 16.8988C12.3811 14.7061 10.6111 12.9361 8.41842 12.9361L8.40962 12.9273Z" fill="#6D0CA6"/>
<path d="M51.4231 29.9297C54.2498 33.6458 59.7271 36.1644 66.0234 36.1644V50.8616C66.0234 55.3175 63.6458 59.4387 59.7888 61.6666L51.4231 66.5011L43.0485 61.649C39.1915 59.4211 36.8227 55.2998 36.8227 50.8528V36.1644C43.119 36.1644 48.5963 33.6458 51.4231 29.9297Z" fill="#CC7DFA"/>
<path fill-rule="evenodd" clip-rule="evenodd" d="M58.2709 43.1041C59.0764 43.9095 59.0764 45.2155 58.2709 46.0209L50.7709 53.5209C49.9654 54.3264 48.6595 54.3264 47.8541 53.5209L44.1041 49.7709C43.2986 48.9655 43.2986 47.6595 44.1041 46.8541C44.9095 46.0486 46.2155 46.0486 47.0209 46.8541L49.3125 49.1457L55.3541 43.1041C56.1595 42.2986 57.4654 42.2986 58.2709 43.1041Z" fill="#6D0CA6"/>
</svg>
