<svg width="72" height="73" viewBox="0 0 72 73" fill="none" xmlns="http://www.w3.org/2000/svg">
<path fill-rule="evenodd" clip-rule="evenodd" d="M47.6263 17.8251C46.91 17.3894 45.972 17.6101 45.5312 18.3181L37.6171 31.0295C37.1763 31.7375 37.3996 32.6647 38.116 33.1004C38.8323 33.5361 39.7703 33.3154 40.2112 32.6073L48.1252 19.896C48.566 19.188 48.3427 18.2608 47.6263 17.8251ZM33.8809 39.9027C33.1646 39.467 32.2265 39.6878 31.7857 40.3958L23.8717 53.1071C23.4308 53.8152 23.6542 54.7423 24.3705 55.1781C25.0868 55.6138 26.0249 55.393 26.4657 54.685L34.3797 41.9736C34.8206 41.2656 34.5972 40.3384 33.8809 39.9027Z" fill="#6D0CA6"/>
<path fill-rule="evenodd" clip-rule="evenodd" d="M24.3705 17.8251C25.0868 17.3894 26.0249 17.6101 26.4657 18.3181L34.3797 31.0295C34.8206 31.7375 34.5972 32.6647 33.8809 33.1004C33.1646 33.5361 32.2265 33.3154 31.7857 32.6073L23.8717 19.896C23.4308 19.188 23.6542 18.2608 24.3705 17.8251ZM38.116 39.9027C38.8323 39.467 39.7703 39.6878 40.2112 40.3958L48.1252 53.1071C48.566 53.8152 48.3427 54.7423 47.6263 55.1781C46.91 55.6138 45.972 55.393 45.5312 54.685L37.6171 41.9736C37.1763 41.2656 37.3996 40.3384 38.116 39.9027Z" fill="#6D0CA6"/>
<path fill-rule="evenodd" clip-rule="evenodd" d="M15.5234 36.5016C15.5234 35.6702 16.2053 34.9963 17.0464 34.9963H30.5836C31.4247 34.9963 32.1065 35.6702 32.1065 36.5016C32.1065 37.3329 31.4247 38.0069 30.5836 38.0069H17.0464C16.2053 38.0069 15.5234 37.3329 15.5234 36.5016Z" fill="#6D0CA6"/>
<path fill-rule="evenodd" clip-rule="evenodd" d="M39.8904 36.5016C39.8904 35.6702 40.5722 34.9963 41.4133 34.9963H54.9505C55.7916 34.9963 56.4734 35.6702 56.4734 36.5016C56.4734 37.3329 55.7916 38.0069 54.9505 38.0069H41.4133C40.5722 38.0069 39.8904 37.3329 39.8904 36.5016Z" fill="#6D0CA6"/>
<path fill-rule="evenodd" clip-rule="evenodd" d="M18.9349 30.9508C18.2065 30.5352 17.9569 29.6145 18.3775 28.8946L20.6781 24.956C21.0986 24.2361 22.03 23.9894 22.7584 24.405C23.4868 24.8207 23.7364 25.7413 23.3159 26.4613L21.0153 30.3999C20.5947 31.1198 19.6633 31.3665 18.9349 30.9508ZM18.9404 42.0617C19.6688 41.646 20.6002 41.8927 21.0208 42.6127L23.3266 46.5602C23.7471 47.2802 23.4976 48.2008 22.7692 48.6165C22.0408 49.0321 21.1093 48.7855 20.6888 48.0655L18.383 44.118C17.9624 43.398 18.212 42.4774 18.9404 42.0617ZM31.0912 53.8832C31.0912 53.0518 31.773 52.3779 32.6141 52.3779H39.3827C40.2238 52.3779 40.9057 53.0518 40.9057 53.8832C40.9057 54.7145 40.2238 55.3885 39.3827 55.3885H32.6141C31.773 55.3885 31.0912 54.7145 31.0912 53.8832ZM31.0912 19.1199C31.0912 18.2886 31.773 17.6146 32.6141 17.6146L39.3827 17.6146C40.2238 17.6146 40.9057 18.2886 40.9057 19.1199C40.9057 19.9513 40.2238 20.6252 39.3827 20.6252L32.6141 20.6252C31.773 20.6252 31.0912 19.9513 31.0912 19.1199ZM49.2436 48.5892C48.5152 48.1736 48.2656 47.2529 48.6862 46.533L50.9834 42.6001C51.404 41.8801 52.3354 41.6334 53.0638 42.0491C53.7922 42.4648 54.0418 43.3854 53.6212 44.1054L51.324 48.0383C50.9034 48.7582 49.972 49.0049 49.2436 48.5892ZM49.2903 24.4938C50.0187 24.0782 50.9501 24.3248 51.3707 25.0448L53.6194 28.8946C54.0399 29.6146 53.7904 30.5352 53.062 30.9509C52.3336 31.3666 51.4022 31.1199 50.9816 30.3999L48.7329 26.5501C48.3123 25.8301 48.5619 24.9095 49.2903 24.4938Z" fill="#6D0CA6"/>
<ellipse cx="23.4031" cy="16.0281" rx="9.45" ry="9.45" fill="#CC7DFA"/>
<path d="M23.4076 10.8594C22.0653 10.8594 20.9989 11.9472 20.9989 13.268C20.9989 14.5888 22.0653 15.6767 23.4076 15.6767C24.7498 15.6767 25.8162 14.5888 25.8162 13.268C25.8162 11.9472 24.7498 10.8594 23.4076 10.8594Z" fill="#6D0CA6"/>
<path d="M23.4063 16.0981C22.2052 16.0981 21.1184 16.5104 20.3256 17.0837C19.5608 17.6368 18.9609 18.4265 18.9609 19.2342C18.9609 20.1551 19.7085 20.6368 20.4739 20.877C21.2623 21.1245 22.3089 21.2064 23.4063 21.2064C24.5037 21.2064 25.5503 21.1245 26.3387 20.877C27.1042 20.6368 27.8517 20.1551 27.8517 19.2342C27.8517 18.4265 27.2518 17.6368 26.487 17.0837C25.6943 16.5104 24.6074 16.0981 23.4063 16.0981Z" fill="#6D0CA6"/>
<ellipse cx="13.95" cy="36.4969" rx="9.45" ry="9.45" fill="#CC7DFA"/>
<path d="M13.9544 31.3203C12.6122 31.3203 11.5458 32.4082 11.5458 33.729C11.5458 35.0498 12.6122 36.1376 13.9544 36.1376C15.2967 36.1376 16.3631 35.0498 16.3631 33.729C16.3631 32.4082 15.2967 31.3203 13.9544 31.3203Z" fill="#6D0CA6"/>
<path d="M13.9532 36.559C12.7521 36.559 11.6652 36.9714 10.8725 37.5447C10.1077 38.0978 9.50781 38.8874 9.50781 39.6951C9.50781 40.616 10.2553 41.0978 11.0208 41.338C11.8092 41.5854 12.8558 41.6673 13.9532 41.6673C15.0506 41.6673 16.0972 41.5854 16.8856 41.338C17.651 41.0978 18.3986 40.616 18.3986 39.6951C18.3986 38.8874 17.7987 38.0978 17.0339 37.5447C16.2411 36.9714 15.1543 36.559 13.9532 36.559Z" fill="#6D0CA6"/>
<ellipse cx="23.4031" cy="56.9734" rx="9.45" ry="9.45" fill="#CC7DFA"/>
<path d="M23.4076 51.8047C22.0653 51.8047 20.9989 52.8925 20.9989 54.2133C20.9989 55.5342 22.0653 56.622 23.4076 56.622C24.7498 56.622 25.8162 55.5342 25.8162 54.2133C25.8162 52.8925 24.7498 51.8047 23.4076 51.8047Z" fill="#6D0CA6"/>
<path d="M23.4063 57.0434C22.2052 57.0434 21.1184 57.4558 20.3256 58.0291C19.5608 58.5821 18.9609 59.3718 18.9609 60.1795C18.9609 61.1004 19.7085 61.5821 20.4739 61.8224C21.2623 62.0698 22.3089 62.1517 23.4063 62.1517C24.5037 62.1517 25.5503 62.0698 26.3387 61.8224C27.1042 61.5821 27.8517 61.1004 27.8517 60.1795C27.8517 59.3718 27.2518 58.5821 26.487 58.0291C25.6943 57.4558 24.6074 57.0434 23.4063 57.0434Z" fill="#6D0CA6"/>
<ellipse cx="48.5984" cy="16.0281" rx="9.45" ry="9.45" fill="#CC7DFA"/>
<path d="M48.6013 10.8516C47.2591 10.8516 46.1927 11.9394 46.1927 13.2602C46.1927 14.581 47.2591 15.6689 48.6013 15.6689C49.9436 15.6689 51.01 14.581 51.01 13.2602C51.01 11.9394 49.9436 10.8516 48.6013 10.8516Z" fill="#6D0CA6"/>
<path d="M48.6016 16.0903C47.4005 16.0903 46.3137 16.5026 45.5209 17.0759C44.7561 17.629 44.1562 18.4187 44.1562 19.2263C44.1562 20.1473 44.9038 20.629 45.6692 20.8692C46.4577 21.1167 47.5042 21.1986 48.6016 21.1986C49.699 21.1986 50.7456 21.1167 51.5341 20.8692C52.2995 20.629 53.047 20.1473 53.047 19.2263C53.047 18.4187 52.4471 17.629 51.6823 17.0759C50.8896 16.5026 49.8027 16.0903 48.6016 16.0903Z" fill="#6D0CA6"/>
<ellipse cx="58.0516" cy="36.4969" rx="9.45" ry="9.45" fill="#CC7DFA"/>
<path d="M58.056 31.3281C56.7137 31.3281 55.6473 32.416 55.6473 33.7368C55.6473 35.0576 56.7137 36.1454 58.056 36.1454C59.3983 36.1454 60.4647 35.0576 60.4647 33.7368C60.4647 32.416 59.3983 31.3281 58.056 31.3281Z" fill="#6D0CA6"/>
<path d="M58.0548 36.5668C56.8537 36.5668 55.7668 36.9792 54.9741 37.5525C54.2093 38.1056 53.6094 38.8952 53.6094 39.7029C53.6094 40.6239 54.3569 41.1056 55.1223 41.3458C55.9108 41.5933 56.9574 41.6751 58.0548 41.6751C59.1521 41.6751 60.1987 41.5933 60.9872 41.3458C61.7526 41.1056 62.5001 40.6239 62.5001 39.7029C62.5001 38.8952 61.9002 38.1056 61.1354 37.5525C60.3427 36.9792 59.2558 36.5668 58.0548 36.5668Z" fill="#6D0CA6"/>
<ellipse cx="48.5984" cy="56.9734" rx="9.45" ry="9.45" fill="#CC7DFA"/>
<path d="M48.6029 51.8047C47.2606 51.8047 46.1942 52.8925 46.1942 54.2133C46.1942 55.5342 47.2606 56.622 48.6029 56.622C49.9451 56.622 51.0115 55.5342 51.0115 54.2133C51.0115 52.8925 49.9451 51.8047 48.6029 51.8047Z" fill="#6D0CA6"/>
<path d="M48.6016 57.0434C47.4005 57.0434 46.3137 57.4558 45.5209 58.0291C44.7561 58.5821 44.1562 59.3718 44.1562 60.1795C44.1562 61.1004 44.9038 61.5821 45.6692 61.8224C46.4577 62.0698 47.5042 62.1517 48.6016 62.1517C49.699 62.1517 50.7456 62.0698 51.5341 61.8224C52.2995 61.5821 53.047 61.1004 53.047 60.1795C53.047 59.3718 52.4471 58.5821 51.6823 58.0291C50.8896 57.4558 49.8027 57.0434 48.6016 57.0434Z" fill="#6D0CA6"/>
</svg>
