<svg width="72" height="73" viewBox="0 0 72 73" fill="none" xmlns="http://www.w3.org/2000/svg">
<path d="M33.4616 11.0859H38.5439C43.3356 11.0859 44.1432 11.0859 45.6318 12.7068C47.1204 14.3277 48.7086 23.1129 48.7086 28.3303V28.3801L41.4767 25.5862C38.0642 23.5602 33.9403 23.5602 30.5278 25.5862L23.2969 28.3794V28.3303C23.2969 23.1129 24.8851 14.3277 26.3737 12.7068C27.8623 11.0859 28.6699 11.0859 33.4616 11.0859Z" fill="#6D0CA6"/>
<path fill-rule="evenodd" clip-rule="evenodd" d="M39.5082 23.1024C37.3191 21.9034 34.6736 21.9034 32.4845 23.1024L20.7614 29.5231C18.4042 30.8142 16.9375 33.2955 16.9375 35.9923V48.1198C16.9375 50.8166 18.4042 53.298 20.7614 54.589L32.4845 61.0098C34.6736 62.2088 37.3191 62.2088 39.5082 61.0098L51.2312 54.589C53.5884 53.298 55.0551 50.8166 55.0551 48.1198V35.9923C55.0551 33.2955 53.5884 30.8142 51.2312 29.5231L39.5082 23.1024ZM35.9968 34.6877C35.3022 34.6877 34.8376 35.5248 33.9085 37.1991L33.6681 37.6323C33.404 38.1081 33.272 38.3459 33.0662 38.5029C32.8603 38.6599 32.6039 38.7181 32.0912 38.8347L31.6244 38.9408C29.82 39.3508 28.9178 39.5559 28.7032 40.2492C28.4886 40.9425 29.1036 41.6649 30.3337 43.1097L30.6519 43.4835C31.0015 43.8941 31.1763 44.0994 31.2549 44.3534C31.3335 44.6073 31.3071 44.8812 31.2543 45.429L31.2061 45.9278C31.0202 47.8555 30.9272 48.8193 31.4891 49.2478C32.0511 49.6763 32.8958 49.2857 34.5852 48.5043L35.0223 48.3022C35.5023 48.0802 35.7424 47.9691 35.9968 47.9691C36.2513 47.9691 36.4913 48.0802 36.9714 48.3022L37.4085 48.5043C39.0979 49.2857 39.9426 49.6763 40.5045 49.2478C41.0665 48.8193 40.9735 47.8555 40.7875 45.9278L40.7394 45.429C40.6866 44.8813 40.6601 44.6073 40.7387 44.3534C40.8174 44.0994 40.9921 43.8941 41.3417 43.4835L41.6599 43.1097C42.89 41.6649 43.5051 40.9425 43.2904 40.2492C43.0758 39.5559 42.1736 39.3508 40.3693 38.9408L39.9025 38.8347C39.3897 38.7181 39.1333 38.6599 38.9275 38.5029C38.7216 38.3459 38.5896 38.1081 38.3256 37.6323L38.0852 37.1991C37.156 35.5248 36.6914 34.6877 35.9968 34.6877Z" fill="#CC7DFA"/>
<path fill-rule="evenodd" clip-rule="evenodd" d="M35.9982 31.7344C35.0959 31.7344 34.4923 32.817 33.2853 34.9824L32.973 35.5426C32.63 36.1579 32.4585 36.4655 32.1911 36.6685C31.9237 36.8715 31.5907 36.9469 30.9246 37.0976L30.3182 37.2348C27.9743 37.7651 26.8023 38.0303 26.5235 38.9269C26.2446 39.8236 27.0436 40.7578 28.6415 42.6264L29.055 43.1098C29.509 43.6408 29.7361 43.9063 29.8382 44.2348C29.9404 44.5632 29.906 44.9175 29.8374 45.6259L29.7749 46.2709C29.5333 48.764 29.4125 50.0105 30.1425 50.5647C30.8725 51.1188 31.9698 50.6136 34.1644 49.6031L34.7322 49.3417C35.3558 49.0546 35.6676 48.911 35.9982 48.911C36.3287 48.911 36.6405 49.0546 37.2642 49.3417L37.8319 49.6031C40.0266 50.6136 41.1239 51.1188 41.8538 50.5647C42.5838 50.0105 42.463 48.764 42.2214 46.2709L42.1589 45.6259C42.0903 44.9175 42.056 44.5632 42.1581 44.2348C42.2602 43.9063 42.4873 43.6408 42.9413 43.1099L43.3548 42.6264C44.9527 40.7579 45.7517 39.8235 45.4728 38.9269C45.194 38.0303 44.0221 37.7651 41.6781 37.2348L41.0717 37.0976C40.4057 36.9469 40.0726 36.8715 39.8052 36.6685C39.5378 36.4655 39.3663 36.1579 39.0233 35.5425L38.711 34.9824C37.504 32.817 36.9005 31.7344 35.9982 31.7344Z" fill="#6D0CA6"/>
</svg>
