<svg width="72" height="73" viewBox="0 0 72 73" fill="none" xmlns="http://www.w3.org/2000/svg">
<path d="M17.6367 64.5508H16.8015C13.772 64.5508 12.2573 64.5508 11.3161 63.6097C10.375 62.6685 10.375 61.1538 10.375 58.1243V54.5514C10.375 52.8853 10.375 52.0523 10.8029 51.3083C11.2309 50.5644 11.8765 50.1889 13.1676 49.438C21.6681 44.494 33.7402 41.7109 41.7974 46.5166C42.3388 46.8395 42.8256 47.2292 43.2417 47.6966C45.035 49.7109 44.9043 52.7509 42.8375 54.5548C42.4011 54.9357 41.9359 55.2246 41.4674 55.325C41.8524 55.2804 42.2214 55.2292 42.5734 55.1731C45.502 54.706 47.9603 53.141 50.2108 51.441L56.0178 47.0543C58.0649 45.5079 61.1033 45.5076 63.1508 47.0536C64.9941 48.4455 65.5578 50.7372 64.3924 52.6052C63.0334 54.7835 61.1187 57.5704 59.2802 59.2732C57.439 60.9784 54.698 62.5008 52.4603 63.5809C49.9815 64.7773 47.243 65.4667 44.4576 65.9176C38.8084 66.8321 32.9209 66.6925 27.3291 65.5405C24.1679 64.8892 20.8848 64.5508 17.6367 64.5508Z" fill="#CC7DFA"/>
<path d="M43.0163 17.5033V7.20609C43.0163 6.81382 42.7025 6.5 42.3102 6.5H32.729C32.3367 6.5 32.0229 6.81382 32.0229 7.20609V17.5033H21.7061C21.3138 17.5033 21 17.8171 21 18.2094V27.7906C21 28.1829 21.3138 28.4967 21.7061 28.4967H32.0033V38.7939C32.0033 39.1862 32.3171 39.5 32.7094 39.5H42.2906C42.6829 39.5 42.9967 39.1862 42.9967 38.7939V28.4967H53.2939C53.6862 28.4967 54 28.1829 54 27.7906V18.2094C54 17.8171 53.6862 17.5033 53.2939 17.5033H42.9967H43.0163Z" fill="#6D0CA6"/>
</svg>
