<svg width="72" height="73" viewBox="0 0 72 73" fill="none" xmlns="http://www.w3.org/2000/svg">
<path d="M56.8454 14.6755C56.8405 14.6755 56.8365 14.6715 56.8365 14.6666V11C56.8365 9.34314 55.4934 8 53.8365 8H40.6546C38.9977 8 37.6546 9.34315 37.6546 11V12.3557C37.6546 13.6369 36.616 14.6755 35.3348 14.6755V14.6755C34.0536 14.6755 33.015 15.7141 33.015 16.9953V17.4444C33.015 22.6302 31.5583 27.6426 28.9609 31.9897C28.6673 32.4812 28.5 33.0397 28.5 33.6122V62C28.5 63.6569 29.8431 65 31.5 65H37.2727C38.9296 65 40.2727 63.6569 40.2727 62V58.388C40.2727 56.7312 41.6159 55.388 43.2727 55.388H51.2273C52.8841 55.388 54.2273 56.7312 54.2273 58.388V62C54.2273 63.6569 55.5704 65 57.2273 65H63C64.6569 65 66 63.6569 66 62V17.6755C66 16.0186 64.6569 14.6755 63 14.6755H56.8454V14.6755ZM39.9432 51.5961C39.9432 51.601 39.9393 51.605 39.9344 51.605H38.9637C38.4227 51.605 37.9841 51.1664 37.9841 50.6254V21.1577C37.9841 20.6167 38.4227 20.1781 38.9637 20.1781V20.1781C39.5047 20.1781 39.9432 20.6167 39.9432 21.1577V51.5961V51.5961ZM48.2251 50.6254C48.2251 51.1664 47.7866 51.605 47.2455 51.605V51.605C46.7045 51.605 46.266 51.1664 46.266 50.6254V15.1171C46.266 14.5761 46.7045 14.1376 47.2455 14.1376V14.1376C47.7866 14.1376 48.2251 14.5761 48.2251 15.1171V50.6254ZM56.507 51.5961C56.507 51.601 56.5031 51.605 56.4982 51.605H55.5274C54.9864 51.605 54.5478 51.1664 54.5478 50.6254V21.1577C54.5478 20.6167 54.9864 20.1781 55.5274 20.1781V20.1781C56.0684 20.1781 56.507 20.6167 56.507 21.1577V51.5961V51.5961Z" fill="#CC7DFA"/>
<path d="M61.5 63.5C61.5 61.8431 60.1569 60.5 58.5 60.5H10.5C8.84315 60.5 7.5 61.8431 7.5 63.5V65H61.5V63.5Z" fill="#CC7DFA"/>
<path d="M17.503 8C14.4631 11.1048 9.69936 13.0881 4.5 13.3847V16.091C4.5 25.5444 9.45839 34.3861 17.503 39.3537C25.5477 34.3768 30.5061 25.5351 30.5061 16.091V13.3847C25.3067 13.0881 20.543 11.1141 17.503 8Z" fill="#6D0CA6"/>
<path fill-rule="evenodd" clip-rule="evenodd" d="M24.001 18.7097C24.7082 19.4372 24.7082 20.6167 24.001 21.3442L17.4156 28.1184C16.7084 28.8459 15.5617 28.8459 14.8545 28.1184L11.5618 24.7313C10.8546 24.0038 10.8546 22.8243 11.5618 22.0968C12.2691 21.3693 13.4157 21.3693 14.1229 22.0968L16.1351 24.1666L21.4399 18.7097C22.1471 17.9822 23.2937 17.9822 24.001 18.7097Z" fill="white"/>
</svg>
