<svg width="72" height="73" viewBox="0 0 72 73" fill="none" xmlns="http://www.w3.org/2000/svg">
<path fill-rule="evenodd" clip-rule="evenodd" d="M33.6733 7.64062C19.0197 7.64062 7.14062 19.5197 7.14062 34.1733C7.14062 48.827 19.0197 60.7061 33.6733 60.7061C40.1901 60.7061 46.1581 58.3567 50.7766 54.4586L61.022 64.704C61.9006 65.5826 63.3253 65.5826 64.2039 64.704C65.0826 63.8253 65.0826 62.4007 64.2039 61.522L53.9586 51.2767C57.8566 46.6582 60.2061 40.6901 60.2061 34.1733C60.2061 19.5197 48.327 7.64062 33.6733 7.64062ZM11.6406 34.1733C11.6406 22.005 21.505 12.1406 33.6733 12.1406C45.8417 12.1406 55.7061 22.005 55.7061 34.1733C55.7061 46.3417 45.8417 56.2061 33.6733 56.2061C21.505 56.2061 11.6406 46.3417 11.6406 34.1733Z" fill="#CC7DFA"/>
<path fill-rule="evenodd" clip-rule="evenodd" d="M55.3015 55.8015C56.7659 54.337 59.1403 54.337 60.6048 55.8015L65.2617 60.4584C66.7261 61.9228 66.7261 64.2972 65.2617 65.7617C63.7972 67.2261 61.4228 67.2261 59.9584 65.7617L55.3015 61.1048C53.837 59.6403 53.837 57.2659 55.3015 55.8015Z" fill="#6D0CA6"/>
<path d="M47.7024 42.1299L35.6919 21.2943C34.8283 19.7977 32.6691 19.7977 31.8054 21.2943L19.804 42.1299C18.9403 43.6265 20.0199 45.5018 21.7472 45.5018H45.7591C47.4865 45.5018 48.5661 43.6265 47.7024 42.1299ZM35.0982 40.7054C35.0982 41.4537 34.4954 42.0577 33.7487 42.0577C33.002 42.0577 32.3992 41.4537 32.3992 40.7054V40.0923C32.3992 39.344 33.002 38.7399 33.7487 38.7399C34.4954 38.7399 35.0982 39.344 35.0982 40.0923V40.7054ZM35.0982 34.9623C35.0982 35.7106 34.4954 36.3147 33.7487 36.3147C33.002 36.3147 32.3992 35.7106 32.3992 34.9623V27.4161C32.3992 26.6678 33.002 26.0637 33.7487 26.0637C34.4954 26.0637 35.0982 26.6678 35.0982 27.4161V34.9623Z" fill="#6D0CA6"/>
</svg>
