<svg width="72" height="73" viewBox="0 0 72 73" fill="none" xmlns="http://www.w3.org/2000/svg">
<path d="M16.5 56C16.5 53.5147 18.5147 51.5 21 51.5H64.5V60.5C64.5 62.9853 62.4853 65 60 65H21C18.5147 65 16.5 62.9853 16.5 60.5V56Z" fill="#6D0CA6"/>
<path d="M28.0862 42.5C28.0862 40.0147 30.1009 38 32.5862 38H64.5V51.5H28.0862V42.5Z" fill="#6D0CA6"/>
<path d="M41.3276 29C41.3276 26.5147 43.3423 24.5 45.8276 24.5H60C62.4853 24.5 64.5 26.5147 64.5 29V38H41.3276V29Z" fill="#6D0CA6"/>
<path d="M5.625 15.9282C5.625 20.9872 11.0512 26.3379 15.0233 29.577C16.8215 31.0434 17.7206 31.7766 19.125 31.7766C20.5294 31.7766 21.4285 31.0434 23.2267 29.5771C27.1988 26.338 32.625 20.9873 32.625 15.9281C32.625 7.94813 25.1998 4.32112 19.125 10.8499C13.0502 4.32112 5.625 7.94838 5.625 15.9282Z" fill="#CC7DFA"/>
<path d="M16.5539 17.9333C16.6748 17.7606 16.7752 17.6173 16.8645 17.4946C16.9402 17.6262 17.0245 17.7795 17.1261 17.9642L19.435 22.1621C19.6591 22.5699 19.879 22.9699 20.0997 23.2601C20.3359 23.5707 20.7513 23.9963 21.4169 24.0088C22.0825 24.0213 22.5135 23.6116 22.7612 23.3101C22.9927 23.0284 23.2274 22.637 23.4668 22.2379L23.5415 22.1132C23.8396 21.6164 24.0273 21.3058 24.1934 21.0814C24.3465 20.8747 24.4348 20.8072 24.5008 20.7699C24.5668 20.7325 24.6701 20.6914 24.9261 20.6666C25.204 20.6395 25.5668 20.6384 26.1462 20.6384H27.2281C27.7873 20.6384 28.2406 20.1851 28.2406 19.6259C28.2406 19.0668 27.7873 18.6134 27.2281 18.6134L26.1026 18.6134C25.5799 18.6134 25.1177 18.6134 24.7302 18.6511C24.3102 18.6919 23.9013 18.7822 23.5031 19.0077C23.1048 19.2332 22.817 19.5373 22.5659 19.8765C22.3343 20.1893 22.0965 20.5856 21.8277 21.0338L21.8276 21.0339L21.7634 21.1408C21.6464 21.3359 21.5487 21.4985 21.4614 21.6381C21.3794 21.4954 21.288 21.3292 21.1783 21.1298L18.8705 16.9339C18.6625 16.5554 18.4552 16.1782 18.2449 15.9018C18.0152 15.5998 17.6214 15.2004 16.9902 15.1663C16.3591 15.1323 15.9245 15.4869 15.6637 15.7624C15.4248 16.0146 15.1782 16.3672 14.9306 16.7212L14.5129 17.3178C14.2062 17.7559 14.014 18.0289 13.8476 18.2257C13.6944 18.4069 13.6092 18.4663 13.5464 18.499C13.4835 18.5317 13.3861 18.5675 13.1498 18.589C12.8931 18.6125 12.5592 18.6134 12.0245 18.6134H11.0281C10.4689 18.6134 10.0156 19.0668 10.0156 19.6259C10.0156 20.1851 10.4689 20.6384 11.0281 20.6384L12.0651 20.6384H12.0651C12.547 20.6385 12.9742 20.6385 13.3339 20.6056C13.7242 20.57 14.1048 20.4913 14.4815 20.2951C14.8583 20.099 15.141 19.8323 15.394 19.533C15.6273 19.2572 15.8722 18.9072 16.1485 18.5124L16.5539 17.9333Z" fill="#6D0CA6"/>
</svg>
