<svg width="89" height="36" viewBox="0 0 89 36" fill="none" xmlns="http://www.w3.org/2000/svg">
<g clip-path="url(#clip0_20794_5706)">
<path d="M6.76332 26.4221C5.4846 25.8239 4.43298 25.3427 4.43298 24.3641C4.43298 23.6141 5.03339 23.0717 6.20845 23.0717C6.64528 23.0717 7.00001 23.1221 7.36913 23.1911C7.55908 23.2229 7.76641 23.2523 7.93359 23.2523C8.96364 23.2523 9.54547 22.6379 9.93436 21.4655L10.0961 20.9921C9.92597 20.9231 8.24398 20.1809 6.04786 20.1809C2.55744 20.1809 0.711866 22.4249 0.711866 24.7517C0.711866 25.9271 1.07799 26.7803 1.65563 27.4451C2.39685 28.3121 3.45207 28.8731 4.44017 29.3519C5.87948 30.0647 7.17678 30.5855 7.17678 31.6331C7.17678 32.5613 6.21444 33.0929 4.93273 33.0929C3.17463 33.0929 1.63585 32.0849 1.44351 31.9655L0 34.6733C0.253467 34.8167 2.11343 35.9999 5.17541 35.9999C8.43633 35.9975 10.9021 34.1255 10.9021 31.2509C10.9021 28.3763 8.61549 27.3209 6.76332 26.4221Z" fill="#EA002C"/>
<path d="M19.5156 27.7596L25.4293 20.5032H21.212L16.4986 26.7624H16.4267V20.5032H12.9561V35.8776H13.1592C14.662 35.8776 16.4495 35.1834 16.4495 32.6682V29.1426H16.5214L21.3295 35.6862H25.7469L19.5156 27.7596Z" fill="#EA002C"/>
<path d="M25.6238 4.02832C24.4038 4.25692 22.5912 5.37112 22.5954 7.33612C22.5996 9.12052 24.0587 10.1999 24.0641 12.5369C24.0695 14.2973 23.0963 15.4829 22.0537 16.1399C22.4774 16.1003 22.9393 16.0787 23.4517 16.0787C24.5219 16.0733 25.1642 16.1747 25.2044 16.1825L30.6908 9.44212C29.164 7.16092 27.3885 5.38972 25.6238 4.02832Z" fill="#EA002C"/>
<path d="M30.2332 22.2263C30.9235 21.1493 31.011 19.4369 31.0697 17.6873C31.1332 16.0577 31.476 14.8343 33.6535 14.8289C34.1329 14.8235 34.5949 14.8925 35.4272 14.8877C38.6162 14.8745 40.6997 13.7735 41.994 13.0505C39.3478 11.3621 35.4841 9.63654 30.6892 9.44214C30.377 10.3247 27.949 17.0891 27.7656 17.6315C27.7938 17.6663 28.2156 18.1421 28.7507 19.0727C29.5357 20.3543 29.9522 21.4337 30.2326 22.2263H30.2332Z" fill="#EA002C"/>
<path d="M18.646 16.7064C18.3685 16.7064 18.2331 16.5228 18.1918 16.2042C18.1612 15.885 16.7842 3.3162 16.5841 1.4148C16.5535 1.1358 16.4846 0.6306 16.4834 0.444C16.4834 0.1542 16.6733 0 16.8975 0C17.5494 0 21.0908 0.8298 24.852 3.465C23.7662 3.7734 21.8086 4.9008 21.8128 7.2354C21.826 9.3012 23.3025 10.4394 23.312 12.516C23.3198 15.8874 19.4483 16.704 18.646 16.7064Z" fill="#FF7A00"/>
<path d="M30.5504 23.1276C30.6091 23.2818 30.6631 23.412 30.7206 23.505C30.8045 23.6514 30.9195 23.7175 31.0567 23.7175C31.1442 23.715 31.2533 23.6881 31.3701 23.6353C31.6625 23.4997 43.1141 18.1632 44.844 17.3628C45.0939 17.2434 45.5703 17.0305 45.7231 16.9375C45.8849 16.8469 45.9658 16.7113 45.9658 16.5757C45.9592 16.4959 45.9394 16.4191 45.8981 16.3471C45.6805 15.9985 44.5702 14.8206 42.718 13.5312C41.247 14.3449 38.9484 15.6 35.5335 15.6132C34.6946 15.6132 34.5046 15.5544 33.9324 15.5598C32.2648 15.5676 31.8465 16.2834 31.7824 17.7426C31.7758 18.0216 31.7734 18.3942 31.753 18.8011C31.7027 20.1121 31.5499 21.9145 30.5498 23.1271L30.5504 23.1276Z" fill="#FF7A00"/>
<path d="M55.849 27.8881H52.3125V26.9431H55.136V25.7239H52.3125V24.7771H55.6297V23.5579H51.5718C50.8234 23.5579 50.2158 24.1663 50.2158 24.9169V27.7501C50.2158 28.4989 50.824 29.1085 51.5718 29.1085H55.849V27.8875V27.8881Z" fill="#FF7A00"/>
<path d="M53.4181 35.6922C52.6709 35.6922 52.0615 35.0838 52.0615 34.335V32.2086H59.2203V31.3926H52.0615V30.1008H59.9592C60.7064 30.1008 61.3164 30.7092 61.3164 31.458V33.5022H54.1576V34.3986H61.7202V35.6922H53.4169H53.4181Z" fill="#FF7A00"/>
<path d="M61.3171 23.5579H59.5117V29.3263H61.3171V23.5579Z" fill="#FF7A00"/>
<path d="M57.0706 29.3263V26.9119H56.0771V25.6201H57.0706V23.5579H58.8767V29.3263H57.0706Z" fill="#FF7A00"/>
<path d="M63.7496 28.4976C63.7496 29.2218 64.3363 29.8056 65.0583 29.8056H71.5634V28.5018H65.8463V27.381H70.7311V24.8676C70.7311 24.1434 70.1444 23.5596 69.4224 23.5596H63.749V24.8622H68.6266V26.0766H63.7496V28.4976Z" fill="#FF7A00"/>
<path d="M74.2035 23.5591H72.1074V30.3547H74.2035V23.5591Z" fill="#FF7A00"/>
<path d="M64.7588 32.3329H72.1057V35.6923H72.8895C73.6152 35.6923 74.2024 35.1013 74.2024 34.3771V31.0296L64.7594 31.0291V32.3335L64.7588 32.3329Z" fill="#FF7A00"/>
<path d="M82.8037 25.2079L85.886 29.7667C86.1401 30.1159 86.5338 30.3079 86.9377 30.3133L88.5927 30.3079L83.9248 23.5591H82.3219C81.9229 23.5615 81.5274 23.7511 81.2745 24.1057L77.0039 30.3079H79.3241L82.8037 25.2079Z" fill="#FF7A00"/>
<path d="M89.0012 32.9573H76.5957V34.4273H89.0012V32.9573Z" fill="#FF7A00"/>
<path d="M47.9941 23.5603H45.8975V32.2351H47.9941V23.5603Z" fill="#FF7A00"/>
<path d="M40.2646 31.605H38.168V34.3332C38.168 35.0838 38.7756 35.6922 39.5252 35.6922H48.2354V34.3878H40.264V31.605H40.2646Z" fill="#FF7A00"/>
<path d="M44.3835 26.8308C44.3835 24.9738 42.6835 23.469 40.5863 23.469C38.489 23.469 36.7891 24.9744 36.7891 26.8308C36.7891 28.6872 38.489 30.1926 40.5863 30.1926C42.6835 30.1926 44.3835 28.6872 44.3835 26.8308ZM38.8528 26.8308C38.8528 25.7448 39.6293 24.8646 40.5869 24.8646C41.5444 24.8646 42.321 25.7448 42.321 26.8308C42.321 27.9168 41.5444 28.797 40.5869 28.797C39.6293 28.797 38.8528 27.9168 38.8528 26.8308Z" fill="#FF7A00"/>
</g>
<defs>
<clipPath id="clip0_20794_5706">
<rect width="89" height="36" fill="white"/>
</clipPath>
</defs>
</svg>
