<svg width="105" height="44" viewBox="0 0 105 44" fill="none" xmlns="http://www.w3.org/2000/svg">
<g clip-path="url(#clip0_20729_2714)">
<path d="M8.33206 32.2939C6.75674 31.5628 5.4612 30.9746 5.4612 29.7786C5.4612 28.8619 6.20087 28.199 7.64848 28.199C8.18663 28.199 8.62364 28.2606 9.07838 28.3449C9.31239 28.3838 9.5678 28.4197 9.77376 28.4197C11.0427 28.4197 11.7595 27.6688 12.2386 26.2358L12.4379 25.6572C12.2283 25.5729 10.1561 24.6658 7.45065 24.6658C3.15063 24.6658 0.876981 27.4084 0.876981 30.2523C0.876981 31.6889 1.32802 32.7317 2.03964 33.5442C2.9528 34.6039 4.25277 35.2896 5.47006 35.8748C7.24321 36.746 8.84141 37.3825 8.84141 38.6629C8.84141 39.7974 7.65587 40.4471 6.07686 40.4471C3.91098 40.4471 2.01528 39.2151 1.77832 39.0692L0 42.3787C0.312258 42.554 2.60363 44.0001 6.37583 44.0001C10.3931 43.9972 13.4308 41.7092 13.4308 38.1958C13.4308 34.6824 10.6138 33.3924 8.33206 32.2939Z" fill="#EA002C"/>
<path d="M24.042 33.9285L31.3273 25.0596H26.1318L20.3252 32.7097H20.2366V25.0596H15.9609V43.8505H16.2112C18.0626 43.8505 20.2646 43.002 20.2646 39.9279V35.6188H20.3532L26.2765 43.6166H31.7185L24.042 33.9285Z" fill="#EA002C"/>
<path d="M31.5681 4.92358C30.0651 5.20298 27.8321 6.56478 27.8373 8.96645C27.8424 11.1474 29.6399 12.4667 29.6466 15.323C29.6532 17.4746 28.4544 18.9236 27.1699 19.7267C27.6918 19.6783 28.261 19.6519 28.8921 19.6519C30.2106 19.6453 31.0019 19.7692 31.0514 19.7787L37.8103 11.5405C35.9294 8.75232 33.7421 6.58752 31.5681 4.92358Z" fill="#EA002C"/>
<path d="M37.2469 27.1657C38.0973 25.8493 38.2051 23.7564 38.2775 21.618C38.3557 19.6263 38.778 18.131 41.4606 18.1244C42.0511 18.1178 42.6203 18.2021 43.6456 18.1963C47.5743 18.1801 50.1411 16.8345 51.7356 15.9508C48.4757 13.8872 43.7158 11.7781 37.8087 11.5405C37.4241 12.6193 34.4329 20.8869 34.207 21.5498C34.2417 21.5923 34.7614 22.1739 35.4206 23.3113C36.3877 24.8777 36.9007 26.1969 37.2462 27.1657H37.2469Z" fill="#EA002C"/>
<path d="M22.9708 20.4189C22.629 20.4189 22.4622 20.1945 22.4112 19.8051C22.3736 19.415 20.6772 4.05313 20.4307 1.7292C20.393 1.3882 20.3081 0.770733 20.3066 0.542667C20.3066 0.188467 20.5407 0 20.8167 0C21.6199 0 25.9827 1.0142 30.6163 4.235C29.2787 4.61193 26.867 5.98987 26.8722 8.84327C26.8884 11.3681 28.7074 12.7593 28.7192 15.2973C28.7288 19.4179 23.9593 20.416 22.9708 20.4189Z" fill="#FF7A00"/>
<path d="M37.6375 28.267C37.7098 28.4555 37.7762 28.6146 37.8471 28.7283C37.9505 28.9072 38.0922 28.9879 38.2612 28.9879C38.369 28.985 38.5034 28.952 38.6473 28.8874C39.0076 28.7217 53.1153 22.1994 55.2465 21.2212C55.5543 21.0752 56.1412 20.8149 56.3294 20.7012C56.5287 20.5905 56.6284 20.4248 56.6284 20.259C56.6203 20.1615 56.5959 20.0676 56.545 19.9796C56.277 19.5536 54.9091 18.114 52.6273 16.5381C50.8151 17.5325 47.9833 19.0666 43.7763 19.0828C42.7428 19.0828 42.5088 19.0109 41.8039 19.0175C39.7494 19.027 39.2342 19.9019 39.1552 21.6854C39.1471 22.0264 39.1441 22.4818 39.119 22.979C39.057 24.5813 38.8688 26.7842 37.6367 28.2663L37.6375 28.267Z" fill="#FF7A00"/>
<path d="M62.0345 40.3634V35.3298H64.2107L64.9725 33.3835H62.0345V30.3424C62.0345 30.3424 61.7997 30.3372 61.7916 30.3424C60.6311 30.3424 59.4323 30.8308 59.4323 33.3556V33.3835H57.5078V35.3298H59.4323V41.2588C59.4323 42.9322 60.4311 43.8064 61.8499 43.8064C62.9963 43.8064 64.4727 43.4602 64.4727 41.2023C64.3797 41.2602 63.8275 41.6166 63.2193 41.6166C62.3689 41.6166 62.0345 41.0996 62.0345 40.3626V40.3634Z" fill="#FF7A00"/>
<path d="M68.5835 37.4036C68.5835 36.2457 69.4044 35.1699 70.5478 35.1699C71.8345 35.1699 72.541 36.2765 72.5602 37.4036H68.5835ZM70.5884 33.2302C68.1 33.2302 65.9961 35.2396 65.9961 38.5374C65.9961 41.8352 68.0328 43.8225 71.0779 43.8225C73.4991 43.8225 74.7511 42.7724 74.9062 42.6778C74.9062 42.6778 74.6685 42.292 74.6013 42.1857C74.2647 41.6342 73.8771 41.456 73.449 41.456C72.5904 41.456 72.4797 41.8124 71.3207 41.8124C69.3276 41.8124 68.6374 40.2651 68.5894 39.2392H75.2575V38.4684C75.2575 35.3092 73.4246 33.2295 70.5877 33.2295" fill="#FF7A00"/>
<path d="M46.7811 36.7553V43.5878H49.3663V36.4847C49.508 36.3564 50.4234 35.4859 51.4428 35.4859C52.7708 35.4859 53.4603 36.4422 53.4603 37.6874V43.5878H56.0381V37.0472C56.0381 33.9393 53.6323 33.2507 52.291 33.2507C50.6766 33.2507 49.525 34.2613 49.1869 34.5986C49.0761 34.1821 48.583 33.4766 47.4558 33.4766C47.0594 33.4766 46.5382 33.5947 46.4902 33.6071C46.57 33.9943 46.7818 34.9088 46.7818 36.7561L46.7811 36.7553Z" fill="#FF7A00"/>
<path d="M92.2088 30.3147C92.2088 31.1609 91.4964 31.8481 90.615 31.8481C89.7336 31.8481 89.0234 31.1609 89.0234 30.3147C89.0234 29.4684 89.7373 28.7732 90.615 28.7732C91.4927 28.7732 92.2088 29.4618 92.2088 30.3147Z" fill="#FF7A00"/>
<path d="M91.8933 33.3984H89.334V43.5749H91.8933V33.3984Z" fill="#FF7A00"/>
<path d="M44.7849 30.3147C44.7849 31.1609 44.0726 31.8481 43.1912 31.8481C42.3098 31.8481 41.5996 31.1609 41.5996 30.3147C41.5996 29.4684 42.3134 28.7732 43.1912 28.7732C44.0689 28.7732 44.7849 29.4618 44.7849 30.3147Z" fill="#FF7A00"/>
<path d="M44.4695 33.3984H41.9102V43.5749H44.4695V33.3984Z" fill="#FF7A00"/>
<path d="M79.8588 40.7374V30.1672C79.8588 28.9748 79.0571 28.053 77.8132 28.053H77.2559V41.7751C77.2559 43.0379 78.0443 43.8226 79.4129 43.8226C81.0997 43.8226 81.6046 42.6287 81.6046 41.5082C81.5352 41.5426 81.1787 41.6878 80.8184 41.6878C80.2146 41.6878 79.858 41.3402 79.858 40.7367L79.8588 40.7374Z" fill="#FF7A00"/>
<path d="M85.7552 40.7374V30.1672C85.7552 28.9748 84.9535 28.053 83.7097 28.053H83.1523V41.7751C83.1523 43.0379 83.9407 43.8226 85.3094 43.8226C86.9961 43.8226 87.5011 42.6287 87.5011 41.5082C87.4317 41.5426 87.0751 41.6878 86.7149 41.6878C86.111 41.6878 85.7545 41.3402 85.7545 40.7367L85.7552 40.7374Z" fill="#FF7A00"/>
<path d="M104.998 43.5725L101.387 38.3592L104.922 33.256H101.874L99.4115 36.996C98.7486 35.9634 98.1234 34.9866 97.9315 34.6845C97.4376 33.9321 96.9939 33.1724 95.8682 33.1958C95.7205 33.1995 95.5626 33.2127 95.3935 33.2464C94.7653 33.3616 94.2478 33.63 94.1689 33.6681C94.2087 33.7319 95.9014 36.1138 97.5217 38.4318L93.9629 43.5718H97.0072L99.4817 39.8186L101.955 43.5718H104.997L104.998 43.5725Z" fill="#FF7A00"/>
</g>
<defs>
<clipPath id="clip0_20729_2714">
<rect width="105" height="44" fill="white"/>
</clipPath>
</defs>
</svg>
