<svg width="72" height="72" viewBox="0 0 72 72" fill="none" xmlns="http://www.w3.org/2000/svg">
<rect width="72" height="72" rx="16" fill="#282828"/>
<path d="M32.8 30.5L29.6 25L32.8 19.5H39.2L42.4 25H36L32.8 30.5Z" fill="#F238C4"/>
<path d="M48.8 36L45.6 30.5H39.2L42.4 25H48.8L52 30.5L48.8 36Z" fill="#F238C4"/>
<path d="M42.4 47H48.8L52 41.5L48.8 36H42.4L45.6 41.5L42.4 47Z" fill="#F238C4"/>
<path d="M29.6 47H36L39.2 41.5L42.4 47L39.2 52.5H32.8L29.6 47Z" fill="#F238C4"/>
<path d="M23.2 36H29.6L26.4 30.5L29.6 25H23.2L20 30.5L23.2 36Z" fill="#F238C4"/>
<path d="M23.2 36L20 41.5L23.2 47H29.6L32.8 41.5H26.4L23.2 36Z" fill="#F238C4"/>
</svg>
