<svg width="172" height="120" viewBox="0 0 172 120" fill="none" xmlns="http://www.w3.org/2000/svg">
<g clip-path="url(#clip0_20729_4513)">
<rect x="9" width="154" height="120" fill="white"/>
<g clip-path="url(#clip1_20729_4513)">
<path d="M32.4991 70.9637C30.7031 70.1495 29.2261 69.4945 29.2261 68.1625C29.2261 67.1417 30.0694 66.4034 31.7197 66.4034C32.3333 66.4034 32.8315 66.472 33.3499 66.566C33.6167 66.6092 33.9079 66.6493 34.1427 66.6493C35.5894 66.6493 36.4066 65.813 36.9528 64.2172L37.18 63.5729C36.941 63.479 34.5786 62.4688 31.4942 62.4688C26.5919 62.4688 23.9998 65.5231 23.9998 68.6901C23.9998 70.29 24.514 71.4513 25.3253 72.3561C26.3664 73.5362 27.8484 74.2998 29.2362 74.9515C31.2577 75.9217 33.0797 76.6306 33.0797 78.0565C33.0797 79.3198 31.7282 80.0434 29.928 80.0434C27.4588 80.0434 25.2975 78.6714 25.0274 78.5089L23 82.1945C23.356 82.3897 25.9683 84.0002 30.2688 84.0002C34.8488 83.9969 38.3119 81.4489 38.3119 77.5362C38.3119 73.6236 35.1004 72.1871 32.4991 70.9637Z" fill="#EA002C"/>
<path d="M50.4092 72.784L58.7149 62.9072H52.7917L46.1718 71.4267H46.0708V62.9072H41.1963V83.8335H41.4816C43.5923 83.8335 46.1028 82.8886 46.1028 79.4651V74.6664H46.2038L52.9567 83.573H59.1609L50.4092 72.784Z" fill="#EA002C"/>
<path d="M58.9888 40.4832C57.2753 40.7943 54.7295 42.3109 54.7354 44.9854C54.7413 47.4142 56.7906 48.8834 56.7982 52.0643C56.8057 54.4604 55.439 56.0741 53.9746 56.9684C54.5696 56.9145 55.2185 56.8851 55.938 56.8851C57.4411 56.8777 58.3433 57.0158 58.3997 57.0264L66.1053 47.8519C63.9609 44.747 61.4673 42.3362 58.9888 40.4832Z" fill="#EA002C"/>
<path d="M65.4632 65.2528C66.4327 63.7868 66.5556 61.4561 66.6381 59.0747C66.7273 56.8566 67.2087 55.1914 70.267 55.1841C70.9403 55.1767 71.5892 55.2707 72.7582 55.2641C77.2371 55.2462 80.1633 53.7476 81.9812 52.7635C78.2647 50.4654 72.8381 48.1167 66.1037 47.8521C65.6652 49.0534 62.2551 58.2605 61.9976 58.9987C62.0371 59.0461 62.6296 59.6937 63.3811 60.9604C64.4836 62.7048 65.0685 64.1739 65.4624 65.2528H65.4632Z" fill="#EA002C"/>
<path d="M49.1877 57.7393C48.798 57.7393 48.6078 57.4894 48.5498 57.0557C48.5068 56.6213 46.5729 39.5137 46.2918 36.9257C46.2489 36.546 46.1521 35.8583 46.1504 35.6043C46.1504 35.2099 46.4172 35 46.7319 35C47.6476 35 52.6214 36.1295 57.9041 39.7163C56.3791 40.136 53.6296 41.6705 53.6355 44.8482C53.654 47.66 55.7277 49.2092 55.7412 52.0357C55.7521 56.6245 50.3146 57.736 49.1877 57.7393Z" fill="#FF7A00"/>
<path d="M65.9076 66.4792C65.9901 66.6891 66.0658 66.8663 66.1466 66.9929C66.2644 67.1922 66.426 67.282 66.6187 67.282C66.7416 67.2788 66.8948 67.242 67.0589 67.1701C67.4696 66.9856 83.5532 59.7221 85.9829 58.6327C86.3339 58.4702 87.0029 58.1803 87.2175 58.0537C87.4448 57.9304 87.5584 57.7458 87.5584 57.5612C87.5491 57.4526 87.5213 57.3481 87.4633 57.2501C87.1578 56.7756 85.5983 55.1725 82.997 53.4175C80.9308 54.5249 77.7025 56.2333 72.9063 56.2513C71.728 56.2513 71.4613 56.1713 70.6575 56.1786C68.3154 56.1892 67.7279 57.1635 67.6379 59.1497C67.6286 59.5294 67.6253 60.0366 67.5967 60.5903C67.526 62.3747 67.3114 64.8279 65.9067 66.4784L65.9076 66.4792Z" fill="#FF7A00"/>
<path d="M101.439 72.9586H96.4721V71.6723H100.438V70.0129H96.4721V68.7242H101.131V67.0647H95.4319C94.3807 67.0647 93.5273 67.8928 93.5273 68.9144V72.7707C93.5273 73.7899 94.3816 74.6197 95.4319 74.6197H101.439V72.9578V72.9586Z" fill="#FF7A00"/>
<path d="M98.024 83.581C96.9746 83.581 96.1187 82.7529 96.1187 81.7337V78.8394H106.173V77.7287H96.1187V75.9705H107.211C108.26 75.9705 109.117 76.7986 109.117 77.8178V80.6001H99.0625V81.8202H109.684V83.581H98.0223H98.024Z" fill="#FF7A00"/>
<path d="M109.118 67.0647H106.582V74.9161H109.118V67.0647Z" fill="#FF7A00"/>
<path d="M103.154 74.9161V71.6299H101.759V69.8716H103.154V67.0647H105.691V74.9161H103.154Z" fill="#FF7A00"/>
<path d="M112.535 73.7883C112.535 74.774 113.358 75.5686 114.373 75.5686H123.509V73.794H115.479V72.2685H122.34V68.8475C122.34 67.8618 121.516 67.0671 120.502 67.0671H112.534V68.8401H119.384V70.4931H112.535V73.7883Z" fill="#FF7A00"/>
<path d="M127.217 67.0664H124.273V76.316H127.217V67.0664Z" fill="#FF7A00"/>
<path d="M113.953 79.0085H124.271V83.581H125.372C126.391 83.581 127.216 82.7766 127.216 81.7909V77.2347L113.953 77.2339V79.0093L113.953 79.0085Z" fill="#FF7A00"/>
<path d="M139.296 69.3106L143.625 75.5156C143.982 75.9909 144.535 76.2523 145.102 76.2596L147.426 76.2523L140.87 67.0664H138.619C138.059 67.0697 137.503 67.3277 137.148 67.8104L131.15 76.2523H134.409L139.296 69.3106Z" fill="#FF7A00"/>
<path d="M148 79.8586H130.577V81.8595H148V79.8586Z" fill="#FF7A00"/>
<path d="M90.4066 67.0679H87.4619V78.8752H90.4066V67.0679Z" fill="#FF7A00"/>
<path d="M79.5502 78.0178H76.6055V81.7312C76.6055 82.7529 77.4588 83.581 78.5117 83.581H90.7451V81.8055H79.5494V78.0178H79.5502Z" fill="#FF7A00"/>
<path d="M85.3353 71.5196C85.3353 68.992 82.9477 66.9438 80.0021 66.9438C77.0565 66.9438 74.6689 68.9929 74.6689 71.5196C74.6689 74.0464 77.0565 76.0954 80.0021 76.0954C82.9477 76.0954 85.3353 74.0464 85.3353 71.5196ZM77.5674 71.5196C77.5674 70.0415 78.6581 68.8434 80.003 68.8434C81.3478 68.8434 82.4385 70.0415 82.4385 71.5196C82.4385 72.9978 81.3478 74.1958 80.003 74.1958C78.6581 74.1958 77.5674 72.9978 77.5674 71.5196Z" fill="#FF7A00"/>
</g>
</g>
<defs>
<clipPath id="clip0_20729_4513">
<rect width="172" height="120" rx="8" fill="white"/>
</clipPath>
<clipPath id="clip1_20729_4513">
<rect width="125" height="49" fill="white" transform="translate(23 35)"/>
</clipPath>
</defs>
</svg>
